  0
SECTION
  2
HEADER
  9
$ACADVER
  1
AC1014
  9
$ACADMAINTVER
 70
     9
  9
$DWGCODEPAGE
  3
CNT
  9
$INSBASE
 10
0.0
 20
0.0
 30
0.0
  9
$EXTMIN
 10
1.000000000000000E+20
 20
1.000000000000000E+20
 30
1.000000000000000E+20
  9
$EXTMAX
 10
-1.000000000000000E+20
 20
-1.000000000000000E+20
 30
-1.000000000000000E+20
  9
$LIMMIN
 10
0.0
 20
0.0
  9
$LIMMAX
 10
12.0
 20
9.0
  9
$ORTHOMODE
 70
     0
  9
$REGENMODE
 70
     1
  9
$FILLMODE
 70
     1
  9
$QTEXTMODE
 70
     0
  9
$MIRRTEXT
 70
     1
  9
$DRAGMODE
 70
     2
  9
$LTSCALE
 40
1.0
  9
$OSMODE
 70
    37
  9
$ATTMODE
 70
     1
  9
$TEXTSIZE
 40
0.2
  9
$TRACEWID
 40
0.05
  9
$TEXTSTYLE
  7
STANDARD
  9
$CLAYER
  8
0
  9
$CELTYPE
  6
BYLAYER
  9
$CECOLOR
 62
   256
  9
$CELTSCALE
 40
1.0
  9
$DELOBJ
 70
     1
  9
$DISPSILH
 70
     0
  9
$DIMSCALE
 40
1.0
  9
$DIMASZ
 40
0.18
  9
$DIMEXO
 40
0.0625
  9
$DIMDLI
 40
0.38
  9
$DIMRND
 40
0.0
  9
$DIMDLE
 40
0.0
  9
$DIMEXE
 40
0.18
  9
$DIMTP
 40
0.0
  9
$DIMTM
 40
0.0
  9
$DIMTXT
 40
0.18
  9
$DIMCEN
 40
0.09
  9
$DIMTSZ
 40
0.0
  9
$DIMTOL
 70
     0
  9
$DIMLIM
 70
     0
  9
$DIMTIH
 70
     1
  9
$DIMTOH
 70
     1
  9
$DIMSE1
 70
     0
  9
$DIMSE2
 70
     0
  9
$DIMTAD
 70
     0
  9
$DIMZIN
 70
     0
  9
$DIMBLK
  1

  9
$DIMASO
 70
     1
  9
$DIMSHO
 70
     1
  9
$DIMPOST
  1

  9
$DIMAPOST
  1

  9
$DIMALT
 70
     0
  9
$DIMALTD
 70
     2
  9
$DIMALTF
 40
25.4
  9
$DIMLFAC
 40
1.0
  9
$DIMTOFL
 70
     0
  9
$DIMTVP
 40
0.0
  9
$DIMTIX
 70
     0
  9
$DIMSOXD
 70
     0
  9
$DIMSAH
 70
     0
  9
$DIMBLK1
  1

  9
$DIMBLK2
  1

  9
$DIMSTYLE
  2
STANDARD
  9
$DIMCLRD
 70
     0
  9
$DIMCLRE
 70
     0
  9
$DIMCLRT
 70
     0
  9
$DIMTFAC
 40
1.0
  9
$DIMGAP
 40
0.09
  9
$DIMJUST
 70
     0
  9
$DIMSD1
 70
     0
  9
$DIMSD2
 70
     0
  9
$DIMTOLJ
 70
     1
  9
$DIMTZIN
 70
     0
  9
$DIMALTZ
 70
     0
  9
$DIMALTTZ
 70
     0
  9
$DIMFIT
 70
     3
  9
$DIMUPT
 70
     0
  9
$DIMUNIT
 70
     2
  9
$DIMDEC
 70
     4
  9
$DIMTDEC
 70
     4
  9
$DIMALTU
 70
     2
  9
$DIMALTTD
 70
     2
  9
$DIMTXSTY
  7
STANDARD
  9
$DIMAUNIT
 70
     0
  9
$LUNITS
 70
     2
  9
$LUPREC
 70
     4
  9
$SKETCHINC
 40
0.1
  9
$FILLETRAD
 40
0.0
  9
$AUNITS
 70
     0
  9
$AUPREC
 70
     0
  9
$MENU
  1
.
  9
$ELEVATION
 40
0.0
  9
$PELEVATION
 40
0.0
  9
$THICKNESS
 40
0.0
  9
$LIMCHECK
 70
     0
  9
$CHAMFERA
 40
0.0
  9
$CHAMFERB
 40
0.0
  9
$CHAMFERC
 40
0.0
  9
$CHAMFERD
 40
0.0
  9
$SKPOLY
 70
     0
  9
$TDCREATE
 40
2459796.435632164
  9
$TDUPDATE
 40
2459796.435632199
  9
$TDINDWG
 40
0.0000000116
  9
$TDUSRTIMER
 40
0.0000000116
  9
$USRTIMER
 70
     1
  9
$ANGBASE
 50
0.0
  9
$ANGDIR
 70
     0
  9
$PDMODE
 70
     0
  9
$PDSIZE
 40
0.0
  9
$PLINEWID
 40
0.0
  9
$COORDS
 70
     1
  9
$SPLFRAME
 70
     0
  9
$SPLINETYPE
 70
     6
  9
$SPLINESEGS
 70
     8
  9
$ATTDIA
 70
     0
  9
$ATTREQ
 70
     1
  9
$HANDLING
 70
     1
  9
$HANDSEED
  5
18E
  9
$SURFTAB1
 70
     6
  9
$SURFTAB2
 70
     6
  9
$SURFTYPE
 70
     6
  9
$SURFU
 70
     6
  9
$SURFV
 70
     6
  9
$UCSNAME
  2

  9
$UCSORG
 10
0.0
 20
0.0
 30
0.0
  9
$UCSXDIR
 10
1.0
 20
0.0
 30
0.0
  9
$UCSYDIR
 10
0.0
 20
1.0
 30
0.0
  9
$PUCSNAME
  2

  9
$PUCSORG
 10
0.0
 20
0.0
 30
0.0
  9
$PUCSXDIR
 10
1.0
 20
0.0
 30
0.0
  9
$PUCSYDIR
 10
0.0
 20
1.0
 30
0.0
  9
$USERI1
 70
     0
  9
$USERI2
 70
     0
  9
$USERI3
 70
     0
  9
$USERI4
 70
     0
  9
$USERI5
 70
     0
  9
$USERR1
 40
0.0
  9
$USERR2
 40
0.0
  9
$USERR3
 40
0.0
  9
$USERR4
 40
0.0
  9
$USERR5
 40
0.0
  9
$WORLDVIEW
 70
     1
  9
$SHADEDGE
 70
     3
  9
$SHADEDIF
 70
    70
  9
$TILEMODE
 70
     1
  9
$MAXACTVP
 70
    64
  9
$PINSBASE
 10
0.0
 20
0.0
 30
0.0
  9
$PLIMCHECK
 70
     0
  9
$PEXTMIN
 10
1.000000000000000E+20
 20
1.000000000000000E+20
 30
1.000000000000000E+20
  9
$PEXTMAX
 10
-1.000000000000000E+20
 20
-1.000000000000000E+20
 30
-1.000000000000000E+20
  9
$PLIMMIN
 10
0.0
 20
0.0
  9
$PLIMMAX
 10
12.0
 20
9.0
  9
$UNITMODE
 70
     0
  9
$VISRETAIN
 70
     1
  9
$PLINEGEN
 70
     0
  9
$PSLTSCALE
 70
     1
  9
$TREEDEPTH
 70
  3020
  9
$PICKSTYLE
 70
     1
  9
$CMLSTYLE
  2
STANDARD
  9
$CMLJUST
 70
     0
  9
$CMLSCALE
 40
1.0
  9
$PROXYGRAPHICS
 70
     1
  9
$MEASUREMENT
 70
     0
  0
ENDSEC
  0
SECTION
  2
CLASSES
  0
CLASS
  1
ACDBDICTIONARYWDFLT
  2
AcDbDictionaryWithDefault
  3
ObjectDBX Classes
 90
        0
280
     0
281
     0
  0
CLASS
  1
VISUALSTYLE
  2
AcDbVisualStyle
  3
ObjectDBX Classes
 90
     4095
280
     0
281
     0
  0
CLASS
  1
MATERIAL
  2
AcDbMaterial
  3
ObjectDBX Classes
 90
     1153
280
     0
281
     0
  0
CLASS
  1
SCALE
  2
AcDbScale
  3
ObjectDBX Classes
 90
     1153
280
     0
281
     0
  0
CLASS
  1
TABLESTYLE
  2
AcDbTableStyle
  3
ObjectDBX Classes
 90
     4095
280
     0
281
     0
  0
CLASS
  1
MLEADERSTYLE
  2
AcDbMLeaderStyle
  3
ACDB_MLEADERSTYLE_CLASS
 90
     4095
280
     0
281
     0
  0
CLASS
  1
SUN
  2
AcDbSun
  3
SCENEOE
 90
     1153
280
     0
281
     0
  0
CLASS
  1
DICTIONARYVAR
  2
AcDbDictionaryVar
  3
ObjectDBX Classes
 90
        0
280
     0
281
     0
  0
CLASS
  1
XRECORD
  2
AcDbXrecord
  3
ObjectDBX Classes
 90
        0
280
     0
281
     0
  0
CLASS
  1
LWPOLYLINE
  2
AcDbPolyline
  3
ObjectDBX Classes
 90
        0
280
     0
281
     1
  0
CLASS
  1
HATCH
  2
AcDbHatch
  3
ObjectDBX Classes
 90
        0
280
     0
281
     1
  0
CLASS
  1
ACDBPLACEHOLDER
  2
AcDbPlaceHolder
  3
ObjectDBX Classes
 90
        0
280
     0
281
     0
  0
CLASS
  1
LAYOUT
  2
AcDbLayout
  3
ObjectDBX Classes
 90
        0
280
     0
281
     0
  0
ENDSEC
  0
SECTION
  2
TABLES
  0
TABLE
  2
VPORT
  5
8
102
{ACAD_XDICTIONARY
360
183
102
}
330
0
100
AcDbSymbolTable
 70
     1
  0
VPORT
  5
29
330
8
100
AcDbSymbolTableRecord
100
AcDbViewportTableRecord
  2
*ACTIVE
 70
     0
 10
0.0
 20
0.0
 11
1.0
 21
1.0
 12
0.0
 22
0.0
 13
0.0
 23
0.0
 14
0.5
 24
0.5
 15
0.5
 25
0.5
 16
0.0
 26
0.0
 36
1.0
 17
0.0
 27
0.0
 37
-1000.0
 40
24.83972512130102
 41
1.728787878787879
 42
50.0
 43
39.3907715434246
 44
49.5273433683989
 50
0.0
 51
0.0
 71
     0
 72
   100
 73
     1
 74
     3
 75
     0
 76
     0
 77
     0
 78
     0
  0
ENDTAB
  0
TABLE
  2
LTYPE
  5
5
330
0
100
AcDbSymbolTable
 70
     1
  0
LTYPE
  5
14
330
5
100
AcDbSymbolTableRecord
100
AcDbLinetypeTableRecord
  2
BYBLOCK
 70
     0
  3

 72
    65
 73
     0
 40
0.0
  0
LTYPE
  5
15
330
5
100
AcDbSymbolTableRecord
100
AcDbLinetypeTableRecord
  2
BYLAYER
 70
     0
  3

 72
    65
 73
     0
 40
0.0
  0
LTYPE
  5
16
330
5
100
AcDbSymbolTableRecord
100
AcDbLinetypeTableRecord
  2
CONTINUOUS
 70
     0
  3
Solid line
 72
    65
 73
     0
 40
0.0
  0
ENDTAB
  0
TABLE
  2
LAYER
  5
2
330
0
100
AcDbSymbolTable
 70
     3
  0
LAYER
  5
10
330
2
100
AcDbSymbolTableRecord
100
AcDbLayerTableRecord
  2
0
 70
     0
 62
     7
  6
CONTINUOUS
  0
LAYER
  5
5E
330
2
100
AcDbSymbolTableRecord
100
AcDbLayerTableRecord
  2
PROFILEEDGES
 70
     0
 62
     7
  6
CONTINUOUS
  0
LAYER
  5
5F
330
2
100
AcDbSymbolTableRecord
100
AcDbLayerTableRecord
  2
SECTIONCUTEDGES
 70
     0
 62
     7
  6
CONTINUOUS
  0
ENDTAB
  0
TABLE
  2
STYLE
  5
3
330
0
100
AcDbSymbolTable
 70
     1
  0
STYLE
  5
11
330
3
100
AcDbSymbolTableRecord
100
AcDbTextStyleTableRecord
  2
STANDARD
 70
     0
 40
0.0
 41
1.0
 50
0.0
 71
     0
 42
0.2
  3
txt
  4

  0
ENDTAB
  0
TABLE
  2
VIEW
  5
6
330
0
100
AcDbSymbolTable
 70
     0
  0
ENDTAB
  0
TABLE
  2
UCS
  5
7
330
0
100
AcDbSymbolTable
 70
     0
  0
ENDTAB
  0
TABLE
  2
APPID
  5
9
330
0
100
AcDbSymbolTable
 70
     2
  0
APPID
  5
12
330
9
100
AcDbSymbolTableRecord
100
AcDbRegAppTableRecord
  2
ACAD
 70
     0
  0
APPID
  5
18D
330
9
100
AcDbSymbolTableRecord
100
AcDbRegAppTableRecord
  2
ACAD_MLEADERVER
 70
     0
  0
ENDTAB
  0
TABLE
  2
DIMSTYLE
  5
A
330
0
100
AcDbSymbolTable
 70
     1
  0
DIMSTYLE
105
27
330
A
100
AcDbSymbolTableRecord
100
AcDbDimStyleTableRecord
  2
STANDARD
 70
     0
  3

  4

  5

  6

  7

 40
1.0
 41
0.18
 42
0.0625
 43
0.38
 44
0.18
 45
0.0
 46
0.0
 47
0.0
 48
0.0
140
0.18
141
0.09
142
0.0
143
25.4
144
1.0
145
0.0
146
1.0
147
0.09
 71
     0
 72
     0
 73
     1
 74
     1
 75
     0
 76
     0
 77
     0
 78
     0
170
     0
171
     2
172
     0
173
     0
174
     0
175
     0
176
     0
177
     0
178
     0
270
     2
271
     4
272
     4
273
     2
274
     2
340
11
275
     0
280
     0
281
     0
282
     0
283
     1
284
     0
285
     0
286
     0
287
     3
288
     0
  0
ENDTAB
  0
TABLE
  2
BLOCK_RECORD
  5
1
330
0
100
AcDbSymbolTable
 70
     0
  0
BLOCK_RECORD
  5
1F
330
1
100
AcDbSymbolTableRecord
100
AcDbBlockTableRecord
  2
*MODEL_SPACE
  0
BLOCK_RECORD
  5
1B
330
1
100
AcDbSymbolTableRecord
100
AcDbBlockTableRecord
  2
*PAPER_SPACE
  0
ENDTAB
  0
ENDSEC
  0
SECTION
  2
BLOCKS
  0
BLOCK
  5
20
330
1F
100
AcDbEntity
  8
0
100
AcDbBlockBegin
  2
*MODEL_SPACE
 70
     0
 10
0.0
 20
0.0
 30
0.0
  3
*MODEL_SPACE
  1

  0
ENDBLK
  5
21
330
1F
100
AcDbEntity
  8
0
100
AcDbBlockEnd
  0
BLOCK
  5
1C
330
1B
100
AcDbEntity
 67
     1
  8
0
100
AcDbBlockBegin
  2
*PAPER_SPACE
 70
     0
 10
0.0
 20
0.0
 30
0.0
  3
*PAPER_SPACE
  1

  0
ENDBLK
  5
1D
330
1B
100
AcDbEntity
 67
     1
  8
0
100
AcDbBlockEnd
  0
ENDSEC
  0
SECTION
  2
ENTITIES
  0
LINE
  5
60
330
1F
100
AcDbEntity
  8
0
100
AcDbLine
 10
-3.143054557260094
 20
2.336802431779616
 30
0.0
 11
-2.491163816443514
 21
2.170111704482033
 31
0.0
  0
LINE
  5
61
330
1F
100
AcDbEntity
  8
0
100
AcDbLine
 10
-3.143054557260094
 20
-1.715129086926825
 30
0.0
 11
-3.143054557260094
 21
2.336802431779616
 31
0.0
  0
LINE
  5
62
330
1F
100
AcDbEntity
  8
0
100
AcDbLine
 10
-3.143054557260094
 20
-1.715129086926825
 30
0.0
 11
-3.276923727132764
 21
-1.715129086926825
 31
0.0
  0
LINE
  5
63
330
1F
100
AcDbEntity
  8
0
100
AcDbLine
 10
-3.276923727132764
 20
-1.715129086926825
 30
0.0
 11
-3.276923727132764
 21
2.371171994141098
 31
0.0
  0
LINE
  5
64
330
1F
100
AcDbEntity
  8
0
100
AcDbLine
 10
-3.540922946364576
 20
2.439434907043352
 30
0.0
 11
-3.276923727132764
 21
2.371171994141098
 31
0.0
  0
LINE
  5
65
330
1F
100
AcDbEntity
  8
0
100
AcDbLine
 10
-4.43484905630487
 20
2.644857848833315
 30
0.0
 11
-3.540922946364576
 21
2.439434907043352
 31
0.0
  0
LINE
  5
66
330
1F
100
AcDbEntity
  8
0
100
AcDbLine
 10
-5.251600018165841
 20
2.816649129651812
 30
0.0
 11
-4.43484905630487
 21
2.644857848833315
 31
0.0
  0
LINE
  5
67
330
1F
100
AcDbEntity
  8
0
100
AcDbLine
 10
-5.972269998557487
 20
2.908150512261894
 30
0.0
 11
-5.251600018165841
 21
2.816649129651812
 31
0.0
  0
LINE
  5
68
330
1F
100
AcDbEntity
  8
0
100
AcDbLine
 10
-6.039582727562133
 20
2.913064093538247
 30
0.0
 11
-5.972269998557487
 21
2.908150512261894
 31
0.0
  0
LINE
  5
69
330
1F
100
AcDbEntity
  8
0
100
AcDbLine
 10
-6.489783804076699
 20
2.935907652646215
 30
0.0
 11
-6.039582727562133
 21
2.913064093538247
 31
0.0
  0
LINE
  5
6A
330
1F
100
AcDbEntity
  8
0
100
AcDbLine
 10
-6.489783804076699
 20
-1.12577999918827
 30
0.0
 11
-6.489783804076699
 21
2.935907652646215
 31
0.0
  0
LINE
  5
6B
330
1F
100
AcDbEntity
  8
0
100
AcDbLine
 10
-6.489783804076699
 20
-1.12577999918827
 30
0.0
 11
-6.623652973949368
 21
-1.12577999918827
 31
0.0
  0
LINE
  5
6C
330
1F
100
AcDbEntity
  8
0
100
AcDbLine
 10
-6.623652973949368
 20
-1.12577999918827
 30
0.0
 11
-6.623652973949352
 21
2.941593461022005
 31
0.0
  0
LINE
  5
6D
330
1F
100
AcDbEntity
  8
0
100
AcDbLine
 10
-7.010190277283452
 20
2.942264144287252
 30
0.0
 11
-6.623652973949352
 21
2.941593461022005
 31
0.0
  0
LINE
  5
6E
330
1F
100
AcDbEntity
  8
0
100
AcDbLine
 10
-7.148205191587676
 20
2.945831291234123
 30
0.0
 11
-7.010190277283452
 21
2.942264144287252
 31
0.0
  0
LINE
  5
6F
330
1F
100
AcDbEntity
  8
0
100
AcDbLine
 10
-7.29839000884024
 20
2.934151492606997
 30
0.0
 11
-7.148205191587676
 21
2.945831291234123
 31
0.0
  0
LINE
  5
70
330
1F
100
AcDbEntity
  8
0
100
AcDbLine
 10
-7.709661469117648
 20
2.92298858097821
 30
0.0
 11
-7.29839000884024
 21
2.934151492606997
 31
0.0
  0
LINE
  5
71
330
1F
100
AcDbEntity
  8
0
100
AcDbLine
 10
-7.873075583647075
 20
2.903924648256602
 30
0.0
 11
-7.709661469117648
 21
2.92298858097821
 31
0.0
  0
LINE
  5
72
330
1F
100
AcDbEntity
  8
0
100
AcDbLine
 10
-8.262161583438836
 20
2.883655636211111
 30
0.0
 11
-7.873075583647075
 21
2.903924648256602
 31
0.0
  0
LINE
  5
73
330
1F
100
AcDbEntity
  8
0
100
AcDbLine
 10
-8.461319355947385
 20
2.847574053578729
 30
0.0
 11
-8.262161583438836
 21
2.883655636211111
 31
0.0
  0
LINE
  5
74
330
1F
100
AcDbEntity
  8
0
100
AcDbLine
 10
-8.890334463636794
 20
2.816157768675894
 30
0.0
 11
-8.461319355947385
 21
2.847574053578729
 31
0.0
  0
LINE
  5
75
330
1F
100
AcDbEntity
  8
0
100
AcDbLine
 10
-9.140996359983328
 20
2.783784065486328
 30
0.0
 11
-8.890334463636794
 21
2.816157768675894
 31
0.0
  0
LINE
  5
76
330
1F
100
AcDbEntity
  8
0
100
AcDbLine
 10
-9.592616346959462
 20
2.70960294037484
 30
0.0
 11
-9.140996359983328
 21
2.783784065486328
 31
0.0
  0
LINE
  5
77
330
1F
100
AcDbEntity
  8
0
100
AcDbLine
 10
-9.836513050893304
 20
2.678606042555279
 30
0.0
 11
-9.592616346959462
 21
2.70960294037484
 31
0.0
  0
LINE
  5
78
330
1F
100
AcDbEntity
  8
0
100
AcDbLine
 10
-9.836513050893304
 20
0.0182543001537691
 30
0.0
 11
-9.836513050893304
 21
2.678606042555279
 31
0.0
  0
LINE
  5
79
330
1F
100
AcDbEntity
  8
0
100
AcDbLine
 10
-9.836513050893304
 20
0.0182543001537691
 30
0.0
 11
-9.970382220765972
 21
0.0182543001537691
 31
0.0
  0
LINE
  5
7A
330
1F
100
AcDbEntity
  8
0
100
AcDbLine
 10
-9.970382220765972
 20
0.0182543001537691
 30
0.0
 11
-9.970382220765972
 21
2.647024384429085
 31
0.0
  0
LINE
  5
7B
330
1F
100
AcDbEntity
  8
0
100
AcDbLine
 10
-10.18863596821487
 20
2.595535193577691
 30
0.0
 11
-9.970382220765972
 21
2.647024384429085
 31
0.0
  0
LINE
  5
7C
330
1F
100
AcDbEntity
  8
0
100
AcDbLine
 10
-10.37595925175606
 20
2.564285495410121
 30
0.0
 11
-10.18863596821487
 21
2.595535193577691
 31
0.0
  0
LINE
  5
7D
330
1F
100
AcDbEntity
  8
0
100
AcDbLine
 10
-10.7355434273746
 20
2.435758573546464
 30
0.0
 11
-10.37595925175606
 21
2.564285495410121
 31
0.0
  0
LINE
  5
7E
330
1F
100
AcDbEntity
  8
0
100
AcDbLine
 10
-10.83507855239242
 20
2.398627419165648
 30
0.0
 11
-10.7355434273746
 21
2.435758573546464
 31
0.0
  0
LINE
  5
7F
330
1F
100
AcDbEntity
  8
0
100
AcDbLine
 10
-11.27172442281143
 20
2.250668449679334
 30
0.0
 11
-10.83507855239242
 21
2.398627419165648
 31
0.0
  0
LINE
  5
80
330
1F
100
AcDbEntity
  8
0
100
AcDbLine
 10
-11.30701801638957
 20
2.231206041413948
 30
0.0
 11
-11.27172442281143
 21
2.250668449679334
 31
0.0
  0
LINE
  5
81
330
1F
100
AcDbEntity
  8
0
100
AcDbLine
 10
-11.64353251397877
 20
2.024966210373788
 30
0.0
 11
-11.30701801638957
 21
2.231206041413948
 31
0.0
  0
LINE
  5
82
330
1F
100
AcDbEntity
  8
0
100
AcDbLine
 10
-11.71811813620345
 20
1.973587253940529
 30
0.0
 11
-11.64353251397877
 21
2.024966210373788
 31
0.0
  0
LINE
  5
83
330
1F
100
AcDbEntity
  8
0
100
AcDbLine
 10
-12.00116438200294
 20
1.788159914263145
 30
0.0
 11
-11.71811813620345
 21
1.973587253940529
 31
0.0
  0
LINE
  5
84
330
1F
100
AcDbEntity
  8
0
100
AcDbLine
 10
-12.19120537692051
 20
1.647197837567408
 30
0.0
 11
-12.00116438200294
 21
1.788159914263145
 31
0.0
  0
LINE
  5
85
330
1F
100
AcDbEntity
  8
0
100
AcDbLine
 10
-12.36687538848996
 20
1.5553029581886
 30
0.0
 11
-12.19120537692051
 21
1.647197837567408
 31
0.0
  0
LINE
  5
86
330
1F
100
AcDbEntity
  8
0
100
AcDbLine
 10
-12.71122820006966
 20
1.338137047959508
 30
0.0
 11
-12.36687538848996
 21
1.5553029581886
 31
0.0
  0
LINE
  5
87
330
1F
100
AcDbEntity
  8
0
100
AcDbLine
 10
-12.74931716311393
 20
1.319978731178897
 30
0.0
 11
-12.71122820006966
 21
1.338137047959508
 31
0.0
  0
LINE
  5
88
330
1F
100
AcDbEntity
  8
0
100
AcDbLine
 10
-13.10866857656733
 20
1.095305329685302
 30
0.0
 11
-12.74931716311393
 21
1.319978731178897
 31
0.0
  0
LINE
  5
89
330
1F
100
AcDbEntity
  8
0
100
AcDbLine
 10
-13.1832422977099
 20
1.041877655599666
 30
0.0
 11
-13.10866857656733
 21
1.095305329685302
 31
0.0
  0
LINE
  5
8A
330
1F
100
AcDbEntity
  8
0
100
AcDbLine
 10
-13.1832422977099
 20
0.5539979541883912
 30
0.0
 11
-13.1832422977099
 21
1.041877655599666
 31
0.0
  0
LINE
  5
8B
330
1F
100
AcDbEntity
  8
0
100
AcDbLine
 10
-13.1832422977099
 20
0.5539979541883912
 30
0.0
 11
-13.2867047717527
 21
0.5539979541883912
 31
0.0
  0
LINE
  5
8C
330
1F
100
AcDbEntity
  8
0
100
AcDbLine
 10
-13.26304092149273
 20
0.190667875574814
 30
0.0
 11
-13.2867047717527
 21
0.5539979541883912
 31
0.0
  0
LINE
  5
8D
330
1F
100
AcDbEntity
  8
0
100
AcDbLine
 10
-13.20838170288385
 20
-0.1347835309080331
 30
0.0
 11
-13.26304092149273
 21
0.190667875574814
 31
0.0
  0
LINE
  5
8E
330
1F
100
AcDbEntity
  8
0
100
AcDbLine
 10
-13.16225721148525
 20
-0.3664330428855055
 30
0.0
 11
-13.20838170288385
 21
-0.1347835309080331
 31
0.0
  0
LINE
  5
8F
330
1F
100
AcDbEntity
  8
0
100
AcDbLine
 10
-13.11262196927279
 20
-0.5900372409400236
 30
0.0
 11
-13.16225721148525
 21
-0.3664330428855055
 31
0.0
  0
LINE
  5
90
330
1F
100
AcDbEntity
  8
0
100
AcDbLine
 10
-13.03056853931074
 20
-0.7927083010810728
 30
0.0
 11
-13.11262196927279
 21
-0.5900372409400236
 31
0.0
  0
LINE
  5
91
330
1F
100
AcDbEntity
  8
0
100
AcDbLine
 10
-13.04224234513795
 20
-1.004386556159829
 30
0.0
 11
-13.03056853931074
 21
-0.7927083010810728
 31
0.0
  0
LINE
  5
92
330
1F
100
AcDbEntity
  8
0
100
AcDbLine
 10
-13.04224234513795
 20
-1.480809764840103
 30
0.0
 11
-13.04224234513795
 21
-1.004386556159829
 31
0.0
  0
LINE
  5
93
330
1F
100
AcDbEntity
  8
0
100
AcDbLine
 10
-12.9084123706695
 20
-1.645788125436674
 30
0.0
 11
-13.04224234513795
 21
-1.480809764840103
 31
0.0
  0
LINE
  5
94
330
1F
100
AcDbEntity
  8
0
100
AcDbLine
 10
-12.76468360437338
 20
-1.826845874749209
 30
0.0
 11
-12.9084123706695
 21
-1.645788125436674
 31
0.0
  0
LINE
  5
95
330
1F
100
AcDbEntity
  8
0
100
AcDbLine
 10
-12.72022199586492
 20
-1.893353668847631
 30
0.0
 11
-12.76468360437338
 21
-1.826845874749209
 31
0.0
  0
LINE
  5
96
330
1F
100
AcDbEntity
  8
0
100
AcDbLine
 10
-12.23126619347167
 20
-1.797144131235089
 30
0.0
 11
-12.72022199586492
 21
-1.893353668847631
 31
0.0
  0
LINE
  5
97
330
1F
100
AcDbEntity
  8
0
100
AcDbLine
 10
-12.17391419165211
 20
-1.794082241580757
 30
0.0
 11
-12.23126619347167
 21
-1.797144131235089
 31
0.0
  0
LINE
  5
98
330
1F
100
AcDbEntity
  8
0
100
AcDbLine
 10
-11.87652326283226
 20
-1.754688142012357
 30
0.0
 11
-12.17391419165211
 21
-1.794082241580757
 31
0.0
  0
LINE
  5
99
330
1F
100
AcDbEntity
  8
0
100
AcDbLine
 10
-11.6613536548204
 20
-1.736188281620314
 30
0.0
 11
-11.87652326283226
 21
-1.754688142012357
 31
0.0
  0
LINE
  5
9A
330
1F
100
AcDbEntity
  8
0
100
AcDbLine
 10
-11.5328406380829
 20
-1.744729196383218
 30
0.0
 11
-11.6613536548204
 21
-1.736188281620314
 31
0.0
  0
LINE
  5
9B
330
1F
100
AcDbEntity
  8
0
100
AcDbLine
 10
-11.41584651943237
 20
-1.769757328444913
 30
0.0
 11
-11.5328406380829
 21
-1.744729196383218
 31
0.0
  0
LINE
  5
9C
330
1F
100
AcDbEntity
  8
0
100
AcDbLine
 10
-11.20642454594554
 20
-1.786267033735839
 30
0.0
 11
-11.41584651943237
 21
-1.769757328444913
 31
0.0
  0
LINE
  5
9D
330
1F
100
AcDbEntity
  8
0
100
AcDbLine
 10
-11.0295003981683
 20
-1.819975522935061
 30
0.0
 11
-11.20642454594554
 21
-1.786267033735839
 31
0.0
  0
LINE
  5
9E
330
1F
100
AcDbEntity
  8
0
100
AcDbLine
 10
-10.84238403450664
 20
-1.952577823490987
 30
0.0
 11
-11.0295003981683
 21
-1.819975522935061
 31
0.0
  0
LINE
  5
9F
330
1F
100
AcDbEntity
  8
0
100
AcDbLine
 10
-10.48422096256589
 20
-2.143155947610333
 30
0.0
 11
-10.84238403450664
 21
-1.952577823490987
 31
0.0
  0
LINE
  5
A0
330
1F
100
AcDbEntity
  8
0
100
AcDbLine
 10
-10.25101314224487
 20
-2.374677837983934
 30
0.0
 11
-10.48422096256589
 21
-2.143155947610333
 31
0.0
  0
LINE
  5
A1
330
1F
100
AcDbEntity
  8
0
100
AcDbLine
 10
-10.10075738705422
 20
-2.496767735774144
 30
0.0
 11
-10.25101314224487
 21
-2.374677837983934
 31
0.0
  0
LINE
  5
A2
330
1F
100
AcDbEntity
  8
0
100
AcDbLine
 10
-9.967459909675126
 20
-2.577811640652308
 30
0.0
 11
-10.10075738705422
 21
-2.496767735774144
 31
0.0
  0
LINE
  5
A3
330
1F
100
AcDbEntity
  8
0
100
AcDbLine
 10
-9.757704761332224
 20
-2.736719761647346
 30
0.0
 11
-9.967459909675126
 21
-2.577811640652308
 31
0.0
  0
LINE
  5
A4
330
1F
100
AcDbEntity
  8
0
100
AcDbLine
 10
-9.474696213897458
 20
-2.957108585004894
 30
0.0
 11
-9.757704761332224
 21
-2.736719761647346
 31
0.0
  0
LINE
  5
A5
330
1F
100
AcDbEntity
  8
0
100
AcDbLine
 10
-9.036982351945435
 20
-3.321102160537254
 30
0.0
 11
-9.474696213897458
 21
-2.957108585004894
 31
0.0
  0
LINE
  5
A6
330
1F
100
AcDbEntity
  8
0
100
AcDbLine
 10
-8.593688677973446
 20
-3.685645912872672
 30
0.0
 11
-9.036982351945435
 21
-3.321102160537254
 31
0.0
  0
LINE
  5
A7
330
1F
100
AcDbEntity
  8
0
100
AcDbLine
 10
-8.543534515425966
 20
-3.737840578369704
 30
0.0
 11
-8.593688677973446
 21
-3.685645912872672
 31
0.0
  0
LINE
  5
A8
330
1F
100
AcDbEntity
  8
0
100
AcDbLine
 10
-8.165559231801547
 20
-4.079582060070948
 30
0.0
 11
-8.543534515425966
 21
-3.737840578369704
 31
0.0
  0
LINE
  5
A9
330
1F
100
AcDbEntity
  8
0
100
AcDbLine
 10
-8.105040274279357
 20
-4.139499150445216
 30
0.0
 11
-8.165559231801547
 21
-4.079582060070948
 31
0.0
  0
LINE
  5
AA
330
1F
100
AcDbEntity
  8
0
100
AcDbLine
 10
-7.627523572149555
 20
-4.523860353163932
 30
0.0
 11
-8.105040274279357
 21
-4.139499150445216
 31
0.0
  0
LINE
  5
AB
330
1F
100
AcDbEntity
  8
0
100
AcDbLine
 10
-7.556616611638329
 20
-4.568768179403867
 30
0.0
 11
-7.627523572149555
 21
-4.523860353163932
 31
0.0
  0
LINE
  5
AC
330
1F
100
AcDbEntity
  8
0
100
AcDbLine
 10
-7.093746808262987
 20
-4.827888617494032
 30
0.0
 11
-7.556616611638329
 21
-4.568768179403867
 31
0.0
  0
LINE
  5
AD
330
1F
100
AcDbEntity
  8
0
100
AcDbLine
 10
-7.036293851013918
 20
-4.870777438238237
 30
0.0
 11
-7.093746808262987
 21
-4.827888617494032
 31
0.0
  0
LINE
  5
AE
330
1F
100
AcDbEntity
  8
0
100
AcDbLine
 10
-6.407633893313694
 20
-5.290368510411124
 30
0.0
 11
-7.036293851013918
 21
-4.870777438238237
 31
0.0
  0
LINE
  5
AF
330
1F
100
AcDbEntity
  8
0
100
AcDbLine
 10
-6.346992305034346
 20
-5.32438528219159
 30
0.0
 11
-6.407633893313694
 21
-5.290368510411124
 31
0.0
  0
LINE
  5
B0
330
1F
100
AcDbEntity
  8
0
100
AcDbLine
 10
-6.149681103123804
 20
-5.462982412715176
 30
0.0
 11
-6.346992305034346
 21
-5.32438528219159
 31
0.0
  0
LINE
  5
B1
330
1F
100
AcDbEntity
  8
0
100
AcDbLine
 10
-5.763427059871986
 20
-5.672257879214658
 30
0.0
 11
-6.149681103123804
 21
-5.462982412715176
 31
0.0
  0
LINE
  5
B2
330
1F
100
AcDbEntity
  8
0
100
AcDbLine
 10
-5.446242583351928
 20
-5.827584972990356
 30
0.0
 11
-5.763427059871986
 21
-5.672257879214658
 31
0.0
  0
LINE
  5
B3
330
1F
100
AcDbEntity
  8
0
100
AcDbLine
 10
-5.205959778282146
 20
-5.928681294734303
 30
0.0
 11
-5.446242583351928
 21
-5.827584972990356
 31
0.0
  0
LINE
  5
B4
330
1F
100
AcDbEntity
  8
0
100
AcDbLine
 10
-5.084567203405561
 20
-5.988324497521647
 30
0.0
 11
-5.205959778282146
 21
-5.928681294734303
 31
0.0
  0
LINE
  5
B5
330
1F
100
AcDbEntity
  8
0
100
AcDbLine
 10
-4.619809509588469
 20
-6.080040071608042
 30
0.0
 11
-5.084567203405561
 21
-5.988324497521647
 31
0.0
  0
LINE
  5
B6
330
1F
100
AcDbEntity
  8
0
100
AcDbLine
 10
-4.337420170181092
 20
-6.127108509697336
 30
0.0
 11
-4.619809509588469
 21
-6.080040071608042
 31
0.0
  0
LINE
  5
B7
330
1F
100
AcDbEntity
  8
0
100
AcDbLine
 10
-3.941248247382647
 20
-6.006748796490662
 30
0.0
 11
-4.337420170181092
 21
-6.127108509697336
 31
0.0
  0
LINE
  5
B8
330
1F
100
AcDbEntity
  8
0
100
AcDbLine
 10
-3.737052897245622
 20
-5.887307303322659
 30
0.0
 11
-3.941248247382647
 21
-6.006748796490662
 31
0.0
  0
LINE
  5
B9
330
1F
100
AcDbEntity
  8
0
100
AcDbLine
 10
-3.447280289279515
 20
-5.907291248488399
 30
0.0
 11
-3.737052897245622
 21
-5.887307303322659
 31
0.0
  0
LINE
  5
BA
330
1F
100
AcDbEntity
  8
0
100
AcDbLine
 10
-3.200406316818909
 20
-5.779204094853365
 30
0.0
 11
-3.447280289279515
 21
-5.907291248488399
 31
0.0
  0
LINE
  5
BB
330
1F
100
AcDbEntity
  8
0
100
AcDbLine
 10
-3.023373059504224
 20
-5.792731516716293
 30
0.0
 11
-3.200406316818909
 21
-5.779204094853365
 31
0.0
  0
LINE
  5
BC
330
1F
100
AcDbEntity
  8
0
100
AcDbLine
 10
-2.35491220466091
 20
-5.821305867401716
 30
0.0
 11
-3.023373059504224
 21
-5.792731516716293
 31
0.0
  0
LINE
  5
BD
330
1F
100
AcDbEntity
  8
0
100
AcDbLine
 10
-1.772609470598282
 20
-5.811920427313741
 30
0.0
 11
-2.35491220466091
 21
-5.821305867401716
 31
0.0
  0
LINE
  5
BE
330
1F
100
AcDbEntity
  8
0
100
AcDbLine
 10
-1.497597839913946
 20
-5.786399812270816
 30
0.0
 11
-1.772609470598282
 21
-5.811920427313741
 31
0.0
  0
LINE
  5
BF
330
1F
100
AcDbEntity
  8
0
100
AcDbLine
 10
-0.6783207444001719
 20
-5.738526385272739
 30
0.0
 11
-1.497597839913946
 21
-5.786399812270816
 31
0.0
  0
LINE
  5
C0
330
1F
100
AcDbEntity
  8
0
100
AcDbLine
 10
-0.399624554044654
 20
-5.698032506365941
 30
0.0
 11
-0.6783207444001719
 21
-5.738526385272739
 31
0.0
  0
LINE
  5
C1
330
1F
100
AcDbEntity
  8
0
100
AcDbLine
 10
0.4416435142140088
 20
-5.357759913649337
 30
0.0
 11
-0.399624554044654
 21
-5.698032506365941
 31
0.0
  0
LINE
  5
C2
330
1F
100
AcDbEntity
  8
0
100
AcDbLine
 10
0.6920458822680121
 20
-5.228053895686215
 30
0.0
 11
0.4416435142140088
 21
-5.357759913649337
 31
0.0
  0
LINE
  5
C3
330
1F
100
AcDbEntity
  8
0
100
AcDbLine
 10
1.549627984532766
 20
-4.823651451514164
 30
0.0
 11
0.6920458822680121
 21
-5.228053895686215
 31
0.0
  0
LINE
  5
C4
330
1F
100
AcDbEntity
  8
0
100
AcDbLine
 10
1.725219866858862
 20
-4.695021752508477
 30
0.0
 11
1.549627984532766
 21
-4.823651451514164
 31
0.0
  0
LINE
  5
C5
330
1F
100
AcDbEntity
  8
0
100
AcDbLine
 10
2.529424277237673
 20
-4.36281180093325
 30
0.0
 11
1.725219866858862
 21
-4.695021752508477
 31
0.0
  0
LINE
  5
C6
330
1F
100
AcDbEntity
  8
0
100
AcDbLine
 10
2.660628600534606
 20
-4.300648070301746
 30
0.0
 11
2.529424277237673
 21
-4.36281180093325
 31
0.0
  0
LINE
  5
C7
330
1F
100
AcDbEntity
  8
0
100
AcDbLine
 10
3.301612231824943
 20
-4.096731728036464
 30
0.0
 11
2.660628600534606
 21
-4.300648070301746
 31
0.0
  0
LINE
  5
C8
330
1F
100
AcDbEntity
  8
0
100
AcDbLine
 10
3.521337939266572
 20
-4.001861017622735
 30
0.0
 11
3.301612231824943
 21
-4.096731728036464
 31
0.0
  0
LINE
  5
C9
330
1F
100
AcDbEntity
  8
0
100
AcDbLine
 10
4.414725083275281
 20
-3.735237136250016
 30
0.0
 11
3.521337939266572
 21
-4.001861017622735
 31
0.0
  0
LINE
  5
CA
330
1F
100
AcDbEntity
  8
0
100
AcDbLine
 10
4.743929585549864
 20
-3.679318621565316
 30
0.0
 11
4.414725083275281
 21
-3.735237136250016
 31
0.0
  0
LINE
  5
CB
330
1F
100
AcDbEntity
  8
0
100
AcDbLine
 10
5.535395265834612
 20
-3.486439845956757
 30
0.0
 11
4.743929585549864
 21
-3.679318621565316
 31
0.0
  0
LINE
  5
CC
330
1F
100
AcDbEntity
  8
0
100
AcDbLine
 10
6.305246375530484
 20
-3.237821178208115
 30
0.0
 11
5.535395265834612
 21
-3.486439845956757
 31
0.0
  0
LINE
  5
CD
330
1F
100
AcDbEntity
  8
0
100
AcDbLine
 10
7.065986899257857
 20
-3.025156170070876
 30
0.0
 11
6.305246375530484
 21
-3.237821178208115
 31
0.0
  0
LINE
  5
CE
330
1F
100
AcDbEntity
  8
0
100
AcDbLine
 10
7.68842116050801
 20
-2.843336576425339
 30
0.0
 11
7.065986899257857
 21
-3.025156170070876
 31
0.0
  0
LINE
  5
CF
330
1F
100
AcDbEntity
  8
0
100
AcDbLine
 10
8.424853508351505
 20
-2.649440865634213
 30
0.0
 11
7.68842116050801
 21
-2.843336576425339
 31
0.0
  0
LINE
  5
D0
330
1F
100
AcDbEntity
  8
0
100
AcDbLine
 10
8.866164242427608
 20
-2.554799429551935
 30
0.0
 11
8.424853508351505
 21
-2.649440865634213
 31
0.0
  0
LINE
  5
D1
330
1F
100
AcDbEntity
  8
0
100
AcDbLine
 10
9.928057880335741
 20
-2.42593022778181
 30
0.0
 11
8.866164242427608
 21
-2.554799429551935
 31
0.0
  0
LINE
  5
D2
330
1F
100
AcDbEntity
  8
0
100
AcDbLine
 10
10.79450294698892
 20
-2.239500387244208
 30
0.0
 11
9.928057880335741
 21
-2.42593022778181
 31
0.0
  0
LINE
  5
D3
330
1F
100
AcDbEntity
  8
0
100
AcDbLine
 10
11.02052764126279
 20
-2.165519332599141
 30
0.0
 11
10.79450294698892
 21
-2.239500387244208
 31
0.0
  0
LINE
  5
D4
330
1F
100
AcDbEntity
  8
0
100
AcDbLine
 10
11.63694776529484
 20
-1.944746038848935
 30
0.0
 11
11.02052764126279
 21
-2.165519332599141
 31
0.0
  0
LINE
  5
D5
330
1F
100
AcDbEntity
  8
0
100
AcDbLine
 10
11.95002756591258
 20
-1.738042038419881
 30
0.0
 11
11.63694776529484
 21
-1.944746038848935
 31
0.0
  0
LINE
  5
D6
330
1F
100
AcDbEntity
  8
0
100
AcDbLine
 10
12.46518370902417
 20
-1.430259280863974
 30
0.0
 11
11.95002756591258
 21
-1.738042038419881
 31
0.0
  0
LINE
  5
D7
330
1F
100
AcDbEntity
  8
0
100
AcDbLine
 10
13.02537039673794
 20
-0.9876011689367121
 30
0.0
 11
12.46518370902417
 21
-1.430259280863974
 31
0.0
  0
LINE
  5
D8
330
1F
100
AcDbEntity
  8
0
100
AcDbLine
 10
13.16847997546291
 20
-0.924178706039919
 30
0.0
 11
13.02537039673794
 21
-0.9876011689367121
 31
0.0
  0
LINE
  5
D9
330
1F
100
AcDbEntity
  8
0
100
AcDbLine
 10
13.12764850601725
 20
-0.7233948186719225
 30
0.0
 11
13.16847997546291
 21
-0.924178706039919
 31
0.0
  0
LINE
  5
DA
330
1F
100
AcDbEntity
  8
0
100
AcDbLine
 10
13.2867047717527
 20
0.0144459233303815
 30
0.0
 11
13.12764850601725
 21
-0.7233948186719225
 31
0.0
  0
LINE
  5
DB
330
1F
100
AcDbEntity
  8
0
100
AcDbLine
 10
13.13473771952322
 20
0.4053929117554613
 30
0.0
 11
13.2867047717527
 21
0.0144459233303815
 31
0.0
  0
LINE
  5
DC
330
1F
100
AcDbEntity
  8
0
100
AcDbLine
 10
13.06184912627143
 20
0.6797859649879535
 30
0.0
 11
13.13473771952322
 21
0.4053929117554613
 31
0.0
  0
LINE
  5
DD
330
1F
100
AcDbEntity
  8
0
100
AcDbLine
 10
13.03566239076103
 20
0.8821242529774893
 30
0.0
 11
13.06184912627143
 21
0.6797859649879535
 31
0.0
  0
LINE
  5
DE
330
1F
100
AcDbEntity
  8
0
100
AcDbLine
 10
13.03754670017117
 20
1.043441308003483
 30
0.0
 11
13.03566239076103
 21
0.8821242529774893
 31
0.0
  0
LINE
  5
DF
330
1F
100
AcDbEntity
  8
0
100
AcDbLine
 10
13.04795162973384
 20
1.190539354863946
 30
0.0
 11
13.03754670017117
 21
1.043441308003483
 31
0.0
  0
LINE
  5
E0
330
1F
100
AcDbEntity
  8
0
100
AcDbLine
 10
13.05660857893104
 20
1.360891157639326
 30
0.0
 11
13.04795162973384
 21
1.190539354863946
 31
0.0
  0
LINE
  5
E1
330
1F
100
AcDbEntity
  8
0
100
AcDbLine
 10
13.08119634396911
 20
1.547904532764045
 30
0.0
 11
13.05660857893104
 21
1.360891157639326
 31
0.0
  0
LINE
  5
E2
330
1F
100
AcDbEntity
  8
0
100
AcDbLine
 10
13.1119769406728
 20
1.74799112496693
 30
0.0
 11
13.08119634396911
 21
1.547904532764045
 31
0.0
  0
LINE
  5
E3
330
1F
100
AcDbEntity
  8
0
100
AcDbLine
 10
13.15240098044099
 20
1.969014361030681
 30
0.0
 11
13.1119769406728
 21
1.74799112496693
 31
0.0
  0
LINE
  5
E4
330
1F
100
AcDbEntity
  8
0
100
AcDbLine
 10
13.17890772314052
 20
2.264845643261527
 30
0.0
 11
13.15240098044099
 21
1.969014361030681
 31
0.0
  0
LINE
  5
E5
330
1F
100
AcDbEntity
  8
0
100
AcDbLine
 10
13.17837405427776
 20
2.637680352526725
 30
0.0
 11
13.17890772314052
 21
2.264845643261527
 31
0.0
  0
LINE
  5
E6
330
1F
100
AcDbEntity
  8
0
100
AcDbLine
 10
13.12846508098637
 20
3.081345092673267
 30
0.0
 11
13.17837405427776
 21
2.637680352526725
 31
0.0
  0
LINE
  5
E7
330
1F
100
AcDbEntity
  8
0
100
AcDbLine
 10
12.9984936412408
 20
3.662105174045379
 30
0.0
 11
13.12846508098637
 21
3.081345092673267
 31
0.0
  0
LINE
  5
E8
330
1F
100
AcDbEntity
  8
0
100
AcDbLine
 10
12.80170964116717
 20
4.64526097892863
 30
0.0
 11
12.9984936412408
 21
3.662105174045379
 31
0.0
  0
LINE
  5
E9
330
1F
100
AcDbEntity
  8
0
100
AcDbLine
 10
12.52083021462163
 20
5.642474153141995
 30
0.0
 11
12.80170964116717
 21
4.64526097892863
 31
0.0
  0
LINE
  5
EA
330
1F
100
AcDbEntity
  8
0
100
AcDbLine
 10
12.25377747811379
 20
5.739137253498077
 30
0.0
 11
12.52083021462163
 21
5.642474153141995
 31
0.0
  0
LINE
  5
EB
330
1F
100
AcDbEntity
  8
0
100
AcDbLine
 10
11.40449459016533
 20
6.07842106985897
 30
0.0
 11
12.25377747811379
 21
5.739137253498077
 31
0.0
  0
LINE
  5
EC
330
1F
100
AcDbEntity
  8
0
100
AcDbLine
 10
11.26359950291007
 20
6.090534431515529
 30
0.0
 11
11.40449459016533
 21
6.07842106985897
 31
0.0
  0
LINE
  5
ED
330
1F
100
AcDbEntity
  8
0
100
AcDbLine
 10
10.53327210230681
 20
6.111051908335383
 30
0.0
 11
11.26359950291007
 21
6.090534431515529
 31
0.0
  0
LINE
  5
EE
330
1F
100
AcDbEntity
  8
0
100
AcDbLine
 10
10.29906092544611
 20
6.127108509697337
 30
0.0
 11
10.53327210230681
 21
6.111051908335383
 31
0.0
  0
LINE
  5
EF
330
1F
100
AcDbEntity
  8
0
100
AcDbLine
 10
10.24386243000633
 20
6.112625789566898
 30
0.0
 11
10.29906092544611
 21
6.127108509697337
 31
0.0
  0
LINE
  5
F0
330
1F
100
AcDbEntity
  8
0
100
AcDbLine
 10
10.24386243000633
 20
1.861341014567055
 30
0.0
 11
10.24386243000633
 21
6.112625789566898
 31
0.0
  0
LINE
  5
F1
330
1F
100
AcDbEntity
  8
0
100
AcDbLine
 10
10.24386243000633
 20
1.861341014567055
 30
0.0
 11
10.10999326013366
 21
1.861341014567055
 31
0.0
  0
LINE
  5
F2
330
1F
100
AcDbEntity
  8
0
100
AcDbLine
 10
10.10999326013366
 20
1.861341014567055
 30
0.0
 11
10.10999326013366
 21
6.077501830011232
 31
0.0
  0
LINE
  5
F3
330
1F
100
AcDbEntity
  8
0
100
AcDbLine
 10
9.687213358867888
 20
5.966574839374529
 30
0.0
 11
10.10999326013366
 21
6.077501830011232
 31
0.0
  0
LINE
  5
F4
330
1F
100
AcDbEntity
  8
0
100
AcDbLine
 10
9.213427946379205
 20
5.930610409276954
 30
0.0
 11
9.687213358867888
 21
5.966574839374529
 31
0.0
  0
LINE
  5
F5
330
1F
100
AcDbEntity
  8
0
100
AcDbLine
 10
8.33229462877753
 20
5.671099622222792
 30
0.0
 11
9.213427946379205
 21
5.930610409276954
 31
0.0
  0
LINE
  5
F6
330
1F
100
AcDbEntity
  8
0
100
AcDbLine
 10
8.176054133795354
 20
5.611516356400065
 30
0.0
 11
8.33229462877753
 21
5.671099622222792
 31
0.0
  0
LINE
  5
F7
330
1F
100
AcDbEntity
  8
0
100
AcDbLine
 10
7.296314021612319
 20
5.047476770438526
 30
0.0
 11
8.176054133795354
 21
5.611516356400065
 31
0.0
  0
LINE
  5
F8
330
1F
100
AcDbEntity
  8
0
100
AcDbLine
 10
7.216180140096474
 20
4.999252796730896
 30
0.0
 11
7.296314021612319
 21
5.047476770438526
 31
0.0
  0
LINE
  5
F9
330
1F
100
AcDbEntity
  8
0
100
AcDbLine
 10
6.89713318318972
 20
4.763649377055113
 30
0.0
 11
7.216180140096474
 21
4.999252796730896
 31
0.0
  0
LINE
  5
FA
330
1F
100
AcDbEntity
  8
0
100
AcDbLine
 10
6.89713318318972
 20
0.8115750373331687
 30
0.0
 11
6.89713318318972
 21
4.763649377055113
 31
0.0
  0
LINE
  5
FB
330
1F
100
AcDbEntity
  8
0
100
AcDbLine
 10
6.89713318318972
 20
0.8115750373331687
 30
0.0
 11
6.763264013317049
 21
0.8115750373331686
 31
0.0
  0
LINE
  5
FC
330
1F
100
AcDbEntity
  8
0
100
AcDbLine
 10
6.763264013317049
 20
0.8115750373331686
 30
0.0
 11
6.763264013317049
 21
4.664792348243605
 31
0.0
  0
LINE
  5
FD
330
1F
100
AcDbEntity
  8
0
100
AcDbLine
 10
6.52252931151845
 20
4.487019397426982
 30
0.0
 11
6.763264013317049
 21
4.664792348243605
 31
0.0
  0
LINE
  5
FE
330
1F
100
AcDbEntity
  8
0
100
AcDbLine
 10
6.428401054028757
 20
4.411287117549914
 30
0.0
 11
6.52252931151845
 21
4.487019397426982
 31
0.0
  0
LINE
  5
FF
330
1F
100
AcDbEntity
  8
0
100
AcDbLine
 10
5.792124099837308
 20
3.803339121784082
 30
0.0
 11
6.428401054028757
 21
4.411287117549914
 31
0.0
  0
LINE
  5
100
330
1F
100
AcDbEntity
  8
0
100
AcDbLine
 10
5.654436734623085
 20
3.678444643809784
 30
0.0
 11
5.792124099837308
 21
3.803339121784082
 31
0.0
  0
LINE
  5
101
330
1F
100
AcDbEntity
  8
0
100
AcDbLine
 10
5.118309499162973
 20
3.242305920640957
 30
0.0
 11
5.654436734623085
 21
3.678444643809784
 31
0.0
  0
LINE
  5
102
330
1F
100
AcDbEntity
  8
0
100
AcDbLine
 10
4.8994675879832
 20
3.068036173996985
 30
0.0
 11
5.118309499162973
 21
3.242305920640957
 31
0.0
  0
LINE
  5
103
330
1F
100
AcDbEntity
  8
0
100
AcDbLine
 10
4.547348654640768
 20
2.841674090860284
 30
0.0
 11
4.8994675879832
 21
3.068036173996985
 31
0.0
  0
LINE
  5
104
330
1F
100
AcDbEntity
  8
0
100
AcDbLine
 10
4.177315881928417
 20
2.60895467388182
 30
0.0
 11
4.547348654640768
 21
2.841674090860284
 31
0.0
  0
LINE
  5
105
330
1F
100
AcDbEntity
  8
0
100
AcDbLine
 10
4.007989839603647
 20
2.522710416519122
 30
0.0
 11
4.177315881928417
 21
2.60895467388182
 31
0.0
  0
LINE
  5
106
330
1F
100
AcDbEntity
  8
0
100
AcDbLine
 10
3.549965148200436
 20
2.278586842017696
 30
0.0
 11
4.007989839603647
 21
2.522710416519122
 31
0.0
  0
LINE
  5
107
330
1F
100
AcDbEntity
  8
0
100
AcDbLine
 10
3.549965148200436
 20
-0.8878062451322793
 30
0.0
 11
3.549965148200436
 21
2.278586842017696
 31
0.0
  0
LINE
  5
108
330
1F
100
AcDbEntity
  8
0
100
AcDbLine
 10
3.549965148200436
 20
-0.8878062451322793
 30
0.0
 11
3.416095978327783
 21
-0.8878062451322793
 31
0.0
  0
LINE
  5
109
330
1F
100
AcDbEntity
  8
0
100
AcDbLine
 10
3.416095978327783
 20
-0.8878062451322793
 30
0.0
 11
3.416095978327783
 21
2.211221110463335
 31
0.0
  0
LINE
  5
10A
330
1F
100
AcDbEntity
  8
0
100
AcDbLine
 10
2.929536925029129
 20
2.027598747687345
 30
0.0
 11
3.416095978327783
 21
2.211221110463335
 31
0.0
  0
LINE
  5
10B
330
1F
100
AcDbEntity
  8
0
100
AcDbLine
 10
2.734232910363806
 20
1.945033320889205
 30
0.0
 11
2.929536925029129
 21
2.027598747687345
 31
0.0
  0
LINE
  5
10C
330
1F
100
AcDbEntity
  8
0
100
AcDbLine
 10
2.337155017973458
 20
1.879218696867741
 30
0.0
 11
2.734232910363806
 21
1.945033320889205
 31
0.0
  0
LINE
  5
10D
330
1F
100
AcDbEntity
  8
0
100
AcDbLine
 10
1.998570298525222
 20
1.832208726023407
 30
0.0
 11
2.337155017973458
 21
1.879218696867741
 31
0.0
  0
LINE
  5
10E
330
1F
100
AcDbEntity
  8
0
100
AcDbLine
 10
1.651583235178555
 20
1.765528584344592
 30
0.0
 11
1.998570298525222
 21
1.832208726023407
 31
0.0
  0
LINE
  5
10F
330
1F
100
AcDbEntity
  8
0
100
AcDbLine
 10
1.227380836243833
 20
1.706190955724114
 30
0.0
 11
1.651583235178555
 21
1.765528584344592
 31
0.0
  0
LINE
  5
110
330
1F
100
AcDbEntity
  8
0
100
AcDbLine
 10
0.8682028581231374
 20
1.671610850804958
 30
0.0
 11
1.227380836243833
 21
1.706190955724114
 31
0.0
  0
LINE
  5
111
330
1F
100
AcDbEntity
  8
0
100
AcDbLine
 10
0.4016574172013427
 20
1.635768858932258
 30
0.0
 11
0.8682028581231374
 21
1.671610850804958
 31
0.0
  0
LINE
  5
112
330
1F
100
AcDbEntity
  8
0
100
AcDbLine
 10
0.2036746895565098
 20
1.639478126360056
 30
0.0
 11
0.4016574172013427
 21
1.635768858932258
 31
0.0
  0
LINE
  5
113
330
1F
100
AcDbEntity
  8
0
100
AcDbLine
 10
0.2036746895565098
 20
-1.920176902087954
 30
0.0
 11
0.2036746895565098
 21
1.639478126360056
 31
0.0
  0
LINE
  5
114
330
1F
100
AcDbEntity
  8
0
100
AcDbLine
 10
0.2036746895565098
 20
-1.920176902087954
 30
0.0
 11
0.0698055196838406
 21
-1.920176902087954
 31
0.0
  0
LINE
  5
115
330
1F
100
AcDbEntity
  8
0
100
AcDbLine
 10
0.0698055196838406
 20
-1.920176902087954
 30
0.0
 11
0.0698055196838406
 21
1.641986206520892
 31
0.0
  0
LINE
  5
116
330
1F
100
AcDbEntity
  8
0
100
AcDbLine
 10
-0.3586354141222988
 20
1.650013179476592
 30
0.0
 11
0.0698055196838406
 21
1.641986206520892
 31
0.0
  0
LINE
  5
117
330
1F
100
AcDbEntity
  8
0
100
AcDbLine
 10
-0.5107949425428958
 20
1.660516402353994
 30
0.0
 11
-0.3586354141222988
 21
1.650013179476592
 31
0.0
  0
LINE
  5
118
330
1F
100
AcDbEntity
  8
0
100
AcDbLine
 10
-0.7768890903877597
 20
1.722147724313406
 30
0.0
 11
-0.5107949425428958
 21
1.660516402353994
 31
0.0
  0
LINE
  5
119
330
1F
100
AcDbEntity
  8
0
100
AcDbLine
 10
-1.465097970872997
 20
1.868643515986512
 30
0.0
 11
-0.7768890903877597
 21
1.722147724313406
 31
0.0
  0
LINE
  5
11A
330
1F
100
AcDbEntity
  8
0
100
AcDbLine
 10
-1.80705449830274
 20
1.972569512001695
 30
0.0
 11
-1.465097970872997
 21
1.868643515986512
 31
0.0
  0
LINE
  5
11B
330
1F
100
AcDbEntity
  8
0
100
AcDbLine
 10
-2.491163816443514
 20
2.170111704482033
 30
0.0
 11
-1.80705449830274
 21
1.972569512001695
 31
0.0
  0
LINE
  5
11C
330
1F
100
AcDbEntity
  8
0
100
AcDbLine
 10
9.24069407418028
 20
0.6900426657723301
 30
0.0
 11
9.246679728992381
 21
0.6791936664253949
 31
0.0
  0
LINE
  5
11D
330
1F
100
AcDbEntity
  8
0
100
AcDbLine
 10
9.246679728992381
 20
0.6791936664253949
 30
0.0
 11
8.978821676150812
 21
0.5007463323396001
 31
0.0
  0
LINE
  5
11E
330
1F
100
AcDbEntity
  8
0
100
AcDbLine
 10
8.978821676150812
 20
0.5007463323396001
 30
0.0
 11
9.246679728992381
 21
0.321924894828049
 31
0.0
  0
LINE
  5
11F
330
1F
100
AcDbEntity
  8
0
100
AcDbLine
 10
9.246679728992381
 20
0.321924894828049
 30
0.0
 11
9.24069407418028
 21
0.3114499989068702
 31
0.0
  0
LINE
  5
120
330
1F
100
AcDbEntity
  8
0
100
AcDbLine
 10
9.24069407418028
 20
0.3114499989068702
 30
0.0
 11
8.967972676803875
 21
0.492890160398716
 31
0.0
  0
LINE
  5
121
330
1F
100
AcDbEntity
  8
0
100
AcDbLine
 10
8.967972676803875
 20
0.492890160398716
 30
0.0
 11
8.695251279427472
 21
0.31144999890687
 31
0.0
  0
LINE
  5
122
330
1F
100
AcDbEntity
  8
0
100
AcDbLine
 10
8.695251279427472
 20
0.31144999890687
 30
0.0
 11
8.68926562461537
 21
0.3219248948280487
 31
0.0
  0
LINE
  5
123
330
1F
100
AcDbEntity
  8
0
100
AcDbLine
 10
8.68926562461537
 20
0.3219248948280487
 30
0.0
 11
8.957497780882697
 21
0.5007463323396
 31
0.0
  0
LINE
  5
124
330
1F
100
AcDbEntity
  8
0
100
AcDbLine
 10
8.957497780882697
 20
0.5007463323396
 30
0.0
 11
8.68926562461537
 21
0.6791936664253948
 31
0.0
  0
LINE
  5
125
330
1F
100
AcDbEntity
  8
0
100
AcDbLine
 10
8.68926562461537
 20
0.6791936664253948
 30
0.0
 11
8.695251279427472
 21
0.69004266577233
 31
0.0
  0
LINE
  5
126
330
1F
100
AcDbEntity
  8
0
100
AcDbLine
 10
8.695251279427472
 20
0.69004266577233
 30
0.0
 11
8.967972676803875
 21
0.5082284008547278
 31
0.0
  0
LINE
  5
127
330
1F
100
AcDbEntity
  8
0
100
AcDbLine
 10
8.967972676803875
 20
0.5082284008547278
 30
0.0
 11
9.24069407418028
 21
0.6900426657723301
 31
0.0
  0
LINE
  5
128
330
1F
100
AcDbEntity
  8
0
100
AcDbLine
 10
9.154276182830555
 20
1.150563982878438
 30
0.0
 11
9.249672556398433
 21
1.054793505884804
 31
0.0
  0
LINE
  5
129
330
1F
100
AcDbEntity
  8
0
100
AcDbLine
 10
9.249672556398433
 20
1.054793505884804
 30
0.0
 11
9.249672556398433
 21
0.958274822039657
 31
0.0
  0
LINE
  5
12A
330
1F
100
AcDbEntity
  8
0
100
AcDbLine
 10
9.249672556398433
 20
0.958274822039657
 30
0.0
 11
9.154276182830555
 21
0.8625043450460228
 31
0.0
  0
LINE
  5
12B
330
1F
100
AcDbEntity
  8
0
100
AcDbLine
 10
9.154276182830555
 20
0.8625043450460228
 30
0.0
 11
8.782043274202953
 21
0.8625043450460227
 31
0.0
  0
LINE
  5
12C
330
1F
100
AcDbEntity
  8
0
100
AcDbLine
 10
8.782043274202953
 20
0.8625043450460227
 30
0.0
 11
8.68627279720932
 21
0.9582748220396567
 31
0.0
  0
LINE
  5
12D
330
1F
100
AcDbEntity
  8
0
100
AcDbLine
 10
8.68627279720932
 20
0.9582748220396567
 30
0.0
 11
8.68627279720932
 21
1.054793505884803
 31
0.0
  0
LINE
  5
12E
330
1F
100
AcDbEntity
  8
0
100
AcDbLine
 10
8.68627279720932
 20
1.054793505884803
 30
0.0
 11
8.782043274202953
 21
1.150563982878438
 31
0.0
  0
LINE
  5
12F
330
1F
100
AcDbEntity
  8
0
100
AcDbLine
 10
8.782043274202953
 20
1.150563982878438
 30
0.0
 11
9.154276182830555
 21
1.150563982878438
 31
0.0
  0
LINE
  5
130
330
1F
100
AcDbEntity
  8
0
100
AcDbLine
 10
9.149786941721477
 20
1.138218569828477
 30
0.0
 11
8.786532515312029
 21
1.138218569828477
 31
0.0
  0
LINE
  5
131
330
1F
100
AcDbEntity
  8
0
100
AcDbLine
 10
8.786532515312029
 20
1.138218569828477
 30
0.0
 11
8.698244106833522
 21
1.050304264775727
 31
0.0
  0
LINE
  5
132
330
1F
100
AcDbEntity
  8
0
100
AcDbLine
 10
8.698244106833522
 20
1.050304264775727
 30
0.0
 11
8.698244106833522
 21
0.9627640631487332
 31
0.0
  0
LINE
  5
133
330
1F
100
AcDbEntity
  8
0
100
AcDbLine
 10
8.698244106833522
 20
0.9627640631487332
 30
0.0
 11
8.78653251531203
 21
0.8748497580959833
 31
0.0
  0
LINE
  5
134
330
1F
100
AcDbEntity
  8
0
100
AcDbLine
 10
8.78653251531203
 20
0.8748497580959833
 30
0.0
 11
9.149786941721477
 21
0.8748497580959834
 31
0.0
  0
LINE
  5
135
330
1F
100
AcDbEntity
  8
0
100
AcDbLine
 10
9.149786941721477
 20
0.8748497580959834
 30
0.0
 11
9.237701246774227
 21
0.9627640631487335
 31
0.0
  0
LINE
  5
136
330
1F
100
AcDbEntity
  8
0
100
AcDbLine
 10
9.237701246774227
 20
0.9627640631487335
 30
0.0
 11
9.237701246774227
 21
1.050304264775727
 31
0.0
  0
LINE
  5
137
330
1F
100
AcDbEntity
  8
0
100
AcDbLine
 10
9.237701246774227
 20
1.050304264775727
 30
0.0
 11
9.149786941721477
 21
1.138218569828477
 31
0.0
  0
LINE
  5
138
330
1F
100
AcDbEntity
  8
0
100
AcDbLine
 10
9.154276182830555
 20
1.610711196558789
 30
0.0
 11
9.249672556398432
 21
1.514940719565155
 31
0.0
  0
LINE
  5
139
330
1F
100
AcDbEntity
  8
0
100
AcDbLine
 10
9.249672556398432
 20
1.514940719565155
 30
0.0
 11
9.249672556398432
 21
1.418422035720008
 31
0.0
  0
LINE
  5
13A
330
1F
100
AcDbEntity
  8
0
100
AcDbLine
 10
9.249672556398432
 20
1.418422035720008
 30
0.0
 11
9.154276182830555
 21
1.322651558726374
 31
0.0
  0
LINE
  5
13B
330
1F
100
AcDbEntity
  8
0
100
AcDbLine
 10
9.154276182830555
 20
1.322651558726374
 30
0.0
 11
8.782043274202953
 21
1.322651558726374
 31
0.0
  0
LINE
  5
13C
330
1F
100
AcDbEntity
  8
0
100
AcDbLine
 10
8.782043274202953
 20
1.322651558726374
 30
0.0
 11
8.68627279720932
 21
1.418422035720008
 31
0.0
  0
LINE
  5
13D
330
1F
100
AcDbEntity
  8
0
100
AcDbLine
 10
8.68627279720932
 20
1.418422035720008
 30
0.0
 11
8.68627279720932
 21
1.514940719565155
 31
0.0
  0
LINE
  5
13E
330
1F
100
AcDbEntity
  8
0
100
AcDbLine
 10
8.68627279720932
 20
1.514940719565155
 30
0.0
 11
8.782043274202953
 21
1.610711196558789
 31
0.0
  0
LINE
  5
13F
330
1F
100
AcDbEntity
  8
0
100
AcDbLine
 10
8.782043274202953
 20
1.610711196558789
 30
0.0
 11
9.154276182830555
 21
1.610711196558789
 31
0.0
  0
LINE
  5
140
330
1F
100
AcDbEntity
  8
0
100
AcDbLine
 10
9.149786941721477
 20
1.598365783508829
 30
0.0
 11
8.786532515312029
 21
1.598365783508829
 31
0.0
  0
LINE
  5
141
330
1F
100
AcDbEntity
  8
0
100
AcDbLine
 10
8.786532515312029
 20
1.598365783508829
 30
0.0
 11
8.698244106833522
 21
1.510451478456078
 31
0.0
  0
LINE
  5
142
330
1F
100
AcDbEntity
  8
0
100
AcDbLine
 10
8.698244106833522
 20
1.510451478456078
 30
0.0
 11
8.698244106833522
 21
1.422911276829085
 31
0.0
  0
LINE
  5
143
330
1F
100
AcDbEntity
  8
0
100
AcDbLine
 10
8.698244106833522
 20
1.422911276829085
 30
0.0
 11
8.786532515312029
 21
1.334996971776335
 31
0.0
  0
LINE
  5
144
330
1F
100
AcDbEntity
  8
0
100
AcDbLine
 10
8.786532515312029
 20
1.334996971776335
 30
0.0
 11
9.149786941721477
 21
1.334996971776335
 31
0.0
  0
LINE
  5
145
330
1F
100
AcDbEntity
  8
0
100
AcDbLine
 10
9.149786941721477
 20
1.334996971776335
 30
0.0
 11
9.237701246774227
 21
1.422911276829085
 31
0.0
  0
LINE
  5
146
330
1F
100
AcDbEntity
  8
0
100
AcDbLine
 10
9.237701246774227
 20
1.422911276829085
 30
0.0
 11
9.237701246774227
 21
1.510451478456079
 31
0.0
  0
LINE
  5
147
330
1F
100
AcDbEntity
  8
0
100
AcDbLine
 10
9.237701246774227
 20
1.510451478456079
 30
0.0
 11
9.149786941721477
 21
1.598365783508829
 31
0.0
  0
LINE
  5
148
330
1F
100
AcDbEntity
  8
0
100
AcDbLine
 10
9.154276182830554
 20
2.162887852975211
 30
0.0
 11
9.249672556398432
 21
2.067117375981577
 31
0.0
  0
LINE
  5
149
330
1F
100
AcDbEntity
  8
0
100
AcDbLine
 10
9.249672556398432
 20
2.067117375981577
 30
0.0
 11
9.249672556398432
 21
1.87856924940036
 31
0.0
  0
LINE
  5
14A
330
1F
100
AcDbEntity
  8
0
100
AcDbLine
 10
9.249672556398432
 20
1.87856924940036
 30
0.0
 11
9.156520803385092
 21
1.784295186109751
 31
0.0
  0
LINE
  5
14B
330
1F
100
AcDbEntity
  8
0
100
AcDbLine
 10
9.156520803385092
 20
1.784295186109751
 30
0.0
 11
9.147542321166938
 21
1.793273668327904
 31
0.0
  0
LINE
  5
14C
330
1F
100
AcDbEntity
  8
0
100
AcDbLine
 10
9.147542321166938
 20
1.793273668327904
 30
0.0
 11
9.237701246774227
 21
1.883058490509436
 31
0.0
  0
LINE
  5
14D
330
1F
100
AcDbEntity
  8
0
100
AcDbLine
 10
9.237701246774227
 20
1.883058490509436
 30
0.0
 11
9.237701246774227
 21
2.062254031446744
 31
0.0
  0
LINE
  5
14E
330
1F
100
AcDbEntity
  8
0
100
AcDbLine
 10
9.237701246774227
 20
2.062254031446744
 30
0.0
 11
9.149786941721477
 21
2.150542439925251
 31
0.0
  0
LINE
  5
14F
330
1F
100
AcDbEntity
  8
0
100
AcDbLine
 10
9.149786941721477
 20
2.150542439925251
 30
0.0
 11
8.970217297358413
 21
2.150542439925251
 31
0.0
  0
LINE
  5
150
330
1F
100
AcDbEntity
  8
0
100
AcDbLine
 10
8.970217297358413
 20
2.150542439925251
 30
0.0
 11
8.882302992305663
 21
2.062254031446744
 31
0.0
  0
LINE
  5
151
330
1F
100
AcDbEntity
  8
0
100
AcDbLine
 10
8.882302992305663
 20
2.062254031446744
 30
0.0
 11
8.882302992305663
 21
1.782798772406725
 31
0.0
  0
LINE
  5
152
330
1F
100
AcDbEntity
  8
0
100
AcDbLine
 10
8.882302992305663
 20
1.782798772406725
 30
0.0
 11
8.686272797209318
 21
1.782798772406725
 31
0.0
  0
LINE
  5
153
330
1F
100
AcDbEntity
  8
0
100
AcDbLine
 10
8.686272797209318
 20
1.782798772406725
 30
0.0
 11
8.686272797209318
 21
2.156528094737352
 31
0.0
  0
LINE
  5
154
330
1F
100
AcDbEntity
  8
0
100
AcDbLine
 10
8.686272797209318
 20
2.156528094737352
 30
0.0
 11
8.698244106833522
 21
2.156528094737352
 31
0.0
  0
LINE
  5
155
330
1F
100
AcDbEntity
  8
0
100
AcDbLine
 10
8.698244106833522
 20
2.156528094737352
 30
0.0
 11
8.698244106833522
 21
1.795144185456686
 31
0.0
  0
LINE
  5
156
330
1F
100
AcDbEntity
  8
0
100
AcDbLine
 10
8.698244106833522
 20
1.795144185456686
 30
0.0
 11
8.869957579255702
 21
1.795144185456686
 31
0.0
  0
LINE
  5
157
330
1F
100
AcDbEntity
  8
0
100
AcDbLine
 10
8.869957579255702
 20
1.795144185456686
 30
0.0
 11
8.869957579255702
 21
2.067117375981577
 31
0.0
  0
LINE
  5
158
330
1F
100
AcDbEntity
  8
0
100
AcDbLine
 10
8.869957579255702
 20
2.067117375981577
 30
0.0
 11
8.965728056249336
 21
2.162887852975211
 31
0.0
  0
LINE
  5
159
330
1F
100
AcDbEntity
  8
0
100
AcDbLine
 10
8.965728056249336
 20
2.162887852975211
 30
0.0
 11
9.154276182830554
 21
2.162887852975211
 31
0.0
  0
ENDSEC
  0
SECTION
  2
OBJECTS
  0
DICTIONARY
  5
C
330
0
100
AcDbDictionary
  3
ACAD_GROUP
350
D
  3
ACAD_LAYOUT
350
1A
  3
ACAD_MATERIAL
350
43
  3
ACAD_MLEADERSTYLE
350
5B
  3
ACAD_MLINESTYLE
350
17
  3
ACAD_PLOTSETTINGS
350
19
  3
ACAD_SCALELIST
350
47
  3
ACAD_VISUALSTYLE
350
2A
  3
ACDBHEADERROUNDTRIPXREC
350
15A
  3
ACDBVARIABLEDICTIONARY
350
17B
  3
DWGPROPS
350
182
  0
DICTIONARY
  5
183
330
8
100
AcDbDictionary
280
     1
  3
ACAD_XREC_ROUNDTRIP
360
184
  0
DICTIONARY
  5
D
102
{ACAD_REACTORS
330
C
102
}
330
C
100
AcDbDictionary
  0
DICTIONARY
  5
1A
102
{ACAD_REACTORS
330
C
102
}
330
C
100
AcDbDictionary
  0
DICTIONARY
  5
43
102
{ACAD_REACTORS
330
C
102
}
330
C
100
AcDbDictionary
  3
BYBLOCK
350
45
  3
BYLAYER
350
44
  3
GLOBAL
350
46
  0
DICTIONARY
  5
5B
102
{ACAD_REACTORS
330
C
102
}
330
C
100
AcDbDictionary
  3
STANDARD
350
5C
  0
DICTIONARY
  5
17
102
{ACAD_REACTORS
330
C
102
}
330
C
100
AcDbDictionary
  3
STANDARD
350
18
  0
DICTIONARY
  5
19
102
{ACAD_REACTORS
330
C
102
}
330
C
100
AcDbDictionary
  0
DICTIONARY
  5
47
102
{ACAD_REACTORS
330
C
102
}
330
C
100
AcDbDictionary
  3
A0
350
48
  3
A1
350
49
  3
A2
350
4A
  3
A3
350
4B
  3
A4
350
4C
  3
A5
350
4D
  3
A6
350
4E
  3
A7
350
4F
  3
A8
350
50
  3
A9
350
51
  3
B1
350
52
  3
B2
350
53
  3
B3
350
54
  3
B4
350
55
  3
B5
350
56
  3
B6
350
57
  3
B7
350
58
  0
DICTIONARY
  5
2A
102
{ACAD_REACTORS
330
C
102
}
330
C
100
AcDbDictionary
  3
2DWIREFRAME
350
2F
  3
BASIC
350
32
  3
BRIGHTEN
350
36
  3
COLORCHANGE
350
3A
  3
CONCEPTUAL
350
34
  3
DIM
350
35
  3
EDGECOLOROFF
350
3D
  3
FACEPATTERN
350
39
  3
FLAT
350
2B
  3
FLATWITHEDGES
350
2C
  3
GOURAUD
350
2D
  3
GOURAUDWITHEDGES
350
2E
  3
HIDDEN
350
31
  3
JITTEROFF
350
3B
  3
LINEPATTERN
350
38
  3
OVERHANGOFF
350
3C
  3
REALISTIC
350
33
  3
SHADED
350
42
  3
SHADED_WITH_EDGES
350
41
  3
SHADES_OF_GRAY
350
3E
  3
SKETCHY
350
3F
  3
THICKEN
350
37
  3
WIREFRAME
350
30
  3
X-RAY
350
40
  0
DICTIONARY
  5
15A
102
{ACAD_REACTORS
330
C
102
}
330
C
100
AcDbDictionary
  3
CEPSNID
350
164
  3
CEPSNTYPE
350
163
  3
DIMSTYLEDATA
350
17A
  3
FINGERPRINTGUID
350
165
  3
HYPERLINKBASE
350
15D
  3
INSUNITS
350
162
  3
LAYOUTDICT
350
15F
  3
LWETCUNION
350
161
  3
PLOTSETDICT
350
160
  3
PSVPSCALE
350
167
  3
PUCSBASE
350
16A
  3
PUCSORGBACK
350
170
  3
PUCSORGBOTTOM
350
16C
  3
PUCSORGFRONT
350
16F
  3
PUCSORGLEFT
350
16D
  3
PUCSORGRIGHT
350
16E
  3
PUCSORGTOP
350
16B
  3
PUCSORTHOREF
350
168
  3
PUCSORTHOVIEW
350
169
  3
STYLESHEET
350
15E
  3
TSTACKALIGN
350
15B
  3
TSTACKSIZE
350
15C
  3
UCSBASE
350
173
  3
UCSORGBACK
350
179
  3
UCSORGBOTTOM
350
175
  3
UCSORGFRONT
350
178
  3
UCSORGLEFT
350
176
  3
UCSORGRIGHT
350
177
  3
UCSORGTOP
350
174
  3
UCSORTHOREF
350
171
  3
UCSORTHOVIEW
350
172
  3
VERSIONGUID
350
166
  0
DICTIONARY
  5
17B
102
{ACAD_REACTORS
330
C
102
}
330
C
100
AcDbDictionary
  3
CANNOSCALE
350
185
  3
CMLEADERSTYLE
350
17D
  3
CTABLESTYLE
350
17C
  3
DIMASSOC
350
180
  3
HIDETEXT
350
181
  3
MSLTSCALE
350
186
  0
XRECORD
  5
182
102
{ACAD_REACTORS
330
C
102
}
330
C
100
AcDbXrecord
  1
DWGPROPS COOKIE
  2

  3

  4

  6

  7

  8
jim
  9

300
=
301
=
302
=
303
=
304
=
305
=
306
=
307
=
308
=
309
=
 40
0.0
 41
2459796.643965498
 42
2459796.643965533
  1

 90
        0
  0
XRECORD
  5
184
102
{ACAD_REACTORS
330
183
102
}
330
183
100
AcDbXrecord
102
VTR_0.000_0.000_1.000_1.000_VISUALSTYLE
340
2F
102
VTR_0.000_0.000_1.000_1.000_GRIDDISPLAY
 70
     3
102
VTR_0.000_0.000_1.000_1.000_GRIDMAJOR
 70
     5
102
VTR_0.000_0.000_1.000_1.000_DEFAULTLIGHTING
280
     1
102
VTR_0.000_0.000_1.000_1.000_DEFAULTLIGHTINGTYPE
 70
     1
102
VTR_0.000_0.000_1.000_1.000_BRIGHTNESS
141
0.0
102
VTR_0.000_0.000_1.000_1.000_CONTRAST
142
0.0
  0
MATERIAL
  5
45
102
{ACAD_REACTORS
330
43
102
}
102
{ACAD_XDICTIONARY
360
189
102
}
330
43
100
AcDbMaterial
  1
BYBLOCK
  0
MATERIAL
  5
44
102
{ACAD_REACTORS
330
43
102
}
102
{ACAD_XDICTIONARY
360
187
102
}
330
43
100
AcDbMaterial
  1
BYLAYER
  0
MATERIAL
  5
46
102
{ACAD_REACTORS
330
43
102
}
102
{ACAD_XDICTIONARY
360
18B
102
}
330
43
100
AcDbMaterial
  1
GLOBAL
  0
ACAD_PROXY_OBJECT
  5
5C
102
{ACAD_REACTORS
330
5B
102
}
330
5B
100
AcDbProxyObject
 90
      499
 91
      505
 93
      610
310
40901902A4063FBFFFFFE056BD1B81E855B9FC0AD7A3703D0AD73F4214DD185B99185C9900AD7A3703D0AC73F90141901A02B5E8DC0F42B1CFC02B5E8DC0F42B1CFE5764000000000000300FC0
340
14
340
0
340
11
340
0
 94
        0
1001
ACAD_MLEADERVER
1070
     2
  0
MLINESTYLE
  5
18
102
{ACAD_REACTORS
330
17
102
}
330
17
100
AcDbMlineStyle
  2
Standard
 70
     0
  3

 62
   256
 51
90.0
 52
90.0
 71
     2
 49
0.5
 62
   256
  6
BYLAYER
 49
-0.5
 62
   256
  6
BYLAYER
  0
ACAD_PROXY_OBJECT
  5
48
102
{ACAD_REACTORS
330
47
102
}
330
47
100
AcDbProxyObject
 90
      499
 91
      503
 93
       41
310
903313A31580
  0
ACAD_PROXY_OBJECT
  5
49
102
{ACAD_REACTORS
330
47
102
}
330
47
100
AcDbProxyObject
 90
      499
 91
      503
 93
      257
310
90E312F31323822203D2031272D3022000000000000200FC000000000000284000
  0
ACAD_PROXY_OBJECT
  5
4A
102
{ACAD_REACTORS
330
47
102
}
330
47
100
AcDbProxyObject
 90
      499
 91
      503
 93
      249
310
90D312F363422203D2031272D3022000000000000240FC000000000000284000
  0
ACAD_PROXY_OBJECT
  5
4B
102
{ACAD_REACTORS
330
47
102
}
330
47
100
AcDbProxyObject
 90
      499
 91
      503
 93
      249
310
90D312F333222203D2031272D3022000000000000280FC000000000000284000
  0
ACAD_PROXY_OBJECT
  5
4C
102
{ACAD_REACTORS
330
47
102
}
330
47
100
AcDbProxyObject
 90
      499
 91
      503
 93
      249
310
90D312F313622203D2031272D30220000000000002C0FC000000000000284000
  0
ACAD_PROXY_OBJECT
  5
4D
102
{ACAD_REACTORS
330
47
102
}
330
47
100
AcDbProxyObject
 90
      499
 91
      503
 93
      249
310
90D332F333222203D2031272D30220000000000002E0FC000000000000284000
  0
ACAD_PROXY_OBJECT
  5
4E
102
{ACAD_REACTORS
330
47
102
}
330
47
100
AcDbProxyObject
 90
      499
 91
      503
 93
      241
310
90C312F3822203D2031272D3022000000000000300FC000000000000284000
  0
ACAD_PROXY_OBJECT
  5
4F
102
{ACAD_REACTORS
330
47
102
}
330
47
100
AcDbProxyObject
 90
      499
 91
      503
 93
      249
310
90D332F313622203D2031272D3022000000000000320FC000000000000284000
  0
ACAD_PROXY_OBJECT
  5
50
102
{ACAD_REACTORS
330
47
102
}
330
47
100
AcDbProxyObject
 90
      499
 91
      503
 93
      241
310
90C312F3422203D2031272D3022000000000000340FC000000000000284000
  0
ACAD_PROXY_OBJECT
  5
51
102
{ACAD_REACTORS
330
47
102
}
330
47
100
AcDbProxyObject
 90
      499
 91
      503
 93
      241
310
90C332F3822203D2031272D3022000000000000360FC000000000000284000
  0
ACAD_PROXY_OBJECT
  5
52
102
{ACAD_REACTORS
330
47
102
}
330
47
100
AcDbProxyObject
 90
      499
 91
      503
 93
      241
310
90C312F3222203D2031272D3022000000000000380FC000000000000284000
  0
ACAD_PROXY_OBJECT
  5
53
102
{ACAD_REACTORS
330
47
102
}
330
47
100
AcDbProxyObject
 90
      499
 91
      503
 93
      241
310
90C332F3422203D2031272D30220000000000003A0FC000000000000284000
  0
ACAD_PROXY_OBJECT
  5
54
102
{ACAD_REACTORS
330
47
102
}
330
47
100
AcDbProxyObject
 90
      499
 91
      503
 93
      161
310
90A3122203D2031272D30224000000000000284000
  0
ACAD_PROXY_OBJECT
  5
55
102
{ACAD_REACTORS
330
47
102
}
330
47
100
AcDbProxyObject
 90
      499
 91
      503
 93
      257
310
90E312D312F3222203D2031272D30220000000000003E0FC000000000000284000
  0
ACAD_PROXY_OBJECT
  5
56
102
{ACAD_REACTORS
330
47
102
}
330
47
100
AcDbProxyObject
 90
      499
 91
      503
 93
      225
310
90A3322203D2031272D302200000000000002100000000000000284000
  0
ACAD_PROXY_OBJECT
  5
57
102
{ACAD_REACTORS
330
47
102
}
330
47
100
AcDbProxyObject
 90
      499
 91
      503
 93
      225
310
90A3622203D2031272D302200000000000006100000000000000284000
  0
ACAD_PROXY_OBJECT
  5
58
102
{ACAD_REACTORS
330
47
102
}
330
47
100
AcDbProxyObject
 90
      499
 91
      503
 93
      249
310
90D31272D3022203D2031272D30220000000000000A100000000000000284000
  0
ACAD_PROXY_OBJECT
  5
2F
102
{ACAD_REACTORS
330
2A
102
}
330
2A
100
AcDbProxyObject
 90
      499
 91
      501
 93
      436
310
42CC9915DA5C99599C985B595049028333333333333E33F0000000000000F90107901411070040501600405405064090741402480A0340
1001
ACAD
1000
AcDbSavedByObjectVersion
1070
     0
  0
ACAD_PROXY_OBJECT
  5
32
102
{ACAD_REACTORS
330
2A
102
}
330
2A
100
AcDbProxyObject
 90
      499
 91
      501
 93
      388
310
4150985CDA58D07406404333333333333E33F0000000000000F90107A41107004050150841D405064090741402480A0350
1001
ACAD
1000
AcDbSavedByObjectVersion
1070
     0
  0
ACAD_PROXY_OBJECT
  5
36
102
{ACAD_REACTORS
330
2A
102
}
330
2A
100
AcDbProxyObject
 90
      499
 91
      501
 93
      428
310
42109C9A59DA1D195B90C409028333333333333E33F0000000000000F9010790141107004050150841D405064090741402480A029950
1001
ACAD
1000
AcDbSavedByObjectVersion
1070
     0
  0
ACAD_PROXY_OBJECT
  5
3A
102
{ACAD_REACTORS
330
2A
102
}
330
2A
100
AcDbProxyObject
 90
      499
 91
      501
 93
      452
310
42D0DBDB1BDC90DA185B99D95104090240C333333333333E33F0000000000000F90108901411070040501508421405064090741402480A0350
1001
ACAD
1000
AcDbSavedByObjectVersion
1070
     0
  0
ACAD_PROXY_OBJECT
  5
34
102
{ACAD_REACTORS
330
2A
102
}
330
2A
100
AcDbProxyObject
 90
      499
 91
      501
 93
      500
310
4290DBDB98D95C1D1D585B10940D028333333333333E33F0000000000000F90107902409070040501000000000018199010841D405064090740C02480A0340
1001
ACAD
1000
AcDbSavedByObjectVersion
1070
     0
  0
ACAD_PROXY_OBJECT
  5
35
102
{ACAD_REACTORS
330
2A
102
}
330
2A
100
AcDbProxyObject
 90
      499
 91
      501
 93
      412
310
40D11A5B50B409028333333333333E33F0000000000000F9010790141107004050150841D405064090741402480A02677FFFFFD0
1001
ACAD
1000
AcDbSavedByObjectVersion
1070
     0
  0
ACAD_PROXY_OBJECT
  5
3D
102
{ACAD_REACTORS
330
2A
102
}
330
2A
100
AcDbProxyObject
 90
      499
 91
      501
 93
      452
310
43115919D950DBDB1BDC93D999916409028333333333333E33F0000000000000F9010790141107004050150841D405064090741402480A0350
1001
ACAD
1000
AcDbSavedByObjectVersion
1070
     0
  0
ACAD_PROXY_OBJECT
  5
39
102
{ACAD_REACTORS
330
2A
102
}
330
2A
100
AcDbProxyObject
 90
      499
 91
      501
 93
      444
310
42D19858D95C185D1D195C9B90F409028333333333333E33F0000000000000F9010790141107004050150841D405064090741402480A0350
1001
ACAD
1000
AcDbSavedByObjectVersion
1070
     0
  0
ACAD_PROXY_OBJECT
  5
2B
102
{ACAD_REACTORS
330
2A
102
}
330
2A
100
AcDbProxyObject
 90
      499
 91
      501
 93
      380
310
41119B185D240901404333333333333E33F0000000000000F9010740A907004050150841D405064090741402480A1B50
1001
ACAD
1000
AcDbSavedByObjectVersion
1070
     0
  0
ACAD_PROXY_OBJECT
  5
2C
102
{ACAD_REACTORS
330
2A
102
}
330
2A
100
AcDbProxyObject
 90
      499
 91
      501
 93
      468
310
43519B185D15DA5D1A115919D95CD0140901404333333333333E33F0000000000000F90107409019070040501600405405064090741402480A1B50
1001
ACAD
1000
AcDbSavedByObjectVersion
1070
     0
  0
ACAD_PROXY_OBJECT
  5
2D
102
{ACAD_REACTORS
330
2A
102
}
330
2A
100
AcDbProxyObject
 90
      499
 91
      501
 93
      404
310
41D1DBDD5C985D5910240902404333333333333E33F0000000000000F9010740A9070040501641D405064090741402480A1B50
1001
ACAD
1000
AcDbSavedByObjectVersion
1070
     0
  0
ACAD_PROXY_OBJECT
  5
2E
102
{ACAD_REACTORS
330
2A
102
}
330
2A
100
AcDbProxyObject
 90
      499
 91
      501
 93
      492
310
4411DBDD5C985D5915DA5D1A115919D95CD0340902404333333333333E33F0000000000000F90107409019070040501600405405064090741402480A1B50
1001
ACAD
1000
AcDbSavedByObjectVersion
1070
     0
  0
ACAD_PROXY_OBJECT
  5
31
102
{ACAD_REACTORS
330
2A
102
}
330
2A
100
AcDbProxyObject
 90
      499
 91
      501
 93
      476
310
41921A5919195B90640502408333333333333E33F0000000000000F901079024090700405020000000000001110200405405064090740C02480A0340
1001
ACAD
1000
AcDbSavedByObjectVersion
1070
     0
  0
ACAD_PROXY_OBJECT
  5
3B
102
{ACAD_REACTORS
330
2A
102
}
330
2A
100
AcDbProxyObject
 90
      499
 91
      501
 93
      428
310
42529A5D1D195C93D999914409028333333333333E33F0000000000000F9010790141107004050150A41D405064090741402480A0350
1001
ACAD
1000
AcDbSavedByObjectVersion
1070
     0
  0
ACAD_PROXY_OBJECT
  5
38
102
{ACAD_REACTORS
330
2A
102
}
330
2A
100
AcDbProxyObject
 90
      499
 91
      501
 93
      444
310
42D31A5B995C185D1D195C9B90E409028333333333333E33F0000000000000F9010790141107004050750841D405064090741402483A0350
1001
ACAD
1000
AcDbSavedByObjectVersion
1070
     0
  0
ACAD_PROXY_OBJECT
  5
3C
102
{ACAD_REACTORS
330
2A
102
}
330
2A
100
AcDbProxyObject
 90
      499
 91
      501
 93
      444
310
42D3DD995C9A185B99D3D999915409028333333333333E33F0000000000000F9010790141107004050150941D405064090741402480A0350
1001
ACAD
1000
AcDbSavedByObjectVersion
1070
     0
  0
ACAD_PROXY_OBJECT
  5
33
102
{ACAD_REACTORS
330
2A
102
}
330
2A
100
AcDbProxyObject
 90
      499
 91
      501
 93
      428
310
425499585B1A5CDD1A58D08409038333333333333E33F0000000000000F9010740A907004050150800405405064090740C02480A1B40
1001
ACAD
1000
AcDbSavedByObjectVersion
1070
     0
  0
ACAD_PROXY_OBJECT
  5
42
102
{ACAD_REACTORS
330
2A
102
}
330
2A
100
AcDbProxyObject
 90
      499
 91
      501
 93
      420
310
4194DA1859195911B40902404333333333333E33F0000000000000F9010740A41107004050150800405405064090840C02480A0B40
1001
ACAD
1000
AcDbSavedByObjectVersion
1070
     0
  0
ACAD_PROXY_OBJECT
  5
41
102
{ACAD_REACTORS
330
2A
102
}
330
2A
100
AcDbProxyObject
 90
      499
 91
      501
 93
      516
310
4454DA18591959081DDA5D1A08195919D95CD1A40902404333333333333E33F0000000000000F901074090142907004050250800405405064090740C02480A0B40
1001
ACAD
1000
AcDbSavedByObjectVersion
1070
     0
  0
ACAD_PROXY_OBJECT
  5
3E
102
{ACAD_REACTORS
330
2A
102
}
330
2A
100
AcDbProxyObject
 90
      499
 91
      501
 93
      532
310
4394DA1859195CC81BD98811DC985E5174090240C333333333333E33F0000000000000F901079024090741D01000000000000111010841D405064090740C02480A0340
1001
ACAD
1000
AcDbSavedByObjectVersion
1070
     0
  0
ACAD_PROXY_OBJECT
  5
3F
102
{ACAD_REACTORS
330
2A
102
}
330
2A
100
AcDbProxyObject
 90
      499
 91
      501
 93
      476
310
41D4DAD95D18DA1E51840502408333333333333E33F0000000000000F901079024090741D01000000000000111010B41D405064090741802480A0340
1001
ACAD
1000
AcDbSavedByObjectVersion
1070
     0
  0
ACAD_PROXY_OBJECT
  5
37
102
{ACAD_REACTORS
330
2A
102
}
330
2A
100
AcDbProxyObject
 90
      499
 91
      501
 93
      412
310
41D51A1A58DAD95B90D409028333333333333E33F0000000000000F9010790141107004050150C41D405064090741402480A0350
1001
ACAD
1000
AcDbSavedByObjectVersion
1070
     0
  0
ACAD_PROXY_OBJECT
  5
30
102
{ACAD_REACTORS
330
2A
102
}
330
2A
100
AcDbProxyObject
 90
      499
 91
      501
 93
      420
310
4255DA5C99599C985B595059028333333333333E33F0000000000000F90107901411070040501600405405064090740C02480A0340
1001
ACAD
1000
AcDbSavedByObjectVersion
1070
     0
  0
ACAD_PROXY_OBJECT
  5
40
102
{ACAD_REACTORS
330
2A
102
}
330
2A
100
AcDbProxyObject
 90
      499
 91
      501
 93
      404
310
41560B54985E51940902404000000000000E03F0000000000000F9010740501907004050150841D405064090740C02480A1B40
1001
ACAD
1000
AcDbSavedByObjectVersion
1070
     0
  0
XRECORD
  5
164
102
{ACAD_REACTORS
330
15A
102
}
330
15A
100
AcDbXrecord
340
0
  0
XRECORD
  5
163
102
{ACAD_REACTORS
330
15A
102
}
330
15A
100
AcDbXrecord
 90
        0
  0
XRECORD
  5
17A
102
{ACAD_REACTORS
330
15A
102
}
330
15A
100
AcDbXrecord
1000
DSTYLE
1002
{
1070
   340
340
11
1002
}
  0
XRECORD
  5
165
102
{ACAD_REACTORS
330
15A
102
}
330
15A
100
AcDbXrecord
  1
{bef2e571-3a82-d040-8061-595108f68215}
  0
XRECORD
  5
15D
102
{ACAD_REACTORS
330
15A
102
}
330
15A
100
AcDbXrecord
  1

  0
XRECORD
  5
162
102
{ACAD_REACTORS
330
15A
102
}
330
15A
100
AcDbXrecord
 90
        1
  0
XRECORD
  5
15F
102
{ACAD_REACTORS
330
15A
102
}
330
15A
100
AcDbXrecord
340
1A
  0
XRECORD
  5
161
102
{ACAD_REACTORS
330
15A
102
}
330
15A
100
AcDbXrecord
 90
    10781
  0
XRECORD
  5
160
102
{ACAD_REACTORS
330
15A
102
}
330
15A
100
AcDbXrecord
340
19
  0
XRECORD
  5
167
102
{ACAD_REACTORS
330
15A
102
}
330
15A
100
AcDbXrecord
 40
0.0
  0
XRECORD
  5
16A
102
{ACAD_REACTORS
330
15A
102
}
330
15A
100
AcDbXrecord
340
0
  0
XRECORD
  5
170
102
{ACAD_REACTORS
330
15A
102
}
330
15A
100
AcDbXrecord
 10
0.0
 20
0.0
 30
0.0
  0
XRECORD
  5
16C
102
{ACAD_REACTORS
330
15A
102
}
330
15A
100
AcDbXrecord
 10
0.0
 20
0.0
 30
0.0
  0
XRECORD
  5
16F
102
{ACAD_REACTORS
330
15A
102
}
330
15A
100
AcDbXrecord
 10
0.0
 20
0.0
 30
0.0
  0
XRECORD
  5
16D
102
{ACAD_REACTORS
330
15A
102
}
330
15A
100
AcDbXrecord
 10
0.0
 20
0.0
 30
0.0
  0
XRECORD
  5
16E
102
{ACAD_REACTORS
330
15A
102
}
330
15A
100
AcDbXrecord
 10
0.0
 20
0.0
 30
0.0
  0
XRECORD
  5
16B
102
{ACAD_REACTORS
330
15A
102
}
330
15A
100
AcDbXrecord
 10
0.0
 20
0.0
 30
0.0
  0
XRECORD
  5
168
102
{ACAD_REACTORS
330
15A
102
}
330
15A
100
AcDbXrecord
340
0
  0
XRECORD
  5
169
102
{ACAD_REACTORS
330
15A
102
}
330
15A
100
AcDbXrecord
 70
     0
  0
XRECORD
  5
15E
102
{ACAD_REACTORS
330
15A
102
}
330
15A
100
AcDbXrecord
  1

  0
XRECORD
  5
15B
102
{ACAD_REACTORS
330
15A
102
}
330
15A
100
AcDbXrecord
 90
        1
  0
XRECORD
  5
15C
102
{ACAD_REACTORS
330
15A
102
}
330
15A
100
AcDbXrecord
 90
       70
  0
XRECORD
  5
173
102
{ACAD_REACTORS
330
15A
102
}
330
15A
100
AcDbXrecord
340
0
  0
XRECORD
  5
179
102
{ACAD_REACTORS
330
15A
102
}
330
15A
100
AcDbXrecord
 10
0.0
 20
0.0
 30
0.0
  0
XRECORD
  5
175
102
{ACAD_REACTORS
330
15A
102
}
330
15A
100
AcDbXrecord
 10
0.0
 20
0.0
 30
0.0
  0
XRECORD
  5
178
102
{ACAD_REACTORS
330
15A
102
}
330
15A
100
AcDbXrecord
 10
0.0
 20
0.0
 30
0.0
  0
XRECORD
  5
176
102
{ACAD_REACTORS
330
15A
102
}
330
15A
100
AcDbXrecord
 10
0.0
 20
0.0
 30
0.0
  0
XRECORD
  5
177
102
{ACAD_REACTORS
330
15A
102
}
330
15A
100
AcDbXrecord
 10
0.0
 20
0.0
 30
0.0
  0
XRECORD
  5
174
102
{ACAD_REACTORS
330
15A
102
}
330
15A
100
AcDbXrecord
 10
0.0
 20
0.0
 30
0.0
  0
XRECORD
  5
171
102
{ACAD_REACTORS
330
15A
102
}
330
15A
100
AcDbXrecord
340
0
  0
XRECORD
  5
172
102
{ACAD_REACTORS
330
15A
102
}
330
15A
100
AcDbXrecord
 70
     0
  0
XRECORD
  5
166
102
{ACAD_REACTORS
330
15A
102
}
330
15A
100
AcDbXrecord
  1
{FAEB1C32-E019-11D5-929B-00C0DF256EC4}
  0
DICTIONARYVAR
  5
185
102
{ACAD_REACTORS
330
17B
102
}
330
17B
100
DictionaryVariables
280
     0
  1
1:1
  0
DICTIONARYVAR
  5
17D
102
{ACAD_REACTORS
330
17B
102
}
330
17B
100
DictionaryVariables
280
     0
  1
Standard
  0
DICTIONARYVAR
  5
17C
102
{ACAD_REACTORS
330
17B
102
}
330
17B
100
DictionaryVariables
280
     0
  1
Standard
  0
DICTIONARYVAR
  5
180
102
{ACAD_REACTORS
330
17B
102
}
330
17B
100
DictionaryVariables
280
     0
  1
2
  0
DICTIONARYVAR
  5
181
102
{ACAD_REACTORS
330
17B
102
}
330
17B
100
DictionaryVariables
280
     0
  1
1
  0
DICTIONARYVAR
  5
186
102
{ACAD_REACTORS
330
17B
102
}
330
17B
100
DictionaryVariables
280
     0
  1
1
  0
DICTIONARY
  5
189
330
45
100
AcDbDictionary
280
     1
  3
ACAD_XREC_ROUNDTRIP
360
18A
  0
DICTIONARY
  5
187
330
44
100
AcDbDictionary
280
     1
  3
ACAD_XREC_ROUNDTRIP
360
188
  0
DICTIONARY
  5
18B
330
46
100
AcDbDictionary
280
     1
  3
ACAD_XREC_ROUNDTRIP
360
18C
  0
XRECORD
  5
18A
102
{ACAD_REACTORS
330
189
102
}
330
189
100
AcDbXrecord
102
MATERIAL
148
0.0
149
0.0
149
0.0
 93
        0
 94
      127
282
     0
 72
     1
 77
     1
171
     1
175
     1
179
     1
273
     0
  0
XRECORD
  5
188
102
{ACAD_REACTORS
330
187
102
}
330
187
100
AcDbXrecord
102
MATERIAL
148
0.0
149
0.0
149
0.0
 93
        0
 94
      127
282
     0
 72
     1
 77
     1
171
     1
175
     1
179
     1
273
     0
  0
XRECORD
  5
18C
102
{ACAD_REACTORS
330
18B
102
}
330
18B
100
AcDbXrecord
102
MATERIAL
148
0.0
149
0.0
149
0.0
 93
        0
 94
      127
282
     0
 72
     1
 77
     1
171
     1
175
     1
179
     1
273
     0
  0
ENDSEC
  0
EOF
