0
SECTION
2
HEADER
9
$INSUNITS
70
1
9
$ACADVER
1
AC1014
9
$HANDSEED
5
FFFF
0
ENDSEC
0
SECTION
2
TABLES
0
TABLE
2
VPORT
5
8
100
AcDbSymbolTable
0
ENDTAB
0
TABLE
2
LTYPE
5
5
100
AcDbSymbolTable
0
LTYPE
5
14
100
AcDbSymbolTableRecord
100
AcDbLinetypeTableRecord
2
BYBLOCK
70
0
0
LTYPE
5
15
100
AcDbSymbolTableRecord
100
AcDbLinetypeTableRecord
2
BYLAYER
70
0
0
ENDTAB
0
TABLE
2
LAYER
5
2
100
AcDbSymbolTable
70
2
0
LAYER
5
50
100
AcDbSymbolTableRecord
100
AcDbLayerTableRecord
2
0
70
0
6
CONTINUOUS
0
ENDTAB
0
TABLE
2
STYLE
5
3
100
AcDbSymbolTable
70
1
0
STYLE
5
11
100
AcDbSymbolTableRecord
100
AcDbTextStyleTableRecord
2
STANDARD
70
0
0
ENDTAB
0
TABLE
2
VIEW
5
6
100
AcDbSymbolTable
70
0
0
ENDTAB
0
TABLE
2
UCS
5
7
100
AcDbSymbolTable
70
0
0
ENDTAB
0
TABLE
2
APPID
5
9
100
AcDbSymbolTable
70
2
0
APPID
5
12
100
AcDbSymbolTableRecord
100
AcDbRegAppTableRecord
2
ACAD
70
0
0
ENDTAB
0
TABLE
2
DIMSTYLE
5
A
100
AcDbSymbolTable
70
1
0
ENDTAB
0
TABLE
2
BLOCK_RECORD
5
1
100
AcDbSymbolTable
70
1
0
BLOCK_RECORD
5
1F
100
AcDbSymbolTableRecord
100
AcDbBlockTableRecord
2
*MODEL_SPACE
0
BLOCK_RECORD
5
1B
100
AcDbSymbolTableRecord
100
AcDbBlockTableRecord
2
*PAPER_SPACE
0
ENDTAB
0
ENDSEC
0
SECTION
2
BLOCKS
0
BLOCK
5
20
100
AcDbEntity
100
AcDbBlockBegin
2
*MODEL_SPACE
0
ENDBLK
5
21
100
AcDbEntity
100
AcDbBlockEnd
0
BLOCK
5
1C
100
AcDbEntity
100
AcDbBlockBegin
2
*PAPER_SPACE
0
ENDBLK
5
1D
100
AcDbEntity
100
AcDbBlockEnd
0
ENDSEC
0
SECTION
2
ENTITIES
0
LWPOLYLINE
5
100
100
AcDbEntity
8
0
100
AcDbPolyline
90
30
70
1
43
0.0
10
-48.718018231889765
20
-4.1438603151742868
42
0.99999999999999989
10
-48.593018231889765
20
-4.1438603151742868
10
-48.285426619147458
20
-4.1438603151742868
10
-48.285426649999998
20
-4.5027796854666935
42
2.4142135623730949
10
-48.222926649999998
20
-4.5652796854666935
10
-46.285426649999998
20
-4.5652796854666935
10
-46.285426649999998
20
-5.3152796854666935
10
-48.222926649999998
20
-5.3152796854666935
42
2.4142135623730949
10
-48.285426649999998
20
-5.3777796854666944
10
-48.285426649999998
20
-5.8152796854666837
10
-48.714573349999995
20
-5.8152796854666819
10
-49.714573350000002
20
-4.8152796854666828
10
-49.714573350000002
20
-2.0000000000000004
10
-48.714573349999995
20
-1.0000000000000007
10
-48.285426649999998
20
-1.0000000000000002
10
-48.285426649999998
20
-1.4375000000000107
42
2.4142135623730994
10
-48.222926649999998
20
-1.5000000000000107
10
-46.285426649999998
20
-1.5000000000000107
10
-46.285426649999998
20
-2.2500000000000111
10
-48.222926649999998
20
-2.2500000000000111
42
2.4142135623729524
10
-48.285426650000005
20
-2.3125000000000107
10
-48.285426619147458
20
-2.6714193702923965
10
-48.593018231889765
20
-2.6714193702923965
42
0.99999999999999989
10
-48.718018231889765
20
-2.6714193702923965
10
-48.718018231889765
20
-2.7895296065128687
42
0.99999999999999989
10
-48.593018231889765
20
-2.7895296065128692
10
-48.285426649999998
20
-2.7895296065128692
10
-48.285426649999998
20
-4.0257500789538145
10
-48.593018231889765
20
-4.0257500789538136
42
0.99999999999999989
10
-48.718018231889765
20
-4.0257500789538136
0
LINE
5
101
100
AcDbEntity
8
0
100
AcDbLine
10
-49.059264776400141
20
-2.1070192865904089
30
0
11
-48.612561473821479
21
-2.0059203990267185
31
-6.9218046080114219e-81
0
LINE
5
102
100
AcDbEntity
8
0
100
AcDbLine
10
-48.612561473821479
20
-2.0059203990267185
30
-6.9218046080114219e-81
11
-48.558715294790467
21
-2.0196566648775365
31
-8.343630503493546e-82
0
LINE
5
103
100
AcDbEntity
8
0
100
AcDbLine
10
-48.558715294790467
20
-2.0196566648775365
30
-8.343630503493546e-82
11
-48.558715294790467
21
-2.2410852215826207
31
-8.8826784904062019e-193
0
LINE
5
104
100
AcDbEntity
8
0
100
AcDbLine
10
-48.558715294790467
20
-2.2410852215826207
30
-8.8826784904062019e-193
11
-49.204319719379725
21
-2.3938324959664059
31
1.0003838465661631e-80
0
SPLINE
5
105
100
AcDbEntity
8
0
100
AcDbSpline
70
0
71
3
72
9
73
5
74
0
42
0.000000001
43
0.0000000001
44
0.0000000001
40
0
40
0
40
0
40
0
40
0.042510019863211512
40
0.080814540350799768
40
0.080814540350799768
40
0.080814540350799768
40
0.080814540350799768
10
-49.204319719379725
20
-2.3938324959664059
30
0
10
-49.209709255136346
20
-2.395290860442445
30
0
10
-49.219955142018463
20
-2.3980633139763246
30
0
10
-49.229849655191352
20
-2.4019027690689323
30
0
10
-49.234539462012016
20
-2.403722596115125
30
0
0
SPLINE
5
106
100
AcDbEntity
8
0
100
AcDbSpline
70
0
71
3
72
9
73
5
74
0
42
0.000000001
43
0.0000000001
44
0.0000000001
40
0
40
0
40
0
40
0
40
0.031449620942485691
40
0.071881535496159582
40
0.071881535496159582
40
0.071881535496159582
40
0.071881535496159582
10
-49.234539462012016
20
-2.403722596115125
30
0
10
-49.237961443746954
20
-2.4061645221281784
30
0
10
-49.245782755870145
20
-2.4117458101095912
30
0
10
-49.249488238843327
20
-2.4206769986132177
30
0
10
-49.251572498311596
20
-2.4257006120898756
30
0
0
SPLINE
5
107
100
AcDbEntity
8
0
100
AcDbSpline
70
0
71
3
72
9
73
5
74
0
42
0.000000001
43
0.0000000001
44
0.0000000001
40
0
40
0
40
0
40
0
40
0.0343272865846442
40
0.059175440355774919
40
0.059175440355774919
40
0.059175440355774919
40
0.059175440355774919
10
-49.251572498311596
20
-2.4257006120898756
30
0
10
-49.253364207780649
20
-2.4298711793621952
30
0
10
-49.256452864280192
20
-2.4370606539588646
30
0
10
-49.261528937746604
20
-2.4429907663911523
30
0
10
-49.263660414137625
20
-2.4454808593201052
30
0
0
SPLINE
5
108
100
AcDbEntity
8
0
100
AcDbSpline
70
0
71
3
72
9
73
5
74
0
42
0.000000001
43
0.0000000001
44
0.0000000001
40
0
40
0
40
0
40
0
40
0.020945566537371476
40
0.044926011439838598
40
0.044926011439838598
40
0.044926011439838598
40
0.044926011439838598
10
-49.263660414137625
20
-2.4454808593201052
30
0
10
-49.26596241871772
20
-2.4470814691600107
30
0
10
-49.270899973589557
20
-2.4505146069483827
30
0
10
-49.276926858492487
20
-2.4508150210745474
30
0
10
-49.280143867452701
20
-2.4509753750469905
30
0
0
SPLINE
5
109
100
AcDbEntity
8
0
100
AcDbSpline
70
0
71
3
72
9
73
5
74
0
42
0.000000001
43
0.0000000001
44
0.0000000001
40
0
40
0
40
0
40
0
40
0.060852999518326165
40
0.14448746497501913
40
0.14448746497501913
40
0.14448746497501913
40
0.14448746497501913
10
-49.280143867452701
20
-2.4509753750469905
30
0
10
-49.288426070948148
20
-2.448293521069397
30
0
10
-49.308091076731529
20
-2.4419258105913131
30
0
10
-49.308486465453996
20
-2.4205128233659172
30
0
10
-49.308715330459385
20
-2.4081182274697501
30
0
0
LINE
5
110
100
AcDbEntity
8
0
100
AcDbLine
10
-49.308715330459385
20
-2.4081182274697501
30
0
11
-49.308715330459385
21
-2.1339423761059146
31
1.0998653352295583e-192
0
SPLINE
5
111
100
AcDbEntity
8
0
100
AcDbSpline
70
0
71
3
72
9
73
5
74
0
42
0.000000001
43
0.0000000001
44
0.0000000001
40
0
40
0
40
0
40
0
40
0.038019429141121441
40
0.071023793263719853
40
0.071023793263719853
40
0.071023793263719853
40
0.071023793263719853
10
-49.308715330459385
20
-2.1339423761059146
30
0
10
-49.308487828539796
20
-2.1288596164053781
30
0
10
-49.308062834012816
20
-2.1193645534248136
30
0
10
-49.303068937522291
20
-2.1113111324513887
30
0
10
-49.30074830142852
20
-2.1075687522429347
30
0
0
SPLINE
5
112
100
AcDbEntity
8
0
100
AcDbSpline
70
0
71
3
72
9
73
5
74
0
42
0.000000001
43
0.0000000001
44
0.0000000001
40
0
40
0
40
0
40
0
40
0.030159756038875839
40
0.060986234030253529
40
0.060986234030253529
40
0.060986234030253529
40
0.060986234030253529
10
-49.30074830142852
20
-2.1075687522429347
30
0
10
-49.297851587419785
20
-2.104684221555817
30
0
10
-49.291994123644947
20
-2.0988513937529256
30
0
10
-49.283757703782129
20
-2.0980723891161235
30
0
10
-49.279594472199364
20
-2.0976786286278202
30
0
0
SPLINE
5
113
100
AcDbEntity
8
0
100
AcDbSpline
70
0
71
3
72
9
73
5
74
0
42
0.000000001
43
0.0000000001
44
0.0000000001
40
0
40
0
40
0
40
0
40
0.024582104265917584
40
0.043932777537378641
40
0.043932777537378641
40
0.043932777537378641
40
0.043932777537378641
10
-49.279594472199364
20
-2.0976786286278202
30
0
10
-49.276306296527913
20
-2.0977568571286414
30
0
10
-49.270429717016462
20
-2.0978966659621925
30
0
10
-49.265348849007999
20
-2.100796828254917
30
0
10
-49.263110925018701
20
-2.1020742365160494
30
0
0
SPLINE
5
114
100
AcDbEntity
8
0
100
AcDbSpline
70
0
71
3
72
9
73
5
74
0
42
0.000000001
43
0.0000000001
44
0.0000000001
40
0
40
0
40
0
40
0
40
0.023993170485196655
40
0.061390754617923253
40
0.061390754617923253
40
0.061390754617923253
40
0.061390754617923253
10
-49.263110925018701
20
-2.1020742365160494
30
0
10
-49.260963568541584
20
-2.1043923412422392
30
0
10
-49.255469178600698
20
-2.1103236206666058
30
0
10
-49.251681802556462
20
-2.1174893140489401
30
0
10
-49.249374635701493
20
-2.121854460279883
30
0
0
SPLINE
5
115
100
AcDbEntity
8
0
100
AcDbSpline
70
0
71
3
72
9
73
5
74
0
42
0.000000001
43
0.0000000001
44
0.0000000001
40
0
40
0
40
0
40
0
40
0.027885944472159276
40
0.050095312180960069
40
0.050095312180960069
40
0.050095312180960069
40
0.050095312180960069
10
-49.249374635701493
20
-2.121854460279883
30
0
10
-49.247652354363474
20
-2.1251305478960587
30
0
10
-49.24455838631166
20
-2.1310158293513211
30
0
10
-49.239520311310805
20
-2.1353275210967131
30
0
10
-49.237286719875456
20
-2.1372390761554878
30
0
0
SPLINE
5
116
100
AcDbEntity
8
0
100
AcDbSpline
70
0
71
3
72
9
73
5
74
0
42
0.000000001
43
0.0000000001
44
0.0000000001
40
0
40
0
40
0
40
0
40
0.020617586058990833
40
0.043813548708242694
40
0.043813548708242694
40
0.043813548708242694
40
0.043813548708242694
10
-49.237286719875456
20
-2.1372390761554878
30
0
10
-49.234864451526889
20
-2.1385199388673022
30
0
10
-49.229716992849092
20
-2.1412418453335631
30
0
10
-49.223888835427701
20
-2.1414986992877725
30
0
10
-49.220803266560381
20
-2.141634684043717
30
0
0
SPLINE
5
117
100
AcDbEntity
8
0
100
AcDbSpline
70
0
71
3
72
9
73
5
74
0
42
0.000000001
43
0.0000000001
44
0.0000000001
40
0
40
0
40
0
40
0
40
0.022354323637303278
40
0.042143455147840118
40
0.042143455147840118
40
0.042143455147840118
40
0.042143455147840118
10
-49.220803266560381
20
-2.141634684043717
30
0
10
-49.217863841028802
20
-2.1415843596697628
30
0
10
-49.212322293448992
20
-2.1414894857191582
30
0
10
-49.206876757592148
20
-2.1404666315211189
30
0
10
-49.204319719379725
20
-2.1399863340189302
30
0
0
LINE
5
118
100
AcDbEntity
8
0
100
AcDbLine
10
-49.204319719379725
20
-2.1399863340189302
30
0
11
-49.124649429071056
21
-2.1224039024660133
31
-1.2345155708426368e-81
0
LINE
5
119
100
AcDbEntity
8
0
100
AcDbLine
10
-49.124649429071056
20
-2.1224039024660133
30
-1.2345155708426368e-81
11
-49.124649429071056
21
-1.9691072093624935
31
6.1495466472042955e-193
0
LINE
5
120
100
AcDbEntity
8
0
100
AcDbLine
10
-49.124649429071056
20
-1.9691072093624935
30
6.1495466472042955e-193
11
-49.059264776400141
21
-1.9839423595855721
31
-1.0131552364582171e-81
0
LINE
5
121
100
AcDbEntity
8
0
100
AcDbLine
10
-49.059264776400141
20
-1.9839423595855721
30
-1.0131552364582171e-81
11
-49.059264776400141
21
-2.1070192865904089
31
0
0
SPLINE
5
122
100
AcDbEntity
8
0
100
AcDbSpline
70
0
71
3
72
9
73
5
74
0
42
0.000000001
43
0.0000000001
44
0.0000000001
40
0
40
0
40
0
40
0
40
0.075547383734829734
40
0.16568879477341442
40
0.16568879477341442
40
0.16568879477341442
40
0.16568879477341442
10
-49.210913119478874
20
-1.8322940106402399
30
0
10
-49.202317320442148
20
-1.8373116946989967
30
0
10
-49.18346521051987
20
-1.8483163646577516
30
0
10
-49.162453986058303
20
-1.8543086738023267
30
0
10
-49.151023029467638
20
-1.8575687325311625
30
0
0
LINE
5
123
100
AcDbEntity
8
0
100
AcDbLine
10
-49.151023029467638
20
-1.8575687325311627
30
0
11
-48.698275722043171
21
-1.9817445673746552
31
-7.0154583158551951e-81
0
LINE
5
124
100
AcDbEntity
8
0
100
AcDbLine
10
-48.698275722043171
20
-1.9817445673746552
30
-7.0154583158551951e-81
11
-48.812011991085413
21
-2.0097665412624219
31
1.7623783540665084e-81
0
LINE
5
125
100
AcDbEntity
8
0
100
AcDbLine
10
-48.812011991085413
20
-2.0097665412624219
30
1.7623783540665084e-81
11
-49.166957087529376
21
-1.9125137959344347
31
5.4999830759572153e-81
0
SPLINE
5
126
100
AcDbEntity
8
0
100
AcDbSpline
70
0
71
3
72
9
73
5
74
0
42
0.000000001
43
0.0000000001
44
0.0000000001
40
0
40
0
40
0
40
0
40
0.038600530475421002
40
0.073602176783022055
40
0.073602176783022055
40
0.073602176783022055
40
0.073602176783022055
10
-49.166957087529376
20
-1.9125137959344347
30
0
10
-49.171874744165436
20
-1.9112326674654121
30
0
10
-49.181251564344528
20
-1.9087898553356977
30
0
10
-49.190927257443484
20
-1.9083346579662703
30
0
10
-49.195528550536061
20
-1.9081181880462055
30
0
0
SPLINE
5
127
100
AcDbEntity
8
0
100
AcDbSpline
70
0
71
3
72
9
73
5
74
0
42
0.000000001
43
0.0000000001
44
0.0000000001
40
0
40
0
40
0
40
0
40
0.078123514372208755
40
0.15773487291403449
40
0.15773487291403449
40
0.15773487291403449
40
0.15773487291403449
10
-49.195528550536061
20
-1.9081181880462055
30
0
10
-49.206265586310018
20
-1.9095191726807466
30
0
10
-49.227944142208173
20
-1.9123478233765026
30
0
10
-49.239265184063143
20
-1.9310808874030394
30
0
10
-49.244979098212447
20
-1.9405357698222012
30
0
0
LINE
5
128
100
AcDbEntity
8
0
100
AcDbLine
10
-49.244979098212447
20
-1.9405357698222012
30
0
11
-49.253770267056112
21
-1.9597665513999045
31
1.3622185611933632e-82
0
SPLINE
5
129
100
AcDbEntity
8
0
100
AcDbSpline
70
0
71
3
72
9
73
5
74
0
42
0.000000001
43
0.0000000001
44
0.0000000001
40
0
40
0
40
0
40
0
40
0.044409248330056675
40
0.087831736899707871
40
0.087831736899707871
40
0.087831736899707871
40
0.087831736899707871
10
-49.253770267056112
20
-1.9597665513999045
30
0
10
-49.256938691250873
20
-1.9650548178047842
30
0
10
-49.263205138234881
20
-1.9755138469708913
30
0
10
-49.275275478598054
20
-1.9771095257418463
30
0
10
-49.281242845690542
20
-1.9778984016725563
30
0
0
SPLINE
5
130
100
AcDbEntity
8
0
100
AcDbSpline
70
0
71
3
72
9
73
5
74
0
42
0.000000001
43
0.0000000001
44
0.0000000001
40
0
40
0
40
0
40
0
40
0.058203646072667536
40
0.13657911255213734
40
0.13657911255213734
40
0.13657911255213734
40
0.13657911255213734
10
-49.281242845690542
20
-1.9778984016725563
30
0
10
-49.289212130679445
20
-1.9754304129783586
30
0
10
-49.307912640783229
20
-1.9696390969975455
30
0
10
-49.308422658500085
20
-1.9494016912351191
30
0
10
-49.308715330459385
20
-1.9377885236919561
30
0
0
LINE
5
131
100
AcDbEntity
8
0
100
AcDbLine
10
-49.308715330459393
20
-1.9377885236919561
30
0
11
-49.308715330459385
21
-1.7982280759061582
31
5.5985127036232055e-193
0
SPLINE
5
132
100
AcDbEntity
8
0
100
AcDbSpline
70
0
71
3
72
9
73
5
74
0
42
0.000000001
43
0.0000000001
44
0.0000000001
40
0
40
0
40
0
40
0
40
0.04654464942790864
40
0.085497550626693841
40
0.085497550626693841
40
0.085497550626693841
40
0.085497550626693841
10
-49.308715330459385
20
-1.7982280759061582
30
0
10
-49.308504923378422
20
-1.7920214107843171
30
0
10
-49.308118428039478
20
-1.7806204297478301
30
0
10
-49.302677646291578
20
-1.770634727839453
30
0
10
-49.300198812309596
20
-1.7660852166898773
30
0
0
SPLINE
5
133
100
AcDbEntity
8
0
100
AcDbSpline
70
0
71
3
72
9
73
5
74
0
42
0.000000001
43
0.0000000001
44
0.0000000001
40
0
40
0
40
0
40
0
40
0.03411822859824442
40
0.068612747433654114
40
0.068612747433654114
40
0.068612747433654114
40
0.068612747433654114
10
-49.300198812309596
20
-1.7660852166898773
30
0
10
-49.297083306856059
20
-1.7626397331456862
30
0
10
-49.290817935012491
20
-1.7557107657896087
30
0
10
-49.28152111662196
20
-1.7547533583475117
30
0
10
-49.276847214335916
20
-1.7542720292901597
30
0
0
SPLINE
5
134
100
AcDbEntity
8
0
100
AcDbSpline
70
0
71
3
72
9
73
5
74
0
42
0.000000001
43
0.0000000001
44
0.0000000001
40
0
40
0
40
0
40
0
40
0.040043122634891147
40
0.095010254425071827
40
0.095010254425071827
40
0.095010254425071827
40
0.095010254425071827
10
-49.276847214335916
20
-1.7542720292901597
30
0
10
-49.271575464064576
20
-1.75578338896619
30
0
10
-49.259067190443844
20
-1.7593693897048623
30
0
10
-49.253623183779112
20
-1.7714555441222648
30
0
10
-49.250473613939334
20
-1.7784478550756238
30
0
0
SPLINE
5
135
100
AcDbEntity
8
0
100
AcDbSpline
70
0
71
3
72
9
73
5
74
0
42
0.000000001
43
0.0000000001
44
0.0000000001
40
0
40
0
40
0
40
0
40
0.055164485006518306
40
0.095976223356429469
40
0.095976223356429469
40
0.095976223356429469
40
0.095976223356429469
10
-49.250473613939334
20
-1.7784478550756238
30
0
10
-49.247529647610115
20
-1.7850779516842017
30
0
10
-49.242407678830133
20
-1.7966131202424576
30
0
10
-49.235537729737132
20
-1.8071914248626271
30
0
10
-49.232616437826955
20
-1.8116896118640127
30
0
0
SPLINE
5
136
100
AcDbEntity
8
0
100
AcDbSpline
70
0
71
3
72
9
73
5
74
0
42
0.000000001
43
0.0000000001
44
0.0000000001
40
0
40
0
40
0
40
0
40
0.035827457094617626
40
0.076234500475490491
40
0.076234500475490491
40
0.076234500475490491
40
0.076234500475490491
10
-49.232616437826955
20
-1.8116896118640127
30
0
10
-49.229596786141158
20
-1.8153142655939571
30
0
10
-49.223171500716376
20
-1.8230268885068581
30
0
10
-49.215159676289311
20
-1.829083687854042
30
0
10
-49.210913119478874
20
-1.8322940106402399
30
0
0
LWPOLYLINE
5
137
100
AcDbEntity
8
0
100
AcDbPolyline
90
30
70
1
43
0.0
10
-48.787528461604623
20
-9.9591399960258222
42
0.99999999999999989
10
-48.66252846160463
20
-9.959139996025824
10
-47.999999984573726
20
-9.9591399960258222
10
-47.999999936166084
20
-10.318059366318279
42
2.41421572726422
10
-47.937500015426266
20
-10.380559366318229
10
-46.000000015426266
20
-10.380559366318229
10
-46.000000015426266
20
-11.130559366318229
10
-47.937500015426266
20
-11.130559366318231
42
2.4142157272642577
10
-47.999999936166084
20
-11.193059366318179
10
-47.999999936166084
20
-11.630559361703069
10
-48.999999984573726
20
-11.630559361703069
10
-49.999999984573726
20
-10.630559361703069
10
-49.999999984573719
20
-7.8152796854666837
10
-48.999999984573726
20
-6.8152796854666846
10
-47.999999936166084
20
-6.8152796854666846
10
-47.999999936166084
20
-7.252779680851595
42
2.41421572726422
10
-47.937500015426266
20
-7.3152796808515452
10
-46.000000015426266
20
-7.3152796808515452
10
-46.000000015426266
20
-8.0652796808515461
10
-47.937500015426266
20
-8.0652796808515479
42
2.4142157272642577
10
-47.999999936166084
20
-8.1277796808514964
10
-47.999999984573726
20
-8.4866990511439315
10
-48.66252846160463
20
-8.4866990511439315
42
0.99999999999999989
10
-48.787528461604623
20
-8.4866990511439315
10
-48.787528461604623
20
-8.6048092873644038
42
0.99999999999999989
10
-48.66252846160463
20
-8.6048092873644038
10
-47.999999936166084
20
-8.6048092873644038
10
-47.999999936166084
20
-9.8410297598053482
10
-48.66252846160463
20
-9.8410297598053482
42
0.99999999999999989
10
-48.787528461604623
20
-9.8410297598053482
0
SPLINE
5
138
100
AcDbEntity
8
0
100
AcDbSpline
70
0
71
3
72
9
73
5
74
0
42
0.000000001
43
0.0000000001
44
0.0000000001
40
0
40
0
40
0
40
0
40
0.03587154264959324
40
0.08060509632221112
40
0.08060509632221112
40
0.08060509632221112
40
0.08060509632221112
10
-48.548972609204888
20
-7.5099822993318393
30
7.5228121301260767e-79
10
-48.546815883481756
20
-7.5142303509209851
30
7.5224779388639478e-79
10
-48.541969616167506
20
-7.523775928898206
30
7.5217269948876261e-79
10
-48.541702991516786
20
-7.5345162365068035
30
7.5216856805806736e-79
10
-48.54155502236015
20
-7.5404768041233847
30
7.5216627523062611e-79
0
LINE
5
139
100
AcDbEntity
8
0
100
AcDbLine
10
-48.54155502236015
20
-7.5404768041233847
30
7.5216627523062611e-79
11
-48.54155502236015
21
-7.7992680161452199
31
7.5216627523062611e-79
0
LINE
5
140
100
AcDbEntity
8
0
100
AcDbLine
10
-48.54155502236015
20
-7.7992680161452199
30
7.5216627523062611e-79
11
-49.291555058029076
21
-7.7992680161452199
31
7.6378775569189429e-79
0
LINE
5
141
100
AcDbEntity
8
0
100
AcDbLine
10
-49.291555058029076
20
-7.7992680161452199
30
7.6378775569189429e-79
11
-49.291555058029076
21
-7.5404768041233847
31
7.6378775569189429e-79
0
SPLINE
5
142
100
AcDbEntity
8
0
100
AcDbSpline
70
0
71
3
72
9
73
5
74
0
42
0.000000001
43
0.0000000001
44
0.0000000001
40
0
40
0
40
0
40
0
40
0.044733568490944779
40
0.080605050485582155
40
0.080605050485582155
40
0.080605050485582155
40
0.080605050485582155
10
-49.291555058029076
20
-7.5404768041233847
30
7.6378775569189429e-79
10
-49.291407085179621
20
-7.5345162362493028
30
7.6378546280723166e-79
10
-49.291140454114775
20
-7.5237759378420703
30
7.6378133127714752e-79
10
-49.286294224598684
20
-7.5142303503763221
30
7.6370623746520951e-79
10
-49.284137518117127
20
-7.5099822993318393
30
7.636728186371507e-79
0
SPLINE
5
143
100
AcDbEntity
8
0
100
AcDbSpline
70
0
71
3
72
9
73
5
74
0
42
0.000000001
43
0.0000000001
44
0.0000000001
40
0
40
0
40
0
40
0
40
0.030640874290956115
40
0.062259364028901712
40
0.062259364028901712
40
0.062259364028901712
40
0.062259364028901712
10
-49.284137518117127
20
-7.5099822993318393
30
7.636728186371507e-79
10
-49.281366731321903
20
-7.5068575157292967
30
7.6362988444638845e-79
10
-49.275736754119144
20
-7.5005082504317446
30
7.6354264622379177e-79
10
-49.267278917229348
20
-7.4996857302561546
30
7.6341158944847881e-79
10
-49.262983595022384
20
-7.4992680124375291
30
7.6334503211417343e-79
0
SPLINE
5
144
100
AcDbEntity
8
0
100
AcDbSpline
70
0
71
3
72
9
73
5
74
0
42
0.000000001
43
0.0000000001
44
0.0000000001
40
0
40
0
40
0
40
0
40
0.049460342206835338
40
0.099779461360436528
40
0.099779461360436528
40
0.099779461360436528
40
0.099779461360436528
10
-49.262983595022384
20
-7.4992680124375291
30
7.6334503211417343e-79
10
-49.256105481234108
20
-7.5002148885554174
30
7.632384536325744e-79
10
-49.242229829381564
20
-7.5021250813442739
30
7.630234461536108e-79
10
-49.236302509122424
20
-7.5148359169696297
30
7.6293160050920664e-79
10
-49.233313341509017
20
-7.5212460342788789
30
7.6288528244072314e-79
0
SPLINE
5
145
100
AcDbEntity
8
0
100
AcDbSpline
70
0
71
3
72
9
73
5
74
0
42
0.000000001
43
0.0000000001
44
0.0000000001
40
0
40
0
40
0
40
0
40
0.038506602322357517
40
0.056943988056071565
40
0.056943988056071565
40
0.056943988056071565
40
0.056943988056071565
10
-49.233313341509017
20
-7.5212460342788789
30
7.6288528244072314e-79
10
-49.231736440647062
20
-7.5260481539380839
30
7.6286084787847642e-79
10
-49.229404502266789
20
-7.5331495814342944
30
7.6282471377843069e-79
10
-49.226753917061664
20
-7.5401373680404937
30
7.6278364214815429e-79
10
-49.225895707731489
20
-7.5423998811078352
30
7.6277034393150361e-79
0
SPLINE
5
146
100
AcDbEntity
8
0
100
AcDbSpline
70
0
71
3
72
9
73
5
74
0
42
0.000000001
43
0.0000000001
44
0.0000000001
40
0
40
0
40
0
40
0
40
0.0097348954004535786
40
0.022894029561828712
40
0.022894029561828712
40
0.022894029561828712
40
0.022894029561828712
10
-49.225895707731489
20
-7.5423998811078352
30
7.6277034393150361e-79
10
-49.225192038144662
20
-7.5434798951965387
30
7.6275944035554948e-79
10
-49.223537183966975
20
-7.546019817142982
30
7.6273379788277947e-79
10
-49.221022470566915
20
-7.5477335429103176
30
7.626948316277732e-79
10
-49.219577052191809
20
-7.5487185659805149
30
7.6267243442696551e-79
0
SPLINE
5
147
100
AcDbEntity
8
0
100
AcDbSpline
70
0
71
3
72
9
73
5
74
0
42
0.000000001
43
0.0000000001
44
0.0000000001
40
0
40
0
40
0
40
0
40
0.031565440435035522
40
0.073989558913293174
40
0.073989558913293174
40
0.073989558913293174
40
0.073989558913293174
10
-49.219577052191809
20
-7.5487185659805149
30
7.6267243442696551e-79
10
-49.215845340401124
20
-7.5506313260128461
30
7.6261461040883226e-79
10
-49.207098188275921
20
-7.5551148456200066
30
7.6247907060525854e-79
10
-49.197219384713243
20
-7.555240137804943
30
7.6232599551575952e-79
10
-49.191555078304042
20
-7.5553119778128588
30
7.6223822535158536e-79
0
LINE
5
148
100
AcDbEntity
8
0
100
AcDbLine
10
-49.191555078304042
20
-7.5553119778128579
30
7.6223822535158536e-79
11
-48.641555049017981
21
-7.5553119778128588
31
7.5371580629817301e-79
0
SPLINE
5
149
100
AcDbEntity
8
0
100
AcDbSpline
70
0
71
3
72
9
73
5
74
0
42
0.000000001
43
0.0000000001
44
0.0000000001
40
0
40
0
40
0
40
0
40
0.042424237105603606
40
0.073989677540639121
40
0.073989677540639121
40
0.073989677540639121
40
0.073989677540639121
10
-48.641555049017981
20
-7.5553119778128588
30
7.5371580629817301e-79
10
-48.635890726426112
20
-7.5552401401506666
30
7.5362803588324354e-79
10
-48.626011906424822
20
-7.5551148522062395
30
7.534749605390232e-79
10
-48.617264740073992
20
-7.5506313258327671
30
7.5333942051501908e-79
10
-48.613533028197423
20
-7.5487185659805149
30
7.5328159649555489e-79
0
SPLINE
5
150
100
AcDbEntity
8
0
100
AcDbSpline
70
0
71
3
72
9
73
5
74
0
42
0.000000001
43
0.0000000001
44
0.0000000001
40
0
40
0
40
0
40
0
40
0.013159134161375135
40
0.022894029561828712
40
0.022894029561828712
40
0.022894029561828712
40
0.022894029561828712
10
-48.613533028197423
20
-7.5487185659805149
30
7.5328159649555489e-79
10
-48.612087609822311
20
-7.5477335429103176
30
7.532591992947472e-79
10
-48.60957289642225
20
-7.546019817142982
30
7.5322023303974093e-79
10
-48.607918042244563
20
-7.5434798951965369
30
7.5319459056697092e-79
10
-48.607214372657737
20
-7.5423998811078352
30
7.5318368699101679e-79
0
SPLINE
5
151
100
AcDbEntity
8
0
100
AcDbSpline
70
0
71
3
72
9
73
5
74
0
42
0.000000001
43
0.0000000001
44
0.0000000001
40
0
40
0
40
0
40
0
40
0.01843736486693192
40
0.056943948016823516
40
0.056943948016823516
40
0.056943948016823516
40
0.056943948016823516
10
-48.607214372657737
20
-7.5423998811078352
30
7.5318368699101679e-79
10
-48.606356171734596
20
-7.5401373678036956
30
7.5317038890463567e-79
10
-48.603705611358542
20
-7.5331495774709589
30
7.5312931765909341e-79
10
-48.60137368134253
20
-7.526048152927161
30
7.5309318368865433e-79
10
-48.599796785812998
20
-7.5212460342788789
30
7.5306874920903523e-79
0
SPLINE
5
152
100
AcDbEntity
8
0
100
AcDbSpline
70
0
71
3
72
9
73
5
74
0
42
0.000000001
43
0.0000000001
44
0.0000000001
40
0
40
0
40
0
40
0
40
0.050319230740021918
40
0.099779625924893159
40
0.099779625924893159
40
0.099779625924893159
40
0.099779625924893159
10
-48.599796785812998
20
-7.5212460342788789
30
7.5306874920903523e-79
10
-48.596807593037028
20
-7.5148359140376604
30
7.530224307506501e-79
10
-48.590880226250675
20
-7.502125079821873
30
7.5293058438529235e-79
10
-48.577004556912996
20
-7.5002148876848569
30
7.5271557663539137e-79
10
-48.570126438434052
20
-7.4992680124375291
30
7.52608998081109e-79
0
SPLINE
5
153
100
AcDbEntity
8
0
100
AcDbSpline
70
0
71
3
72
9
73
5
74
0
42
0.000000001
43
0.0000000001
44
0.0000000001
40
0
40
0
40
0
40
0
40
0.031618373321136588
40
0.062259158701347683
40
0.062259158701347683
40
0.062259158701347683
40
0.062259158701347683
10
-48.570126438434052
20
-7.4992680124375291
30
7.52608998081109e-79
10
-48.565831131224826
20
-7.4996857309862044
30
7.5254244097919813e-79
10
-48.557373320619135
20
-7.500508252915159
30
7.5241138461116543e-79
10
-48.551743379392427
20
-7.5068575157186137
30
7.5232414694602867e-79
10
-48.548972609204888
20
-7.5099822993318393
30
7.5228121301260767e-79
0
SPLINE
5
154
100
AcDbEntity
8
0
100
AcDbSpline
70
0
71
3
72
9
73
5
74
0
42
0.000000001
43
0.0000000001
44
0.0000000001
40
0
40
0
40
0
40
0
40
0.071230541597593497
40
0.14551287980272121
40
0.14551287980272121
40
0.14551287980272121
40
0.14551287980272121
10
-48.85199459773569
20
-8.0987186069997747
30
7.5697663161469393e-79
10
-48.857617295281031
20
-8.091206873687403
30
7.5706375703676767e-79
10
-48.869103588853029
20
-8.0758615748580329
30
7.5724174067672881e-79
10
-48.87669215461014
20
-8.058255645736379
30
7.5735932782937027e-79
10
-48.880566013809585
20
-8.0492680593233885
30
7.5741935446517682e-79
0
SPLINE
5
155
100
AcDbEntity
8
0
100
AcDbSpline
70
0
71
3
72
9
73
5
74
0
42
0.000000001
43
0.0000000001
44
0.0000000001
40
0
40
0
40
0
40
0
40
0.090362738230504697
40
0.20908602448363187
40
0.20908602448363187
40
0.20908602448363187
40
0.20908602448363187
10
-48.880566013809585
20
-8.0492680593233885
30
7.5741935446517682e-79
10
-48.884451182305632
20
-8.0380554633754269
30
7.5747955634200119e-79
10
-48.893440888142287
20
-8.0121111730981696
30
7.5761885458968734e-79
10
-48.89959757836592
20
-7.9853453446414804
30
7.5771425439200346e-79
10
-48.903093471970465
20
-7.9701471642680524
30
7.5776842433505382e-79
0
SPLINE
5
156
100
AcDbEntity
8
0
100
AcDbSpline
70
0
71
3
72
9
73
5
74
0
42
0.000000001
43
0.0000000001
44
0.0000000001
40
0
40
0
40
0
40
0
40
0.11385261653255521
40
0.19947300276882218
40
0.19947300276882218
40
0.19947300276882218
40
0.19947300276882218
10
-48.903093471970465
20
-7.9701471642680524
30
7.5776842433505382e-79
10
-48.906073233564534
20
-7.9848003647294012
30
7.5781459665438415e-79
10
-48.911293860114938
20
-8.0104731861824181
30
7.5789549186313847e-79
10
-48.91901157811759
20
-8.0355026053657088
30
7.5801508026941546e-79
10
-48.922324277014567
20
-8.0462460569004843
30
7.580664115543146e-79
0
SPLINE
5
157
100
AcDbEntity
8
0
100
AcDbSpline
70
0
71
3
72
9
73
5
74
0
42
0.000000001
43
0.0000000001
44
0.0000000001
40
0
40
0
40
0
40
0
40
0.069753429197071629
40
0.13633348229163733
40
0.13633348229163733
40
0.13633348229163733
40
0.13633348229163733
10
-48.922324277014567
20
-8.0462460569004843
30
7.580664115543146e-79
10
-48.925586039264935
20
-8.0548240216836398
30
7.5811695356026029e-79
10
-48.931961172518164
20
-8.0715897036483
30
7.5821573820428278e-79
10
-48.941360397785424
20
-8.0868637588158148
30
7.5836138208108218e-79
10
-48.945950619547709
20
-8.0943230225779406
30
7.5843250897439697e-79
0
SPLINE
5
158
100
AcDbEntity
8
0
100
AcDbSpline
70
0
71
3
72
9
73
5
74
0
42
0.000000001
43
0.0000000001
44
0.0000000001
40
0
40
0
40
0
40
0
40
0.10795228870918858
40
0.21541872876077034
40
0.21541872876077034
40
0.21541872876077034
40
0.21541872876077034
10
-48.945950619547709
20
-8.0943230225779406
30
7.5843250897439697e-79
10
-48.954441042445204
20
-8.1058655400930686
30
7.5856407067988834e-79
10
-48.971383676354044
20
-8.1288986270200692
30
7.5882660198598159e-79
10
-48.996021959407805
20
-8.1434048933197598
30
7.5920837973463594e-79
10
-49.008313316728504
20
-8.1506416679801426
30
7.593988380841713e-79
0
SPLINE
5
159
100
AcDbEntity
8
0
100
AcDbSpline
70
0
71
3
72
9
73
5
74
0
42
0.000000001
43
0.0000000001
44
0.0000000001
40
0
40
0
40
0
40
0
40
0.11057711228273143
40
0.2268991009818892
40
0.2268991009818892
40
0.2268991009818892
40
0.2268991009818892
10
-49.008313316728504
20
-8.1506416679801426
30
7.593988380841713e-79
10
-49.021795377862027
20
-8.1563297393373304
30
7.5960774675429052e-79
10
-49.049459941417979
20
-8.168001397699749
30
7.6003641764701685e-79
10
-49.079467890386226
20
-8.1694199409308261
30
7.605014000150592e-79
10
-49.094851751695785
20
-8.1701471706509121
30
7.6073977766189278e-79
0
SPLINE
5
160
100
AcDbEntity
8
0
100
AcDbSpline
70
0
71
3
72
9
73
5
74
0
42
0.000000001
43
0.0000000001
44
0.0000000001
40
0
40
0
40
0
40
0
40
0.2169808724702571
40
0.42444202315351676
40
0.42444202315351676
40
0.42444202315351676
40
0.42444202315351676
10
-49.094851751695785
20
-8.1701471706509121
30
7.6073977766189278e-79
10
-49.124245414198079
20
-8.1675302562285825
30
7.6119524147283891e-79
10
-49.18174313479588
20
-8.1624112407172742
30
7.6208618627912674e-79
10
-49.221918084280915
20
-8.1211058856199809
30
7.6270870943681736e-79
10
-49.241555021233765
20
-8.100916422677086
30
7.630129897945018e-79
0
SPLINE
5
161
100
AcDbEntity
8
0
100
AcDbSpline
70
0
71
3
72
9
73
5
74
0
42
0.000000001
43
0.0000000001
44
0.0000000001
40
0
40
0
40
0
40
0
40
0.11244817050404525
40
0.22427768376596047
40
0.22427768376596047
40
0.22427768376596047
40
0.22427768376596047
10
-49.241555021233765
20
-8.100916422677086
30
7.630129897945018e-79
10
-49.25003193592373
20
-8.0887225362785884
30
7.6314434218617662e-79
10
-49.266939127775977
20
-8.0644018507102757
30
7.6340632430673815e-79
10
-49.275848756170376
20
-8.0361548257533304
30
7.6354438172990936e-79
10
-49.280291282015845
20
-8.022070272181212
30
7.636132200297177e-79
0
SPLINE
5
162
100
AcDbEntity
8
0
100
AcDbSpline
70
0
71
3
72
9
73
5
74
0
42
0.000000001
43
0.0000000001
44
0.0000000001
40
0
40
0
40
0
40
0
40
0.12828403433268604
40
0.28876355154683764
40
0.28876355154683764
40
0.28876355154683764
40
0.28876355154683764
10
-49.280291282015845
20
-8.022070272181212
30
7.636132200297177e-79
10
-49.283566041213803
20
-8.0055212381929941
30
7.6366396342735042e-79
10
-49.290937426915725
20
-7.9682698541531538
30
7.637781853084614e-79
10
-49.291334426594155
20
-7.930274147927566
30
7.637843369401768e-79
10
-49.291555058029076
20
-7.9091581429517639
30
7.6378775569189429e-79
0
LINE
5
163
100
AcDbEntity
8
0
100
AcDbLine
10
-49.291555058029076
20
-7.9091581429517639
30
7.6378775569189429e-79
11
-49.291555058029076
21
-7.8437735137472471
31
7.6378775569189429e-79
0
LINE
5
164
100
AcDbEntity
8
0
100
AcDbLine
10
-49.291555058029076
20
-7.8437735137472471
30
7.6378775569189429e-79
11
-49.233862736762362
21
-7.8437735137472471
31
7.6289379548858791e-79
0
SPLINE
5
165
100
AcDbEntity
8
0
100
AcDbSpline
70
0
71
3
72
9
73
5
74
0
42
0.000000001
43
0.0000000001
44
0.0000000001
40
0
40
0
40
0
40
0
40
0.050265193399892646
40
0.089573780527646432
40
0.089573780527646432
40
0.089573780527646432
40
0.089573780527646432
10
-49.233862736762362
20
-7.8437735137472471
30
7.6289379548858791e-79
10
-49.233304796927506
20
-7.8503676355992837
30
7.6288515003981337e-79
10
-49.232310534756529
20
-7.8621185189361427
30
7.6286974364268829e-79
10
-49.228997829764346
20
-7.8734265091003817
30
7.6281841226334208e-79
10
-49.227544081222675
20
-7.8783889112005552
30
7.6279588598404981e-79
0
SPLINE
5
166
100
AcDbEntity
8
0
100
AcDbSpline
70
0
71
3
72
9
73
5
74
0
42
0.000000001
43
0.0000000001
44
0.0000000001
40
0
40
0
40
0
40
0
40
0.03425503257438936
40
0.070212547503813824
40
0.070212547503813824
40
0.070212547503813824
40
0.070212547503813824
10
-49.227544081222675
20
-7.8783889112005552
30
7.6279588598404981e-79
10
-49.225681395552776
20
-7.8825248358054134
30
7.6276702309859813e-79
10
-49.221863448341708
20
-7.8910022413416705
30
7.6270786283619095e-79
10
-49.215264332064557
20
-7.8975586986316451
30
7.6260560750655207e-79
10
-49.211884767720399
20
-7.9009164162942271
30
7.6255324012105163e-79
0
SPLINE
5
167
100
AcDbEntity
8
0
100
AcDbSpline
70
0
71
3
72
9
73
5
74
0
42
0.000000001
43
0.0000000001
44
0.0000000001
40
0
40
0
40
0
40
0
40
0.074441138995719594
40
0.16969185495913636
40
0.16969185495913636
40
0.16969185495913636
40
0.16969185495913636
10
-49.211884767720399
20
-7.9009164162942271
30
7.6255324012105163e-79
10
-49.203459851838709
20
-7.9061846440595627
30
7.62422693466851e-79
10
-49.184254885026981
20
-7.9181938012797204
30
7.6212510661892148e-79
10
-49.16148117406432
20
-7.9187410888716219
30
7.617722209863933e-79
10
-49.148697930726797
20
-7.9190482900332748
30
7.6157414071224222e-79
0
LINE
5
168
100
AcDbEntity
8
0
100
AcDbLine
10
-49.148697930726797
20
-7.9190482900332757
30
7.6157414071224222e-79
11
-49.02397263023078
21
-7.9190482900332748
31
7.5964148394716949e-79
0
SPLINE
5
169
100
AcDbEntity
8
0
100
AcDbSpline
70
0
71
3
72
9
73
5
74
0
42
0.000000001
43
0.0000000001
44
0.0000000001
40
0
40
0
40
0
40
0
40
0.062175114787786021
40
0.10976693080565
40
0.10976693080565
40
0.10976693080565
40
0.10976693080565
10
-49.02397263023078
20
-7.9190482900332748
30
7.5964148394716949e-79
10
-49.015784345248562
20
-7.9189808672980471
30
7.5951460396129432e-79
10
-49.001328354067411
20
-7.9188618359663367
30
7.5929060394653405e-79
10
-48.987228693879096
20
-7.9157340709237154
30
7.5907212538973931e-79
10
-48.981115482653543
20
-7.9143779610519802
30
7.5897739930782635e-79
0
SPLINE
5
170
100
AcDbEntity
8
0
100
AcDbSpline
70
0
71
3
72
9
73
5
74
0
42
0.000000001
43
0.0000000001
44
0.0000000001
40
0
40
0
40
0
40
0
40
0.04098863384150362
40
0.084307411385066464
40
0.084307411385066464
40
0.084307411385066464
40
0.084307411385066464
10
-48.981115482653543
20
-7.9143779610519802
30
7.5897739930782635e-79
10
-48.976046811633324
20
-7.9124336187459061
30
7.5889885869659352e-79
10
-48.965621323081315
20
-7.9084344011260779
30
7.5873731255560135e-79
10
-48.957345689340912
20
-7.9009274458487848
30
7.5860907907394175e-79
10
-48.953093508765775
20
-7.8970702271257327
30
7.585431902324462e-79
0
SPLINE
5
171
100
AcDbEntity
8
0
100
AcDbSpline
70
0
71
3
72
9
73
5
74
0
42
0.000000001
43
0.0000000001
44
0.0000000001
40
0
40
0
40
0
40
0
40
0.032887535337450598
40
0.063489465873829781
40
0.063489465873829781
40
0.063489465873829781
40
0.063489465873829781
10
-48.953093508765775
20
-7.8970702271257327
30
7.585431902324462e-79
10
-48.950054681479934
20
-7.8939586734467673
30
7.5849610267211565e-79
10
-48.944188218113773
20
-7.8879518116041778
30
7.5840520002392329e-79
10
-48.940557723200186
20
-7.8803868817724929
30
7.5834894439232818e-79
10
-48.938807824195223
20
-7.8767405846421639
30
7.583218291708238e-79
0
SPLINE
5
172
100
AcDbEntity
8
0
100
AcDbSpline
70
0
71
3
72
9
73
5
74
0
42
0.000000001
43
0.0000000001
44
0.0000000001
40
0
40
0
40
0
40
0
40
0.035323568594719627
40
0.081728828045177782
40
0.081728828045177782
40
0.081728828045177782
40
0.081728828045177782
10
-48.938807824195223
20
-7.8767405846421639
30
7.583218291708238e-79
10
-48.937366250961865
20
-7.8723260793288716
30
7.5829949155166636e-79
10
-48.9340308549192
20
-7.8621121524803677
30
7.5824780856753697e-79
10
-48.932521780574568
20
-7.8514664471686233
30
7.5822442499796816e-79
10
-48.93166493497715
20
-7.8454218637720334
30
7.5821114791277457e-79
0
LINE
5
173
100
AcDbEntity
8
0
100
AcDbLine
10
-48.93166493497715
20
-7.8454218637720352
30
7.5821114791277457e-79
11
-48.87452205589657
21
-7.8454218637720334
31
7.5732570148457105e-79
0
SPLINE
5
174
100
AcDbEntity
8
0
100
AcDbSpline
70
0
71
3
72
9
73
5
74
0
42
0.000000001
43
0.0000000001
44
0.0000000001
40
0
40
0
40
0
40
0
40
0.04621879409142849
40
0.081591065580843544
40
0.081591065580843544
40
0.081591065580843544
40
0.081591065580843544
10
-48.87452205589657
20
-7.8454218637720334
30
7.5732570148457105e-79
10
-48.873988658327022
20
-7.8514791728952611
30
7.5731743632572061e-79
10
-48.873047039729357
20
-7.8621722754660279
30
7.5730284565690166e-79
10
-48.870243157495025
20
-7.8725264323480024
30
7.5725939864216532e-79
10
-48.869027587102472
20
-7.8770152822688342
30
7.5724056300630588e-79
0
SPLINE
5
175
100
AcDbEntity
8
0
100
AcDbSpline
70
0
71
3
72
9
73
5
74
0
42
0.000000001
43
0.0000000001
44
0.0000000001
40
0
40
0
40
0
40
0
40
0.030278703773439965
40
0.061751962712349714
40
0.061751962712349714
40
0.061751962712349714
40
0.061751962712349714
10
-48.869027587102472
20
-7.8770152822688342
30
7.5724056300630588e-79
10
-48.867512062280419
20
-7.8807186574390498
30
7.572170794846121e-79
10
-48.864421222163834
20
-7.8882715133054111
30
7.5716918596952472e-79
10
-48.859101497799259
20
-7.8944637204045929
30
7.5708675520976206e-79
10
-48.856390182157519
20
-7.8976197162446544
30
7.5704474254275362e-79
0
SPLINE
5
176
100
AcDbEntity
8
0
100
AcDbSpline
70
0
71
3
72
9
73
5
74
0
42
0.000000001
43
0.0000000001
44
0.0000000001
40
0
40
0
40
0
40
0
40
0.031675004541722375
40
0.066512834681866639
40
0.066512834681866639
40
0.066512834681866639
40
0.066512834681866639
10
-48.856390182157519
20
-7.8976197162446544
30
7.5704474254275362e-79
10
-48.85334099289858
20
-7.9004786906246229
30
7.5699749442047346e-79
10
-48.846938145479044
20
-7.9064821148717792
30
7.5689828033694845e-79
10
-48.839078370367879
20
-7.9104018037991155
30
7.5677649071222811e-79
10
-48.8349616083689
20
-7.9124548430013375
30
7.5671270022308211e-79
0
SPLINE
5
177
100
AcDbEntity
8
0
100
AcDbSpline
70
0
71
3
72
9
73
5
74
0
42
0.000000001
43
0.0000000001
44
0.0000000001
40
0
40
0
40
0
40
0
40
0.03422076593583806
40
0.063932651278425137
40
0.063932651278425137
40
0.063932651278425137
40
0.063932651278425137
10
-48.8349616083689
20
-7.9124548430013375
30
7.5671270022308211e-79
10
-48.830807326674709
20
-7.9142306641103035
30
7.5664832835475737e-79
10
-48.823046125672818
20
-7.9175483266052131
30
7.5652806616607751e-79
10
-48.814675817675152
20
-7.9185723760824898
30
7.563983656777797e-79
10
-48.810785823649631
20
-7.9190482900332748
30
7.5633808902789699e-79
0
LINE
5
178
100
AcDbEntity
8
0
100
AcDbLine
10
-48.810785823649631
20
-7.9190482900332748
30
7.5633808902789699e-79
11
-48.68551108096748
21
-7.9190482900332748
31
7.5439691848772164e-79
0
SPLINE
5
179
100
AcDbEntity
8
0
100
AcDbSpline
70
0
71
3
72
9
73
5
74
0
42
0.000000001
43
0.0000000001
44
0.0000000001
40
0
40
0
40
0
40
0
40
0.038681260403479578
40
0.080065811253827862
40
0.080065811253827862
40
0.080065811253827862
40
0.080065811253827862
10
-48.68551108096748
20
-7.9190482900332748
30
7.5439691848772164e-79
10
-48.680423409699003
20
-7.9188157872682989
30
7.5431808346181754e-79
10
-48.669892508604924
20
-7.9183345329786921
30
7.5415490392117223e-79
10
-48.659723354230856
20
-7.9155450494294657
30
7.5399732975684517e-79
10
-48.65446710465681
20
-7.9141032164925198
30
7.5391588255841962e-79
0
SPLINE
5
180
100
AcDbEntity
8
0
100
AcDbSpline
70
0
71
3
72
9
73
5
74
0
42
0.000000001
43
0.0000000001
44
0.0000000001
40
0
40
0
40
0
40
0
40
0.03936592906799298
40
0.072066497451722694
40
0.072066497451722694
40
0.072066497451722694
40
0.072066497451722694
10
-48.65446710465681
20
-7.9141032164925198
30
7.5391588255841962e-79
10
-48.649529083779846
20
-7.9124941072295387
30
7.5383936641120666e-79
10
-48.640489137883193
20
-7.9095483398782873
30
7.5369928967838993e-79
10
-48.632529412920647
20
-7.9043665611691898
30
7.5357595130008345e-79
10
-48.628917644073027
20
-7.9020153006664877
30
7.5351998583462075e-79
0
SPLINE
5
181
100
AcDbEntity
8
0
100
AcDbSpline
70
0
71
3
72
9
73
5
74
0
42
0.000000001
43
0.0000000001
44
0.0000000001
40
0
40
0
40
0
40
0
40
0.039597198491357656
40
0.076432700874029175
40
0.076432700874029175
40
0.076432700874029175
40
0.076432700874029175
10
-48.628917644073027
20
-7.9020153006664877
30
7.5351998583462075e-79
10
-48.625019786565993
20
-7.8985157320700594
30
7.5345958733768145e-79
10
-48.617495926590152
20
-7.8917606713609709
30
7.533430028209559e-79
10
-48.612597193315921
20
-7.882922884171025
30
7.5326709544719071e-79
10
-48.610236328147849
20
-7.8786636557600156
30
7.5323051311770069e-79
0
SPLINE
5
182
100
AcDbEntity
8
0
100
AcDbSpline
70
0
71
3
72
9
73
5
74
0
42
0.000000001
43
0.0000000001
44
0.0000000001
40
0
40
0
40
0
40
0
40
0.040657466467521025
40
0.091363844225218233
40
0.091363844225218233
40
0.091363844225218233
40
0.091363844225218233
10
-48.610236328147849
20
-7.8786636557600156
30
7.5323051311770069e-79
10
-48.608353128284307
20
-7.8736506002940247
30
7.5320133235852995e-79
10
-48.604121276328769
20
-7.8623854611085076
30
7.531357585152268e-79
10
-48.602753634426428
20
-7.8504163163031553
30
7.5311456648470668e-79
10
-48.601994601490311
20
-7.8437735137472471
30
7.5310280503668406e-79
0
LINE
5
183
100
AcDbEntity
8
0
100
AcDbLine
10
-48.601994601490304
20
-7.8437735137472471
30
7.5310280503668406e-79
11
-48.54155502236015
21
-7.8437735137472471
31
7.5216627523062611e-79
0
LINE
5
184
100
AcDbEntity
8
0
100
AcDbLine
10
-48.54155502236015
20
-7.8437735137472471
30
7.5216627523062611e-79
11
-48.54155502236015
21
-7.9069603742072427
31
7.5216627523062611e-79
0
SPLINE
5
185
100
AcDbEntity
8
0
100
AcDbSpline
70
0
71
3
72
9
73
5
74
0
42
0.000000001
43
0.0000000001
44
0.0000000001
40
0
40
0
40
0
40
0
40
0.28242710390830206
40
0.50995457963406332
40
0.50995457963406332
40
0.50995457963406332
40
0.50995457963406332
10
-48.54155502236015
20
-7.9069603742072427
30
7.5216627523062611e-79
10
-48.542612632486815
20
-7.9447133578898983
30
7.5218266322374363e-79
10
-48.544522269062398
20
-8.0128807067647116
30
7.5221225362787135e-79
10
-48.57818431981697
20
-8.0718560261719894
30
7.527338574232387e-79
10
-48.593203385713849
20
-8.098169164813644
30
7.5296658245332672e-79
0
SPLINE
5
186
100
AcDbEntity
8
0
100
AcDbSpline
70
0
71
3
72
9
73
5
74
0
42
0.000000001
43
0.0000000001
44
0.0000000001
40
0
40
0
40
0
40
0
40
0.094741898355336723
40
0.1878664246724768
40
0.1878664246724768
40
0.1878664246724768
40
0.1878664246724768
10
-48.593203385713849
20
-8.098169164813644
30
7.5296658245332672e-79
10
-48.601442069391204
20
-8.1076238340622133
30
7.5309424338243254e-79
10
-48.617778791299259
20
-8.1263717685982915
30
7.5334738589633424e-79
10
-48.639552894584476
20
-8.1383737066933595
30
7.5368478230147582e-79
10
-48.650346217861646
20
-8.1443230124404575
30
7.5385202815429226e-79
0
SPLINE
5
187
100
AcDbEntity
8
0
100
AcDbSpline
70
0
71
3
72
9
73
5
74
0
42
0.000000001
43
0.0000000001
44
0.0000000001
40
0
40
0
40
0
40
0
40
0.093675250387856984
40
0.1898081431517154
40
0.1898081431517154
40
0.1898081431517154
40
0.1898081431517154
10
-48.650346217861646
20
-8.1443230124404575
30
7.5385202815429226e-79
10
-48.661829428759013
20
-8.14897022627318
30
7.5402996402726506e-79
10
-48.685097121440094
20
-8.1583865771744666
30
7.5439050405794765e-79
10
-48.710173286674831
20
-8.1596282138083165
30
7.5477906692522681e-79
10
-48.722873712817837
20
-8.1602570705021922
30
7.5497586392156176e-79
0
SPLINE
5
188
100
AcDbEntity
8
0
100
AcDbSpline
70
0
71
3
72
9
73
5
74
0
42
0.000000001
43
0.0000000001
44
0.0000000001
40
0
40
0
40
0
40
0
40
0.095457593151150932
40
0.1899630417208506
40
0.1899630417208506
40
0.1899630417208506
40
0.1899630417208506
10
-48.722873712817837
20
-8.1602570705021922
30
7.5497586392156176e-79
10
-48.735482316930444
20
-8.1595953582758209
30
7.5517123810738806e-79
10
-48.760573760261629
20
-8.1582785340912185
30
7.5556003771345526e-79
10
-48.7838309155904
20
-8.1487758132414321
30
7.5592041446463348e-79
10
-48.795401207774027
20
-8.1440482678809971
30
7.5609969968883113e-79
0
SPLINE
5
189
100
AcDbEntity
8
0
100
AcDbSpline
70
0
71
3
72
9
73
5
74
0
42
0.000000001
43
0.0000000001
44
0.0000000001
40
0
40
0
40
0
40
0
40
0.093327782469854612
40
0.18547807250756115
40
0.18547807250756115
40
0.18547807250756115
40
0.18547807250756115
10
-48.795401207774027
20
-8.1440482678809971
30
7.5609969968883113e-79
10
-48.806251563555065
20
-8.1381384815423026
30
7.56267829277778e-79
10
-48.82781537899168
20
-8.1263934711067805
30
7.5660196720824294e-79
10
-48.843969041557934
20
-8.107904436325116
30
7.5685227316152753e-79
10
-48.85199459773569
20
-8.0987186069997747
30
7.5697663161469393e-79
0
LWPOLYLINE
5
190
100
AcDbEntity
8
0
100
AcDbPolyline
90
30
70
1
43
0.0
10
-48.878444750272543
20
-15.656309436041736
42
0.99999999999999989
10
-49.003444750272536
20
-15.656309436041736
10
-49.003444750272536
20
-15.774419672262207
42
0.99999999999999989
10
-48.878444750272543
20
-15.774419672262207
10
-47.999999984573719
20
-15.774419672262207
10
-47.999999941962237
20
-16.133339042554656
42
2.4142155689496652
10
-47.937500015426266
20
-16.195839042554613
10
-46.000000015426266
20
-16.195839042554613
10
-46.000000015426266
20
-16.945839042554613
10
-47.937500015426266
20
-16.945839042554613
42
2.4142155689496652
10
-47.999999941962237
20
-17.008339042554571
10
-47.999999941962237
20
-17.445839037939457
10
-48.999999984573726
20
-17.445839037939457
10
-49.999999984573726
20
-16.445839037939457
10
-49.999999984573719
20
-13.630559361703073
10
-48.999999984573726
20
-12.630559361703073
10
-47.999999941962237
20
-12.630559361703073
10
-47.999999941962237
20
-13.068059357087977
42
2.4142155689496652
10
-47.937500015426266
20
-13.130559357087934
10
-46.000000015426266
20
-13.130559357087934
10
-46.000000015426266
20
-13.880559357087934
10
-47.937500015426266
20
-13.880559357087934
42
2.4142155689495119
10
-47.999999941962237
20
-13.943059357087888
10
-47.999999984573726
20
-14.301978727380316
10
-48.878444850272537
20
-14.301978727380316
42
0.99999999999999989
10
-49.003444850272537
20
-14.30197872738032
10
-49.003444850272537
20
-14.42008896360079
42
0.99999999999999989
10
-48.878444850272537
20
-14.42008896360079
10
-47.999999941962237
20
-14.42008896360079
10
-47.999999941962237
20
-15.656309436041736
0
SPLINE
5
191
100
AcDbEntity
8
0
100
AcDbSpline
70
0
71
3
72
9
73
5
74
0
42
0.000000001
43
0.0000000001
44
0.0000000001
40
0
40
0
40
0
40
0
40
0.12308662504245949
40
0.23429479404269896
40
0.23429479404269896
40
0.23429479404269896
40
0.23429479404269896
10
-49.196389820031037
20
-13.787265871736123
30
7.6231314115670996e-79
10
-49.207530719933132
20
-13.775454543814419
30
7.6248577281587741e-79
10
-49.22873736888554
20
-13.75297173837693
30
7.6281437634218195e-79
10
-49.243316164636063
20
-13.725740619854983
30
7.6304027925138972e-79
10
-49.250235999062049
20
-13.712815352594873
30
7.6314750420705928e-79
0
SPLINE
5
192
100
AcDbEntity
8
0
100
AcDbSpline
70
0
71
3
72
9
73
5
74
0
42
0.000000001
43
0.0000000001
44
0.0000000001
40
0
40
0
40
0
40
0
40
0.10884379425239232
40
0.22517304632969129
40
0.22517304632969129
40
0.22517304632969129
40
0.22517304632969129
10
-49.250235999062049
20
-13.712815352594873
30
7.6314750420705928e-79
10
-49.255465815466238
20
-13.699437126727416
30
7.6322854181541501e-79
10
-49.266285115726447
20
-13.671760621201742
30
7.633961901895467e-79
10
-49.268745244023329
20
-13.642132754658787
30
7.6343431063164633e-79
10
-49.270016199359482
20
-13.626826359813723
30
7.6345400447418482e-79
0
LINE
5
193
100
AcDbEntity
8
0
100
AcDbLine
10
-49.270016199359482
20
-13.626826359813723
30
7.6345400447418494e-79
11
-49.202983220130179
21
-13.626826359813723
31
7.6241530791241847e-79
0
SPLINE
5
194
100
AcDbEntity
8
0
100
AcDbSpline
70
0
71
3
72
9
73
5
74
0
42
0.000000001
43
0.0000000001
44
0.0000000001
40
0
40
0
40
0
40
0
40
0.11436343852753057
40
0.24496672923749008
40
0.24496672923749008
40
0.24496672923749008
40
0.24496672923749008
10
-49.202983220130179
20
-13.626826359813723
30
7.6241530791241847e-79
10
-49.200517704375123
20
-13.641753905480064
30
7.6237710399000286e-79
10
-49.195236564369395
20
-13.673728740134468
30
7.6229527110670834e-79
10
-49.179144859811778
20
-13.701910967705906
30
7.6204592521176038e-79
10
-49.170565614887792
20
-13.716936239390037
30
7.6191298718174067e-79
0
SPLINE
5
195
100
AcDbEntity
8
0
100
AcDbSpline
70
0
71
3
72
9
73
5
74
0
42
0.000000001
43
0.0000000001
44
0.0000000001
40
0
40
0
40
0
40
0
40
0.076945424185443895
40
0.15814724765575078
40
0.15814724765575078
40
0.15814724765575078
40
0.15814724765575078
10
-49.170565614887792
20
-13.716936239390037
30
7.6191298718174067e-79
10
-49.164693898708272
20
-13.725215960590011
30
7.6182200313959525e-79
10
-49.152625659919082
20
-13.742233413323484
30
7.6163500208010134e-79
10
-49.13634343531664
20
-13.755288122764817
30
7.6138270401865601e-79
10
-49.12798321187001
20
-13.761991155711799
30
7.6125315979356782e-79
0
SPLINE
5
196
100
AcDbEntity
8
0
100
AcDbSpline
70
0
71
3
72
9
73
5
74
0
42
0.000000001
43
0.0000000001
44
0.0000000001
40
0
40
0
40
0
40
0
40
0.083509337927474753
40
0.16725014526151558
40
0.16725014526151558
40
0.16725014526151558
40
0.16725014526151558
10
-49.12798321187001
20
-13.761991155711799
30
7.6125315979356782e-79
10
-49.118875620201571
20
-13.768174767102922
30
7.6111203486878089e-79
10
-49.100635192635835
20
-13.780559129487692
30
7.6082939385214244e-79
10
-49.079865812814369
20
-13.787957298938251
30
7.6050756594506423e-79
10
-49.069466750790497
20
-13.791661503090749
30
7.6034642929122649e-79
0
SPLINE
5
197
100
AcDbEntity
8
0
100
AcDbSpline
70
0
71
3
72
9
73
5
74
0
42
0.000000001
43
0.0000000001
44
0.0000000001
40
0
40
0
40
0
40
0
40
0.041108905390809955
40
0.071936048753178827
40
0.071936048753178827
40
0.071936048753178827
40
0.071936048753178827
10
-49.069466750790497
20
-13.791661503090749
30
7.6034642929122649e-79
10
-49.064285310730462
20
-13.793341304138375
30
7.6026614128915304e-79
10
-49.055218362310733
20
-13.796280770633741
30
7.6012564614396372e-79
10
-49.04769199869564
20
-13.802085901562828
30
7.6000902283258066e-79
10
-49.044466685460051
20
-13.804573605662371
30
7.5995904561529227e-79
0
SPLINE
5
198
100
AcDbEntity
8
0
100
AcDbSpline
70
0
71
3
72
9
73
5
74
0
42
0.000000001
43
0.0000000001
44
0.0000000001
40
0
40
0
40
0
40
0
40
0.02598420690773777
40
0.054118907620132425
40
0.054118907620132425
40
0.054118907620132425
40
0.054118907620132425
10
-49.044466685460051
20
-13.804573605662371
30
7.5995904561529227e-79
10
-49.042304186468236
20
-13.807315245111031
30
7.5992553703051145e-79
10
-49.037800216669119
20
-13.813025426398324
30
7.5985574663780569e-79
10
-49.037306048091736
20
-13.820298185170472
30
7.5984808934421438e-79
10
-49.037049145548103
20
-13.824079061400349
30
7.5984410856054869e-79
0
SPLINE
5
199
100
AcDbEntity
8
0
100
AcDbSpline
70
0
71
3
72
9
73
5
74
0
42
0.000000001
43
0.0000000001
44
0.0000000001
40
0
40
0
40
0
40
0
40
0.031339012747025961
40
0.062740265493644198
40
0.062740265493644198
40
0.062740265493644198
40
0.062740265493644198
10
-49.037049145548103
20
-13.824079061400349
30
7.5984410856054869e-79
10
-49.037462856068032
20
-13.828292964357379
30
7.5985051913187577e-79
10
-49.038291098746491
20
-13.836729139179566
30
7.5986335300607195e-79
10
-49.044054655468429
20
-13.842945740254324
30
7.5995266108426646e-79
10
-49.046939292629617
20
-13.84605712430789
30
7.5999735942134937e-79
0
SPLINE
5
200
100
AcDbEntity
8
0
100
AcDbSpline
70
0
71
3
72
9
73
5
74
0
42
0.000000001
43
0.0000000001
44
0.0000000001
40
0
40
0
40
0
40
0
40
0.032850373110931384
40
0.067839706264872096
40
0.067839706264872096
40
0.067839706264872096
40
0.067839706264872096
10
-49.046939292629617
20
-13.84605712430789
30
7.5999735942134937e-79
10
-49.050515624551991
20
-13.848620497699864
30
7.6005277578079233e-79
10
-49.057901151233843
20
-13.853914151363137
30
7.6016721678072223e-79
10
-49.066981298904615
20
-13.854530435487684
30
7.6030791645235247e-79
10
-49.071664519535013
20
-13.854848293151559
30
7.6038048439163723e-79
0
SPLINE
5
201
100
AcDbEntity
8
0
100
AcDbSpline
70
0
71
3
72
9
73
5
74
0
42
0.000000001
43
0.0000000001
44
0.0000000001
40
0
40
0
40
0
40
0
40
0.070467222984454195
40
0.16069770141464351
40
0.16069770141464351
40
0.16069770141464351
40
0.16069770141464351
10
-49.071664519535013
20
-13.854848293151559
30
7.6038048439163723e-79
10
-49.080915930235108
20
-13.853733744754942
30
7.6052383783640671e-79
10
-49.102013404654897
20
-13.851192061432315
30
7.6085074966986152e-79
10
-49.120931980185141
20
-13.841393880238934
30
7.6114389879709263e-79
10
-49.131554609546249
20
-13.83589227959971
30
7.6130849969535447e-79
0
SPLINE
5
202
100
AcDbEntity
8
0
100
AcDbSpline
70
0
71
3
72
9
73
5
74
0
42
0.000000001
43
0.0000000001
44
0.0000000001
40
0
40
0
40
0
40
0
40
0.10191402490958393
40
0.20640294288477895
40
0.20640294288477895
40
0.20640294288477895
40
0.20640294288477895
10
-49.131554609546249
20
-13.83589227959971
30
7.6130849969535447e-79
10
-49.143107391824842
20
-13.829066845494154
30
7.6148751359820597e-79
10
-49.166504841419474
20
-13.815243530331172
30
7.6185006425204036e-79
10
-49.186345655252339
20
-13.796668997523946
30
7.6215750374447794e-79
10
-49.196389820031037
20
-13.787265871736123
30
7.6231314115670996e-79
0
SPLINE
5
203
100
AcDbEntity
8
0
100
AcDbSpline
70
0
71
3
72
9
73
5
74
0
42
0.000000001
43
0.0000000001
44
0.0000000001
40
0
40
0
40
0
40
0
40
0.071440641466061286
40
0.13465270979416846
40
0.13465270979416846
40
0.13465270979416846
40
0.13465270979416846
10
-48.606279901031172
20
-13.710892281477022
30
7.5316920706670579e-79
10
-48.599516784630346
20
-13.704349728261345
30
7.5306441050487703e-79
10
-48.586769531367537
20
-13.692018196777516
30
7.5286688790796619e-79
10
-48.577051021569282
20
-13.67719267342496
30
7.5271629661948398e-79
10
-48.572488713789852
20
-13.670232902644303
30
7.5264560226189017e-79
0
SPLINE
5
204
100
AcDbEntity
8
0
100
AcDbSpline
70
0
71
3
72
9
73
5
74
0
42
0.000000001
43
0.0000000001
44
0.0000000001
40
0
40
0
40
0
40
0
40
0.059728622165409383
40
0.1213016979509743
40
0.1213016979509743
40
0.1213016979509743
40
0.1213016979509743
10
-48.572488713789852
20
-13.670232902644303
30
7.5264560226189017e-79
10
-48.568897898164771
20
-13.663212325770967
30
7.525899614730339e-79
10
-48.561605380498037
20
-13.648954372641352
30
7.5247696167630482e-79
10
-48.558801866807457
20
-13.633183383714442
30
7.5243352037226681e-79
10
-48.55737879554092
20
-13.625177986322541
30
7.5241146944675676e-79
0
LINE
5
205
100
AcDbEntity
8
0
100
AcDbLine
10
-48.55737879554092
20
-13.625177986322537
30
7.5241146944675688e-79
11
-48.490895305430534
21
-13.625177986322541
31
7.5138128738733113e-79
0
SPLINE
5
206
100
AcDbEntity
8
0
100
AcDbSpline
70
0
71
3
72
9
73
5
74
0
42
0.000000001
43
0.0000000001
44
0.0000000001
40
0
40
0
40
0
40
0
40
0.062991135350161417
40
0.11350979002536896
40
0.11350979002536896
40
0.11350979002536896
40
0.11350979002536896
10
-48.490895305430534
20
-13.625177986322541
30
7.5138128738733113e-79
10
-48.492271097296126
20
-13.633334653586848
30
7.5140260570403027e-79
10
-48.494750269086147
20
-13.648032937453797
30
7.5144102123089375e-79
10
-48.498546439988488
20
-13.662445029576281
30
7.5149984406272178e-79
10
-48.500235963393123
20
-13.668859273712581
30
7.515260237457911e-79
0
SPLINE
5
207
100
AcDbEntity
8
0
100
AcDbSpline
70
0
71
3
72
9
73
5
74
0
42
0.000000001
43
0.0000000001
44
0.0000000001
40
0
40
0
40
0
40
0
40
0.06294577818951276
40
0.16309087561476587
40
0.16309087561476587
40
0.16309087561476587
40
0.16309087561476587
10
-48.500235963393123
20
-13.668859273712581
30
7.515260237457911e-79
10
-48.502761705643898
20
-13.676724914196159
30
7.5156516089621996e-79
10
-48.509305838183117
20
-13.697104584296914
30
7.5166656423598468e-79
10
-48.516622370028507
20
-13.717221134920804
30
0
10
-48.521115048062825
20
-13.729573597402199
30
0
0
SPLINE
5
208
100
AcDbEntity
8
0
100
AcDbSpline
70
0
71
3
72
9
73
5
74
0
42
0.000000001
43
0.0000000001
44
0.0000000001
40
0
40
0
40
0
40
0
40
0.062233660120251832
40
0.098371449503869474
40
0.098371449503869474
40
0.098371449503869474
40
0.098371449503869474
10
-48.521115048062825
20
-13.729573597402199
30
0
10
-48.523920747522176
20
-13.737275554820265
30
0
10
-48.528355658182349
20
-13.749449878389989
30
0
10
-48.530293359961206
20
-13.762238276384887
30
0
10
-48.531005195144331
20
-13.766936229252556
30
0
0
SPLINE
5
209
100
AcDbEntity
8
0
100
AcDbSpline
70
0
71
3
72
9
73
5
74
0
42
0.000000001
43
0.0000000001
44
0.0000000001
40
0
40
0
40
0
40
0
40
0.036725885536755029
40
0.074238857517208615
40
0.074238857517208615
40
0.074238857517208615
40
0.074238857517208615
10
-48.531005195144331
20
-13.766936229252556
30
0
10
-48.530385104656034
20
-13.771941256551829
30
0
10
-48.529131634283956
20
-13.782058575797096
30
0
10
-48.520885994172431
20
-13.788072977475823
30
0
10
-48.516719463640989
20
-13.791112060904618
30
0
0
LINE
5
210
100
AcDbEntity
8
0
100
AcDbLine
10
-48.516719463640989
20
-13.791112060904618
30
0
11
-48.503532663442698
21
-13.798254903189894
31
-2.0433351141699054e-82
0
SPLINE
5
211
100
AcDbEntity
8
0
100
AcDbSpline
70
0
71
3
72
9
73
5
74
0
42
0.000000001
43
0.0000000001
44
0.0000000001
40
0
40
0
40
0
40
0
40
0.034794112523120209
40
0.074417027186509471
40
0.074417027186509471
40
0.074417027186509471
40
0.074417027186509471
10
-48.503532663442698
20
-13.798254903189894
30
0
10
-48.499690839068194
20
-13.8011094744
30
0
10
-48.491474013628746
20
-13.807214780382647
30
0
10
-48.490737805866289
20
-13.817502526340236
30
0
10
-48.490345816311617
20
-13.822980177028088
30
0
0
SPLINE
5
212
100
AcDbEntity
8
0
100
AcDbSpline
70
0
71
3
72
9
73
5
74
0
42
0.000000001
43
0.0000000001
44
0.0000000001
40
0
40
0
40
0
40
0
40
0.033784475537637144
40
0.063541965141952789
40
0.063541965141952789
40
0.063541965141952789
40
0.063541965141952789
10
-48.490345816311617
20
-13.822980177028088
30
0
10
-48.49060984097801
20
-13.82754106784855
30
0
10
-48.491106419536109
20
-13.836119207982973
30
0
10
-48.496575700189815
20
-13.842700349589332
30
0
10
-48.499137032088072
20
-13.84578237974843
30
0
0
SPLINE
5
213
100
AcDbEntity
8
0
100
AcDbSpline
70
0
71
3
72
9
73
5
74
0
42
0.000000001
43
0.0000000001
44
0.0000000001
40
0
40
0
40
0
40
0
40
0.031465531895153338
40
0.069830811898349485
40
0.069830811898349485
40
0.069830811898349485
40
0.069830811898349485
10
-48.499137032088072
20
-13.84578237974843
30
0
10
-48.502646996961808
20
-13.848100208745032
30
0
10
-48.510436590275674
20
-13.853244119269522
30
0
10
-48.519810938938583
20
-13.853570238042311
30
0
10
-48.524961237231317
20
-13.853749408779297
30
0
0
LINE
5
214
100
AcDbEntity
8
0
100
AcDbLine
10
-48.524961237231309
20
-13.853749408779297
30
0
11
-48.753532659688076
21
-13.853749408779297
31
3.5417842583384375e-81
0
SPLINE
5
215
100
AcDbEntity
8
0
100
AcDbSpline
70
0
71
3
72
9
73
5
74
0
42
0.000000001
43
0.0000000001
44
0.0000000001
40
0
40
0
40
0
40
0
40
0.048556256188398386
40
0.086379327802754619
40
0.086379327802754619
40
0.086379327802754619
40
0.086379327802754619
10
-48.753532659688076
20
-13.853749408779297
30
0
10
-48.760074315221246
20
-13.853585711500369
30
0
10
-48.771711617023932
20
-13.853294501633155
30
0
10
-48.781232047706503
20
-13.846732586299179
30
0
10
-48.785400775811546
20
-13.843859308630577
30
0
0
SPLINE
5
216
100
AcDbEntity
8
0
100
AcDbSpline
70
0
71
3
72
9
73
5
74
0
42
0.000000001
43
0.0000000001
44
0.0000000001
40
0
40
0
40
0
40
0
40
0.032813390616351364
40
0.063810658687276367
40
0.063810658687276367
40
0.063810658687276367
40
0.063810658687276367
10
-48.785400775811546
20
-13.843859308630577
30
0
10
-48.78828470290977
20
-13.840511406369924
30
0
10
-48.793892940409378
20
-13.834000898176161
30
0
10
-48.794833855227019
20
-13.825473971085437
30
0
10
-48.795290922893052
20
-13.821331850469697
30
0
0
SPLINE
5
217
100
AcDbEntity
8
0
100
AcDbSpline
70
0
71
3
72
9
73
5
74
0
42
0.000000001
43
0.0000000001
44
0.0000000001
40
0
40
0
40
0
40
0
40
0.03066069188508334
40
0.059258918382366486
40
0.059258918382366486
40
0.059258918382366486
40
0.059258918382366486
10
-48.795290922893052
20
-13.821331850469697
30
0
10
-48.794988129968182
20
-13.817203826511175
30
0
10
-48.794402912214807
20
-13.809225460081766
30
0
10
-48.789257546948789
20
-13.803123005673731
30
0
10
-48.786774404743262
20
-13.800177974307747
30
0
0
SPLINE
5
218
100
AcDbEntity
8
0
100
AcDbSpline
70
0
71
3
72
9
73
5
74
0
42
0.000000001
43
0.0000000001
44
0.0000000001
40
0
40
0
40
0
40
0
40
0.033824560447644592
40
0.078290550531395969
40
0.078290550531395969
40
0.078290550531395969
40
0.078290550531395969
10
-48.786774404743262
20
-13.800177974307747
30
0
10
-48.783143229536108
20
-13.79756708812919
30
0
10
-48.774738487470529
20
-13.791523913773373
30
0
10
-48.764718269694455
20
-13.788808258431413
30
0
10
-48.759027175414957
20
-13.787265871736123
30
0
0
SPLINE
5
219
100
AcDbEntity
8
0
100
AcDbSpline
70
0
71
3
72
9
73
5
74
0
42
0.000000001
43
0.0000000001
44
0.0000000001
40
0
40
0
40
0
40
0
40
0.10256323558346785
40
0.18239759431838123
40
0.18239759431838123
40
0.18239759431838123
40
0.18239759431838123
10
-48.759027175414957
20
-13.787265871736123
30
0
10
-48.746024021462432
20
-13.783736649273012
30
0
10
-48.722899321992877
20
-13.777460309769642
30
0
10
-48.700638669172697
20
-13.768611490112052
30
0
10
-48.690895311813392
20
-13.764738413575243
30
0
0
SPLINE
5
220
100
AcDbEntity
8
0
100
AcDbSpline
70
0
71
3
72
9
73
5
74
0
42
0.000000001
43
0.0000000001
44
0.0000000001
40
0
40
0
40
0
40
0
40
0.13611263465852494
40
0.25558155761634543
40
0.25558155761634543
40
0.25558155761634543
40
0.25558155761634543
10
-48.690895311813392
20
-13.764738413575243
30
0
10
-48.674728544206182
20
-13.756959424436358
30
7.5422983977527507e-79
10
-48.644371864555978
20
-13.742352652877013
30
7.537594537184144e-79
10
-48.618413749916506
20
-13.720913696944233
30
7.5335722477475174e-79
10
-48.606279901031172
20
-13.710892281477022
30
7.5316920706670579e-79
0
SPLINE
5
221
100
AcDbEntity
8
0
100
AcDbSpline
70
0
71
3
72
9
73
5
74
0
42
0.000000001
43
0.0000000001
44
0.0000000001
40
0
40
0
40
0
40
0
40
0.16466335857305475
40
0.31281336499236173
40
0.31281336499236173
40
0.31281336499236173
40
0.31281336499236173
10
-48.522213979367876
20
-13.451276882709596
30
0
10
-48.512766792420223
20
-13.470948967781011
30
0
10
-48.494819834673109
20
-13.508320312450115
30
0
10
-48.491410874883101
20
-13.549588984708901
30
0
10
-48.489796374125483
20
-13.569134038547007
30
0
0
LINE
5
222
100
AcDbEntity
8
0
100
AcDbLine
10
-48.489796374125476
20
-13.569134038547007
30
0
11
-48.490345816311617
21
-13.581771396559169
31
8.5137751027102628e-84
0
LINE
5
223
100
AcDbEntity
8
0
100
AcDbLine
10
-48.490345816311617
20
-13.581771396559169
30
8.5137751027102628e-84
11
-48.556829353354786
21
-13.581771396559169
31
1.030182786663635e-81
0
SPLINE
5
224
100
AcDbEntity
8
0
100
AcDbSpline
70
0
71
3
72
9
73
5
74
0
42
0.000000001
43
0.0000000001
44
0.0000000001
40
0
40
0
40
0
40
0
40
0.075909841521901528
40
0.1460033155142299
40
0.1460033155142299
40
0.1460033155142299
40
0.1460033155142299
10
-48.556829353354786
20
-13.581771396559169
30
0
10
-48.559088791614485
20
-13.571769196523769
30
0
10
-48.563434545346823
20
-13.552531185505343
30
0
10
-48.578275772523796
20
-13.53961876800467
30
0
10
-48.585400769428688
20
-13.53341975672144
30
0
0
SPLINE
5
225
100
AcDbEntity
8
0
100
AcDbSpline
70
0
71
3
72
9
73
5
74
0
42
0.000000001
43
0.0000000001
44
0.0000000001
40
0
40
0
40
0
40
0
40
0.078985856089398482
40
0.17824194979241514
40
0.17824194979241514
40
0.17824194979241514
40
0.17824194979241514
10
-48.585400769428688
20
-13.53341975672144
30
0
10
-48.594805960496707
20
-13.528787732902858
30
0
10
-48.616030008410249
20
-13.518334963283264
30
0
10
-48.639765697516673
20
-13.517789450373758
30
0
10
-48.652983190844118
20
-13.517485675193308
30
0
0
LINE
5
226
100
AcDbEntity
8
0
100
AcDbLine
10
-48.652983190844118
20
-13.517485675193312
30
0
11
-49.130455725173988
21
-13.517485675193308
31
7.3985832861430566e-81
0
SPLINE
5
227
100
AcDbEntity
8
0
100
AcDbSpline
70
0
71
3
72
9
73
5
74
0
42
0.000000001
43
0.0000000001
44
0.0000000001
40
0
40
0
40
0
40
0
40
0.033137335232377753
40
0.069249008986761701
40
0.069249008986761701
40
0.069249008986761701
40
0.069249008986761701
10
-49.130455725173988
20
-13.517485675193308
30
0
10
-49.134817652247264
20
-13.517738233149268
30
0
10
-49.143933023926309
20
-13.5182660181398
30
0
10
-49.152589781581987
20
-13.521183877267074
30
0
10
-49.157104070130039
20
-13.522705469827129
30
0
0
SPLINE
5
228
100
AcDbEntity
8
0
100
AcDbSpline
70
0
71
3
72
9
73
5
74
0
42
0.000000001
43
0.0000000001
44
0.0000000001
40
0
40
0
40
0
40
0
40
0.036296603475943053
40
0.069926214262614778
40
0.069926214262614778
40
0.069926214262614778
40
0.069926214262614778
10
-49.157104070130039
20
-13.522705469827129
30
0
10
-49.161534322153067
20
-13.524515146024152
30
0
10
-49.170069301256689
20
-13.528001527486341
30
0
10
-49.17745375314103
20
-13.533515283956723
30
0
10
-49.181005157222636
20
-13.536167014584882
30
0
0
SPLINE
5
229
100
AcDbEntity
8
0
100
AcDbSpline
70
0
71
3
72
9
73
5
74
0
42
0.000000001
43
0.0000000001
44
0.0000000001
40
0
40
0
40
0
40
0
40
0.03318832557207408
40
0.062317431826821382
40
0.062317431826821382
40
0.062317431826821382
40
0.062317431826821382
10
-49.181005157222636
20
-13.536167014584882
30
0
10
-49.184344732005727
20
-13.539021290160616
30
0
10
-49.190615422686506
20
-13.544380738717896
30
0
10
-49.194737689052417
20
-13.551514015182855
30
0
10
-49.196664564590492
20
-13.55484833051006
30
0
0
SPLINE
5
230
100
AcDbEntity
8
0
100
AcDbSpline
70
0
71
3
72
9
73
5
74
0
42
0.000000001
43
0.0000000001
44
0.0000000001
40
0
40
0
40
0
40
0
40
0.031279165143633214
40
0.070485540880278197
40
0.070485540880278197
40
0.070485540880278197
40
0.070485540880278197
10
-49.196664564590492
20
-13.55484833051006
30
0
10
-49.198117177671236
20
-13.558704137414216
30
0
10
-49.201390545685236
20
-13.567392944609718
30
0
10
-49.20241396220635
20
-13.576632212132207
30
0
10
-49.202983220130179
20
-13.581771396559169
30
0
0
LINE
5
231
100
AcDbEntity
8
0
100
AcDbLine
10
-49.202983220130172
20
-13.581771396559169
30
0
11
-49.270016199359482
21
-13.581771396559169
31
1.0386965617663453e-81
0
SPLINE
5
232
100
AcDbEntity
8
0
100
AcDbSpline
70
0
71
3
72
9
73
5
74
0
42
0.000000001
43
0.0000000001
44
0.0000000001
40
0
40
0
40
0
40
0
40
0.25539607122342473
40
0.49710632289982482
40
0.49710632289982482
40
0.49710632289982482
40
0.49710632289982482
10
-49.270016199359482
20
-13.581771396559169
30
0
10
-49.267969388058894
20
-13.547790603290272
30
0
10
-49.263985447215838
20
-13.481649933583796
30
0
10
-49.230704158234282
20
-13.424429232133743
30
0
10
-49.214521646837291
20
-13.396606552132587
30
0
0
SPLINE
5
233
100
AcDbEntity
8
0
100
AcDbSpline
70
0
71
3
72
9
73
5
74
0
42
0.000000001
43
0.0000000001
44
0.0000000001
40
0
40
0
40
0
40
0
40
0.21213360723515179
40
0.43093218208052064
40
0.43093218208052064
40
0.43093218208052064
40
0.43093218208052064
10
-49.214521646837291
20
-13.396606552132587
30
0
10
-49.196605997101571
20
-13.374861826535961
30
0
10
-49.160211810745963
20
-13.330689183774508
30
0
10
-49.108953726550325
20
-13.305168592480529
30
0
10
-49.08292829554825
20
-13.292210941052927
30
0
0
SPLINE
5
234
100
AcDbEntity
8
0
100
AcDbSpline
70
0
71
3
72
9
73
5
74
0
42
0.000000001
43
0.0000000001
44
0.0000000001
40
0
40
0
40
0
40
0
40
0.23898337612813206
40
0.50804210807944361
40
0.50804210807944361
40
0.50804210807944361
40
0.50804210807944361
10
-49.08292829554825
20
-13.292210941052927
30
0
10
-49.053093251637897
20
-13.281964226242401
30
0
10
-48.989668511187602
20
-13.260181277664262
30
0
10
-48.922579448151417
20
-13.258131607943996
30
0
10
-48.887049129027758
20
-13.257046104346788
30
0
0
SPLINE
5
235
100
AcDbEntity
8
0
100
AcDbSpline
70
0
71
3
72
9
73
5
74
0
42
0.000000001
43
0.0000000001
44
0.0000000001
40
0
40
0
40
0
40
0
40
0.2040980928234174
40
0.39829724516472809
40
0.39829724516472809
40
0.39829724516472809
40
0.39829724516472809
10
-48.887049129027758
20
-13.257046104346788
30
0
10
-48.860175504651352
20
-13.257898134451304
30
0
10
-48.807731650773817
20
-13.259560870436395
30
0
10
-48.757076793000593
20
-13.27319880813047
30
0
10
-48.732378830458913
20
-13.27984830413383
30
0
0
SPLINE
5
236
100
AcDbEntity
8
0
100
AcDbSpline
70
0
71
3
72
9
73
5
74
0
42
0.000000001
43
0.0000000001
44
0.0000000001
40
0
40
0
40
0
40
0
40
0.18431371970054472
40
0.35970537953611292
40
0.35970537953611292
40
0.35970537953611292
40
0.35970537953611292
10
-48.732378830458913
20
-13.27984830413383
30
0
10
-48.709497719773253
20
-13.288120068282733
30
0
10
-48.664843102543635
20
-13.304263185938048
30
0
10
-48.62658355650192
20
-13.332358079755661
30
0
10
-48.607928274522358
20
-13.346057096617544
30
0
0
SPLINE
5
237
100
AcDbEntity
8
0
100
AcDbSpline
70
0
71
3
72
9
73
5
74
0
42
0.000000001
43
0.0000000001
44
0.0000000001
40
0
40
0
40
0
40
0
40
0.17306772565653908
40
0.34642848258853698
40
0.34642848258853698
40
0.34642848258853698
40
0.34642848258853698
10
-48.607928274522358
20
-13.346057096617544
30
0
10
-48.591028100175848
20
-13.361438887054449
30
0
10
-48.557199136790935
20
-13.392228511753897
30
0
10
-48.533882272805116
20
-13.431582996214516
30
0
10
-48.522213979367876
20
-13.451276882709596
30
0
0
SPLINE
5
238
100
AcDbEntity
8
0
100
AcDbSpline
70
0
71
3
72
9
73
5
74
0
42
0.000000001
43
0.0000000001
44
0.0000000001
40
0
40
0
40
0
40
0
40
0.03587154264959324
40
0.08060509632221112
40
0.08060509632221112
40
0.08060509632221112
40
0.08060509632221112
10
-48.472303318983137
20
-19.103536441900896
30
7.5109319885805266e-79
10
-48.470146593259997
20
-19.107784493490044
30
7.5105977973183978e-79
10
-48.465300325945755
20
-19.117330071467265
30
7.5098468533420761e-79
10
-48.465033701295035
20
-19.128070379075858
30
7.5098055390351235e-79
10
-48.464885732138399
20
-19.134030946692441
30
7.509782610760711e-79
0
LINE
5
239
100
AcDbEntity
8
0
100
AcDbLine
10
-48.464885732138399
20
-19.134030946692441
30
7.509782610760711e-79
11
-48.464885732138399
21
-19.392822158714278
31
7.509782610760711e-79
0
LINE
5
240
100
AcDbEntity
8
0
100
AcDbLine
10
-48.464885732138399
20
-19.392822158714278
30
7.509782610760711e-79
11
-49.214885767807324
21
-19.392822158714278
31
7.6259974153733917e-79
0
LINE
5
241
100
AcDbEntity
8
0
100
AcDbLine
10
-49.214885767807324
20
-19.392822158714278
30
7.6259974153733917e-79
11
-49.214885767807324
21
-19.134030946692441
31
7.6259974153733929e-79
0
SPLINE
5
242
100
AcDbEntity
8
0
100
AcDbSpline
70
0
71
3
72
9
73
5
74
0
42
0.000000001
43
0.0000000001
44
0.0000000001
40
0
40
0
40
0
40
0
40
0.044733568490944779
40
0.080605050485582155
40
0.080605050485582155
40
0.080605050485582155
40
0.080605050485582155
10
-49.214885767807324
20
-19.134030946692441
30
7.6259974153733929e-79
10
-49.214737794957863
20
-19.128070378818361
30
7.6259744865267665e-79
10
-49.214471163893023
20
-19.117330080411126
30
7.6259331712259263e-79
10
-49.209624934376933
20
-19.107784492945378
30
7.6251822331065451e-79
10
-49.207468227895376
20
-19.103536441900896
30
7.624848044825957e-79
0
SPLINE
5
243
100
AcDbEntity
8
0
100
AcDbSpline
70
0
71
3
72
9
73
5
74
0
42
0.000000001
43
0.0000000001
44
0.0000000001
40
0
40
0
40
0
40
0
40
0.030640874290956115
40
0.062259364028901712
40
0.062259364028901712
40
0.062259364028901712
40
0.062259364028901712
10
-49.207468227895376
20
-19.103536441900896
30
7.624848044825957e-79
10
-49.204697441100144
20
-19.100411658298356
30
7.6244187029183357e-79
10
-49.199067463897386
20
-19.094062393000801
30
7.6235463206923677e-79
10
-49.190609627007603
20
-19.093239872825212
30
7.6222357529392405e-79
10
-49.186314304800632
20
-19.092822155006587
30
7.6215701795961854e-79
0
SPLINE
5
244
100
AcDbEntity
8
0
100
AcDbSpline
70
0
71
3
72
9
73
5
74
0
42
0.000000001
43
0.0000000001
44
0.0000000001
40
0
40
0
40
0
40
0
40
0.049460342206835338
40
0.099779461360436528
40
0.099779461360436528
40
0.099779461360436528
40
0.099779461360436528
10
-49.186314304800632
20
-19.092822155006587
30
7.6215701795961854e-79
10
-49.179436191012357
20
-19.093769031124474
30
7.620504394780194e-79
10
-49.165560539159806
20
-19.095679223913333
30
7.6183543199905592e-79
10
-49.159633218900673
20
-19.108390059538685
30
7.6174358635465164e-79
10
-49.156644051287266
20
-19.114800176847936
30
7.6169726828616825e-79
0
SPLINE
5
245
100
AcDbEntity
8
0
100
AcDbSpline
70
0
71
3
72
9
73
5
74
0
42
0.000000001
43
0.0000000001
44
0.0000000001
40
0
40
0
40
0
40
0
40
0.038506602322357517
40
0.056943988056071565
40
0.056943988056071565
40
0.056943988056071565
40
0.056943988056071565
10
-49.156644051287266
20
-19.114800176847936
30
7.6169726828616825e-79
10
-49.155067150425303
20
-19.119602296507139
30
7.6167283372392153e-79
10
-49.152735212045037
20
-19.126703724003352
30
7.616366996238758e-79
10
-49.150084626839913
20
-19.133691510609552
30
7.6159562799359928e-79
10
-49.149226417509738
20
-19.135954023676891
30
7.6158232977694872e-79
0
SPLINE
5
246
100
AcDbEntity
8
0
100
AcDbSpline
70
0
71
3
72
9
73
5
74
0
42
0.000000001
43
0.0000000001
44
0.0000000001
40
0
40
0
40
0
40
0
40
0.0097348954004535786
40
0.022894029561828712
40
0.022894029561828712
40
0.022894029561828712
40
0.022894029561828712
10
-49.149226417509738
20
-19.135954023676891
30
7.6158232977694872e-79
10
-49.148522747922904
20
-19.137034037765595
30
7.6157142620099447e-79
10
-49.146867893745231
20
-19.139573959712042
30
7.6154578372822458e-79
10
-49.144353180345163
20
-19.141287685479377
30
7.6150681747321832e-79
10
-49.142907761970051
20
-19.142272708549573
30
7.6148442027241063e-79
0
SPLINE
5
247
100
AcDbEntity
8
0
100
AcDbSpline
70
0
71
3
72
9
73
5
74
0
42
0.000000001
43
0.0000000001
44
0.0000000001
40
0
40
0
40
0
40
0
40
0.031565440435035522
40
0.073989558913293174
40
0.073989558913293174
40
0.073989558913293174
40
0.073989558913293174
10
-49.142907761970051
20
-19.142272708549573
30
7.6148442027241063e-79
10
-49.139176050179373
20
-19.144185468581902
30
7.6142659625427726e-79
10
-49.13042889805417
20
-19.148668988189062
30
7.6129105645070366e-79
10
-49.120550094491492
20
-19.148794280374002
30
7.6113798136120451e-79
10
-49.114885788082283
20
-19.148866120381918
30
7.6105021119703048e-79
0
LINE
5
248
100
AcDbEntity
8
0
100
AcDbLine
10
-49.114885788082283
20
-19.148866120381918
30
7.6105021119703048e-79
11
-48.564885758796223
21
-19.148866120381918
31
7.52527792143618e-79
0
SPLINE
5
249
100
AcDbEntity
8
0
100
AcDbSpline
70
0
71
3
72
9
73
5
74
0
42
0.000000001
43
0.0000000001
44
0.0000000001
40
0
40
0
40
0
40
0
40
0.042424237105603606
40
0.073989677540639121
40
0.073989677540639121
40
0.073989677540639121
40
0.073989677540639121
10
-48.564885758796223
20
-19.148866120381918
30
7.52527792143618e-79
10
-48.559221436204361
20
-19.148794282719724
30
7.5244002172868865e-79
10
-48.54934261620307
20
-19.148668994775296
30
7.522869463844682e-79
10
-48.540595449852241
20
-19.144185468401822
30
7.5215140636046408e-79
10
-48.536863737975665
20
-19.142272708549573
30
7.5209358234099988e-79
0
SPLINE
5
250
100
AcDbEntity
8
0
100
AcDbSpline
70
0
71
3
72
9
73
5
74
0
42
0.000000001
43
0.0000000001
44
0.0000000001
40
0
40
0
40
0
40
0
40
0.013159134161375135
40
0.022894029561828712
40
0.022894029561828712
40
0.022894029561828712
40
0.022894029561828712
10
-48.536863737975665
20
-19.142272708549573
30
7.5209358234099988e-79
10
-48.535418319600566
20
-19.141287685479377
30
7.5207118514019219e-79
10
-48.532903606200499
20
-19.139573959712042
30
7.5203221888518605e-79
10
-48.531248752022812
20
-19.137034037765595
30
7.5200657641241592e-79
10
-48.530545082435985
20
-19.135954023676891
30
7.5199567283646179e-79
0
SPLINE
5
251
100
AcDbEntity
8
0
100
AcDbSpline
70
0
71
3
72
9
73
5
74
0
42
0.000000001
43
0.0000000001
44
0.0000000001
40
0
40
0
40
0
40
0
40
0.01843736486693192
40
0.056943948016823516
40
0.056943948016823516
40
0.056943948016823516
40
0.056943948016823516
10
-48.530545082435985
20
-19.135954023676891
30
7.5199567283646179e-79
10
-48.529686881512845
20
-19.133691510372753
30
7.5198237475008066e-79
10
-48.527036321136791
20
-19.126703720040016
30
7.519413035045384e-79
10
-48.524704391120778
20
-19.119602295496218
30
7.5190516953409933e-79
10
-48.523127495591247
20
-19.114800176847936
30
7.5188073505448023e-79
0
SPLINE
5
252
100
AcDbEntity
8
0
100
AcDbSpline
70
0
71
3
72
9
73
5
74
0
42
0.000000001
43
0.0000000001
44
0.0000000001
40
0
40
0
40
0
40
0
40
0.050319230740021918
40
0.099779625924893159
40
0.099779625924893159
40
0.099779625924893159
40
0.099779625924893159
10
-48.523127495591247
20
-19.114800176847936
30
7.5188073505448023e-79
10
-48.520138302815276
20
-19.108390056606719
30
7.5183441659609509e-79
10
-48.514210936028917
20
-19.095679222390928
30
7.5174257023073746e-79
10
-48.500335266691238
20
-19.093769030253913
30
7.5152756248083637e-79
10
-48.493457148212293
20
-19.092822155006587
30
7.51420983926554e-79
0
SPLINE
5
253
100
AcDbEntity
8
0
100
AcDbSpline
70
0
71
3
72
9
73
5
74
0
42
0.000000001
43
0.0000000001
44
0.0000000001
40
0
40
0
40
0
40
0
40
0.031618373321136588
40
0.062259158701347683
40
0.062259158701347683
40
0.062259158701347683
40
0.062259158701347683
10
-48.493457148212293
20
-19.092822155006587
30
7.51420983926554e-79
10
-48.489161841003067
20
-19.093239873555262
30
7.5135442682464313e-79
10
-48.480704030397384
20
-19.094062395484219
30
7.5122337045661042e-79
10
-48.475074089170676
20
-19.100411658287669
30
7.5113613279147366e-79
10
-48.472303318983137
20
-19.103536441900896
30
7.5109319885805266e-79
0
SPLINE
5
254
100
AcDbEntity
8
0
100
AcDbSpline
70
0
71
3
72
9
73
5
74
0
42
0.000000001
43
0.0000000001
44
0.0000000001
40
0
40
0
40
0
40
0
40
0.037076452681463874
40
0.075157049252593672
40
0.075157049252593672
40
0.075157049252593672
40
0.075157049252593672
10
-49.129171472652843
20
-19.489525485322531
30
7.6127157225865288e-79
10
-49.124983435551627
20
-19.492061720078866
30
7.6120667733994878e-79
10
-49.116493936478129
20
-19.497202878596262
30
7.6107512994939361e-79
10
-49.106856657845981
20
-19.499583168427442
30
7.6092579736273118e-79
10
-49.101973638577874
20
-19.500789214402971
30
7.6085013348230792e-79
0
SPLINE
5
255
100
AcDbEntity
8
0
100
AcDbSpline
70
0
71
3
72
9
73
5
74
0
42
0.000000001
43
0.0000000001
44
0.0000000001
40
0
40
0
40
0
40
0
40
0.047625017386236528
40
0.11272345777543294
40
0.11272345777543294
40
0.11272345777543294
40
0.11272345777543294
10
-49.101973638577874
20
-19.500789214402971
30
7.6085013348230792e-79
10
-49.095778575800296
20
-19.501665403384173
30
7.607541390855053e-79
10
-49.081115507191612
20
-19.503739251480116
30
7.605269303425269e-79
10
-49.066299363499922
20
-19.503784871185548
30
7.6029734965421308e-79
10
-49.057742955934494
20
-19.503811216825873
30
7.6016476549606481e-79
0
LINE
5
256
100
AcDbEntity
8
0
100
AcDbLine
10
-49.057742955934501
20
-19.50381121682587
30
7.6016476549606481e-79
11
-48.624226406621332
21
-19.503811216825873
31
7.5344729367223238e-79
0
SPLINE
5
257
100
AcDbEntity
8
0
100
AcDbSpline
70
0
71
3
72
9
73
5
74
0
42
0.000000001
43
0.0000000001
44
0.0000000001
40
0
40
0
40
0
40
0
40
0.091705355428295804
40
0.16553148302935264
40
0.16553148302935264
40
0.16553148302935264
40
0.16553148302935264
10
-48.624226406621332
20
-19.503811216825873
30
7.5344729367223238e-79
10
-48.612089524821805
20
-19.503575882632045
30
7.5325922896825128e-79
10
-48.590182014249002
20
-19.503151095901437
30
7.5291976537629331e-79
10
-48.569648127550252
20
-19.49562800167784
30
7.5260158650734085e-79
10
-48.560490127441597
20
-19.492272743185971
30
7.5245968048832034e-79
0
SPLINE
5
258
100
AcDbEntity
8
0
100
AcDbSpline
70
0
71
3
72
9
73
5
74
0
42
0.000000001
43
0.0000000001
44
0.0000000001
40
0
40
0
40
0
40
0
40
0.039431986507478957
40
0.073239418283354854
40
0.073239418283354854
40
0.073239418283354854
40
0.073239418283354854
10
-48.560490127441597
20
-19.492272743185971
30
7.5245968048832034e-79
10
-48.555816351943861
20
-19.48990852806083
30
7.5238725890426142e-79
10
-48.547135465461587
20
-19.485517328027598
30
7.5225274590713833e-79
10
-48.540859612823731
20
-19.478109689390479
30
7.5215549964668512e-79
10
-48.537962669280716
20
-19.474690311633054
30
7.5211061061844334e-79
0
SPLINE
5
259
100
AcDbEntity
8
0
100
AcDbSpline
70
0
71
3
72
9
73
5
74
0
42
0.000000001
43
0.0000000001
44
0.0000000001
40
0
40
0
40
0
40
0
40
0.038073414885368764
40
0.089545519212807262
40
0.089545519212807262
40
0.089545519212807262
40
0.089545519212807262
10
-48.537962669280716
20
-19.474690311633054
30
7.5211061061844334e-79
10
-48.535585642397741
20
-19.470271619266118
30
7.5207377785822649e-79
10
-48.529995071994236
20
-19.459879220700603
30
7.5198715025606419e-79
10
-48.527378689348694
20
-19.448350274811215
30
7.5194660860493298e-79
10
-48.525874753454687
20
-19.441723264204533
30
7.5192330465723168e-79
0
LINE
5
260
100
AcDbEntity
8
0
100
AcDbLine
10
-48.525874753454687
20
-19.44172326420453
30
7.5192330465723168e-79
11
-48.464885732138399
21
-19.441723264204533
31
7.509782610760711e-79
0
SPLINE
5
261
100
AcDbEntity
8
0
100
AcDbSpline
70
0
71
3
72
9
73
5
74
0
42
0.000000001
43
0.0000000001
44
0.0000000001
40
0
40
0
40
0
40
0
40
0.068399006708621868
40
0.12577172184831731
40
0.12577172184831731
40
0.12577172184831731
40
0.12577172184831731
10
-48.464885732138399
20
-19.441723264204533
30
7.509782610760711e-79
10
-48.464940571783515
20
-19.450703642700425
30
7.5097911083318301e-79
10
-48.465041410624949
20
-19.467216713878337
30
7.5098067336194273e-79
10
-48.466443818008742
20
-19.483668927326068
30
7.5100240409425513e-79
10
-48.467083547815712
20
-19.491173858813713
30
7.5101231690371993e-79
0
SPLINE
5
262
100
AcDbEntity
8
0
100
AcDbSpline
70
0
71
3
72
9
73
5
74
0
42
0.000000001
43
0.0000000001
44
0.0000000001
40
0
40
0
40
0
40
0
40
0.18078865217693116
40
0.37873341185197384
40
0.37873341185197384
40
0.37873341185197384
40
0.37873341185197384
10
-48.467083547815712
20
-19.491173858813713
30
7.5101231690371993e-79
10
-48.471842479685904
20
-19.514700910728543
30
7.5108605801187425e-79
10
-48.481811946697611
20
-19.563987636057977
30
7.5124053795930854e-79
10
-48.511111042947277
20
-19.6049367008365
30
7.5169453643718143e-79
10
-48.526424195640821
20
-19.626338701644581
30
7.5193181843233443e-79
0
SPLINE
5
263
100
AcDbEntity
8
0
100
AcDbSpline
70
0
71
3
72
9
73
5
74
0
42
0.000000001
43
0.0000000001
44
0.0000000001
40
0
40
0
40
0
40
0
40
0.20477900573593166
40
0.4150949386730427
40
0.4150949386730427
40
0.4150949386730427
40
0.4150949386730427
10
-48.526424195640821
20
-19.626338701644581
30
7.5193181843233443e-79
10
-48.544524099214918
20
-19.646621193676438
30
7.5221228198664578e-79
10
-48.581213301494621
20
-19.687734586896831
30
7.5278079242285221e-79
10
-48.631277807940684
20
-19.710803981285682
30
7.5355655729724583e-79
10
-48.656643964930929
20
-19.72249253913391
30
7.5394961367567221e-79
0
SPLINE
5
264
100
AcDbEntity
8
0
100
AcDbSpline
70
0
71
3
72
9
73
5
74
0
42
0.000000001
43
0.0000000001
44
0.0000000001
40
0
40
0
40
0
40
0
40
0.22630348454423843
40
0.46722850516877623
40
0.46722850516877623
40
0.46722850516877623
40
0.46722850516877623
10
-48.656643964930929
20
-19.72249253913391
30
7.5394961367567221e-79
10
-48.684968719256588
20
-19.731945112217854
30
7.5438851442675319e-79
10
-48.743448298788934
20
-19.751460991970671
30
7.5529467343821526e-79
10
-48.805082351093567
20
-19.753736657254468
30
7.5624971197227109e-79
10
-48.836863771016354
20
-19.75491009744351
30
7.5674217481640237e-79
0
SPLINE
5
265
100
AcDbEntity
8
0
100
AcDbSpline
70
0
71
3
72
9
73
5
74
0
42
0.000000001
43
0.0000000001
44
0.0000000001
40
0
40
0
40
0
40
0
40
0.27009884336496365
40
0.51983640160736966
40
0.51983640160736966
40
0.51983640160736966
40
0.51983640160736966
10
-48.836863771016354
20
-19.75491009744351
30
7.5674217481640237e-79
10
-48.872566535434316
20
-19.753478518172617
30
7.5729540009555381e-79
10
-48.941280626732329
20
-19.750723278618359
30
7.5836014600416112e-79
10
-49.00528900772261
20
-19.725715467793972
30
7.5935197548903883e-79
10
-49.036039637586413
20
-19.713701323357451
30
7.5982846592522288e-79
0
SPLINE
5
266
100
AcDbEntity
8
0
100
AcDbSpline
70
0
71
3
72
9
73
5
74
0
42
0.000000001
43
0.0000000001
44
0.0000000001
40
0
40
0
40
0
40
0
40
0.23512603781461447
40
0.4642393082411177
40
0.4642393082411177
40
0.4642393082411177
40
0.4642393082411177
10
-49.036039637586413
20
-19.713701323357451
30
7.5982846592522288e-79
10
-49.063412346810189
20
-19.698646888592677
30
7.6025261444560571e-79
10
-49.117457775861091
20
-19.668922999030645
30
7.6109006493609236e-79
10
-49.154731851354498
20
-19.61980860518333
30
7.616676381620352e-79
10
-49.173127504602341
20
-19.59556946989337
30
7.6195268444820151e-79
0
SPLINE
5
267
100
AcDbEntity
8
0
100
AcDbSpline
70
0
71
3
72
9
73
5
74
0
42
0.000000001
43
0.0000000001
44
0.0000000001
40
0
40
0
40
0
40
0
40
0.1051405043764797
40
0.19595966442359117
40
0.19595966442359117
40
0.19595966442359117
40
0.19595966442359117
10
-49.173127504602341
20
-19.59556946989337
30
7.6195268444820151e-79
10
-49.18041373592196
20
-19.583788504088854
30
7.6206558683605498e-79
10
-49.19399373016654
20
-19.56183127533739
30
7.6227601300975085e-79
10
-49.202262409672748
20
-19.537390987882969
30
7.6240413873341986e-79
10
-49.206094598963652
20
-19.526063930427295
30
7.6246351968122003e-79
0
SPLINE
5
268
100
AcDbEntity
8
0
100
AcDbSpline
70
0
71
3
72
9
73
5
74
0
42
0.000000001
43
0.0000000001
44
0.0000000001
40
0
40
0
40
0
40
0
40
0.095852129721198706
40
0.21582960403831458
40
0.21582960403831458
40
0.21582960403831458
40
0.21582960403831458
10
-49.206094598963652
20
-19.526063930427295
30
7.6246351968122003e-79
10
-49.20865046756559
20
-19.513718337846289
30
7.6250312364869508e-79
10
-49.214405499925704
20
-19.485919849005963
30
7.6259229963929001e-79
10
-49.214714177238967
20
-19.45751386231785
30
7.6259708268888247e-79
10
-49.214885767807324
20
-19.441723264204533
30
7.6259974153733929e-79
0
LINE
5
269
100
AcDbEntity
8
0
100
AcDbLine
10
-49.214885767807324
20
-19.44172326420453
30
7.625997415373394e-79
11
-49.155545073049424
21
-19.441723264204533
31
7.6168023928148694e-79
0
SPLINE
5
270
100
AcDbEntity
8
0
100
AcDbSpline
70
0
71
3
72
9
73
5
74
0
42
0.000000001
43
0.0000000001
44
0.0000000001
40
0
40
0
40
0
40
0
40
0.051832882653811516
40
0.086400977501882942
40
0.086400977501882942
40
0.086400977501882942
40
0.086400977501882942
10
-49.155545073049424
20
-19.441723264204533
30
7.6168023928148694e-79
10
-49.153827745212254
20
-19.448320787664173
30
7.6165362876021214e-79
10
-49.150965106743662
20
-19.459318294397718
30
7.6160927129961453e-79
10
-49.146387561650307
20
-19.46970894012582
30
7.6153834083517049e-79
10
-49.144556135461237
20
-19.473866124887465
30
7.6150996232495671e-79
0
SPLINE
5
271
100
AcDbEntity
8
0
100
AcDbSpline
70
0
71
3
72
9
73
5
74
0
42
0.000000001
43
0.0000000001
44
0.0000000001
40
0
40
0
40
0
40
0
40
0.026795743601640314
40
0.05622000373954928
40
0.05622000373954928
40
0.05622000373954928
40
0.05622000373954928
10
-49.144556135461237
20
-19.473866124887465
30
7.6150996232495671e-79
10
-49.142603778577183
20
-19.476831440751432
30
7.6147970995655351e-79
10
-49.138507549229942
20
-19.483052953818571
30
7.6141623762714047e-79
10
-49.132379009660397
20
-19.48730175845396
30
7.6132127402783856e-79
10
-49.129171472652843
20
-19.489525485322531
30
7.6127157225865288e-79
0
LWPOLYLINE
5
272
100
AcDbEntity
8
0
100
AcDbPolyline
90
30
70
1
43
0.0
10
-49.003444885793662
20
-20.235368639837173
42
0.99999999999999989
10
-48.878444885793662
20
-20.235368639837173
10
-47.999999945196436
20
-20.235368639837173
10
-47.999999945196443
20
-21.471589112278121
10
-48.878444785793661
20
-21.471589112278121
42
0.99999999999999989
10
-49.003444785793661
20
-21.471589112278121
10
-49.003444785793661
20
-21.589699348498591
42
0.99999999999999989
10
-48.878444785793661
20
-21.589699348498591
10
-47.999999984573719
20
-21.589699348498591
10
-47.999999945196436
20
-21.948618718791039
42
2.4142154806116913
10
-47.937500015426266
20
-22.011118718791
10
-46.000000015426266
20
-22.011118718791
10
-46.000000015426266
20
-22.761118718791
10
-47.937500015426266
20
-22.761118718791
42
2.4142154806116913
10
-47.999999945196436
20
-22.823618718790961
10
-47.99999994519677
20
-23.26111871417584
10
-48.999999984573726
20
-23.26111871417584
10
-49.999999984573726
20
-22.26111871417584
10
-49.999999984573719
20
-19.445839037939457
10
-48.999999984573734
20
-18.445839037939457
10
-47.99999994519677
20
-18.445839037939457
10
-47.999999945196436
20
-18.883339033324358
42
2.4142154806116913
10
-47.937500015426266
20
-18.945839033324319
10
-46.000000015426266
20
-18.945839033324319
10
-46.000000015426266
20
-19.695839033324319
10
-47.937500015426266
20
-19.695839033324319
42
2.4142154806115381
10
-47.999999945196443
20
-19.758339033324276
10
-47.999999984573726
20
-20.117258403616699
10
-48.878444885793662
20
-20.117258403616699
42
0.99999999999999989
10
-49.003444885793662
20
-20.117258403616702
0
LWPOLYLINE
5
273
100
AcDbEntity
8
0
100
AcDbPolyline
90
30
70
1
43
0.0
10
-48.878444829533372
20
-25.932538079853085
42
0.99999999999999989
10
-49.003444829533365
20
-25.932538079853085
10
-49.003444829533365
20
-26.050648316073556
42
0.99999999999999989
10
-48.878444829533372
20
-26.050648316073556
10
-48.000000028490263
20
-26.050648316073559
10
-48.000000028490263
20
-27.286868788514507
10
-48.878445129533368
20
-27.286868788514507
42
0.99999999999999989
10
-49.003445129533368
20
-27.286868788514507
10
-49.003445129533368
20
-27.404979024734978
42
0.99999999999999989
10
-48.878445129533368
20
-27.404979024734978
10
-48.000000028490263
20
-27.40497902473497
10
-48.000000028490255
20
-27.763898395027383
42
2.414213205547322
10
-47.937500015426266
20
-27.826398395027383
10
-46.000000015426266
20
-27.826398395027383
10
-46.000000015426266
20
-28.576398395027383
10
-47.937500015426266
20
-28.576398395027375
42
2.414213205547016
10
-48.000000028490263
20
-28.638898395027383
10
-48.000000028490263
20
-29.076398390412223
10
-48.999999984573726
20
-29.076398390412226
10
-49.999999984573726
20
-28.076398390412219
10
-49.999999984573719
20
-25.261118714175844
10
-48.999999984573726
20
-24.26111871417584
10
-48.000000028490263
20
-24.26111871417584
10
-48.000000028490255
20
-24.698618709560701
42
2.4142132055472465
10
-47.937500015426266
20
-24.761118709560701
10
-46.000000015426266
20
-24.761118709560701
10
-46.000000015426266
20
-25.511118709560701
10
-47.937500015426266
20
-25.511118709560694
42
2.414213205547016
10
-48.000000028490263
20
-25.573618709560701
10
-48.000000028490263
20
-25.932538079853085
0
SPLINE
5
274
100
AcDbEntity
8
0
100
AcDbSpline
70
0
71
3
72
9
73
5
74
0
42
0.000000001
43
0.0000000001
44
0.0000000001
40
0
40
0
40
0
40
0
40
0.1359959114006114
40
0.28792199031275967
40
0.28792199031275967
40
0.28792199031275967
40
0.28792199031275967
10
-48.565437575878676
20
-25.302291263286556
30
0
10
-48.555339291218644
20
-25.287297430893052
30
0
10
-48.533959838056305
20
-25.255553431969169
30
0
10
-48.528309281586559
20
-25.217631138173608
30
0
10
-48.525327686164879
20
-25.197620907647437
30
0
0
LINE
5
275
100
AcDbEntity
8
0
100
AcDbLine
10
-48.525327686164886
20
-25.197620907647437
30
0
11
-48.461041964799016
21
-25.197620907647437
31
-9.9612695901480794e-82
0
LINE
5
276
100
AcDbEntity
8
0
100
AcDbLine
10
-48.461041964799016
20
-25.197620907647437
30
-9.9612695901480794e-82
11
-48.461041964799016
21
-25.419049534751707
31
-4.2291627595217749e-113
0
LINE
5
277
100
AcDbEntity
8
0
100
AcDbLine
10
-48.461041964799016
20
-25.419049534751707
30
-4.2291627595217749e-113
11
-48.655547455454993
21
-25.419049534751707
31
3.0139222023525548e-81
0
SPLINE
5
278
100
AcDbEntity
8
0
100
AcDbSpline
70
0
71
3
72
9
73
5
74
0
42
0.000000001
43
0.0000000001
44
0.0000000001
40
0
40
0
40
0
40
0
40
0.037566449447884648
40
0.065965014812871536
40
0.065965014812871536
40
0.065965014812871536
40
0.065965014812871536
10
-48.655547455454993
20
-25.419049534751707
30
0
10
-48.660582751928764
20
-25.418964533221775
30
0
10
-48.669424508638834
20
-25.418815274314863
30
0
10
-48.677007975001693
20
-25.414369874541428
30
0
10
-48.680272729293186
20
-25.412456087719772
30
0
0
SPLINE
5
279
100
AcDbEntity
8
0
100
AcDbSpline
70
0
71
3
72
9
73
5
74
0
42
0.000000001
43
0.0000000001
44
0.0000000001
40
0
40
0
40
0
40
0
40
0.026128058392947021
40
0.05790663922293364
40
0.05790663922293364
40
0.05790663922293364
40
0.05790663922293364
10
-48.680272729293186
20
-25.412456087719772
30
0
10
-48.682510748291101
20
-25.409741170994391
30
0
10
-48.687470786145326
20
-25.403724202531883
30
0
10
-48.687789922098226
20
-25.395881176696108
30
0
10
-48.68796506069738
20
-25.39157700305007
30
0
0
SPLINE
5
280
100
AcDbEntity
8
0
100
AcDbSpline
70
0
71
3
72
9
73
5
74
0
42
0.000000001
43
0.0000000001
44
0.0000000001
40
0
40
0
40
0
40
0
40
0.02670183436491011
40
0.047144577233031129
40
0.047144577233031129
40
0.047144577233031129
40
0.047144577233031129
10
-48.68796506069738
20
-25.39157700305007
30
0
10
-48.687893570169692
20
-25.387992380540595
30
0
10
-48.687767346979996
20
-25.381663395406463
30
0
10
-48.684455893418722
20
-25.376314115977454
30
0
10
-48.683019987156626
20
-25.373994571497153
30
0
0
SPLINE
5
281
100
AcDbEntity
8
0
100
AcDbSpline
70
0
71
3
72
9
73
5
74
0
42
0.000000001
43
0.0000000001
44
0.0000000001
40
0
40
0
40
0
40
0
40
0.02352425139681262
40
0.058445786623271045
40
0.058445786623271045
40
0.058445786623271045
40
0.058445786623271045
10
-48.683019987156626
20
-25.373994571497153
30
0
10
-48.680572156986599
20
-25.372079155919483
30
0
10
-48.674490545402271
20
-25.367320323501868
30
0
10
-48.667103892339206
20
-25.364963306847564
30
0
10
-48.662690344673059
20
-25.363554982229513
30
0
0
SPLINE
5
282
100
AcDbEntity
8
0
100
AcDbSpline
70
0
71
3
72
9
73
5
74
0
42
0.000000001
43
0.0000000001
44
0.0000000001
40
0
40
0
40
0
40
0
40
0.1569811707249035
40
0.29488464177020257
40
0.29488464177020257
40
0.29488464177020257
40
0.29488464177020257
10
-48.662690344673059
20
-25.363554982229513
30
0
10
-48.64312674159806
20
-25.356270960962661
30
0
10
-48.606377072463445
20
-25.342588135232653
30
0
10
-48.57848252446832
20
-25.31513144615915
30
0
10
-48.565437575878676
20
-25.302291263286556
30
0
0
SPLINE
5
283
100
AcDbEntity
8
0
100
AcDbSpline
70
0
71
3
72
9
73
5
74
0
42
0.000000001
43
0.0000000001
44
0.0000000001
40
0
40
0
40
0
40
0
40
0.089866450703554354
40
0.1637414932843384
40
0.1637414932843384
40
0.1637414932843384
40
0.1637414932843384
10
-48.946206830533086
20
-25.266302260367922
30
0
10
-48.934720091550822
20
-25.263192424166135
30
0
10
-48.913790637019133
20
-25.257526135806412
30
0
10
-48.895994243467158
20
-25.245210361022899
30
0
10
-48.887965067080245
20
-25.239653868479085
30
0
0
SPLINE
5
284
100
AcDbEntity
8
0
100
AcDbSpline
70
0
71
3
72
9
73
5
74
0
42
0.000000001
43
0.0000000001
44
0.0000000001
40
0
40
0
40
0
40
0
40
0.066207793923999225
40
0.13446347351040194
40
0.13446347351040194
40
0.13446347351040194
40
0.13446347351040194
10
-48.887965067080245
20
-25.239653868479085
30
0
10
-48.881744899932144
20
-25.233393262523272
30
0
10
-48.869112168481983
20
-25.220678402637365
30
0
10
-48.863759216449338
20
-25.203562127984792
30
0
10
-48.861041977564739
20
-25.194873649783993
30
0
0
LINE
5
285
100
AcDbEntity
8
0
100
AcDbLine
10
-48.861041977564739
20
-25.194873649783997
30
0
11
-48.797305698385003
21
-25.194873649783993
31
-9.876131839120976e-82
0
SPLINE
5
286
100
AcDbEntity
8
0
100
AcDbSpline
70
0
71
3
72
9
73
5
74
0
42
0.000000001
43
0.0000000001
44
0.0000000001
40
0
40
0
40
0
40
0
40
0.08144660458380569
40
0.14791472550968743
40
0.14791472550968743
40
0.14791472550968743
40
0.14791472550968743
10
-48.797305698385003
20
-25.194873649783993
30
0
10
-48.79243538602212
20
-25.204475719117134
30
0
10
-48.783590438832697
20
-25.221913983818204
30
0
10
-48.769928494250507
20
-25.235859680913961
30
0
10
-48.763789255703145
20
-25.24212642871586
30
0
0
SPLINE
5
287
100
AcDbEntity
8
0
100
AcDbSpline
70
0
71
3
72
9
73
5
74
0
42
0.000000001
43
0.0000000001
44
0.0000000001
40
0
40
0
40
0
40
0
40
0.06350101847591387
40
0.13643131856204349
40
0.13643131856204349
40
0.13643131856204349
40
0.13643131856204349
10
-48.763789255703145
20
-25.24212642871586
30
0
10
-48.756934028705999
20
-25.246979798384249
30
0
10
-48.742205640394907
20
-25.257407215758327
30
0
10
-48.724762137106232
20
-25.262129537367485
30
0
10
-48.71543759239902
20
-25.26465388687674
30
0
0
SPLINE
5
288
100
AcDbEntity
8
0
100
AcDbSpline
70
0
71
3
72
9
73
5
74
0
42
0.000000001
43
0.0000000001
44
0.0000000001
40
0
40
0
40
0
40
0
40
0.046655306447744252
40
0.07948036365888228
40
0.07948036365888228
40
0.07948036365888228
40
0.07948036365888228
10
-48.71543759239902
20
-25.26465388687674
30
0
10
-48.70938374261452
20
-25.265947504220634
30
0
10
-48.699070613861487
20
-25.26815126590942
30
0
10
-48.690238894756057
20
-25.273842078682716
30
0
10
-48.686591431765663
20
-25.276192360516642
30
0
0
SPLINE
5
289
100
AcDbEntity
8
0
100
AcDbSpline
70
0
71
3
72
9
73
5
74
0
42
0.000000001
43
0.0000000001
44
0.0000000001
40
0
40
0
40
0
40
0
40
0.026711473827924756
40
0.056796525399471373
40
0.056796525399471373
40
0.056796525399471373
40
0.056796525399471373
10
-48.686591431765663
20
-25.276192360516642
30
0
10
-48.684269914697509
20
-25.278942724785271
30
0
10
-48.679333680030119
20
-25.284790815948163
30
0
10
-48.678870008820134
20
-25.292459798858189
30
0
10
-48.678624402734791
20
-25.296522049933003
30
0
0
SPLINE
5
290
100
AcDbEntity
8
0
100
AcDbSpline
70
0
71
3
72
9
73
5
74
0
42
0.000000001
43
0.0000000001
44
0.0000000001
40
0
40
0
40
0
40
0
40
0.038677722804610515
40
0.07399948912268732
40
0.07399948912268732
40
0.07399948912268732
40
0.07399948912268732
10
-48.678624402734791
20
-25.296522049933003
30
0
10
-48.679085528228597
20
-25.301868439923716
30
0
10
-48.679967768662848
20
-25.312097328784684
30
0
10
-48.688356498949879
20
-25.317919037571642
30
0
10
-48.692360645119216
20
-25.320697881585065
30
0
0
SPLINE
5
291
100
AcDbEntity
8
0
100
AcDbSpline
70
0
71
3
72
9
73
5
74
0
42
0.000000001
43
0.0000000001
44
0.0000000001
40
0
40
0
40
0
40
0
40
0.030548312760989231
40
0.083288963256207799
40
0.083288963256207799
40
0.083288963256207799
40
0.083288963256207799
10
-48.692360645119216
20
-25.320697881585065
30
0
10
-48.69623192317124
20
-25.321801695498966
30
0
10
-48.706786834598006
20
-25.324811207586794
30
0
10
-48.717802718015861
20
-25.324647614834763
30
0
10
-48.724778250361609
20
-25.324544023820767
30
0
0
LINE
5
292
100
AcDbEntity
8
0
100
AcDbLine
10
-48.724778250361616
20
-25.324544023820767
30
0
11
-48.934118914707057
21
-25.324544023820767
31
3.2437977663156593e-81
0
SPLINE
5
293
100
AcDbEntity
8
0
100
AcDbSpline
70
0
71
3
72
9
73
5
74
0
42
0.000000001
43
0.0000000001
44
0.0000000001
40
0
40
0
40
0
40
0
40
0.055596190944350456
40
0.092509140941990226
40
0.092509140941990226
40
0.092509140941990226
40
0.092509140941990226
10
-48.934118914707057
20
-25.324544023820767
30
0
10
-48.941493810371043
20
-25.3245715361473
30
0
10
-48.95376524931001
20
-25.324617315213263
30
0
10
-48.965250381505115
20
-25.320441139161748
30
0
10
-48.969833173066228
20
-25.318774763534421
30
0
0
SPLINE
5
294
100
AcDbEntity
8
0
100
AcDbSpline
70
0
71
3
72
9
73
5
74
0
42
0.000000001
43
0.0000000001
44
0.0000000001
40
0
40
0
40
0
40
0
40
0.028034543450565764
40
0.061598467935565129
40
0.061598467935565129
40
0.061598467935565129
40
0.061598467935565129
10
-48.969833173066228
20
-25.318774763534421
30
0
10
-48.972711716394933
20
-25.316252877526583
30
0
10
-48.979036551298961
20
-25.310711702416505
30
0
10
-48.979481095701793
20
-25.302238068670636
30
0
10
-48.979723320147741
20
-25.297620934305261
30
0
0
SPLINE
5
295
100
AcDbEntity
8
0
100
AcDbSpline
70
0
71
3
72
9
73
5
74
0
42
0.000000001
43
0.0000000001
44
0.0000000001
40
0
40
0
40
0
40
0
40
0.02902387389878151
40
0.055151766737944849
40
0.055151766737944849
40
0.055151766737944849
40
0.055151766737944849
10
-48.979723320147741
20
-25.297620934305261
30
0
10
-48.979475699579375
20
-25.293708191804974
30
0
10
-48.979005165843134
20
-25.286273117409532
30
0
10
-48.974272916690502
20
-25.280551380325058
30
0
10
-48.972031035676331
20
-25.277840734007825
30
0
0
SPLINE
5
296
100
AcDbEntity
8
0
100
AcDbSpline
70
0
71
3
72
9
73
5
74
0
42
0.000000001
43
0.0000000001
44
0.0000000001
40
0
40
0
40
0
40
0
40
0.030881279477809241
40
0.072366788896836107
40
0.072366788896836107
40
0.072366788896836107
40
0.072366788896836107
10
-48.972031035676331
20
-25.277840734007825
30
0
10
-48.96868601900988
20
-25.275498613699497
30
0
10
-48.960847350436211
20
-25.270010119414621
30
0
10
-48.951541544327405
20
-25.267653330339119
30
0
10
-48.946206830533086
20
-25.266302260367922
30
0
0
LINE
5
297
100
AcDbEntity
8
0
100
AcDbLine
10
-49.017085951998098
20
-25.426741819223114
30
0
11
-49.211042000467941
21
-25.426741819223114
31
3.0054084272498443e-81
0
LINE
5
298
100
AcDbEntity
8
0
100
AcDbLine
10
-49.211042000467941
20
-25.426741819223114
30
3.0054084272498443e-81
11
-49.211042000467941
21
-25.198170349833568
31
4.3655870465937588e-113
0
LINE
5
299
100
AcDbEntity
8
0
100
AcDbLine
10
-49.211042000467941
20
-25.198170349833568
30
4.3655870465937588e-113
11
-49.151701305710041
21
-25.198170349833568
31
-9.1950225585242941e-82
0
SPLINE
5
300
100
AcDbEntity
8
0
100
AcDbSpline
70
0
71
3
72
9
73
5
74
0
42
0.000000001
43
0.0000000001
44
0.0000000001
40
0
40
0
40
0
40
0
40
0.084539458583595919
40
0.15531756960504978
40
0.15531756960504978
40
0.15531756960504978
40
0.15531756960504978
10
-49.151701305710041
20
-25.198170349833568
30
0
10
-49.149857938917528
20
-25.209139257167351
30
0
10
-49.146471268895027
20
-25.229291551218555
30
0
10
-49.139495561768747
20
-25.248488337538848
30
0
10
-49.136316736767228
20
-25.257236300032002
30
0
0
SPLINE
5
301
100
AcDbEntity
8
0
100
AcDbSpline
70
0
71
3
72
9
73
5
74
0
42
0.000000001
43
0.0000000001
44
0.0000000001
40
0
40
0
40
0
40
0
40
0.067430317081732305
40
0.14230460046161003
40
0.14230460046161003
40
0.14230460046161003
40
0.14230460046161003
10
-49.136316736767228
20
-25.257236300032002
30
0
10
-49.13242313521107
20
-25.265217181894762
30
0
10
-49.124206098160293
20
-25.282059994652634
30
0
10
-49.112340201600894
20
-25.296576435713121
30
0
10
-49.106096900269357
20
-25.30421433440441
30
0
0
SPLINE
5
302
100
AcDbEntity
8
0
100
AcDbSpline
70
0
71
3
72
9
73
5
74
0
42
0.000000001
43
0.0000000001
44
0.0000000001
40
0
40
0
40
0
40
0
40
0.075253094831203377
40
0.14367725765924089
40
0.14367725765924089
40
0.14367725765924089
40
0.14367725765924089
10
-49.106096900269357
20
-25.30421433440441
30
0
10
-49.099451930216333
20
-25.311565188630329
30
0
10
-49.08676499585718
20
-25.325599835032612
30
0
10
-49.071387358207943
20
-25.336608836946681
30
0
10
-49.064063986370499
20
-25.341851710814225
30
0
0
SPLINE
5
303
100
AcDbEntity
8
0
100
AcDbSpline
70
0
71
3
72
9
73
5
74
0
42
0.000000001
43
0.0000000001
44
0.0000000001
40
0
40
0
40
0
40
0
40
0.072829831816009674
40
0.16104061557554017
40
0.16104061557554017
40
0.16104061557554017
40
0.16104061557554017
10
-49.064063986370499
20
-25.341851710814225
30
0
10
-49.05576663211
20
-25.346629940935358
30
0
10
-49.037419603091266
20
-25.357195516893473
30
0
10
-49.017537130912196
20
-25.364499347100139
30
0
10
-49.006646409663247
20
-25.368500055770269
30
0
0
SPLINE
5
304
100
AcDbEntity
8
0
100
AcDbSpline
70
0
71
3
72
9
73
5
74
0
42
0.000000001
43
0.0000000001
44
0.0000000001
40
0
40
0
40
0
40
0
40
0.040660372381963093
40
0.069072317675954925
40
0.069072317675954925
40
0.069072317675954925
40
0.069072317675954925
10
-49.006646409663247
20
-25.368500055770269
30
0
10
-49.001558066051707
20
-25.370260459854268
30
0
10
-48.992914178507377
20
-25.373250968376563
30
0
10
-48.985709051995009
20
-25.378838896579662
30
0
10
-48.982745322570644
20
-25.381137413782429
30
0
0
SPLINE
5
305
100
AcDbEntity
8
0
100
AcDbSpline
70
0
71
3
72
9
73
5
74
0
42
0.000000001
43
0.0000000001
44
0.0000000001
40
0
40
0
40
0
40
0
40
0.023246545200811115
40
0.049720000633325476
40
0.049720000633325476
40
0.049720000633325476
40
0.049720000633325476
10
-48.982745322570644
20
-25.381137413782429
30
0
10
-48.980904425558421
20
-25.383652480443054
30
0
10
-48.97696709208271
20
-25.389031736365983
30
0
10
-48.976614376740741
20
-25.395712245115909
30
0
10
-48.976426573165377
20
-25.399269287521477
30
0
0
SPLINE
5
306
100
AcDbEntity
8
0
100
AcDbSpline
70
0
71
3
72
9
73
5
74
0
42
0.000000001
43
0.0000000001
44
0.0000000001
40
0
40
0
40
0
40
0
40
0.033641927820158908
40
0.061050589407135238
40
0.061050589407135238
40
0.061050589407135238
40
0.061050589407135238
10
-48.976426573165377
20
-25.399269287521477
30
0
10
-48.976623774518451
20
-25.40387303675449
30
0
10
-48.976981639231248
20
-25.412227540267502
30
0
10
-48.982855507379611
20
-25.418073374211453
30
0
10
-48.985492580434084
20
-25.420697861310099
30
0
0
SPLINE
5
307
100
AcDbEntity
8
0
100
AcDbSpline
70
0
71
3
72
9
73
5
74
0
42
0.000000001
43
0.0000000001
44
0.0000000001
40
0
40
0
40
0
40
0
40
0.033609135894556746
40
0.082431941729784949
40
0.082431941729784949
40
0.082431941729784949
40
0.082431941729784949
10
-48.985492580434084
20
-25.420697861310099
30
0
10
-48.989584713622534
20
-25.422446194064985
30
0
10
-48.999621344305289
20
-25.426734268124001
30
0
10
-49.010589644883929
20
-25.426739010442081
30
0
10
-49.017085951998098
20
-25.426741819223114
30
0
0
SPLINE
5
308
100
AcDbEntity
8
0
100
AcDbSpline
70
0
71
3
72
9
73
5
74
0
42
0.000000001
43
0.0000000001
44
0.0000000001
40
0
40
0
40
0
40
0
40
0.03587154264959324
40
0.08060509632221112
40
0.08060509632221112
40
0.08060509632221112
40
0.08060509632221112
10
-48.468459551643754
20
-24.8594340853438
30
0
10
-48.466302825920614
20
-24.863682136932947
30
0
10
-48.461456558606372
20
-24.873227714910165
30
0
10
-48.461189933955652
20
-24.883968022518761
30
0
10
-48.461041964799016
20
-24.889928590135344
30
0
0
LINE
5
309
100
AcDbEntity
8
0
100
AcDbLine
10
-48.461041964799016
20
-24.889928590135341
30
0
11
-48.461041964799016
21
-25.148719802157181
31
-4.9427672053390889e-113
0
LINE
5
310
100
AcDbEntity
8
0
100
AcDbLine
10
-48.461041964799016
20
-25.148719802157181
30
-4.9427672053390889e-113
11
-49.211042000467941
21
-25.148719802157181
31
1.1621480461268104e-80
0
LINE
5
311
100
AcDbEntity
8
0
100
AcDbLine
10
-49.211042000467941
20
-25.148719802157181
30
1.1621480461268104e-80
11
-49.211042000467941
21
-24.889928590135344
31
4.9427672053390889e-113
0
SPLINE
5
312
100
AcDbEntity
8
0
100
AcDbSpline
70
0
71
3
72
9
73
5
74
0
42
0.000000001
43
0.0000000001
44
0.0000000001
40
0
40
0
40
0
40
0
40
0.044733568490944779
40
0.080605050485582155
40
0.080605050485582155
40
0.080605050485582155
40
0.080605050485582155
10
-49.211042000467941
20
-24.889928590135344
30
0
10
-49.21089402761848
20
-24.883968022261261
30
0
10
-49.21062739655364
20
-24.873227723854029
30
0
10
-49.20578116703755
20
-24.863682136388281
30
0
10
-49.203624460555993
20
-24.8594340853438
30
0
0
SPLINE
5
313
100
AcDbEntity
8
0
100
AcDbSpline
70
0
71
3
72
9
73
5
74
0
42
0.000000001
43
0.0000000001
44
0.0000000001
40
0
40
0
40
0
40
0
40
0.030640874290956115
40
0.062259364028901712
40
0.062259364028901712
40
0.062259364028901712
40
0.062259364028901712
10
-49.203624460555993
20
-24.8594340853438
30
0
10
-49.200853673760761
20
-24.856309301741256
30
0
10
-49.195223696558003
20
-24.849960036443704
30
0
10
-49.186765859668213
20
-24.849137516268115
30
0
10
-49.182470537461249
20
-24.848719798449491
30
0
0
SPLINE
5
314
100
AcDbEntity
8
0
100
AcDbSpline
70
0
71
3
72
9
73
5
74
0
42
0.000000001
43
0.0000000001
44
0.0000000001
40
0
40
0
40
0
40
0
40
0.049460342206835338
40
0.099779461360436528
40
0.099779461360436528
40
0.099779461360436528
40
0.099779461360436528
10
-49.182470537461249
20
-24.848719798449491
30
0
10
-49.175592423672974
20
-24.849666674567377
30
0
10
-49.161716771820423
20
-24.851576867356233
30
0
10
-49.155789451561283
20
-24.864287702981589
30
0
10
-49.152800283947883
20
-24.87069782029084
30
0
0
SPLINE
5
315
100
AcDbEntity
8
0
100
AcDbSpline
70
0
71
3
72
9
73
5
74
0
42
0.000000001
43
0.0000000001
44
0.0000000001
40
0
40
0
40
0
40
0
40
0.038506602322357517
40
0.056943988056071565
40
0.056943988056071565
40
0.056943988056071565
40
0.056943988056071565
10
-49.152800283947883
20
-24.87069782029084
30
0
10
-49.151223383085927
20
-24.875499939950043
30
0
10
-49.148891444705654
20
-24.882601367446252
30
0
10
-49.14624085950053
20
-24.889589154052452
30
0
10
-49.145382650170355
20
-24.891851667119795
30
0
0
SPLINE
5
316
100
AcDbEntity
8
0
100
AcDbSpline
70
0
71
3
72
9
73
5
74
0
42
0.000000001
43
0.0000000001
44
0.0000000001
40
0
40
0
40
0
40
0
40
0.0097348954004535786
40
0.022894029561828712
40
0.022894029561828712
40
0.022894029561828712
40
0.022894029561828712
10
-49.145382650170355
20
-24.891851667119795
30
0
10
-49.144678980583528
20
-24.892931681208498
30
0
10
-49.143024126405841
20
-24.895471603154942
30
0
10
-49.14050941300578
20
-24.897185328922276
30
0
10
-49.139063994630668
20
-24.898170351992476
30
0
0
SPLINE
5
317
100
AcDbEntity
8
0
100
AcDbSpline
70
0
71
3
72
9
73
5
74
0
42
0.000000001
43
0.0000000001
44
0.0000000001
40
0
40
0
40
0
40
0
40
0.031565440435035522
40
0.073989558913293174
40
0.073989558913293174
40
0.073989558913293174
40
0.073989558913293174
10
-49.139063994630668
20
-24.898170351992476
30
0
10
-49.13533228283999
20
-24.900083112024806
30
0
10
-49.126585130714787
20
-24.904566631631965
30
0
10
-49.116706327152109
20
-24.904691923816902
30
0
10
-49.111042020742907
20
-24.904763763824821
30
0
0
LINE
5
318
100
AcDbEntity
8
0
100
AcDbLine
10
-49.111042020742907
20
-24.904763763824821
30
0
11
-48.56104199145684
21
-24.904763763824821
31
-8.5224190534124747e-81
0
SPLINE
5
319
100
AcDbEntity
8
0
100
AcDbSpline
70
0
71
3
72
9
73
5
74
0
42
0.000000001
43
0.0000000001
44
0.0000000001
40
0
40
0
40
0
40
0
40
0.042424237105603606
40
0.073989677540639121
40
0.073989677540639121
40
0.073989677540639121
40
0.073989677540639121
10
-48.56104199145684
20
-24.904763763824821
30
0
10
-48.555377668864978
20
-24.904691926162627
30
0
10
-48.545498848863687
20
-24.904566638218199
30
0
10
-48.536751682512858
20
-24.900083111844726
30
0
10
-48.533019970636282
20
-24.898170351992476
30
0
0
SPLINE
5
320
100
AcDbEntity
8
0
100
AcDbSpline
70
0
71
3
72
9
73
5
74
0
42
0.000000001
43
0.0000000001
44
0.0000000001
40
0
40
0
40
0
40
0
40
0.013159134161375135
40
0.022894029561828712
40
0.022894029561828712
40
0.022894029561828712
40
0.022894029561828712
10
-48.533019970636282
20
-24.898170351992476
30
0
10
-48.531574552261176
20
-24.897185328922276
30
0
10
-48.529059838861109
20
-24.895471603154942
30
0
10
-48.527404984683429
20
-24.892931681208498
30
0
10
-48.526701315096602
20
-24.891851667119795
30
0
0
SPLINE
5
321
100
AcDbEntity
8
0
100
AcDbSpline
70
0
71
3
72
9
73
5
74
0
42
0.000000001
43
0.0000000001
44
0.0000000001
40
0
40
0
40
0
40
0
40
0.01843736486693192
40
0.056943948016823516
40
0.056943948016823516
40
0.056943948016823516
40
0.056943948016823516
10
-48.526701315096602
20
-24.891851667119795
30
0
10
-48.525843114173462
20
-24.889589153815656
30
0
10
-48.523192553797408
20
-24.88260136348292
30
0
10
-48.520860623781388
20
-24.875499938939122
30
0
10
-48.519283728251864
20
-24.87069782029084
30
0
0
SPLINE
5
322
100
AcDbEntity
8
0
100
AcDbSpline
70
0
71
3
72
9
73
5
74
0
42
0.000000001
43
0.0000000001
44
0.0000000001
40
0
40
0
40
0
40
0
40
0.050319230740021918
40
0.099779625924893159
40
0.099779625924893159
40
0.099779625924893159
40
0.099779625924893159
10
-48.519283728251864
20
-24.87069782029084
30
0
10
-48.516294535475893
20
-24.864287700049623
30
0
10
-48.510367168689534
20
-24.851576865833831
30
0
10
-48.496491499351855
20
-24.849666673696817
30
0
10
-48.48961338087291
20
-24.848719798449491
30
0
0
SPLINE
5
323
100
AcDbEntity
8
0
100
AcDbSpline
70
0
71
3
72
9
73
5
74
0
42
0.000000001
43
0.0000000001
44
0.0000000001
40
0
40
0
40
0
40
0
40
0.031618373321136588
40
0.062259158701347683
40
0.062259158701347683
40
0.062259158701347683
40
0.062259158701347683
10
-48.48961338087291
20
-24.848719798449491
30
0
10
-48.485318073663692
20
-24.849137516998166
30
0
10
-48.476860263058001
20
-24.849960038927119
30
0
10
-48.471230321831293
20
-24.856309301730573
30
0
10
-48.468459551643754
20
-24.8594340853438
30
0
0
LWPOLYLINE
5
324
100
AcDbEntity
8
0
100
AcDbPolyline
90
30
70
1
43
0.0
10
-48.878444873273075
20
-31.747817756089468
42
0.99999999999999989
10
-49.003444873273075
20
-31.747817756089468
10
-49.003444873273075
20
-31.865927992309938
42
0.99999999999999989
10
-48.878444873273082
20
-31.865927992309938
10
-47.99999999877533
20
-31.865927992309945
10
-47.99999999877533
20
-33.10214846475089
10
-48.878444773273074
20
-33.10214846475089
42
0.99999999999999989
10
-49.003444773273074
20
-33.10214846475089
10
-49.003444773273074
20
-33.220258700971364
42
0.99999999999999989
10
-48.878444773273074
20
-33.220258700971364
10
-47.99999999877533
20
-33.220258700971357
10
-47.999999998775323
20
-33.579178071263769
42
2.4142140171721547
10
-47.937500015426266
20
-33.641678071263769
10
-46.000000015426266
20
-33.641678071263769
10
-46.000000015426266
20
-34.391678071263769
10
-47.937500015426266
20
-34.391678071263762
42
2.4142140171720019
10
-47.99999999877533
20
-34.454178071263762
10
-47.99999999877533
20
-34.891678066648602
10
-48.999999984573726
20
-34.891678066648609
10
-49.999999984573726
20
-33.891678066648609
10
-49.999999984573726
20
-31.076398390412226
10
-48.999999984573726
20
-30.076398390412223
10
-47.99999999877533
20
-30.076398390412223
10
-47.999999998775323
20
-30.513898385797084
42
2.4142140171721547
10
-47.937500015426266
20
-30.576398385797084
10
-46.000000015426266
20
-30.576398385797084
10
-46.000000015426266
20
-31.326398385797084
10
-47.937500015426266
20
-31.326398385797081
42
2.4142140171720019
10
-47.99999999877533
20
-31.388898385797077
10
-47.99999999877533
20
-31.747817756089468
0
SPLINE
5
325
100
AcDbEntity
8
0
100
AcDbSpline
70
0
71
3
72
9
73
5
74
0
42
0.000000001
43
0.0000000001
44
0.0000000001
40
0
40
0
40
0
40
0
40
0.0901496223908195
40
0.16393291082173597
40
0.16393291082173597
40
0.16393291082173597
40
0.16393291082173597
10
-49.021438100194253
20
-31.163008612929914
30
7.5960221062730665e-79
10
-49.009962863762304
20
-31.159753971741331
30
7.5942439832112007e-79
10
-48.989095678068487
20
-31.153835557558612
30
7.59101054882068e-79
10
-48.971235076117665
20
-31.141594848790792
30
7.5882429937976614e-79
10
-48.963196336741404
20
-31.136085523414408
30
7.5869973664889764e-79
0
SPLINE
5
326
100
AcDbEntity
8
0
100
AcDbSpline
70
0
71
3
72
9
73
5
74
0
42
0.000000001
43
0.0000000001
44
0.0000000001
40
0
40
0
40
0
40
0
40
0.065810161219196778
40
0.1339040659779471
40
0.1339040659779471
40
0.1339040659779471
40
0.1339040659779471
10
-48.963196336741404
20
-31.136085523414408
30
7.5869973664889764e-79
10
-48.956974356320508
20
-31.129897158579219
30
7.5860332515496037e-79
10
-48.944314480377976
20
-31.117305680335814
30
7.5840715649641211e-79
10
-48.938983962399931
20
-31.100252177915397
30
7.5832455848630019e-79
10
-48.936273247225898
20
-31.091580002345985
30
7.5828255512372287e-79
0
LINE
5
327
100
AcDbEntity
8
0
100
AcDbLine
10
-48.936273247225891
20
-31.091580002345985
30
7.5828255512372287e-79
11
-48.87253696804617
21
-31.091580002345985
31
7.5729494193981083e-79
0
SPLINE
5
328
100
AcDbEntity
8
0
100
AcDbSpline
70
0
71
3
72
9
73
5
74
0
42
0.000000001
43
0.0000000001
44
0.0000000001
40
0
40
0
40
0
40
0
40
0.082116085487492232
40
0.14810581665570477
40
0.14810581665570477
40
0.14810581665570477
40
0.14810581665570477
10
-48.87253696804617
20
-31.091580002345985
30
7.5729494193981083e-79
10
-48.86770623924501
20
-31.101304319572755
30
7.5722008831620234e-79
10
-48.858993463545943
20
-31.118843245542504
30
7.5708508118588957e-79
10
-48.845366725233418
20
-31.132861523182967
30
7.5687393069853186e-79
10
-48.839295222990977
20
-31.139107478904521
30
7.5677985091009796e-79
0
SPLINE
5
329
100
AcDbEntity
8
0
100
AcDbSpline
70
0
71
3
72
9
73
5
74
0
42
0.000000001
43
0.0000000001
44
0.0000000001
40
0
40
0
40
0
40
0
40
0.063075405332173387
40
0.13677737892213387
40
0.13677737892213387
40
0.13677737892213387
40
0.13677737892213387
10
-48.839295222990977
20
-31.139107478904521
30
7.5677985091009796e-79
10
-48.832457833048721
20
-31.14388758783916
30
7.5667390345697676e-79
10
-48.817631130468769
20
-31.154253129964474
30
7.5644415915545239e-79
10
-48.800110037027977
20
-31.158871596308082
30
7.5617266444158801e-79
10
-48.79066886206018
20
-31.161360239438732
30
7.5602637054131934e-79
0
SPLINE
5
330
100
AcDbEntity
8
0
100
AcDbSpline
70
0
71
3
72
9
73
5
74
0
42
0.000000001
43
0.0000000001
44
0.0000000001
40
0
40
0
40
0
40
0
40
0.046655339432507326
40
0.079480337090364755
40
0.079480337090364755
40
0.079480337090364755
40
0.079480337090364755
10
-48.79066886206018
20
-31.161360239438732
30
7.5602637054131934e-79
10
-48.784615016023423
20
-31.162653880864266
30
7.5593256434120505e-79
10
-48.774301904393603
20
-31.164857681282964
30
7.5577275951507068e-79
10
-48.765470166697057
20
-31.170548452065198
30
7.5563590903213984e-79
10
-48.761822701426823
20
-31.172898713078634
30
7.5557939043966615e-79
0
SPLINE
5
331
100
AcDbEntity
8
0
100
AcDbSpline
70
0
71
3
72
9
73
5
74
0
42
0.000000001
43
0.0000000001
44
0.0000000001
40
0
40
0
40
0
40
0
40
0.026711473827924756
40
0.056796407887696299
40
0.056796407887696299
40
0.056796407887696299
40
0.056796407887696299
10
-48.761822701426823
20
-31.172898713078634
30
7.5557939043966615e-79
10
-48.759501184217839
20
-31.175649077161854
30
7.555434178188641e-79
10
-48.754564959464041
20
-31.181497155830851
30
7.5546692950313008e-79
10
-48.754101281570428
20
-31.189166121226858
30
7.5545974467203057e-79
10
-48.753855672395957
20
-31.193228355562201
30
7.5545593888258197e-79
0
SPLINE
5
332
100
AcDbEntity
8
0
100
AcDbSpline
70
0
71
3
72
9
73
5
74
0
42
0.000000001
43
0.0000000001
44
0.0000000001
40
0
40
0
40
0
40
0
40
0.038677722804610515
40
0.07399948912268732
40
0.07399948912268732
40
0.07399948912268732
40
0.07399948912268732
10
-48.753855672395957
20
-31.193228355562201
30
7.5545593888258197e-79
10
-48.754316797889764
20
-31.198574745552918
30
7.5546308416346403e-79
10
-48.755199038324015
20
-31.208803634413883
30
7.5547675474943895e-79
10
-48.763587768611039
20
-31.21462534320084
30
7.5560674069675781e-79
10
-48.767591914780382
20
-31.217404187214264
30
7.5566878616910162e-79
0
SPLINE
5
333
100
AcDbEntity
8
0
100
AcDbSpline
70
0
71
3
72
9
73
5
74
0
42
0.000000001
43
0.0000000001
44
0.0000000001
40
0
40
0
40
0
40
0
40
0.030548341352887448
40
0.083288991848106009
40
0.083288991848106009
40
0.083288991848106009
40
0.083288991848106009
10
-48.767591914780382
20
-31.217404187214264
30
7.5566878616910162e-79
10
-48.771463192132778
20
-31.218508019693861
30
7.5572877279839684e-79
10
-48.78201809539646
20
-31.221517580616744
30
7.558923242600179e-79
10
-48.793033985707005
20
-31.221353975310706
30
7.5606301885724311e-79
10
-48.800009520022769
20
-31.221250376382759
30
7.5617110689977943e-79
0
LINE
5
334
100
AcDbEntity
8
0
100
AcDbLine
10
-48.800009520022769
20
-31.221250376382752
30
7.5617110689977943e-79
11
-49.009350184368216
21
-31.221250376382759
31
7.5941490466609511e-79
0
SPLINE
5
335
100
AcDbEntity
8
0
100
AcDbSpline
70
0
71
3
72
9
73
5
74
0
42
0.000000001
43
0.0000000001
44
0.0000000001
40
0
40
0
40
0
40
0
40
0.055596190944350456
40
0.092509140941990226
40
0.092509140941990226
40
0.092509140941990226
40
0.092509140941990226
10
-49.009350184368216
20
-31.221250376382759
30
7.5941490466609511e-79
10
-49.016725080032209
20
-31.221277888709288
30
7.5952918093514415e-79
10
-49.028996518971169
20
-31.221323667775259
30
7.5971933064324864e-79
10
-49.040481651166282
20
-31.217147491723743
30
7.5989729628731892e-79
10
-49.045064442727394
20
-31.215481116096413
30
7.5996830804738902e-79
0
SPLINE
5
336
100
AcDbEntity
8
0
100
AcDbSpline
70
0
71
3
72
9
73
5
74
0
42
0.000000001
43
0.0000000001
44
0.0000000001
40
0
40
0
40
0
40
0
40
0.028034543450565764
40
0.061598467935565129
40
0.061598467935565129
40
0.061598467935565129
40
0.061598467935565129
10
-49.045064442727394
20
-31.215481116096413
30
7.5996830804738902e-79
10
-49.0479429860561
20
-31.212959230088575
30
7.6001291195866976e-79
10
-49.054267820960128
20
-31.207418054978493
30
7.601109172143526e-79
10
-49.054712365362953
20
-31.198944421232628
30
7.6011780556614725e-79
10
-49.054954589808901
20
-31.194327286867253
30
7.6012155890818982e-79
0
SPLINE
5
337
100
AcDbEntity
8
0
100
AcDbSpline
70
0
71
3
72
9
73
5
74
0
42
0.000000001
43
0.0000000001
44
0.0000000001
40
0
40
0
40
0
40
0
40
0.02902387389878151
40
0.055151865433930712
40
0.055151865433930712
40
0.055151865433930712
40
0.055151865433930712
10
-49.054954589808901
20
-31.194327286867253
30
7.6012155890818982e-79
10
-49.054706966413249
20
-31.190414546088324
30
7.6011772190776648e-79
10
-49.054236426462495
20
-31.182979461658519
30
7.6011043074698803e-79
10
-49.049504186469107
20
-31.177257702025152
30
7.6003710323764708e-79
10
-49.047262305337497
20
-31.174547039637023
30
7.6000236460227594e-79
0
SPLINE
5
338
100
AcDbEntity
8
0
100
AcDbSpline
70
0
71
3
72
9
73
5
74
0
42
0.000000001
43
0.0000000001
44
0.0000000001
40
0
40
0
40
0
40
0
40
0.030881216176025579
40
0.072366725595052445
40
0.072366725595052445
40
0.072366725595052445
40
0.072366725595052445
10
-49.047262305337497
20
-31.174547039637023
30
7.6000236460227594e-79
10
-49.043917286881893
20
-31.172204937982738
30
7.5995053251590851e-79
10
-49.036078604904247
20
-31.166716480961966
30
7.5982906973575802e-79
10
-49.026772811418596
20
-31.164359686926392
30
7.596848736130556e-79
10
-49.021438100194253
20
-31.163008612929914
30
7.5960221062730665e-79
0
SPLINE
5
339
100
AcDbEntity
8
0
100
AcDbSpline
70
0
71
3
72
9
73
5
74
0
42
0.000000001
43
0.0000000001
44
0.0000000001
40
0
40
0
40
0
40
0
40
0.079329617746481784
40
0.17001766901613685
40
0.17001766901613685
40
0.17001766901613685
40
0.17001766901613685
10
-48.616493013887776
20
-31.159162423761419
30
7.5332746238119495e-79
10
-48.612904142530311
20
-31.149357086226935
30
7.5327185171936138e-79
10
-48.605212544361457
20
-31.128342480599343
30
7.5315266804791588e-79
10
-48.60217773455949
20
-31.106159659004852
30
7.5310564273972945e-79
10
-48.600558955826038
20
-31.094327260209429
30
7.5308055926702647e-79
0
LINE
5
340
100
AcDbEntity
8
0
100
AcDbLine
10
-48.600558955826038
20
-31.094327260209429
30
7.5308055926702647e-79
11
-48.536273234460182
21
-31.094327260209429
31
7.5208443230801157e-79
0
LINE
5
341
100
AcDbEntity
8
0
100
AcDbLine
10
-48.536273234460182
20
-31.094327260209429
30
7.5208443230801157e-79
11
-48.536273234460182
21
-31.315755840380909
31
7.5208443230801169e-79
0
LINE
5
342
100
AcDbEntity
8
0
100
AcDbLine
10
-48.536273234460182
20
-31.315755840380909
30
7.5208443230801169e-79
11
-48.728031467252713
21
-31.315755840380909
31
7.550557849076128e-79
0
SPLINE
5
343
100
AcDbEntity
8
0
100
AcDbSpline
70
0
71
3
72
9
73
5
74
0
42
0.000000001
43
0.0000000001
44
0.0000000001
40
0
40
0
40
0
40
0
40
0.041035691797492529
40
0.071325789842619641
40
0.071325789842619641
40
0.071325789842619641
40
0.071325789842619641
10
-48.728031467252713
20
-31.315755840380909
30
7.5505578490761268e-79
10
-48.733520011075051
20
-31.315690732076781
30
7.5514083157662418e-79
10
-48.743059870306524
20
-31.315577564709219
30
7.5528865461980968e-79
10
-48.751408937804193
20
-31.311074687981591
30
7.5541802598004896e-79
10
-48.754954556768219
20
-31.30916244028176
30
7.5547296643278734e-79
0
SPLINE
5
344
100
AcDbEntity
8
0
100
AcDbSpline
70
0
71
3
72
9
73
5
74
0
42
0.000000001
43
0.0000000001
44
0.0000000001
40
0
40
0
40
0
40
0
40
0.027012258151883368
40
0.059879422484547695
40
0.059879422484547695
40
0.059879422484547695
40
0.059879422484547695
10
-48.754954556768219
20
-31.30916244028176
30
7.5547296643278734e-79
10
-48.757352425907371
20
-31.306416558611147
30
7.5551012215015282e-79
10
-48.762667902252922
20
-31.300329625496449
30
7.5559248708555851e-79
10
-48.763009068120859
20
-31.29219750116977
30
7.5559777355526467e-79
10
-48.763196330358547
20
-31.287733866493141
30
7.5560067524104194e-79
0
SPLINE
5
345
100
AcDbEntity
8
0
100
AcDbSpline
70
0
71
3
72
9
73
5
74
0
42
0.000000001
43
0.0000000001
44
0.0000000001
40
0
40
0
40
0
40
0
40
0.025213904966280103
40
0.047176738210109065
40
0.047176738210109065
40
0.047176738210109065
40
0.047176738210109065
10
-48.763196330358547
20
-31.287733866493141
30
7.5560067524104194e-79
10
-48.763029551083946
20
-31.284350779825299
30
7.5559809094505666e-79
10
-48.762717496993659
20
-31.278020820452323
30
7.5559325557126923e-79
10
-48.759107623795941
20
-31.272838688418698
30
7.5553731947948281e-79
10
-48.757427070072197
20
-31.270426179499683
30
7.5551127878436849e-79
0
SPLINE
5
346
100
AcDbEntity
8
0
100
AcDbSpline
70
0
71
3
72
9
73
5
74
0
42
0.000000001
43
0.0000000001
44
0.0000000001
40
0
40
0
40
0
40
0
40
0.024667359251629436
40
0.056967462266497626
40
0.056967462266497626
40
0.056967462266497626
40
0.056967462266497626
10
-48.757427070072197
20
-31.270426179499683
30
7.5551127878436849e-79
10
-48.754927263078393
20
-31.268327650846434
30
7.5547254350869682e-79
10
-48.749154141637199
20
-31.263481252387262
30
7.5538308722224542e-79
10
-48.741985932520343
20
-31.261075777784402
30
7.5527201362460278e-79
10
-48.737921614334219
20
-31.259711892605374
30
7.5520903576841336e-79
0
SPLINE
5
347
100
AcDbEntity
8
0
100
AcDbSpline
70
0
71
3
72
9
73
5
74
0
42
0.000000001
43
0.0000000001
44
0.0000000001
40
0
40
0
40
0
40
0
40
0.069871823436802358
40
0.13712282896981839
40
0.13712282896981839
40
0.13712282896981839
40
0.13712282896981839
10
-48.737921614334219
20
-31.259711892605374
30
7.5520903576841336e-79
10
-48.729205084499121
20
-31.256802081894552
30
7.5507397046661213e-79
10
-48.712098972607393
20
-31.251091604382886
30
7.5480890601906083e-79
10
-48.696246036666167
20
-31.24249799769466
30
7.5456325991701702e-79
10
-48.688471066657833
20
-31.238283318816755
30
7.5444278437336171e-79
0
SPLINE
5
348
100
AcDbEntity
8
0
100
AcDbSpline
70
0
71
3
72
9
73
5
74
0
42
0.000000001
43
0.0000000001
44
0.0000000001
40
0
40
0
40
0
40
0
40
0.063867030574062747
40
0.12367081510385831
40
0.12367081510385831
40
0.12367081510385831
40
0.12367081510385831
10
-48.688471066657833
20
-31.238283318816755
30
7.5444278437336171e-79
10
-48.681330425894025
20
-31.233846442405572
30
7.5433213795580055e-79
10
-48.667503434789431
20
-31.225254965436097
30
7.5411788449004323e-79
10
-48.65571167317254
20
-31.214037451039925
30
7.5393516752908676e-79
10
-48.650009503502432
20
-31.208612971437805
30
7.5384681066207813e-79
0
SPLINE
5
349
100
AcDbEntity
8
0
100
AcDbSpline
70
0
71
3
72
9
73
5
74
0
42
0.000000001
43
0.0000000001
44
0.0000000001
40
0
40
0
40
0
40
0
40
0.077598082354112641
40
0.15239086732050702
40
0.15239086732050702
40
0.15239086732050702
40
0.15239086732050702
10
-48.650009503502432
20
-31.208612971437805
30
7.5384681066207813e-79
10
-48.643155508382769
20
-31.201006253635942
30
7.5374060590664286e-79
10
-48.629695301258991
20
-31.186067813301822
30
7.53532035871104e-79
10
-48.62083943507821
20
-31.168020143029842
30
7.5339481150991331e-79
10
-48.616493013887776
20
-31.159162423761419
30
7.5332746238119495e-79
0
SPLINE
5
350
100
AcDbEntity
8
0
100
AcDbSpline
70
0
71
3
72
9
73
5
74
0
42
0.000000001
43
0.0000000001
44
0.0000000001
40
0
40
0
40
0
40
0
40
0.03587154264959324
40
0.08060509632221112
40
0.08060509632221112
40
0.08060509632221112
40
0.08060509632221112
10
-48.543690821304921
20
-30.756689880091923
30
7.5219937008999325e-79
10
-48.541534095581781
20
-30.76093793168107
30
7.5216595096378025e-79
10
-48.536687828267532
20
-30.770483509658288
30
7.5209085656614819e-79
10
-48.536421203616818
20
-30.781223817266884
30
7.5208672513545294e-79
10
-48.536273234460182
20
-30.787184384883467
30
7.5208443230801169e-79
0
LINE
5
351
100
AcDbEntity
8
0
100
AcDbLine
10
-48.536273234460182
20
-30.787184384883467
30
7.5208443230801169e-79
11
-48.536273234460182
21
-31.045975596905301
31
7.5208443230801169e-79
0
LINE
5
352
100
AcDbEntity
8
0
100
AcDbLine
10
-48.536273234460182
20
-31.045975596905301
30
7.5208443230801169e-79
11
-49.181877659049441
21
-31.045975596905301
31
7.6208827077367329e-79
0
SPLINE
5
353
100
AcDbEntity
8
0
100
AcDbSpline
70
0
71
3
72
9
73
5
74
0
42
0.000000001
43
0.0000000001
44
0.0000000001
40
0
40
0
40
0
40
0
40
0.047044701483649018
40
0.082152262719623725
40
0.082152262719623725
40
0.082152262719623725
40
0.082152262719623725
10
-49.181877659049441
20
-31.045975596905301
30
7.6208827077367329e-79
10
-49.188188835025088
20
-31.046068509674679
30
7.6218606438007384e-79
10
-49.199209786810734
20
-31.046230759492385
30
7.6235683740640738e-79
10
-49.208623825310305
20
-31.051826181208405
30
7.6250271081878226e-79
10
-49.212646890800649
20
-31.054217370495628
30
7.6256504945180489e-79
0
SPLINE
5
354
100
AcDbEntity
8
0
100
AcDbSpline
70
0
71
3
72
9
73
5
74
0
42
0.000000001
43
0.0000000001
44
0.0000000001
40
0
40
0
40
0
40
0
40
0.015670394626495693
40
0.027488114535203903
40
0.027488114535203903
40
0.027488114535203903
40
0.027488114535203903
10
-49.212646890800649
20
-31.054217370495628
30
7.6256504945180489e-79
10
-49.214256272561599
20
-31.055539494817264
30
7.6258998731553831e-79
10
-49.217079358465313
20
-31.057858690067238
30
7.6263373189701851e-79
10
-49.218782723096226
20
-31.061075951924735
30
7.6266012605413213e-79
10
-49.21951503545926
20
-31.062459120619561
30
7.6267147345868382e-79
0
SPLINE
5
355
100
AcDbEntity
8
0
100
AcDbSpline
70
0
71
3
72
9
73
5
74
0
42
0.000000001
43
0.0000000001
44
0.0000000001
40
0
40
0
40
0
40
0
40
0.02180633544961302
40
0.066531359792919534
40
0.066531359792919534
40
0.066531359792919534
40
0.066531359792919534
10
-49.21951503545926
20
-31.062459120619561
30
7.6267147345868382e-79
10
-49.220328750698698
20
-31.065202933554843
30
7.6268408222575903e-79
10
-49.222811404489356
20
-31.073574335802757
30
7.6272255170728981e-79
10
-49.224947327666122
20
-31.08204172266117
30
7.6275564849166986e-79
10
-49.226383180117864
20
-31.087733836643885
30
7.6277789746556264e-79
0
SPLINE
5
356
100
AcDbEntity
8
0
100
AcDbSpline
70
0
71
3
72
9
73
5
74
0
42
0.000000001
43
0.0000000001
44
0.0000000001
40
0
40
0
40
0
40
0
40
0.056973472936018309
40
0.10960209280584617
40
0.10960209280584617
40
0.10960209280584617
40
0.10960209280584617
10
-49.226383180117864
20
-31.087733836643885
30
7.6277789746556264e-79
10
-49.228982857504953
20
-31.095422550218462
30
7.6281818026359308e-79
10
-49.233983958325418
20
-31.110213628510362
30
7.6289567385386733e-79
10
-49.249265194517783
20
-31.112844277965156
30
7.631324612930508e-79
10
-49.256602922750155
20
-31.114107460506865
30
7.6324616164135352e-79
0
SPLINE
5
357
100
AcDbEntity
8
0
100
AcDbSpline
70
0
71
3
72
9
73
5
74
0
42
0.000000001
43
0.0000000001
44
0.0000000001
40
0
40
0
40
0
40
0
40
0.034028273560069294
40
0.071541163493549664
40
0.071541163493549664
40
0.071541163493549664
40
0.071541163493549664
10
-49.256602922750155
20
-31.114107460506865
30
7.6324616164135352e-79
10
-49.261199619518024
20
-31.113404343685843
30
7.6331738886686498e-79
10
-49.270863731169761
20
-31.111926108377819
30
7.6346713723939153e-79
10
-49.276647256052684
20
-31.103985477113181
30
7.6355675473036147e-79
10
-49.279679870029952
20
-31.099821775936313
30
7.6360374601357124e-79
0
SPLINE
5
358
100
AcDbEntity
8
0
100
AcDbSpline
70
0
71
3
72
9
73
5
74
0
42
0.000000001
43
0.0000000001
44
0.0000000001
40
0
40
0
40
0
40
0
40
0.037410597883369624
40
0.090260772546265911
40
0.090260772546265911
40
0.090260772546265911
40
0.090260772546265911
10
-49.279679870029952
20
-31.099821775936313
30
7.6360374601357124e-79
10
-49.281589205955271
20
-31.095253090572538
30
7.6363333175903099e-79
10
-49.286195872125312
20
-31.084230196157947
30
7.6370471346348512e-79
10
-49.286244687423874
20
-31.07223178154603
30
7.6370546987150037e-79
10
-49.286273270129101
20
-31.065206378483005
30
7.6370591276927975e-79
0
LINE
5
359
100
AcDbEntity
8
0
100
AcDbLine
10
-49.286273270129101
20
-31.065206378483005
30
7.6370591276927975e-79
11
-49.286273270129101
21
-30.787184384883467
31
7.6370591276927975e-79
0
SPLINE
5
360
100
AcDbEntity
8
0
100
AcDbSpline
70
0
71
3
72
9
73
5
74
0
42
0.000000001
43
0.0000000001
44
0.0000000001
40
0
40
0
40
0
40
0
40
0.044733568490944779
40
0.080605050485582155
40
0.080605050485582155
40
0.080605050485582155
40
0.080605050485582155
10
-49.286273270129101
20
-30.787184384883467
30
7.6370591276927975e-79
10
-49.286125297279646
20
-30.781223817009383
30
7.6370361988461724e-79
10
-49.2858586662148
20
-30.770483518602152
30
7.636994883545331e-79
10
-49.28101243669871
20
-30.760937931136404
30
7.6362439454259497e-79
10
-49.278855730217153
20
-30.756689880091923
30
7.6359097571453617e-79
0
SPLINE
5
361
100
AcDbEntity
8
0
100
AcDbSpline
70
0
71
3
72
9
73
5
74
0
42
0.000000001
43
0.0000000001
44
0.0000000001
40
0
40
0
40
0
40
0
40
0.030640874290956115
40
0.062259364028901712
40
0.062259364028901712
40
0.062259364028901712
40
0.062259364028901712
10
-49.278855730217153
20
-30.756689880091923
30
7.6359097571453617e-79
10
-49.276084943421921
20
-30.753565096489378
30
7.6354804152377392e-79
10
-49.27045496621917
20
-30.747215831191824
30
7.6346080330117724e-79
10
-49.26199712932938
20
-30.746393311016238
30
7.633297465258644e-79
10
-49.257701807122416
20
-30.74597559319761
30
7.6326318919155901e-79
0
SPLINE
5
362
100
AcDbEntity
8
0
100
AcDbSpline
70
0
71
3
72
9
73
5
74
0
42
0.000000001
43
0.0000000001
44
0.0000000001
40
0
40
0
40
0
40
0
40
0.049460342206835338
40
0.099779461360436528
40
0.099779461360436528
40
0.099779461360436528
40
0.099779461360436528
10
-49.257701807122416
20
-30.74597559319761
30
7.6326318919155901e-79
10
-49.250823693334134
20
-30.746922469315496
30
7.6315661070995987e-79
10
-49.23694804148159
20
-30.748832662104359
30
7.6294160323099639e-79
10
-49.231020721222443
20
-30.761543497729711
30
7.6284975758659199e-79
10
-49.22803155360905
20
-30.767953615038959
30
7.6280343951810872e-79
0
SPLINE
5
363
100
AcDbEntity
8
0
100
AcDbSpline
70
0
71
3
72
9
73
5
74
0
42
0.000000001
43
0.0000000001
44
0.0000000001
40
0
40
0
40
0
40
0
40
0.038506602322357517
40
0.056943988056071565
40
0.056943988056071565
40
0.056943988056071565
40
0.056943988056071565
10
-49.22803155360905
20
-30.767953615038959
30
7.6280343951810872e-79
10
-49.226454652747087
20
-30.772755734698165
30
7.62779004955862e-79
10
-49.224122714366814
20
-30.779857162194375
30
7.6274287085581627e-79
10
-49.22147212916169
20
-30.786844948800578
30
7.6270179922553975e-79
10
-49.220613919831521
20
-30.789107461867918
30
7.6268850100888919e-79
0
SPLINE
5
364
100
AcDbEntity
8
0
100
AcDbSpline
70
0
71
3
72
9
73
5
74
0
42
0.000000001
43
0.0000000001
44
0.0000000001
40
0
40
0
40
0
40
0
40
0.0097348954004535786
40
0.022894029561828712
40
0.022894029561828712
40
0.022894029561828712
40
0.022894029561828712
10
-49.220613919831521
20
-30.789107461867918
30
7.6268850100888919e-79
10
-49.219910250244688
20
-30.790187475956618
30
7.6267759743293494e-79
10
-49.218255396067008
20
-30.792727397903064
30
7.6265195496016505e-79
10
-49.21574068266694
20
-30.794441123670399
30
7.6261298870515878e-79
10
-49.214295264291835
20
-30.795426146740596
30
7.6259059150435109e-79
0
SPLINE
5
365
100
AcDbEntity
8
0
100
AcDbSpline
70
0
71
3
72
9
73
5
74
0
42
0.000000001
43
0.0000000001
44
0.0000000001
40
0
40
0
40
0
40
0
40
0.031565440435035522
40
0.073989558913293174
40
0.073989558913293174
40
0.073989558913293174
40
0.073989558913293174
10
-49.214295264291835
20
-30.795426146740596
30
7.6259059150435109e-79
10
-49.210563552501149
20
-30.797338906772925
30
7.6253276748621773e-79
10
-49.201816400375947
20
-30.801822426380088
30
7.6239722768264413e-79
10
-49.191937596813268
20
-30.801947718565021
30
7.6224415259314498e-79
10
-49.186273290404067
20
-30.80201955857294
30
7.6215638242897095e-79
0
LINE
5
366
100
AcDbEntity
8
0
100
AcDbLine
10
-49.186273290404067
20
-30.80201955857294
30
7.6215638242897095e-79
11
-48.636273261118006
21
-30.80201955857294
31
7.5363396337555847e-79
0
SPLINE
5
367
100
AcDbEntity
8
0
100
AcDbSpline
70
0
71
3
72
9
73
5
74
0
42
0.000000001
43
0.0000000001
44
0.0000000001
40
0
40
0
40
0
40
0
40
0.042424237105603606
40
0.073989677540639121
40
0.073989677540639121
40
0.073989677540639121
40
0.073989677540639121
10
-48.636273261118006
20
-30.80201955857294
30
7.5363396337555847e-79
10
-48.630608938526137
20
-30.801947720910746
30
7.5354619296062912e-79
10
-48.620730118524847
20
-30.801822432966322
30
7.5339311761640867e-79
10
-48.611982952174024
20
-30.797338906592849
30
7.5325757759240466e-79
10
-48.608251240297449
20
-30.795426146740596
30
7.5319975357294035e-79
0
SPLINE
5
368
100
AcDbEntity
8
0
100
AcDbSpline
70
0
71
3
72
9
73
5
74
0
42
0.000000001
43
0.0000000001
44
0.0000000001
40
0
40
0
40
0
40
0
40
0.013159134161375135
40
0.022894029561828712
40
0.022894029561828712
40
0.022894029561828712
40
0.022894029561828712
10
-48.608251240297449
20
-30.795426146740596
30
7.5319975357294035e-79
10
-48.606805821922336
20
-30.794441123670399
30
7.5317735637213266e-79
10
-48.604291108522268
20
-30.792727397903064
30
7.5313839011712639e-79
10
-48.602636254344596
20
-30.790187475956618
30
7.5311274764435639e-79
10
-48.601932584757762
20
-30.789107461867918
30
7.5310184406840226e-79
0
SPLINE
5
369
100
AcDbEntity
8
0
100
AcDbSpline
70
0
71
3
72
9
73
5
74
0
42
0.000000001
43
0.0000000001
44
0.0000000001
40
0
40
0
40
0
40
0
40
0.01843736486693192
40
0.056943948016823516
40
0.056943948016823516
40
0.056943948016823516
40
0.056943948016823516
10
-48.601932584757762
20
-30.789107461867918
30
7.5310184406840226e-79
10
-48.601074383834622
20
-30.786844948563775
30
7.5308854598202113e-79
10
-48.598423823458567
20
-30.779857158231042
30
7.5304747473647887e-79
10
-48.596091893442555
20
-30.772755733687241
30
7.530113407660398e-79
10
-48.594514997913024
20
-30.767953615038959
30
7.529869062864207e-79
0
SPLINE
5
370
100
AcDbEntity
8
0
100
AcDbSpline
70
0
71
3
72
9
73
5
74
0
42
0.000000001
43
0.0000000001
44
0.0000000001
40
0
40
0
40
0
40
0
40
0.050319230740021918
40
0.099779625924893159
40
0.099779625924893159
40
0.099779625924893159
40
0.099779625924893159
10
-48.594514997913024
20
-30.767953615038959
30
7.529869062864207e-79
10
-48.591525805137053
20
-30.761543494797742
30
7.5294058782803556e-79
10
-48.585598438350694
20
-30.748832660581957
30
7.5284874146267781e-79
10
-48.571722769013022
20
-30.746922468444936
30
7.5263373371277684e-79
10
-48.564844650534077
20
-30.74597559319761
30
7.5252715515849458e-79
0
SPLINE
5
371
100
AcDbEntity
8
0
100
AcDbSpline
70
0
71
3
72
9
73
5
74
0
42
0.000000001
43
0.0000000001
44
0.0000000001
40
0
40
0
40
0
40
0
40
0.031618373321136588
40
0.062259158701347683
40
0.062259158701347683
40
0.062259158701347683
40
0.062259158701347683
10
-48.564844650534077
20
-30.74597559319761
30
7.5252715515849458e-79
10
-48.560549343324851
20
-30.746393311746289
30
7.524605980565836e-79
10
-48.55209153271916
20
-30.747215833675238
30
7.5232954168855101e-79
10
-48.546461591492452
20
-30.753565096478695
30
7.5224230402341413e-79
10
-48.543690821304921
20
-30.756689880091923
30
7.5219937008999325e-79
0
LWPOLYLINE
5
372
100
AcDbEntity
8
0
100
AcDbPolyline
90
30
70
1
43
0.0
10
-48.878444817012792
20
-37.563097432325854
42
0.99999999999999989
10
-49.003444817012785
20
-37.563097432325854
10
-49.003444817012785
20
-37.681207668546321
42
0.99999999999999989
10
-48.878444817012785
20
-37.681207668546321
10
-47.999999952074432
20
-37.681207668546328
10
-47.999999952074432
20
-38.917428140987276
10
-48.878445017012787
20
-38.917428140987276
42
0.99999999999999989
10
-49.003445017012787
20
-38.917428140987276
10
-49.003445017012787
20
-39.035538377207743
42
0.99999999999999989
10
-48.878445017012787
20
-39.035538377207743
10
-47.999999952074432
20
-39.035538377207743
10
-47.999999952074432
20
-39.394457747500184
42
2.414215292747671
10
-47.937500015426266
20
-39.456957747500148
10
-46.000000015426266
20
-39.456957747500148
10
-46.000000015426266
20
-40.206957747500148
10
-47.937500015426266
20
-40.206957747500148
42
2.414215292747671
10
-47.999999952074432
20
-40.269457747500113
10
-47.999999952074432
20
-40.706957742884988
10
-48.999999984573726
20
-40.706957742884995
10
-49.999999984573726
20
-39.706957742884988
10
-49.999999984573726
20
-36.891678066648609
10
-48.999999984573726
20
-35.891678066648609
10
-47.999999952074432
20
-35.891678066648609
10
-47.999999952074432
20
-36.329178062033506
42
2.414215292747671
10
-47.937500015426266
20
-36.391678062033471
10
-46.000000015426266
20
-36.391678062033471
10
-46.000000015426266
20
-37.141678062033471
10
-47.937500015426266
20
-37.141678062033471
42
2.414215292747671
10
-47.999999952074432
20
-37.204178062033435
10
-47.999999952074432
20
-37.563097432325854
0
SPLINE
5
373
100
AcDbEntity
8
0
100
AcDbSpline
70
0
71
3
72
9
73
5
74
0
42
0.000000001
43
0.0000000001
44
0.0000000001
40
0
40
0
40
0
40
0
40
0.024295643467446389
40
0.062017345221485082
40
0.062017345221485082
40
0.062017345221485082
40
0.062017345221485082
10
-49.002309416621735
20
-37.082043522173983
30
0
10
-49.005408975658305
20
-37.081251058878379
30
0
10
-49.013320946504564
20
-37.079228207750987
30
0
10
-49.021506457316818
20
-37.079270525050745
30
0
10
-49.026485248273794
20
-37.079296264310543
30
0
0
LINE
5
374
100
AcDbEntity
8
0
100
AcDbLine
10
-49.026485248273801
20
-37.079296264310535
30
0
11
-49.213847802778908
21
-37.079296264310543
31
2.9032402170653769e-81
0
SPLINE
5
375
100
AcDbEntity
8
0
100
AcDbSpline
70
0
71
3
72
9
73
5
74
0
42
0.000000001
43
0.0000000001
44
0.0000000001
40
0
40
0
40
0
40
0
40
0.086076490375222914
40
0.18745051299001625
40
0.18745051299001625
40
0.18745051299001625
40
0.18745051299001625
10
-49.213847802778908
20
-37.079296264310543
30
0
10
-49.221471926598753
20
-37.070934126682602
30
0
10
-49.238075135150808
20
-37.052723730542873
30
0
10
-49.251414230024508
20
-37.031991716392632
30
0
10
-49.258628068406793
20
-37.020779756298232
30
0
0
SPLINE
5
376
100
AcDbEntity
8
0
100
AcDbSpline
70
0
71
3
72
9
73
5
74
0
42
0.000000001
43
0.0000000001
44
0.0000000001
40
0
40
0
40
0
40
0
40
0.10401369106155661
40
0.19774715876951887
40
0.19774715876951887
40
0.19774715876951887
40
0.19774715876951887
10
-49.258628068406793
20
-37.020779756298232
30
0
10
-49.265699064774857
20
-37.009084647683466
30
0
10
-49.279142193532081
20
-36.986850319909216
30
0
10
-49.289640706427846
20
-36.963087459662745
30
0
10
-49.294617071325426
20
-36.951823705951078
30
0
0
SPLINE
5
377
100
AcDbEntity
8
0
100
AcDbSpline
70
0
71
3
72
9
73
5
74
0
42
0.000000001
43
0.0000000001
44
0.0000000001
40
0
40
0
40
0
40
0
40
0.083686902808726676
40
0.17355874492354992
40
0.17355874492354992
40
0.17355874492354992
40
0.17355874492354992
10
-49.294617071325426
20
-36.951823705951078
30
0
10
-49.298319121404148
20
-36.941470646128963
30
0
10
-49.30599682417175
20
-36.919999376329997
30
0
10
-49.310807389786753
20
-36.897707524637681
30
0
10
-49.313298387250605
20
-36.886164402586289
30
0
0
SPLINE
5
378
100
AcDbEntity
8
0
100
AcDbSpline
70
0
71
3
72
9
73
5
74
0
42
0.000000001
43
0.0000000001
44
0.0000000001
40
0
40
0
40
0
40
0
40
0.087073930505196656
40
0.16239877198333463
40
0.16239877198333463
40
0.16239877198333463
40
0.16239877198333463
10
-49.313298387250605
20
-36.886164402586289
30
0
10
-49.315378383745774
20
-36.874909848947418
30
0
10
-49.319257717945874
20
-36.853919344905975
30
0
10
-49.320066255422965
20
-36.832594086355179
30
0
10
-49.320441276468671
20
-36.822702867966015
30
0
0
LINE
5
379
100
AcDbEntity
8
0
100
AcDbLine
10
-49.320441276468664
20
-36.822702867966015
30
0
11
-49.258353323847331
21
-36.822702867966015
31
-9.6207185860396682e-82
0
SPLINE
5
380
100
AcDbEntity
8
0
100
AcDbSpline
70
0
71
3
72
9
73
5
74
0
42
0.000000001
43
0.0000000001
44
0.0000000001
40
0
40
0
40
0
40
0
40
0.037028297576281219
40
0.065427346838253159
40
0.065427346838253159
40
0.065427346838253159
40
0.065427346838253159
10
-49.258353323847331
20
-36.822702867966015
30
0
10
-49.257157333311092
20
-36.827440613996082
30
0
10
-49.255044071488328
20
-36.835811999477741
30
0
10
-49.250838230885371
20
-36.843337483245641
30
0
10
-49.249012665884742
20
-36.846603955058619
30
0
0
SPLINE
5
381
100
AcDbEntity
8
0
100
AcDbSpline
70
0
71
3
72
9
73
5
74
0
42
0.000000001
43
0.0000000001
44
0.0000000001
40
0
40
0
40
0
40
0
40
0.025077867942411163
40
0.052274707271894927
40
0.052274707271894927
40
0.052274707271894927
40
0.052274707271894927
10
-49.249012665884742
20
-36.846603955058619
30
0
10
-49.246935824571018
20
-36.849190524262227
30
0
10
-49.242606657834258
20
-36.854582216581022
30
0
10
-49.236700749840253
20
-36.858189004648892
30
0
10
-49.233628096941928
20
-36.860065499816372
30
0
0
SPLINE
5
382
100
AcDbEntity
8
0
100
AcDbSpline
70
0
71
3
72
9
73
5
74
0
42
0.000000001
43
0.0000000001
44
0.0000000001
40
0
40
0
40
0
40
0
40
0.052314426089344529
40
0.11365941609491627
40
0.11365941609491627
40
0.11365941609491627
40
0.11365941609491627
10
-49.233628096941928
20
-36.860065499816372
30
0
10
-49.227258822579493
20
-36.862785295134962
30
0
10
-49.213420803908555
20
-36.868694379319138
30
0
10
-49.198353618383045
20
-36.869156655246556
30
0
10
-49.190221460245766
20
-36.869406157778961
30
0
0
LINE
5
383
100
AcDbEntity
8
0
100
AcDbLine
10
-49.190221460245766
20
-36.869406157778961
30
0
11
-49.029781901390578
21
-36.869406157778961
31
-2.4860601463666717e-81
0
SPLINE
5
384
100
AcDbEntity
8
0
100
AcDbSpline
70
0
71
3
72
9
73
5
74
0
42
0.000000001
43
0.0000000001
44
0.0000000001
40
0
40
0
40
0
40
0
40
0.047044701483649018
40
0.082152262719623725
40
0.082152262719623725
40
0.082152262719623725
40
0.082152262719623725
10
-49.029781901390578
20
-36.869406157778961
30
0
10
-49.023470725414931
20
-36.869313245009586
30
0
10
-49.012449773629285
20
-36.86915099519188
30
0
10
-49.003035735129714
20
-36.863555573475857
30
0
10
-48.99901266963937
20
-36.861164384188633
30
0
0
SPLINE
5
385
100
AcDbEntity
8
0
100
AcDbSpline
70
0
71
3
72
9
73
5
74
0
42
0.000000001
43
0.0000000001
44
0.0000000001
40
0
40
0
40
0
40
0
40
0.014967112933094445
40
0.026487499477082808
40
0.026487499477082808
40
0.026487499477082808
40
0.026487499477082808
10
-48.99901266963937
20
-36.861164384188633
30
0
10
-48.997398282493513
20
-36.859990707238303
30
0
10
-48.99454128001932
20
-36.857913635477892
30
0
10
-48.992870993810946
20
-36.854818352144513
30
0
10
-48.992144524980759
20
-36.85347209971723
30
0
0
SPLINE
5
386
100
AcDbEntity
8
0
100
AcDbSpline
70
0
71
3
72
9
73
5
74
0
42
0.000000001
43
0.0000000001
44
0.0000000001
40
0
40
0
40
0
40
0
40
0.021711244284825598
40
0.066182434977374319
40
0.066182434977374319
40
0.066182434977374319
40
0.066182434977374319
10
-48.992144524980759
20
-36.85347209971723
30
0
10
-48.991373276531874
20
-36.850728881097233
30
0
10
-48.989022278143672
20
-36.842366721583716
30
0
10
-48.987110491613045
20
-36.833891962342733
30
0
10
-48.985825869441072
20
-36.828197360226511
30
0
0
SPLINE
5
387
100
AcDbEntity
8
0
100
AcDbSpline
70
0
71
3
72
9
73
5
74
0
42
0.000000001
43
0.0000000001
44
0.0000000001
40
0
40
0
40
0
40
0
40
0.05747448291701359
40
0.11043400707761634
40
0.11043400707761634
40
0.11043400707761634
40
0.11043400707761634
10
-48.985825869441072
20
-36.828197360226511
30
0
10
-48.983071703902567
20
-36.820508880430275
30
0
10
-48.977779728731392
20
-36.805735896157245
30
0
10
-48.962421703368399
20
-36.80309175547999
30
0
10
-48.955056637689864
20
-36.801823736363531
30
0
0
SPLINE
5
388
100
AcDbEntity
8
0
100
AcDbSpline
70
0
71
3
72
9
73
5
74
0
42
0.000000001
43
0.0000000001
44
0.0000000001
40
0
40
0
40
0
40
0
40
0.033044904907680347
40
0.066474369043258888
40
0.066474369043258888
40
0.066474369043258888
40
0.066474369043258888
10
-48.955056637689864
20
-36.801823736363531
30
0
10
-48.950562146853841
20
-36.802350666114265
30
0
10
-48.941520860660695
20
-36.803410657747101
30
0
10
-48.935903533583613
20
-36.810580641804982
30
0
10
-48.933078621715119
20
-36.814186373282624
30
0
0
SPLINE
5
389
100
AcDbEntity
8
0
100
AcDbSpline
70
0
71
3
72
9
73
5
74
0
42
0.000000001
43
0.0000000001
44
0.0000000001
40
0
40
0
40
0
40
0
40
0.041570848243100735
40
0.095696952430989968
40
0.095696952430989968
40
0.095696952430989968
40
0.095696952430989968
10
-48.933078621715119
20
-36.814186373282624
30
0
10
-48.93084479291516
20
-36.819220458496524
30
0
10
-48.925702472817235
20
-36.83080902677473
30
0
10
-48.925500546547518
20
-36.843529918013076
30
0
10
-48.925386337243708
20
-36.850724841853783
30
0
0
LINE
5
390
100
AcDbEntity
8
0
100
AcDbLine
10
-48.925386337243708
20
-36.850724841853783
30
0
11
-48.925386337243708
21
-37.069955606347953
31
-4.187184814651899e-113
0
SPLINE
5
391
100
AcDbEntity
8
0
100
AcDbSpline
70
0
71
3
72
9
73
5
74
0
42
0.000000001
43
0.0000000001
44
0.0000000001
40
0
40
0
40
0
40
0
40
0.053733724976493792
40
0.091159643600049536
40
0.091159643600049536
40
0.091159643600049536
40
0.091159643600049536
10
-48.925386337243708
20
-37.069955606347953
30
0
10
-48.925400818121837
20
-37.077108287700469
30
0
10
-48.925425385033762
20
-37.089242862088618
30
0
10
-48.9302667820577
20
-37.100304379322061
30
0
10
-48.932254434969522
20
-37.104845724894325
30
0
0
SPLINE
5
392
100
AcDbEntity
8
0
100
AcDbSpline
70
0
71
3
72
9
73
5
74
0
42
0.000000001
43
0.0000000001
44
0.0000000001
40
0
40
0
40
0
40
0
40
0.030759788796213269
40
0.068130389382552572
40
0.068130389382552572
40
0.068130389382552572
40
0.068130389382552572
10
-48.932254434969522
20
-37.104845724894325
30
0
10
-48.935201358908543
20
-37.107803198758624
30
0
10
-48.941728551821875
20
-37.11435375888432
30
0
10
-48.951045195204735
20
-37.114777883553145
30
0
10
-48.956155522062126
20
-37.115010522669714
30
0
0
SPLINE
5
393
100
AcDbEntity
8
0
100
AcDbSpline
70
0
71
3
72
9
73
5
74
0
42
0.000000001
43
0.0000000001
44
0.0000000001
40
0
40
0
40
0
40
0
40
0.024389383990901809
40
0.045607880203579948
40
0.045607880203579948
40
0.045607880203579948
40
0.045607880203579948
10
-48.956155522062126
20
-37.115010522669714
30
0
10
-48.959393537448527
20
-37.114891916919042
30
0
10
-48.965448590659193
20
-37.114670125467882
30
0
10
-48.970918433186988
20
-37.112090036807906
30
0
10
-48.973463209055581
20
-37.11088968280734
30
0
0
SPLINE
5
394
100
AcDbEntity
8
0
100
AcDbSpline
70
0
71
3
72
9
73
5
74
0
42
0.000000001
43
0.0000000001
44
0.0000000001
40
0
40
0
40
0
40
0
40
0.023296941158345286
40
0.053566008139142959
40
0.053566008139142959
40
0.053566008139142959
40
0.053566008139142959
10
-48.973463209055581
20
-37.11088968280734
30
0
10
-48.97591641229068
20
-37.10903782352964
30
0
10
-48.981556994183585
20
-37.104779895054513
30
0
10
-48.985688854490874
20
-37.099029306023397
30
0
10
-48.988023685118385
20
-37.095779764558408
30
0
0
SPLINE
5
395
100
AcDbEntity
8
0
100
AcDbSpline
70
0
71
3
72
9
73
5
74
0
42
0.000000001
43
0.0000000001
44
0.0000000001
40
0
40
0
40
0
40
0
40
0.0294836391714214
40
0.05077808216847729
40
0.05077808216847729
40
0.05077808216847729
40
0.05077808216847729
10
-48.988023685118385
20
-37.095779764558408
30
0
10
-48.990293780965246
20
-37.092583721687646
30
0
10
-48.994203444652676
20
-37.087079349362298
30
0
10
-48.999914437985495
20
-37.083531400318371
30
0
10
-49.002309416621735
20
-37.082043522173983
30
0
0
SPLINE
5
396
100
AcDbEntity
8
0
100
AcDbSpline
70
0
71
3
72
9
73
5
74
0
42
0.000000001
43
0.0000000001
44
0.0000000001
40
0
40
0
40
0
40
0
40
0.085731920483186966
40
0.16541305807917289
40
0.16541305807917289
40
0.16541305807917289
40
0.16541305807917289
10
-48.656155535954234
20
-36.951274263764951
30
0
10
-48.647691093436912
20
-36.943719349973414
30
0
10
-48.631359611372424
20
-36.929142732690842
30
0
10
-48.62083885573206
20
-36.909963608960716
30
0
10
-48.615770901680975
20
-36.900724831716303
30
0
0
SPLINE
5
397
100
AcDbEntity
8
0
100
AcDbSpline
70
0
71
3
72
9
73
5
74
0
42
0.000000001
43
0.0000000001
44
0.0000000001
40
0
40
0
40
0
40
0
40
0.084020153044839202
40
0.18214837648994114
40
0.18214837648994114
40
0.18214837648994114
40
0.18214837648994114
10
-48.615770901680975
20
-36.900724831716303
30
0
10
-48.611893994160688
20
-36.890343898841692
30
0
10
-48.603489196204109
20
-36.867838940197387
30
0
10
-48.601651205390077
20
-36.843861765951928
30
0
10
-48.600661030364833
20
-36.830944618089951
30
0
0
LINE
5
398
100
AcDbEntity
8
0
100
AcDbLine
10
-48.600661030364833
20
-36.830944618089951
30
0
11
-48.541320382539723
21
-36.830944618089951
31
-9.1950152861444336e-82
0
SPLINE
5
399
100
AcDbEntity
8
0
100
AcDbSpline
70
0
71
3
72
9
73
5
74
0
42
0.000000001
43
0.0000000001
44
0.0000000001
40
0
40
0
40
0
40
0
40
0.20961256193943423
40
0.38440610975601253
40
0.38440610975601253
40
0.38440610975601253
40
0.38440610975601253
10
-48.541320382539723
20
-36.830944618089951
30
0
10
-48.544319213233827
20
-36.858401847159598
30
0
10
-48.549818734971794
20
-36.9087553494196
30
0
10
-48.566639020331003
20
-36.95649130597166
30
0
10
-48.574287383035454
20
-36.978197353280457
30
0
0
SPLINE
5
400
100
AcDbEntity
8
0
100
AcDbSpline
70
0
71
3
72
9
73
5
74
0
42
0.000000001
43
0.0000000001
44
0.0000000001
40
0
40
0
40
0
40
0
40
0.041081491122424929
40
0.070105472498713559
40
0.070105472498713559
40
0.070105472498713559
40
0.070105472498713559
10
-48.574287383035454
20
-36.978197353280457
30
0
10
-48.576508072088068
20
-36.983152597405393
30
0
10
-48.580297672977721
20
-36.991608710395305
30
0
10
-48.581487231750032
20
-37.000775788843058
30
0
10
-48.581979714439655
20
-37.004571000609829
30
0
0
SPLINE
5
401
100
AcDbEntity
8
0
100
AcDbSpline
70
0
71
3
72
9
73
5
74
0
42
0.000000001
43
0.0000000001
44
0.0000000001
40
0
40
0
40
0
40
0
40
0.019885845709218024
40
0.036356321663511229
40
0.036356321663511229
40
0.036356321663511229
40
0.036356321663511229
10
-48.581979714439655
20
-37.004571000609829
30
0
10
-48.581882565617967
20
-37.007238076609937
30
0
10
-48.581704953166266
20
-37.012114161558941
30
0
10
-48.579057982633628
20
-37.016187264015919
30
0
10
-48.577858827644491
20
-37.018032498434792
30
0
0
SPLINE
5
402
100
AcDbEntity
8
0
100
AcDbSpline
70
0
71
3
72
9
73
5
74
0
42
0.000000001
43
0.0000000001
44
0.0000000001
40
0
40
0
40
0
40
0
40
0.026932170886154631
40
0.076444772802761241
40
0.076444772802761241
40
0.076444772802761241
40
0.076444772802761241
10
-48.577858827644491
20
-37.018032498434792
30
0
10
-48.575255831229391
20
-37.020426439826672
30
0
10
-48.567867437980325
20
-37.0272214474248
30
0
10
-48.559758967326182
20
-37.033149203705918
30
0
10
-48.554507182738014
20
-37.036988558919433
30
0
0
SPLINE
5
403
100
AcDbEntity
8
0
100
AcDbSpline
70
0
71
3
72
9
73
5
74
0
42
0.000000001
43
0.0000000001
44
0.0000000001
40
0
40
0
40
0
40
0
40
0.038515269754426186
40
0.074140831790372619
40
0.074140831790372619
40
0.074140831790372619
40
0.074140831790372619
10
-48.554507182738014
20
-37.036988558919433
30
0
10
-48.550502574471572
20
-37.040387763149361
30
0
10
-48.542793814030269
20
-37.046931137521121
30
0
10
-48.541427448502503
20
-37.056915990650872
30
0
10
-48.540770893420806
20
-37.061713832757626
30
0
0
SPLINE
5
404
100
AcDbEntity
8
0
100
AcDbSpline
70
0
71
3
72
9
73
5
74
0
42
0.000000001
43
0.0000000001
44
0.0000000001
40
0
40
0
40
0
40
0
40
0.033755968660561575
40
0.060935733417617627
40
0.060935733417617627
40
0.060935733417617627
40
0.060935733417617627
10
-48.540770893420806
20
-37.061713832757626
30
0
10
-48.540944766669192
20
-37.06631325148949
30
0
10
-48.541258639869461
20
-37.074616048441918
30
0
10
-48.54681088779617
20
-37.0807023971185
30
0
10
-48.549287411570589
20
-37.083417151105706
30
0
0
SPLINE
5
405
100
AcDbEntity
8
0
100
AcDbSpline
70
0
71
3
72
9
73
5
74
0
42
0.000000001
43
0.0000000001
44
0.0000000001
40
0
40
0
40
0
40
0
40
0.031199756306505171
40
0.074475432646682216
40
0.074475432646682216
40
0.074475432646682216
40
0.074475432646682216
10
-48.549287411570589
20
-37.083417151105706
30
0
10
-48.553002171397402
20
-37.085248179967074
30
0
10
-48.561869495313729
20
-37.089618940600559
30
0
10
-48.57180868597785
20
-37.089692856246245
30
0
10
-48.577584083085029
20
-37.089735806645393
30
0
0
LINE
5
406
100
AcDbEntity
8
0
100
AcDbLine
10
-48.577584083085021
20
-37.089735806645393
30
0
11
-48.791320378785102
21
-37.089735806645393
31
3.3119094216133157e-81
0
SPLINE
5
407
100
AcDbEntity
8
0
100
AcDbSpline
70
0
71
3
72
9
73
5
74
0
42
0.000000001
43
0.0000000001
44
0.0000000001
40
0
40
0
40
0
40
0
40
0.081913742890499269
40
0.14624796379758256
40
0.14624796379758256
40
0.14624796379758256
40
0.14624796379758256
10
-48.791320378785102
20
-37.089735806645393
30
0
10
-48.803442715364774
20
-37.089196527223464
30
0
10
-48.825085811854898
20
-37.088233703226024
30
0
10
-48.8306367480372
20
-37.067907872098679
30
0
10
-48.833078595057287
20
-37.058966574894178
30
0
0
SPLINE
5
408
100
AcDbEntity
8
0
100
AcDbSpline
70
0
71
3
72
9
73
5
74
0
42
0.000000001
43
0.0000000001
44
0.0000000001
40
0
40
0
40
0
40
0
40
0.034418009141936177
40
0.063013608567359991
40
0.063013608567359991
40
0.063013608567359991
40
0.063013608567359991
10
-48.833078595057287
20
-37.058966574894178
30
0
10
-48.832881512196046
20
-37.054314075519819
30
0
10
-48.832520686495094
20
-37.045796128615144
30
0
10
-48.827235354197491
20
-37.039170902357803
30
0
10
-48.82483686839975
20
-37.036164372173836
30
0
0
SPLINE
5
409
100
AcDbEntity
8
0
100
AcDbSpline
70
0
71
3
72
9
73
5
74
0
42
0.000000001
43
0.0000000001
44
0.0000000001
40
0
40
0
40
0
40
0
40
0.036052269135772495
40
0.090170483853323102
40
0.090170483853323102
40
0.090170483853323102
40
0.090170483853323102
10
-48.82483686839975
20
-37.036164372173836
30
0
10
-48.820843493196669
20
-37.033581805164836
30
0
10
-48.810855645471641
20
-37.027122535821519
30
0
10
-48.799334178230971
20
-37.024017159464123
30
0
10
-48.792419263157363
20
-37.022153385229956
30
0
0
SPLINE
5
410
100
AcDbEntity
8
0
100
AcDbSpline
70
0
71
3
72
9
73
5
74
0
42
0.000000001
43
0.0000000001
44
0.0000000001
40
0
40
0
40
0
40
0
40
0.089540734834708466
40
0.19738687504059949
40
0.19738687504059949
40
0.19738687504059949
40
0.19738687504059949
10
-48.792419263157363
20
-37.022153385229956
30
0
10
-48.781207340721565
20
-37.018573056168577
30
0
10
-48.756491368299784
20
-37.010680447666445
30
0
10
-48.733356265960559
20
-36.998912649250258
30
0
10
-48.720715954946762
20
-36.9924830847838
30
0
0
SPLINE
5
411
100
AcDbEntity
8
0
100
AcDbSpline
70
0
71
3
72
9
73
5
74
0
42
0.000000001
43
0.0000000001
44
0.0000000001
40
0
40
0
40
0
40
0
40
0.10721609808627412
40
0.19480439090226234
40
0.19480439090226234
40
0.19480439090226234
40
0.19480439090226234
10
-48.720715954946762
20
-36.9924830847838
30
0
10
-48.708294379861428
20
-36.985817051557497
30
0
10
-48.685725218963597
20
-36.973705320524907
30
0
10
-48.665327013132035
20
-36.958231589789811
30
0
10
-48.656155535954234
20
-36.951274263764951
30
0
0
SPLINE
5
412
100
AcDbEntity
8
0
100
AcDbSpline
70
0
71
3
72
9
73
5
74
0
42
0.000000001
43
0.0000000001
44
0.0000000001
40
0
40
0
40
0
40
0
40
0.13572252838654714
40
0.27023061226098033
40
0.27023061226098033
40
0.27023061226098033
40
0.27023061226098033
10
-48.589671998911058
20
-36.638636907911696
30
0
10
-48.580318444615365
20
-36.653890925450987
30
0
10
-48.561695031581507
20
-36.68426246765614
30
0
10
-48.551393184100505
20
-36.718365391773986
30
0
10
-48.546265409147686
20
-36.735340222786753
30
0
0
SPLINE
5
413
100
AcDbEntity
8
0
100
AcDbSpline
70
0
71
3
72
9
73
5
74
0
42
0.000000001
43
0.0000000001
44
0.0000000001
40
0
40
0
40
0
40
0
40
0.060229721481561117
40
0.12940015142422354
40
0.12940015142422354
40
0.12940015142422354
40
0.12940015142422354
10
-48.546265409147686
20
-36.735340222786753
30
0
10
-48.544664886653287
20
-36.743098463012167
30
0
10
-48.541226254562048
20
-36.759766603512574
30
0
10
-48.540929514731687
20
-36.776789919907792
30
0
10
-48.540770893420806
20
-36.785889678301793
30
0
0
LINE
5
414
100
AcDbEntity
8
0
100
AcDbLine
10
-48.540770893420806
20
-36.785889678301793
30
0
11
-48.601759914737087
21
-36.785889678301793
31
9.450435811605602e-82
0
SPLINE
5
415
100
AcDbEntity
8
0
100
AcDbSpline
70
0
71
3
72
9
73
5
74
0
42
0.000000001
43
0.0000000001
44
0.0000000001
40
0
40
0
40
0
40
0
40
0.11187713366983061
40
0.24728848513435003
40
0.24728848513435003
40
0.24728848513435003
40
0.24728848513435003
10
-48.601759914737087
20
-36.785889678301793
30
0
10
-48.608743629511423
20
-36.771820432581315
30
0
10
-48.624180137316955
20
-36.740722366809742
30
0
10
-48.659398153119874
20
-36.738664739759933
30
0
10
-48.678682994115114
20
-36.737538014997668
30
0
0
LINE
5
416
100
AcDbEntity
8
0
100
AcDbLine
10
-48.678682994115107
20
-36.737538014997661
30
0
11
-49.190221460245766
21
-36.737538014997668
31
7.9264453421289369e-81
0
SPLINE
5
417
100
AcDbEntity
8
0
100
AcDbSpline
70
0
71
3
72
9
73
5
74
0
42
0.000000001
43
0.0000000001
44
0.0000000001
40
0
40
0
40
0
40
0
40
0.066845327981125649
40
0.11848505332017817
40
0.11848505332017817
40
0.11848505332017817
40
0.11848505332017817
10
-49.190221460245766
20
-36.737538014997668
30
0
10
-49.199076436251403
20
-36.737666209065651
30
0
10
-49.214772107674733
20
-36.737893436329514
30
0
10
-49.229435201788768
20
-36.74338596290449
30
0
10
-49.235825865686451
20
-36.745779788587996
30
0
0
SPLINE
5
418
100
AcDbEntity
8
0
100
AcDbSpline
70
0
71
3
72
9
73
5
74
0
42
0.000000001
43
0.0000000001
44
0.0000000001
40
0
40
0
40
0
40
0
40
0.041987078725855408
40
0.097093603841396148
40
0.097093603841396148
40
0.097093603841396148
40
0.097093603841396148
10
-49.235825865686451
20
-36.745779788587996
30
0
10
-49.24021631799846
20
-36.749241982750227
30
0
10
-49.250369080476872
20
-36.757248181766933
30
0
10
-49.255462499044235
20
-36.769210316005775
30
0
10
-49.258353323847331
20
-36.775999554686678
30
0
0
LINE
5
419
100
AcDbEntity
8
0
100
AcDbLine
10
-49.258353323847331
20
-36.775999554686678
30
0
11
-49.320441276468671
21
-36.775999554686678
31
9.6207185860396682e-82
0
SPLINE
5
420
100
AcDbEntity
8
0
100
AcDbSpline
70
0
71
3
72
9
73
5
74
0
42
0.000000001
43
0.0000000001
44
0.0000000001
40
0
40
0
40
0
40
0
40
0.0427759325039066
40
0.082028847170166397
40
0.082028847170166397
40
0.082028847170166397
40
0.082028847170166397
10
-49.320441276468671
20
-36.775999554686678
30
0
10
-49.320347796235964
20
-36.770378735351706
30
0
10
-49.320168534785118
20
-36.75960002631578
30
0
10
-49.31849489724501
20
-36.748952048782336
30
0
10
-49.317694018605231
20
-36.743856717470145
30
0
0
SPLINE
5
421
100
AcDbEntity
8
0
100
AcDbSpline
70
0
71
3
72
9
73
5
74
0
42
0.000000001
43
0.0000000001
44
0.0000000001
40
0
40
0
40
0
40
0
40
0.044342412698985853
40
0.10232959294367586
40
0.10232959294367586
40
0.10232959294367586
40
0.10232959294367586
10
-49.317694018605231
20
-36.743856717470145
30
0
10
-49.3164020822121
20
-36.738179170072875
30
0
10
-49.313420662907845
20
-36.725077016204423
30
0
10
-49.309134072348265
20
-36.7123388043969
30
0
10
-49.306704987151456
20
-36.705120433221673
30
0
0
SPLINE
5
422
100
AcDbEntity
8
0
100
AcDbSpline
70
0
71
3
72
9
73
5
74
0
42
0.000000001
43
0.0000000001
44
0.0000000001
40
0
40
0
40
0
40
0
40
0.15332763313258815
40
0.30785741007979323
40
0.30785741007979323
40
0.30785741007979323
40
0.30785741007979323
10
-49.306704987151456
20
-36.705120433221673
30
0
10
-49.299215350797638
20
-36.686317391077807
30
0
10
-49.28417735664604
20
-36.648563884173903
30
0
10
-49.258935579533365
20
-36.616712634504815
30
0
10
-49.246265408021301
20
-36.600724822142013
30
0
0
SPLINE
5
423
100
AcDbEntity
8
0
100
AcDbSpline
70
0
71
3
72
9
73
5
74
0
42
0.000000001
43
0.0000000001
44
0.0000000001
40
0
40
0
40
0
40
0
40
0.15670475976986364
40
0.31628225720292125
40
0.31628225720292125
40
0.31628225720292125
40
0.31628225720292125
10
-49.246265408021301
20
-36.600724822142013
30
0
10
-49.23196414066522
20
-36.585799054529176
30
0
10
-49.203099432746406
20
-36.555673897654501
30
0
10
-49.167150441203113
20
-36.534489931175969
30
0
10
-49.149012686159708
20
-36.523801742763986
30
0
0
SPLINE
5
424
100
AcDbEntity
8
0
100
AcDbSpline
70
0
71
3
72
9
73
5
74
0
42
0.000000001
43
0.0000000001
44
0.0000000001
40
0
40
0
40
0
40
0
40
0.26091509578942496
40
0.54889397427612852
40
0.54889397427612852
40
0.54889397427612852
40
0.54889397427612852
10
-49.149012686159708
20
-36.523801742763986
30
0
10
-49.117268513730203
20
-36.510188963314157
30
0
10
-49.050487460252938
20
-36.48155139985483
30
0
10
-48.97780506146924
20
-36.478630764365938
30
0
10
-48.93967202181426
20
-36.477098444151146
30
0
0
SPLINE
5
425
100
AcDbEntity
8
0
100
AcDbSpline
70
0
71
3
72
9
73
5
74
0
42
0.000000001
43
0.0000000001
44
0.0000000001
40
0
40
0
40
0
40
0
40
0.28176698518108467
40
0.54128180216433164
40
0.54128180216433164
40
0.54128180216433164
40
0.54128180216433164
10
-48.93967202181426
20
-36.477098444151146
30
0
10
-48.902438233530084
20
-36.478533857834535
30
0
10
-48.830911145248571
20
-36.481291325338752
30
0
10
-48.764040515507666
20
-36.506682849324967
30
0
10
-48.731979730959992
20
-36.518856686823028
30
0
0
SPLINE
5
426
100
AcDbEntity
8
0
100
AcDbSpline
70
0
71
3
72
9
73
5
74
0
42
0.000000001
43
0.0000000001
44
0.0000000001
40
0
40
0
40
0
40
0
40
0.24268604434907715
40
0.4772070399884018
40
0.4772070399884018
40
0.4772070399884018
40
0.4772070399884018
10
-48.731979730959992
20
-36.518856686823028
30
0
10
-48.703538780647797
20
-36.534057753132799
30
0
10
-48.647613761352417
20
-36.563948453596481
30
0
10
-48.608764347584469
20
-36.614026368784458
30
0
10
-48.589671998911058
20
-36.638636907911696
30
0
0
ENDSEC
0
SECTION
2
OBJECTS
0
DICTIONARY
5
C
100
AcDbDictionary
3
ACAD_GROUP
350
D
3
ACAD_MLINESTYLE
350
17
0
DICTIONARY
5
D
100
AcDbDictionary
0
DICTIONARY
5
1A
330
C
100
AcDbDictionary
0
DICTIONARY
5
17
100
AcDbDictionary
0
ENDSEC
0
EOF
