0
SECTION
2
HEADER
9
$INSUNITS
70
1
9
$ACADVER
1
AC1014
9
$HANDSEED
5
FFFF
0
ENDSEC
0
SECTION
2
TABLES
0
TABLE
2
VPORT
5
8
100
AcDbSymbolTable
0
ENDTAB
0
TABLE
2
LTYPE
5
5
100
AcDbSymbolTable
0
LTYPE
5
14
100
AcDbSymbolTableRecord
100
AcDbLinetypeTableRecord
2
BYBLOCK
70
0
0
LTYPE
5
15
100
AcDbSymbolTableRecord
100
AcDbLinetypeTableRecord
2
BYLAYER
70
0
0
ENDTAB
0
TABLE
2
LAYER
5
2
100
AcDbSymbolTable
70
2
0
LAYER
5
50
100
AcDbSymbolTableRecord
100
AcDbLayerTableRecord
2
0
70
0
6
CONTINUOUS
0
ENDTAB
0
TABLE
2
STYLE
5
3
100
AcDbSymbolTable
70
1
0
STYLE
5
11
100
AcDbSymbolTableRecord
100
AcDbTextStyleTableRecord
2
STANDARD
70
0
0
ENDTAB
0
TABLE
2
VIEW
5
6
100
AcDbSymbolTable
70
0
0
ENDTAB
0
TABLE
2
UCS
5
7
100
AcDbSymbolTable
70
0
0
ENDTAB
0
TABLE
2
APPID
5
9
100
AcDbSymbolTable
70
2
0
APPID
5
12
100
AcDbSymbolTableRecord
100
AcDbRegAppTableRecord
2
ACAD
70
0
0
ENDTAB
0
TABLE
2
DIMSTYLE
5
A
100
AcDbSymbolTable
70
1
0
ENDTAB
0
TABLE
2
BLOCK_RECORD
5
1
100
AcDbSymbolTable
70
1
0
BLOCK_RECORD
5
1F
100
AcDbSymbolTableRecord
100
AcDbBlockTableRecord
2
*MODEL_SPACE
0
BLOCK_RECORD
5
1B
100
AcDbSymbolTableRecord
100
AcDbBlockTableRecord
2
*PAPER_SPACE
0
ENDTAB
0
ENDSEC
0
SECTION
2
BLOCKS
0
BLOCK
5
20
100
AcDbEntity
100
AcDbBlockBegin
2
*MODEL_SPACE
0
ENDBLK
5
21
100
AcDbEntity
100
AcDbBlockEnd
0
BLOCK
5
1C
100
AcDbEntity
100
AcDbBlockBegin
2
*PAPER_SPACE
0
ENDBLK
5
1D
100
AcDbEntity
100
AcDbBlockEnd
0
ENDSEC
0
SECTION
2
ENTITIES
0
LWPOLYLINE
5
100
100
AcDbEntity
8
0
100
AcDbPolyline
90
30
70
1
43
0.0
10
-48.179311152652829
20
-4.9391241198893665
42
0.99999999999999989
10
-48.054311152652829
20
-4.9391241198893692
10
-48.054311152652829
20
-4.8210138836688934
42
0.99999999999999989
10
-48.179311152652829
20
-4.8210138836688943
10
-49.5
20
-4.8210138836688943
10
-49.5
20
-3.584793411227948
10
-48.179311152652829
20
-3.584793411227948
42
0.99999999999999989
10
-48.054311152652822
20
-3.5847934112279485
10
-48.054311152652829
20
-3.4666831750074758
42
0.99999999999999989
10
-48.179311152652829
20
-3.4666831750074758
10
-49.5
20
-3.4666831750074758
10
-49.5
20
-3.0452638047150904
10
-49.034940975734429
20
-3.0452638047150904
42
2.4142135623731038
10
-48.972440975734429
20
-2.9827638047150904
10
-48.972440975734429
20
-2.3577638047150904
42
2.4142135623731038
10
-49.034940975734429
20
-2.29526380471509
10
-49.5
20
-2.29526380471509
10
-49.5
20
-0.99999999999999956
10
-48
20
-0.99999999999999956
10
-46.499999999999993
20
-2.4999999999999996
10
-46.499999999999993
20
-5.9000000000000021
10
-48
20
-7.4000000000000021
10
-49.5
20
-7.4000000000000021
10
-49.5
20
-6.1105434901817732
10
-49.034940975734429
20
-6.1105434901817732
42
2.4142135623730949
10
-48.972440975734429
20
-6.0480434901817723
10
-48.972440975734429
20
-5.4230434901817723
42
2.4142135623730949
10
-49.034940975734429
20
-5.3605434901817723
10
-49.5
20
-5.3605434901817723
10
-49.5
20
-4.9391241198893665
0
SPLINE
5
101
100
AcDbEntity
8
0
100
AcDbSpline
70
0
71
3
72
9
73
5
74
0
42
0.000000001
43
0.0000000001
44
0.0000000001
40
0
40
0
40
0
40
0
40
0.044603600481839499
40
0.11760462476641392
40
0.11760462476641392
40
0.11760462476641392
40
0.11760462476641392
10
-48.262641186756511
20
-5.9627642708554296
30
0
10
-48.264481859639119
20
-5.9571860470949787
30
0
10
-48.269335092143649
20
-5.9424781556888115
30
0
10
-48.27017708334445
20
-5.9269696534933241
30
0
10
-48.270699734730144
20
-5.9173430206322548
30
0
0
LINE
5
102
100
AcDbEntity
8
0
100
AcDbLine
10
-48.270699734730144
20
-5.9173430206322548
30
0
11
-48.28681701840857
21
-5.61258113966751
31
2.4974225126607473e-82
0
LINE
5
103
100
AcDbEntity
8
0
100
AcDbLine
10
-48.28681701840857
20
-5.61258113966751
30
2.4974225126607473e-82
11
-47.426011150244747
21
-5.61258113966751
31
-1.3338450802723515e-80
0
SPLINE
5
104
100
AcDbEntity
8
0
100
AcDbSpline
70
0
71
3
72
9
73
5
74
0
42
0.000000001
43
0.0000000001
44
0.0000000001
40
0
40
0
40
0
40
0
40
0.062726268644865357
40
0.10953635029283162
40
0.10953635029283162
40
0.10953635029283162
40
0.10953635029283162
10
-47.426011150244747
20
-5.61258113966751
30
0
10
-47.41759624894388
20
-5.6124572559750092
30
0
10
-47.402901646563024
20
-5.6122409228847339
30
0
10
-47.390349595230269
20
-5.6047803605967044
30
0
10
-47.384985507909803
20
-5.6015921082137394
30
0
0
SPLINE
5
105
100
AcDbEntity
8
0
100
AcDbSpline
70
0
71
3
72
9
73
5
74
0
42
0.000000001
43
0.0000000001
44
0.0000000001
40
0
40
0
40
0
40
0
40
0.020894056795908521
40
0.036650900529965447
40
0.036650900529965447
40
0.036650900529965447
40
0.036650900529965447
10
-47.384985507909803
20
-5.6015921082137394
30
0
10
-47.382839636493664
20
-5.5998292658993041
30
0
10
-47.379075498174743
20
-5.5967370105777325
30
0
10
-47.376804375747746
20
-5.5924472972659043
30
0
10
-47.375827981698329
20
-5.5906030767599688
30
0
0
SPLINE
5
106
100
AcDbEntity
8
0
100
AcDbSpline
70
0
71
3
72
9
73
5
74
0
42
0.000000001
43
0.0000000001
44
0.0000000001
40
0
40
0
40
0
40
0
40
0.029075031280536737
40
0.088708415360958762
40
0.088708415360958762
40
0.088708415360958762
40
0.088708415360958762
10
-47.375827981698329
20
-5.5906030767599688
30
0
10
-47.374743051025554
20
-5.5869446640842426
30
0
10
-47.37143290907489
20
-5.5757827847359849
30
0
10
-47.368585017341417
20
-5.5644929433339403
30
0
10
-47.366670549352435
20
-5.5569034553942034
30
0
0
SPLINE
5
107
100
AcDbEntity
8
0
100
AcDbSpline
70
0
71
3
72
9
73
5
74
0
42
0.000000001
43
0.0000000001
44
0.0000000001
40
0
40
0
40
0
40
0
40
0.075964852996420501
40
0.14613628345922547
40
0.14613628345922547
40
0.14613628345922547
40
0.14613628345922547
10
-47.366670549352435
20
-5.5569034553942034
30
0
10
-47.363204255852672
20
-5.5466518326629624
30
0
10
-47.356536024039485
20
-5.5269304222175251
30
0
10
-47.336161049057672
20
-5.5234228509134677
30
0
10
-47.326377434021943
20
-5.5217385922883695
30
0
0
SPLINE
5
108
100
AcDbEntity
8
0
100
AcDbSpline
70
0
71
3
72
9
73
5
74
0
42
0.000000001
43
0.0000000001
44
0.0000000001
40
0
40
0
40
0
40
0
40
0.045370746212208594
40
0.095388212193526264
40
0.095388212193526264
40
0.095388212193526264
40
0.095388212193526264
10
-47.326377434021943
20
-5.5217385922883695
30
0
10
-47.320248554245921
20
-5.5226761060341927
30
0
10
-47.307363095367883
20
-5.5246471505416528
30
0
10
-47.299651716753665
20
-5.5352346416860616
30
0
10
-47.295608202270735
20
-5.5407862655813558
30
0
0
SPLINE
5
109
100
AcDbEntity
8
0
100
AcDbSpline
70
0
71
3
72
9
73
5
74
0
42
0.000000001
43
0.0000000001
44
0.0000000001
40
0
40
0
40
0
40
0
40
0.049880711570861151
40
0.12034755891810683
40
0.12034755891810683
40
0.12034755891810683
40
0.12034755891810683
10
-47.295608202270735
20
-5.5407862655813558
30
0
10
-47.293062405480114
20
-5.5468778293066432
30
0
10
-47.286920142877918
20
-5.5615749898170952
30
0
10
-47.286855111253971
20
-5.5775728648899046
30
0
10
-47.286817033427063
20
-5.5869400662753783
30
0
0
LINE
5
110
100
AcDbEntity
8
0
100
AcDbLine
10
-47.28681703342707
20
-5.5869400662753783
30
0
11
-47.286817033427063
21
-5.9173430206322548
31
-1.3254221856042581e-192
0
SPLINE
5
111
100
AcDbEntity
8
0
100
AcDbSpline
70
0
71
3
72
9
73
5
74
0
42
0.000000001
43
0.0000000001
44
0.0000000001
40
0
40
0
40
0
40
0
40
0.07139438976326265
40
0.12039978944472191
40
0.12039978944472191
40
0.12039978944472191
40
0.12039978944472191
10
-47.286817033427063
20
-5.9173430206322548
30
0
10
-47.286817498779222
20
-5.9268424217419113
30
0
10
-47.286818283550986
20
-5.942862250432178
30
0
10
-47.293065461506707
20
-5.9575277022665931
30
0
10
-47.295608202270735
20
-5.9634968682590692
30
0
0
SPLINE
5
112
100
AcDbEntity
8
0
100
AcDbSpline
70
0
71
3
72
9
73
5
74
0
42
0.000000001
43
0.0000000001
44
0.0000000001
40
0
40
0
40
0
40
0
40
0.050017379499321939
40
0.095388125711530533
40
0.095388125711530533
40
0.095388125711530533
40
0.095388125711530533
10
-47.295608202270735
20
-5.9634968682590692
30
0
10
-47.299651720011525
20
-5.969048472552303
30
0
10
-47.307363111180678
20
-5.9796359350208421
30
0
10
-47.32024855557728
20
-5.981606979863856
30
0
10
-47.326377434021943
20
-5.9825444946192636
30
0
0
SPLINE
5
113
100
AcDbEntity
8
0
100
AcDbSpline
70
0
71
3
72
9
73
5
74
0
42
0.000000001
43
0.0000000001
44
0.0000000001
40
0
40
0
40
0
40
0
40
0.070171430462804954
40
0.14613623089729946
40
0.14613623089729946
40
0.14613623089729946
40
0.14613623089729946
10
-47.326377434021943
20
-5.9825444946192636
30
0
10
-47.336161048715212
20
-5.9808602360566416
30
0
10
-47.356536015655401
20
-5.9773526661442888
30
0
10
-47.363204253742843
20
-5.9576312679411716
30
0
10
-47.366670549352435
20
-5.9473796549798257
30
0
0
SPLINE
5
114
100
AcDbEntity
8
0
100
AcDbSpline
70
0
71
3
72
9
73
5
74
0
42
0.000000001
43
0.0000000001
44
0.0000000001
40
0
40
0
40
0
40
0
40
0.059633326423206678
40
0.088708472144642225
40
0.088708472144642225
40
0.088708472144642225
40
0.088708472144642225
10
-47.366670549352435
20
-5.9473796549798257
30
0
10
-47.368585021064419
20
-5.9397901759263698
30
0
10
-47.371432922912618
20
-5.9285003296007126
30
0
10
-47.374743051748268
20
-5.9173384386756922
30
0
10
-47.375827981698329
20
-5.9136800101476652
30
0
0
SPLINE
5
115
100
AcDbEntity
8
0
100
AcDbSpline
70
0
71
3
72
9
73
5
74
0
42
0.000000001
43
0.0000000001
44
0.0000000001
40
0
40
0
40
0
40
0
40
0.015360464846428003
40
0.035316761778802781
40
0.035316761778802781
40
0.035316761778802781
40
0.035316761778802781
10
-47.375827981698329
20
-5.9136800101476652
30
0
10
-47.376796582046069
20
-5.9118849989093425
30
0
10
-47.379023586767744
20
-5.9077579112900596
30
0
10
-47.382832960694714
20
-5.9049884996042197
30
0
10
-47.384985507909803
20
-5.9034235995639284
30
0
0
SPLINE
5
116
100
AcDbEntity
8
0
100
AcDbSpline
70
0
71
3
72
9
73
5
74
0
42
0.000000001
43
0.0000000001
44
0.0000000001
40
0
40
0
40
0
40
0
40
0.046810054991989133
40
0.10953632363685449
40
0.10953632363685449
40
0.10953632363685449
40
0.10953632363685449
10
-47.384985507909803
20
-5.9034235995639284
30
0
10
-47.390349596015625
20
-5.9002353567351342
30
0
10
-47.402901653279315
20
-5.8927748143711582
30
0
10
-47.417596250087371
20
-5.8925584774773219
30
0
10
-47.426011150244747
20
-5.8924345915765528
30
0
0
LINE
5
117
100
AcDbEntity
8
0
100
AcDbLine
10
-47.426011150244747
20
-5.8924345915765528
30
0
11
-48.11172541761502
21
-5.8924345915765528
31
1.0625352775015313e-80
0
SPLINE
5
118
100
AcDbEntity
8
0
100
AcDbSpline
70
0
71
3
72
9
73
5
74
0
42
0.000000001
43
0.0000000001
44
0.0000000001
40
0
40
0
40
0
40
0
40
0.08387864650521934
40
0.1433958449557052
40
0.1433958449557052
40
0.1433958449557052
40
0.1433958449557052
10
-48.11172541761502
20
-5.8924345915765528
30
0
10
-48.122808077515224
20
-5.8924704297920316
30
0
10
-48.141754584724872
20
-5.8925316974853521
30
0
10
-48.159880037523642
20
-5.8978991218474128
30
0
10
-48.167403101888326
20
-5.9001268995143556
30
0
0
SPLINE
5
119
100
AcDbEntity
8
0
100
AcDbSpline
70
0
71
3
72
9
73
5
74
0
42
0.000000001
43
0.0000000001
44
0.0000000001
40
0
40
0
40
0
40
0
40
0.043129117788466891
40
0.083172251199897851
40
0.083172251199897851
40
0.083172251199897851
40
0.083172251199897851
10
-48.167403101888326
20
-5.9001268995143556
30
0
10
-48.172606425615015
20
-5.9029614187163872
30
0
10
-48.182640763673909
20
-5.9084276409623087
30
0
10
-48.18570704598423
20
-5.9193908165941815
30
0
10
-48.187183302185765
20
-5.9246690181350399
30
0
0
LINE
5
120
100
AcDbEntity
8
0
100
AcDbLine
10
-48.187183302185765
20
-5.9246690181350408
30
0
11
-48.190846312670352
21
-5.9503100445943815
31
5.6759470335383156e-83
0
SPLINE
5
121
100
AcDbEntity
8
0
100
AcDbSpline
70
0
71
3
72
9
73
5
74
0
42
0.000000001
43
0.0000000001
44
0.0000000001
40
0
40
0
40
0
40
0
40
0.071654614742525449
40
0.13596198953055202
40
0.13596198953055202
40
0.13596198953055202
40
0.13596198953055202
10
-48.190846312670352
20
-5.9503100445943815
30
0
10
-48.193298529431544
20
-5.9603439241468319
30
0
10
-48.197951520321389
20
-5.9793828406431828
30
0
10
-48.217001096846275
20
-5.9830213450587006
30
0
10
-48.226011175776186
20
-5.9847422868301807
30
0
0
SPLINE
5
122
100
AcDbEntity
8
0
100
AcDbSpline
70
0
71
3
72
9
73
5
74
0
42
0.000000001
43
0.0000000001
44
0.0000000001
40
0
40
0
40
0
40
0
40
0.054838469394988383
40
0.11274809979744373
40
0.11274809979744373
40
0.11274809979744373
40
0.11274809979744373
10
-48.226011175776186
20
-5.9847422868301807
30
0
10
-48.233454291310146
20
-5.9837307220257419
30
0
10
-48.248757364905849
20
-5.9816509409745802
30
0
10
-48.257929961598393
20
-5.9691731225661142
30
0
10
-48.262641186756511
20
-5.9627642708554296
30
0
0
LWPOLYLINE
5
123
100
AcDbEntity
8
0
100
AcDbPolyline
90
30
70
1
43
0.0
10
-48.272380727894713
20
-12.339124119889368
42
0.99999999999999989
10
-48.147380727894713
20
-12.339124119889368
10
-48.147380727894713
20
-12.221013883668894
42
0.99999999999999989
10
-48.272380727894721
20
-12.221013883668894
10
-49.404999999999994
20
-12.221013883668896
10
-49.404999999999994
20
-10.984793411227948
10
-48.272380727894713
20
-10.984793411227948
42
0.99999999999999989
10
-48.147380727894713
20
-10.984793411227949
10
-48.147380727894713
20
-10.866683175007477
42
0.99999999999999989
10
-48.272380727894721
20
-10.866683175007477
10
-49.404999999999994
20
-10.866683175007477
10
-49.404999999999994
20
-10.445263804715092
10
-48.939940975734423
20
-10.445263804715092
42
2.4142135623730567
10
-48.877440975734423
20
-10.382763804715092
10
-48.877440975734423
20
-9.7577638047150916
42
2.4142135623730567
10
-48.939940975734423
20
-9.6952638047150899
10
-49.404999999999994
20
-9.6952638047150899
10
-49.404999999999994
20
-8.4000000000000004
10
-48.094999999999992
20
-8.3999999999999986
10
-46.594999999999992
20
-9.9000000000000004
10
-46.594999999999992
20
-13.300000000000002
10
-48.094999999999992
20
-14.800000000000004
10
-49.404999999999994
20
-14.800000000000004
10
-49.404999999999994
20
-13.510543490181774
10
-48.939940975734423
20
-13.510543490181774
42
2.4142135623731704
10
-48.877440975734423
20
-13.448043490181773
10
-48.877440975734423
20
-12.823043490181774
42
2.4142135623731704
10
-48.939940975734423
20
-12.760543490181774
10
-49.404999999999994
20
-12.760543490181774
10
-49.404999999999994
20
-12.339124119889368
0
SPLINE
5
124
100
AcDbEntity
8
0
100
AcDbSpline
70
0
71
3
72
9
73
5
74
0
42
0.000000001
43
0.0000000001
44
0.0000000001
40
0
40
0
40
0
40
0
40
0.16050337607057838
40
0.32846385899225206
40
0.32846385899225206
40
0.32846385899225206
40
0.32846385899225206
10
-48.226316110167929
20
-13.442079175429084
30
7.4728155165137204e-79
10
-48.242888359526354
20
-13.428733499620375
30
7.4753834373531703e-79
10
-48.276802817338478
20
-13.401422097927107
30
7.4806385865541511e-79
10
-48.297892893887628
20
-13.363298074642543
30
7.4839065585659665e-79
10
-48.308677335904839
20
-13.343803298622321
30
7.4855776409156739e-79
0
SPLINE
5
125
100
AcDbEntity
8
0
100
AcDbSpline
70
0
71
3
72
9
73
5
74
0
42
0.000000001
43
0.0000000001
44
0.0000000001
40
0
40
0
40
0
40
0
40
0.13187454795572814
40
0.30677548767866786
40
0.30677548767866786
40
0.30677548767866786
40
0.30677548767866786
10
-48.308677335904839
20
-13.343803298622321
30
7.4855776409156739e-79
10
-48.315146010630805
20
-13.327715002177648
30
7.4865799818938459e-79
10
-48.330193879036472
20
-13.290289319479648
30
7.4889116952317553e-79
10
-48.338185261154102
20
-13.250719118338269
30
7.4901499843880446e-79
10
-48.342741362597003
20
-13.228159084559099
30
7.4908559662731121e-79
0
LINE
5
126
100
AcDbEntity
8
0
100
AcDbLine
10
-48.342741362597003
20
-13.228159084559101
30
7.4908559662731121e-79
11
-48.265086000595922
21
-13.227914497768889
31
7.4788230298826047e-79
0
SPLINE
5
127
100
AcDbEntity
8
0
100
AcDbSpline
70
0
71
3
72
9
73
5
74
0
42
0.000000001
43
0.0000000001
44
0.0000000001
40
0
40
0
40
0
40
0
40
0.04910737819636788
40
0.090719535927073547
40
0.090719535927073547
40
0.090719535927073547
40
0.090719535927073547
10
-48.265086000595922
20
-13.227914497768889
30
7.4788230298826058e-79
10
-48.263577039899758
20
-13.234213767985988
30
7.4785892117970944e-79
10
-48.260789429990282
20
-13.245850855767156
30
7.4781572630963488e-79
10
-48.255125077919146
20
-13.256379195179523
30
7.4772795543791522e-79
10
-48.25252689540622
20
-13.261208440785692
30
7.4768769580341821e-79
0
SPLINE
5
128
100
AcDbEntity
8
0
100
AcDbSpline
70
0
71
3
72
9
73
5
74
0
42
0.000000001
43
0.0000000001
44
0.0000000001
40
0
40
0
40
0
40
0
40
0.031511256533414619
40
0.053062789186619802
40
0.053062789186619802
40
0.053062789186619802
40
0.053062789186619802
10
-48.25252689540622
20
-13.261208440785692
30
7.4768769580341821e-79
10
-48.250197646823288
20
-13.264894445855749
30
7.4765160338260671e-79
10
-48.246275352376266
20
-13.271101424932121
30
7.4759082622779133e-79
10
-48.239232271224274
20
-13.272626231127797
30
7.474816915263217e-79
10
-48.236371713086399
20
-13.273245533486749
30
7.4743736630108607e-79
0
SPLINE
5
129
100
AcDbEntity
8
0
100
AcDbSpline
70
0
71
3
72
9
73
5
74
0
42
0.000000001
43
0.0000000001
44
0.0000000001
40
0
40
0
40
0
40
0
40
0.03059386324411377
40
0.076583047923331676
40
0.076583047923331676
40
0.076583047923331676
40
0.076583047923331676
10
-48.236371713086399
20
-13.273245533486749
30
7.4743736630108607e-79
10
-48.232631692315088
20
-13.271587809577474
30
7.4737941353275093e-79
10
-48.223269612486277
20
-13.267438168566967
30
7.4723434523590706e-79
10
-48.217762910585101
20
-13.258664746800674
30
7.4714901720189773e-79
10
-48.214456059557698
20
-13.253396185091264
30
7.4709777653153016e-79
0
SPLINE
5
130
100
AcDbEntity
8
0
100
AcDbSpline
70
0
71
3
72
9
73
5
74
0
42
0.000000001
43
0.0000000001
44
0.0000000001
40
0
40
0
40
0
40
0
40
0.093811571187685627
40
0.17485010991271704
40
0.17485010991271704
40
0.17485010991271704
40
0.17485010991271704
10
-48.214456059557698
20
-13.253396185091264
30
7.4709777653153016e-79
10
-48.207134762078198
20
-13.243362495145371
30
7.4698433078278006e-79
10
-48.193489007585576
20
-13.224661264927628
30
7.467728856338824e-79
10
-48.174379063627818
20
-13.211652165564193
30
7.4647677119420375e-79
10
-48.16552209502639
20
-13.20562278186482
30
7.4633952975066734e-79
0
SPLINE
5
131
100
AcDbEntity
8
0
100
AcDbSpline
70
0
71
3
72
9
73
5
74
0
42
0.000000001
43
0.0000000001
44
0.0000000001
40
0
40
0
40
0
40
0
40
0.079058419056369192
40
0.1674723771859109
40
0.1674723771859109
40
0.1674723771859109
40
0.1674723771859109
10
-48.16552209502639
20
-13.20562278186482
30
7.4633952975066734e-79
10
-48.155972712943282
20
-13.201322789743493
30
7.4619155914797664e-79
10
-48.135743903194722
20
-13.192213957173418
30
7.4587810753988709e-79
10
-48.1135494083792
20
-13.191268975804821
30
7.4553419703911455e-79
10
-48.101832233473708
20
-13.190770090289726
30
7.4535263582211552e-79
0
SPLINE
5
132
100
AcDbEntity
8
0
100
AcDbSpline
70
0
71
3
72
9
73
5
74
0
42
0.000000001
43
0.0000000001
44
0.0000000001
40
0
40
0
40
0
40
0
40
0.1343420739600607
40
0.27221541395670901
40
0.27221541395670901
40
0.27221541395670901
40
0.27221541395670901
10
-48.101832233473708
20
-13.190770090289726
30
7.4535263582211552e-79
10
-48.083823629679934
20
-13.192557891461878
30
7.4507358698588797e-79
10
-48.047333054597999
20
-13.196180487286131
30
7.4450815433899894e-79
10
-48.019716652524536
20
-13.220350421974249
30
7.4408022972320733e-79
10
-48.005729327056024
20
-13.232592159407538
30
7.4386349182733156e-79
0
SPLINE
5
133
100
AcDbEntity
8
0
100
AcDbSpline
70
0
71
3
72
9
73
5
74
0
42
0.000000001
43
0.0000000001
44
0.0000000001
40
0
40
0
40
0
40
0
40
0.13954127373226377
40
0.27754018454116691
40
0.27754018454116691
40
0.27754018454116691
40
0.27754018454116691
10
-48.005729327056024
20
-13.232592159407538
30
7.4386349182733156e-79
10
-47.993931322514612
20
-13.247168872870505
30
7.4368067813034587e-79
10
-47.970465717894115
20
-13.276161182001045
30
7.4331707139349317e-79
10
-47.966897832088321
20
-13.313277258296907
30
7.4326178590921577e-79
10
-47.965123803019686
20
-13.331732164604604
30
7.4323429678497799e-79
0
SPLINE
5
134
100
AcDbEntity
8
0
100
AcDbSpline
70
0
71
3
72
9
73
5
74
0
42
0.000000001
43
0.0000000001
44
0.0000000001
40
0
40
0
40
0
40
0
40
0.14767215500066716
40
0.29206176586523941
40
0.29206176586523941
40
0.29206176586523941
40
0.29206176586523941
10
-47.965123803019686
20
-13.331732164604604
30
7.4323429678497799e-79
10
-47.966765427878741
20
-13.351559534589301
30
7.4325973426540056e-79
10
-47.970012186587049
20
-13.390773540033775
30
7.4331004378686263e-79
10
-47.995200483950271
20
-13.420968257199759
30
7.4370034417584627e-79
10
-48.007653084323501
20
-13.43589593336732
30
7.4389330103590878e-79
0
SPLINE
5
135
100
AcDbEntity
8
0
100
AcDbSpline
70
0
71
3
72
9
73
5
74
0
42
0.000000001
43
0.0000000001
44
0.0000000001
40
0
40
0
40
0
40
0
40
0.14574045873956015
40
0.29671906355960631
40
0.29671906355960631
40
0.29671906355960631
40
0.29671906355960631
10
-48.007653084323501
20
-13.43589593336732
30
7.4389330103590878e-79
10
-48.022951883566328
20
-13.448122602903824
30
7.4413036061994303e-79
10
-48.05409934545974
20
-13.473015388110486
30
7.4461300009007259e-79
10
-48.093875327636987
20
-13.476312196868564
30
7.4522934112702764e-79
10
-48.114114412454875
20
-13.477989701443704
30
7.4554295195046626e-79
0
SPLINE
5
136
100
AcDbEntity
8
0
100
AcDbSpline
70
0
71
3
72
9
73
5
74
0
42
0.000000001
43
0.0000000001
44
0.0000000001
40
0
40
0
40
0
40
0
40
0.14925621645749665
40
0.30289760889175715
40
0.30289760889175715
40
0.30289760889175715
40
0.30289760889175715
10
-48.114114412454875
20
-13.477989701443704
30
7.4554295195046626e-79
10
-48.133929821336196
20
-13.476455490124158
30
7.4584999778539203e-79
10
-48.174142819573866
20
-13.47334199206521
30
7.4647311052016846e-79
10
-48.208757967289742
20
-13.452600210139023
30
7.4700948284511797e-79
10
-48.226316110167929
20
-13.442079175429084
30
7.4728155165137204e-79
0
SPLINE
5
137
100
AcDbEntity
8
0
100
AcDbSpline
70
0
71
3
72
9
73
5
74
0
42
0.000000001
43
0.0000000001
44
0.0000000001
40
0
40
0
40
0
40
0
40
0.042007987031834233
40
0.077180064055603612
40
0.077180064055603612
40
0.077180064055603612
40
0.077180064055603612
10
-48.222932304408843
20
-13.120821531282681
30
7.4722911854384719e-79
10
-48.227831066309584
20
-13.123408279891484
30
7.4730502636118888e-79
10
-48.236831420385251
20
-13.128160838569716
30
7.4744448960660275e-79
10
-48.24435692657903
20
-13.134999496594274
30
7.475610996319799e-79
10
-48.247786409136857
20
-13.138115972457857
30
7.4761424051550325e-79
0
SPLINE
5
138
100
AcDbEntity
8
0
100
AcDbSpline
70
0
71
3
72
9
73
5
74
0
42
0.000000001
43
0.0000000001
44
0.0000000001
40
0
40
0
40
0
40
0
40
0.035563574477213068
40
0.078367711058423467
40
0.078367711058423467
40
0.078367711058423467
40
0.078367711058423467
10
-48.247786409136857
20
-13.138115972457857
30
7.4761424051550325e-79
10
-48.250818065761898
20
-13.141678777123582
30
7.4766121696424671e-79
10
-48.257498608815077
20
-13.149529755286082
30
7.47764734026741e-79
10
-48.262537067292776
20
-13.158530042712171
30
7.4784280648536611e-79
10
-48.265289053562704
20
-13.163445964423463
30
7.4788544935622559e-79
0
LINE
5
139
100
AcDbEntity
8
0
100
AcDbLine
10
-48.265289053562704
20
-13.163445964423465
30
7.4788544935622547e-79
11
-48.345142173407154
21
-13.163697473369757
31
7.4912279792677064e-79
0
LINE
5
140
100
AcDbEntity
8
0
100
AcDbLine
10
-48.345142173407154
20
-13.163697473369757
30
7.4912279792677064e-79
11
-48.34520447377276
21
-13.14391734771768
31
7.4912376329003343e-79
0
SPLINE
5
141
100
AcDbEntity
8
0
100
AcDbSpline
70
0
71
3
72
9
73
5
74
0
42
0.000000001
43
0.0000000001
44
0.0000000001
40
0
40
0
40
0
40
0
40
0.18978428038343506
40
0.37636919158559773
40
0.37636919158559773
40
0.37636919158559773
40
0.37636919158559773
10
-48.345204473772753
20
-13.14391734771768
30
7.4912376329003343e-79
10
-48.344266397475963
20
-13.118907231910486
30
7.4910922751025222e-79
10
-48.34240605890232
20
-13.069308618954768
30
7.4908040099377656e-79
10
-48.327685579332694
20
-13.021913383204039
30
7.488523026503595e-79
10
-48.3203879061045
20
-12.998417209628567
30
7.4873922296662511e-79
0
SPLINE
5
142
100
AcDbEntity
8
0
100
AcDbSpline
70
0
71
3
72
9
73
5
74
0
42
0.000000001
43
0.0000000001
44
0.0000000001
40
0
40
0
40
0
40
0
40
0.17843524837830319
40
0.34466166526751274
40
0.34466166526751274
40
0.34466166526751274
40
0.34466166526751274
10
-48.3203879061045
20
-12.998417209628567
30
7.4873922296662511e-79
10
-48.311503950133044
20
-12.976568736532196
30
7.4860156334551724e-79
10
-48.29434389298563
20
-12.934366698597499
30
7.4833566299969254e-79
10
-48.264959879799605
20
-12.899586754039905
30
7.4788034870785986e-79
10
-48.250788303097131
20
-12.882812780761133
30
7.4766075578263249e-79
0
SPLINE
5
143
100
AcDbEntity
8
0
100
AcDbSpline
70
0
71
3
72
9
73
5
74
0
42
0.000000001
43
0.0000000001
44
0.0000000001
40
0
40
0
40
0
40
0
40
0.26244953674512944
40
0.53399022147751851
40
0.53399022147751851
40
0.53399022147751851
40
0.53399022147751851
10
-48.250788303097131
20
-12.882812780761133
30
7.4766075578263249e-79
10
-48.223742399435928
20
-12.860079773791774
30
7.4724167121462231e-79
10
-48.168713732724548
20
-12.813826297496986
30
7.4638898515518017e-79
10
-48.097016504932149
20
-12.80768202316567
30
7.4527801463212772e-79
10
-48.060557570769845
20
-12.804557583069196
30
7.4471307227098761e-79
0
SPLINE
5
144
100
AcDbEntity
8
0
100
AcDbSpline
70
0
71
3
72
9
73
5
74
0
42
0.000000001
43
0.0000000001
44
0.0000000001
40
0
40
0
40
0
40
0
40
0.23988814662696914
40
0.47619693112475892
40
0.47619693112475892
40
0.47619693112475892
40
0.47619693112475892
10
-48.060557570769845
20
-12.804557583069196
30
7.4471307227098761e-79
10
-48.028611766038615
20
-12.806809923243689
30
7.4421806223385843e-79
10
-47.965196818742463
20
-12.811280996508557
30
7.43235428185985e-79
10
-47.911542599195677
20
-12.845343264870904
30
7.4240403960668791e-79
10
-47.884917136964475
20
-12.86224638353429
30
7.4199146990751956e-79
0
SPLINE
5
145
100
AcDbEntity
8
0
100
AcDbSpline
70
0
71
3
72
9
73
5
74
0
42
0.000000001
43
0.0000000001
44
0.0000000001
40
0
40
0
40
0
40
0
40
0.24904413998879249
40
0.52309835890995526
40
0.52309835890995526
40
0.52309835890995526
40
0.52309835890995526
10
-47.884917136964475
20
-12.86224638353429
30
7.4199146990751956e-79
10
-47.860410304051825
20
-12.884396524885631
30
7.4161172901909682e-79
10
-47.808935557128379
20
-12.930921219628621
30
7.4081411203620436e-79
10
-47.779853489088865
20
-12.99401477462794
30
7.4036347647697661e-79
10
-47.764617227484472
20
-13.027069848572978
30
7.4012738593282036e-79
0
LINE
5
146
100
AcDbEntity
8
0
100
AcDbLine
10
-47.764617227484472
20
-13.027069848572978
30
7.4012738593282036e-79
11
-47.726219891753843
21
-13.12292004544376
31
7.3953240744517245e-79
0
SPLINE
5
147
100
AcDbEntity
8
0
100
AcDbSpline
70
0
71
3
72
9
73
5
74
0
42
0.000000001
43
0.0000000001
44
0.0000000001
40
0
40
0
40
0
40
0
40
0.14071943174152143
40
0.33465711682356236
40
0.33465711682356236
40
0.33465711682356236
40
0.33465711682356236
10
-47.726219891753843
20
-13.12292004544376
30
7.3953240744517245e-79
10
-47.718663949755587
20
-13.139778243023558
30
7.394153258076751e-79
10
-47.700694507065791
20
-13.179870188585561
30
7.391368837847583e-79
10
-47.679514610087736
20
-13.218371583196127
30
7.3880869478849699e-79
10
-47.667240613857842
20
-13.240683588433241
30
7.3861850545438553e-79
0
LINE
5
148
100
AcDbEntity
8
0
100
AcDbLine
10
-47.667240613857842
20
-13.240683588433244
30
7.3861850545438553e-79
11
-47.654717273633977
21
-13.262622292817374
31
7.3842445245865244e-79
0
SPLINE
5
149
100
AcDbEntity
8
0
100
AcDbSpline
70
0
71
3
72
9
73
5
74
0
42
0.000000001
43
0.0000000001
44
0.0000000001
40
0
40
0
40
0
40
0
40
0.073199758994934569
40
0.14495739642591399
40
0.14495739642591399
40
0.14495739642591399
40
0.14495739642591399
10
-47.654717273633977
20
-13.262622292817371
30
7.3842445245865256e-79
10
-47.654379409088065
20
-13.272251842857335
30
7.3841921714394296e-79
10
-47.653710336326192
20
-13.291321229447023
30
7.3840884965639693e-79
10
-47.649119730186051
20
-13.309840503112556
30
7.3833771680702932e-79
10
-47.646847262142934
20
-13.319008019623903
30
7.3830250421808797e-79
0
SPLINE
5
150
100
AcDbEntity
8
0
100
AcDbSpline
70
0
71
3
72
9
73
5
74
0
42
0.000000001
43
0.0000000001
44
0.0000000001
40
0
40
0
40
0
40
0
40
0.088929258561390889
40
0.21298133759920651
40
0.21298133759920651
40
0.21298133759920651
40
0.21298133759920651
10
-47.646847262142934
20
-13.319008019623903
30
7.3830250421808797e-79
10
-47.643192168576711
20
-13.330096759944997
30
7.3824586742282958e-79
10
-47.634438393616961
20
-13.356653764738267
30
7.3811022499640451e-79
10
-47.623374489680408
20
-13.382340883378655
30
7.3793878641332593e-79
10
-47.616930261744415
20
-13.397302478172598
30
7.3783893112601327e-79
0
SPLINE
5
151
100
AcDbEntity
8
0
100
AcDbSpline
70
0
71
3
72
9
73
5
74
0
42
0.000000001
43
0.0000000001
44
0.0000000001
40
0
40
0
40
0
40
0
40
0.1070176305925562
40
0.20523948544096202
40
0.20523948544096202
40
0.20523948544096202
40
0.20523948544096202
10
-47.616930261744415
20
-13.397302478172598
30
7.3783893112601327e-79
10
-47.628080951301506
20
-13.388739119497339
30
7.3801171447888594e-79
10
-47.649465855586321
20
-13.372316224331144
30
7.3834308012620937e-79
10
-47.668698761866693
20
-13.353422638819096
30
7.3864109990477032e-79
10
-47.677903090775061
20
-13.344380699302716
30
7.387837238027443e-79
0
SPLINE
5
152
100
AcDbEntity
8
0
100
AcDbSpline
70
0
71
3
72
9
73
5
74
0
42
0.000000001
43
0.0000000001
44
0.0000000001
40
0
40
0
40
0
40
0
40
0.11352279991096116
40
0.26620253718493087
40
0.26620253718493087
40
0.26620253718493087
40
0.26620253718493087
10
-47.677903090775061
20
-13.344380699302716
30
7.387837238027443e-79
10
-47.687942912493277
20
-13.333367906916445
30
7.3893929391792272e-79
10
-47.711485549006547
20
-13.307543726425694
30
7.3930409428756759e-79
10
-47.73313670209275
20
-13.280108817419498
30
7.3963958554168587e-79
10
-47.745554661740471
20
-13.264373600379503
30
7.398320056330876e-79
0
SPLINE
5
153
100
AcDbEntity
8
0
100
AcDbSpline
70
0
71
3
72
9
73
5
74
0
42
0.000000001
43
0.0000000001
44
0.0000000001
40
0
40
0
40
0
40
0
40
0.18733387891322092
40
0.30661296070921668
40
0.30661296070921668
40
0.30661296070921668
40
0.30661296070921668
10
-47.745554661740471
20
-13.264373600379503
30
7.398320056330876e-79
10
-47.760666358078012
20
-13.244964615371645
30
7.4006616600024909e-79
10
-47.785399961963627
20
-13.21319755651318
30
7.4044942077441319e-79
10
-47.812566993370382
20
-13.183497465758524
30
7.4087038225397196e-79
10
-47.823135556923035
20
-13.171943487263036
30
7.4103414538595805e-79
0
SPLINE
5
154
100
AcDbEntity
8
0
100
AcDbSpline
70
0
71
3
72
9
73
5
74
0
42
0.000000001
43
0.0000000001
44
0.0000000001
40
0
40
0
40
0
40
0
40
0.086106891134872687
40
0.17484274070173744
40
0.17484274070173744
40
0.17484274070173744
40
0.17484274070173744
10
-47.823135556923035
20
-13.171943487263036
30
7.4103414538595805e-79
10
-47.83149349500232
20
-13.164282404801726
30
7.4116365419857866e-79
10
-47.848464550177326
20
-13.148726336795752
30
7.4142662590090323e-79
10
-47.868437857210644
20
-13.137271884965012
30
7.4173611841609712e-79
10
-47.878574671362315
20
-13.131458543727939
30
7.4189319145876445e-79
0
SPLINE
5
155
100
AcDbEntity
8
0
100
AcDbSpline
70
0
71
3
72
9
73
5
74
0
42
0.000000001
43
0.0000000001
44
0.0000000001
40
0
40
0
40
0
40
0
40
0.096457782796155717
40
0.20302503040310843
40
0.20302503040310843
40
0.20302503040310843
40
0.20302503040310843
10
-47.878574671362315
20
-13.131458543727939
30
7.4189319145876445e-79
10
-47.890138891463508
20
-13.126203920611008
30
7.4207238259418359e-79
10
-47.914479344556796
20
-13.115143952331136
30
7.4244954537630225e-79
10
-47.940708291072866
20
-13.109905196221229
30
7.4285597094291478e-79
10
-47.954475788766608
20
-13.107155388385179
30
7.430693025400335e-79
0
SPLINE
5
156
100
AcDbEntity
8
0
100
AcDbSpline
70
0
71
3
72
9
73
5
74
0
42
0.000000001
43
0.0000000001
44
0.0000000001
40
0
40
0
40
0
40
0
40
0.12622529698781734
40
0.28098182045492925
40
0.28098182045492925
40
0.28098182045492925
40
0.28098182045492925
10
-47.954475788766608
20
-13.107155388385179
30
7.430693025400335e-79
10
-47.97091244446451
20
-13.104969564029599
30
7.4332399355864312e-79
10
-48.007501001199174
20
-13.100103844389549
30
7.4389094446127697e-79
10
-48.04442126467854
20
-13.099914625169751
30
7.444630352616029e-79
10
-48.064755860035298
20
-13.099810408788132
30
7.4477812605011943e-79
0
SPLINE
5
157
100
AcDbEntity
8
0
100
AcDbSpline
70
0
71
3
72
9
73
5
74
0
42
0.000000001
43
0.0000000001
44
0.0000000001
40
0
40
0
40
0
40
0
40
0.24968815355962093
40
0.40719854904636255
40
0.40719854904636255
40
0.40719854904636255
40
0.40719854904636255
10
-48.064755860035298
20
-13.099810408788132
30
7.4477812605011943e-79
10
-48.09777976752757
20
-13.099655523760111
30
7.452898416200179e-79
10
-48.151636096003649
20
-13.099402932847084
30
7.4612436193912985e-79
10
-48.203046141649565
20
-13.114847388420198
30
7.4692097635589319e-79
10
-48.222932304408843
20
-13.120821531282681
30
7.4722911854384719e-79
0
SPLINE
5
158
100
AcDbEntity
8
0
100
AcDbSpline
70
0
71
3
72
9
73
5
74
0
42
0.000000001
43
0.0000000001
44
0.0000000001
40
0
40
0
40
0
40
0
40
0.031484476389853293
40
0.080169920213029738
40
0.080169920213029738
40
0.080169920213029738
40
0.080169920213029738
10
-47.591173386581751
20
-12.852529982673424
30
7.3743982044973289e-79
10
-47.595101524010772
20
-12.851242780258694
30
7.3750068814334546e-79
10
-47.605103864858712
20
-12.847965135948872
30
7.3765567748094951e-79
10
-47.615368966834616
20
-12.845623127708452
30
7.3781473838277922e-79
10
-47.621602739355019
20
-12.844200877189563
30
7.3791133259891313e-79
0
SPLINE
5
159
100
AcDbEntity
8
0
100
AcDbSpline
70
0
71
3
72
9
73
5
74
0
42
0.000000001
43
0.0000000001
44
0.0000000001
40
0
40
0
40
0
40
0
40
0.076583209275362787
40
0.13883859731352804
40
0.13883859731352804
40
0.13883859731352804
40
0.13883859731352804
10
-47.621602739355019
20
-12.844200877189563
30
7.3791133259891313e-79
10
-47.632077948724302
20
-12.841308657538919
30
7.3807364917921074e-79
10
-47.65106857851324
20
-12.836065318650183
30
7.3836791480926825e-79
10
-47.656596994165142
20
-12.817485209445598
30
7.3845357930450133e-79
10
-47.659075942154423
20
-12.809153866932027
30
7.3849199136350377e-79
0
SPLINE
5
160
100
AcDbEntity
8
0
100
AcDbSpline
70
0
71
3
72
9
73
5
74
0
42
0.000000001
43
0.0000000001
44
0.0000000001
40
0
40
0
40
0
40
0
40
0.038181174117116336
40
0.078270167534084195
40
0.078270167534084195
40
0.078270167534084195
40
0.078270167534084195
10
-47.659075942154423
20
-12.809153866932027
30
7.3849199136350377e-79
10
-47.658671413762619
20
-12.8039682736558
30
7.3848572307206669e-79
10
-47.657842143690878
20
-12.793337975770013
30
7.3847287327809676e-79
10
-47.649993436780406
20
-12.786086643263243
30
7.3835125515853899e-79
10
-47.645973428013612
20
-12.782372602137654
30
7.3828896389038486e-79
0
SPLINE
5
161
100
AcDbEntity
8
0
100
AcDbSpline
70
0
71
3
72
9
73
5
74
0
42
0.000000001
43
0.0000000001
44
0.0000000001
40
0
40
0
40
0
40
0
40
0.045666373473826807
40
0.098203790297363591
40
0.098203790297363591
40
0.098203790297363591
40
0.098203790297363591
10
-47.645973428013612
20
-12.782372602137654
30
7.3828896389038486e-79
10
-47.640743517915148
20
-12.779261879741096
30
7.3820792483020764e-79
10
-47.62949679619161
20
-12.772572390152437
30
7.3803365342947793e-79
10
-47.616389272686625
20
-12.771961390453036
30
7.3783054833472561e-79
10
-47.609376962634023
20
-12.771634515637013
30
7.3772189044087354e-79
0
SPLINE
5
162
100
AcDbEntity
8
0
100
AcDbSpline
70
0
71
3
72
9
73
5
74
0
42
0.000000001
43
0.0000000001
44
0.0000000001
40
0
40
0
40
0
40
0
40
0.13712677280879201
40
0.29688837335957341
40
0.29688837335957341
40
0.29688837335957341
40
0.29688837335957341
10
-47.609376962634023
20
-12.771634515637013
30
7.3772189044087354e-79
10
-47.591330511267337
20
-12.772995508743108
30
7.3744225514490176e-79
10
-47.552258771435469
20
-12.77594214725247
30
7.3683682655897001e-79
10
-47.515751707827008
20
-12.790294535720601
30
7.3627113841730795e-79
10
-47.496106523182362
20
-12.798017844408808
30
7.3596673025911092e-79
0
SPLINE
5
163
100
AcDbEntity
8
0
100
AcDbSpline
70
0
71
3
72
9
73
5
74
0
42
0.000000001
43
0.0000000001
44
0.0000000001
40
0
40
0
40
0
40
0
40
0.16177542133709655
40
0.30457982628223801
40
0.30457982628223801
40
0.30457982628223801
40
0.30457982628223801
10
-47.496106523182362
20
-12.798017844408808
30
7.3596673025911092e-79
10
-47.476678458838037
20
-12.806876891538844
30
7.356656864465244e-79
10
-47.440100612746917
20
-12.823556106549326
30
7.3509890150859546e-79
10
-47.409513504712095
20
-12.849594541454517
30
7.346249448932784e-79
10
-47.395172522857777
20
-12.861802845752692
30
7.3440272698329291e-79
0
SPLINE
5
164
100
AcDbEntity
8
0
100
AcDbSpline
70
0
71
3
72
9
73
5
74
0
42
0.000000001
43
0.0000000001
44
0.0000000001
40
0
40
0
40
0
40
0
40
0.11894789519639122
40
0.2452925798049943
40
0.2452925798049943
40
0.2452925798049943
40
0.2452925798049943
10
-47.395172522857777
20
-12.861802845752692
30
7.3440272698329291e-79
10
-47.384569771161793
20
-12.873381786383773
30
7.3423843409554564e-79
10
-47.362704934358703
20
-12.897259705485393
30
7.3389963174673073e-79
10
-47.348670354089236
20
-12.926451430098385
30
7.3368216162322833e-79
10
-47.341441457808841
20
-12.941487430136961
30
7.3357014765938333e-79
0
SPLINE
5
165
100
AcDbEntity
8
0
100
AcDbSpline
70
0
71
3
72
9
73
5
74
0
42
0.000000001
43
0.0000000001
44
0.0000000001
40
0
40
0
40
0
40
0
40
0.12401353207292601
40
0.23595712034113797
40
0.23595712034113797
40
0.23595712034113797
40
0.23595712034113797
10
-47.341441457808841
20
-12.941487430136961
30
7.3357014765938333e-79
10
-47.335415266183688
20
-12.956725383937245
30
7.3347676997285422e-79
10
-47.323949397913275
20
-12.985718217529726
30
7.3329910282920237e-79
10
-47.321708201608899
20
-13.016790759653171
30
7.3326437480543901e-79
10
-47.320644925552799
20
-13.031532301916803
30
7.3324789901700799e-79
0
SPLINE
5
166
100
AcDbEntity
8
0
100
AcDbSpline
70
0
71
3
72
9
73
5
74
0
42
0.000000001
43
0.0000000001
44
0.0000000001
40
0
40
0
40
0
40
0
40
0.1344045817080694
40
0.27942280996691571
40
0.27942280996691571
40
0.27942280996691571
40
0.27942280996691571
10
-47.320644925552799
20
-13.031532301916803
30
7.3324789901700799e-79
10
-47.321392168554468
20
-13.049208916546961
30
7.3325947777638228e-79
10
-47.322945662762777
20
-13.085958030809966
30
7.3328354964535569e-79
10
-47.332298898917067
20
-13.12154194817723
30
7.3342848090675176e-79
10
-47.337153154501081
20
-13.140009719837392
30
7.3350369908507275e-79
0
LINE
5
167
100
AcDbEntity
8
0
100
AcDbLine
10
-47.337153154501088
20
-13.140009719837392
30
7.3350369908507275e-79
11
-47.365419802327537
21
-13.236802555999759
31
7.339416994581363e-79
0
SPLINE
5
168
100
AcDbEntity
8
0
100
AcDbSpline
70
0
71
3
72
9
73
5
74
0
42
0.000000001
43
0.0000000001
44
0.0000000001
40
0
40
0
40
0
40
0
40
0.17602326555365794
40
0.27484329883024428
40
0.27484329883024428
40
0.27484329883024428
40
0.27484329883024428
10
-47.365419802327537
20
-13.236802555999759
30
7.339416994581363e-79
10
-47.371973128266639
20
-13.25901000067641
30
7.3404324525245047e-79
10
-47.382205512683257
20
-13.29368477695853
30
7.3420179918566974e-79
10
-47.386857939864242
20
-13.329494841047007
30
7.3427388997101622e-79
10
-47.388530722176199
20
-13.342370365900338
30
7.3429981024572266e-79
0
SPLINE
5
169
100
AcDbEntity
8
0
100
AcDbSpline
70
0
71
3
72
9
73
5
74
0
42
0.000000001
43
0.0000000001
44
0.0000000001
40
0
40
0
40
0
40
0
40
0.086438615318568848
40
0.19288458469263636
40
0.19288458469263636
40
0.19288458469263636
40
0.19288458469263636
10
-47.388530722176199
20
-13.342370365900338
30
7.3429981024572266e-79
10
-47.386755828780544
20
-13.353769186127456
30
7.3427230772847273e-79
10
-47.382795219575613
20
-13.379205233400892
30
7.3421093687473821e-79
10
-47.366525579943328
20
-13.39930993794904
30
7.3395883382126333e-79
10
-47.357546959050509
20
-13.410404991335589
30
7.3381970733817994e-79
0
SPLINE
5
170
100
AcDbEntity
8
0
100
AcDbSpline
70
0
71
3
72
9
73
5
74
0
42
0.000000001
43
0.0000000001
44
0.0000000001
40
0
40
0
40
0
40
0
40
0.062352428539814632
40
0.10104260203759359
40
0.10104260203759359
40
0.10104260203759359
40
0.10104260203759359
10
-47.357546959050509
20
-13.410404991335589
30
7.3381970733817994e-79
10
-47.352085293403213
20
-13.416697280551164
30
7.3373507715473011e-79
10
-47.343234621161791
20
-13.426893984833642
30
7.3359793327522219e-79
10
-47.339732153525887
20
-13.439825469682638
30
7.3354366146554068e-79
10
-47.338391025350539
20
-13.444777058243329
30
7.3352288027334784e-79
0
SPLINE
5
171
100
AcDbEntity
8
0
100
AcDbSpline
70
0
71
3
72
9
73
5
74
0
42
0.000000001
43
0.0000000001
44
0.0000000001
40
0
40
0
40
0
40
0
40
0.038550736927696852
40
0.073627227322534738
40
0.073627227322534738
40
0.073627227322534738
40
0.073627227322534738
10
-47.338391025350539
20
-13.444777058243329
30
7.3352288027334784e-79
10
-47.33873962991705
20
-13.449993626711201
30
7.3352828200796883e-79
10
-47.339405422317135
20
-13.459956639173145
30
7.3353859866530338e-79
10
-47.346105925513193
20
-13.467313848992234
30
7.3364242501633037e-79
10
-47.349298088854717
20
-13.470818871643997
30
7.3369188856584831e-79
0
SPLINE
5
172
100
AcDbEntity
8
0
100
AcDbSpline
70
0
71
3
72
9
73
5
74
0
42
0.000000001
43
0.0000000001
44
0.0000000001
40
0
40
0
40
0
40
0
40
0.038178348733293732
40
0.084599083829636684
40
0.084599083829636684
40
0.084599083829636684
40
0.084599083829636684
10
-47.349298088854717
20
-13.470818871643997
30
7.3369188856584831e-79
10
-47.353630300423227
20
-13.473496869721489
30
7.3375901751211906e-79
10
-47.363230011825429
20
-13.479431023276321
30
7.3390776798303738e-79
10
-47.374556135416285
20
-13.479847194719332
30
7.3408326974004147e-79
10
-47.380770942469503
20
-13.480075553980875
30
7.3417957008044755e-79
0
SPLINE
5
173
100
AcDbEntity
8
0
100
AcDbSpline
70
0
71
3
72
9
73
5
74
0
42
0.000000001
43
0.0000000001
44
0.0000000001
40
0
40
0
40
0
40
0
40
0.10207840882088126
40
0.21108762425987221
40
0.21108762425987221
40
0.21108762425987221
40
0.21108762425987221
10
-47.380770942469503
20
-13.480075553980875
30
7.3417957008044755e-79
10
-47.394231766861665
20
-13.479259376257048
30
7.3438814968074918e-79
10
-47.422067363775277
20
-13.47757160487927
30
7.3481947078778183e-79
10
-47.448014652779229
20
-13.467312446466485
30
7.3522153198490357e-79
10
-47.461414271193647
20
-13.46201444373628
30
7.354291631798178e-79
0
SPLINE
5
174
100
AcDbEntity
8
0
100
AcDbSpline
70
0
71
3
72
9
73
5
74
0
42
0.000000001
43
0.0000000001
44
0.0000000001
40
0
40
0
40
0
40
0
40
0.11205867936726936
40
0.22296788324756947
40
0.22296788324756947
40
0.22296788324756947
40
0.22296788324756947
10
-47.461414271193647
20
-13.46201444373628
30
7.354291631798178e-79
10
-47.474656243144587
20
-13.45542898188503
30
7.3563435159445462e-79
10
-47.50100435355062
20
-13.442325610531093
30
7.3604262364207132e-79
10
-47.522615718337427
20
-13.422356869399154
30
7.363774983642933e-79
10
-47.533365693752543
20
-13.412423971668874
30
7.3654407252869915e-79
0
SPLINE
5
175
100
AcDbEntity
8
0
100
AcDbSpline
70
0
71
3
72
9
73
5
74
0
42
0.000000001
43
0.0000000001
44
0.0000000001
40
0
40
0
40
0
40
0
40
0.23546222133200378
40
0.50016354317124068
40
0.50016354317124068
40
0.50016354317124068
40
0.50016354317124068
10
-47.533365693752543
20
-13.412423971668874
30
7.3654407252869915e-79
10
-47.552444648272434
20
-13.387237196190746
30
7.3683970677753839e-79
10
-47.5929717334188
20
-13.333736015436847
30
7.3746768638524678e-79
10
-47.597004712834043
20
-13.266518648552543
30
7.3753017863757469e-79
10
-47.599139084674498
20
-13.230945232401467
30
7.3756325138352294e-79
0
SPLINE
5
176
100
AcDbEntity
8
0
100
AcDbSpline
70
0
71
3
72
9
73
5
74
0
42
0.000000001
43
0.0000000001
44
0.0000000001
40
0
40
0
40
0
40
0
40
0.15992240139510708
40
0.36941088329392124
40
0.36941088329392124
40
0.36941088329392124
40
0.36941088329392124
10
-47.599139084674498
20
-13.230945232401467
30
7.3756325138352294e-79
10
-47.598193185630215
20
-13.209958515085834
30
7.3754859438787135e-79
10
-47.59600821718049
20
-13.161480492536297
30
7.3751473763195228e-79
10
-47.587543920531978
20
-13.113678480056381
30
7.3738358076069782e-79
10
-47.582743919407413
20
-13.086570532026171
30
7.3730920327185761e-79
0
SPLINE
5
177
100
AcDbEntity
8
0
100
AcDbSpline
70
0
71
3
72
9
73
5
74
0
42
0.000000001
43
0.0000000001
44
0.0000000001
40
0
40
0
40
0
40
0
40
0.28220814724837001
40
0.44394313677658692
40
0.44394313677658692
40
0.44394313677658692
40
0.44394313677658692
10
-47.582743919407413
20
-13.086570532026171
30
7.3730920327185761e-79
10
-47.575803430010659
20
-13.050151730688604
30
7.3720165826108418e-79
10
-47.564885309242001
20
-12.992861120686438
30
7.3703247863288111e-79
10
-47.560117224641729
20
-12.93476460935546
30
7.3695859570036855e-79
10
-47.55838014155831
20
-12.913599199028438
30
7.3693167906549735e-79
0
SPLINE
5
178
100
AcDbEntity
8
0
100
AcDbSpline
70
0
71
3
72
9
73
5
74
0
42
0.000000001
43
0.0000000001
44
0.0000000001
40
0
40
0
40
0
40
0
40
0.078486866727948426
40
0.14239578416988685
40
0.14239578416988685
40
0.14239578416988685
40
0.14239578416988685
10
-47.55838014155831
20
-12.913599199028438
30
7.3693167906549735e-79
10
-47.558794772298874
20
-12.903012864030423
30
7.3693810389592521e-79
10
-47.559547021329884
20
-12.883806472740108
30
7.3694976022525871e-79
10
-47.57099039220212
20
-12.868506824866758
30
7.3712707876482934e-79
10
-47.576126312823611
20
-12.861640161372971
30
7.3720666142924899e-79
0
SPLINE
5
179
100
AcDbEntity
8
0
100
AcDbSpline
70
0
71
3
72
9
73
5
74
0
42
0.000000001
43
0.0000000001
44
0.0000000001
40
0
40
0
40
0
40
0
40
0.022283562018140739
40
0.044856641675212902
40
0.044856641675212902
40
0.044856641675212902
40
0.044856641675212902
10
-47.576126312823611
20
-12.861640161372971
30
7.3720666142924899e-79
10
-47.5784151947258
20
-12.85979711093082
30
7.3724212835596806e-79
10
-47.583022696670049
20
-12.856087064341068
30
7.373135230109998e-79
10
-47.588444824621213
20
-12.853720767482319
30
7.37397540545728e-79
10
-47.591173386581751
20
-12.852529982673424
30
7.3743982044973289e-79
0
LWPOLYLINE
5
180
100
AcDbEntity
8
0
100
AcDbPolyline
90
30
70
1
43
0.0
10
-48.369453202986136
20
-19.739124119889368
42
0.99999999999999989
10
-48.244453202986136
20
-19.739124119889368
10
-48.244453202986136
20
-19.621013883668898
42
0.99999999999999989
10
-48.369453202986136
20
-19.621013883668898
10
-49.309999999999995
20
-19.621013883668898
10
-49.309999999999995
20
-18.384793411227953
10
-48.369453202986136
20
-18.384793411227953
42
0.99999999999999989
10
-48.244453202986136
20
-18.38479341122795
10
-48.244453202986136
20
-18.266683175007479
42
0.99999999999999989
10
-48.369453202986136
20
-18.266683175007479
10
-49.309999999999995
20
-18.266683175007483
10
-49.309999999999995
20
-17.845263804715096
10
-48.844940975734424
20
-17.845263804715092
42
2.4142135623730949
10
-48.782440975734424
20
-17.782763804715096
10
-48.782440975734424
20
-17.157763804715096
42
2.4142135623731704
10
-48.844940975734424
20
-17.095263804715096
10
-49.309999999999995
20
-17.095263804715096
10
-49.310000000000002
20
-15.800000000000004
10
-48.189999999999998
20
-15.800000000000004
10
-46.689999999999998
20
-17.300000000000001
10
-46.689999999999998
20
-20.700000000000006
10
-48.189999999999991
20
-22.200000000000006
10
-49.309999999999995
20
-22.200000000000006
10
-49.309999999999995
20
-20.910543490181777
10
-48.844940975734424
20
-20.910543490181777
42
2.4142135623731704
10
-48.782440975734424
20
-20.848043490181777
10
-48.782440975734424
20
-20.223043490181777
42
2.4142135623731704
10
-48.844940975734424
20
-20.160543490181777
10
-49.309999999999995
20
-20.160543490181777
10
-49.309999999999995
20
-19.739124119889368
0
SPLINE
5
181
100
AcDbEntity
8
0
100
AcDbSpline
70
0
71
3
72
9
73
5
74
0
42
0.000000001
43
0.0000000001
44
0.0000000001
40
0
40
0
40
0
40
0
40
0.13225675446361021
40
0.27029429438157909
40
0.27029429438157909
40
0.27029429438157909
40
0.27029429438157909
10
-48.216727281902209
20
-20.715030273950855
30
7.4713296981798971e-79
10
-48.231287956497916
20
-20.705330294743113
30
7.4735859193434863e-79
10
-48.261045735459973
20
-20.685506361771932
30
7.478196978414568e-79
10
-48.282385812272871
20
-20.65679777881147
30
7.4815036887336138e-79
10
-48.293284050845216
20
-20.642136492026047
30
7.4831924042083762e-79
0
SPLINE
5
182
100
AcDbEntity
8
0
100
AcDbSpline
70
0
71
3
72
9
73
5
74
0
42
0.000000001
43
0.0000000001
44
0.0000000001
40
0
40
0
40
0
40
0
40
0.18099860918803323
40
0.39879439025724994
40
0.39879439025724994
40
0.39879439025724994
40
0.39879439025724994
10
-48.293284050845216
20
-20.642136492026047
30
7.4831924042083762e-79
10
-48.304912740989593
20
-20.621273913519861
30
7.4849943053933888e-79
10
-48.330534243919502
20
-20.575307376473575
30
7.4889644358137517e-79
10
-48.341504983066741
20
-20.523765308340096
30
7.4906643854748415e-79
10
-48.347496493378451
20
-20.495616354239182
30
7.4915927883643012e-79
0
LINE
5
183
100
AcDbEntity
8
0
100
AcDbLine
10
-48.347496493378451
20
-20.495616354239178
30
7.4915927883643012e-79
11
-48.273503850547776
21
-20.495616354239182
31
7.480127401537122e-79
0
SPLINE
5
184
100
AcDbEntity
8
0
100
AcDbSpline
70
0
71
3
72
9
73
5
74
0
42
0.000000001
43
0.0000000001
44
0.0000000001
40
0
40
0
40
0
40
0
40
0.064669665513652747
40
0.11029978961586023
40
0.11029978961586023
40
0.11029978961586023
40
0.11029978961586023
10
-48.273503850547776
20
-20.495616354239182
30
7.480127401537122e-79
10
-48.271572047929645
20
-20.503912437115524
30
7.4798280627996031e-79
10
-48.268277189039203
20
-20.518062134483344
30
7.4793175143143126e-79
10
-48.262128211413554
20
-20.531204929414983
30
7.4783647113818482e-79
10
-48.259584429479446
20
-20.536641996574126
30
7.4779705445733298e-79
0
SPLINE
5
185
100
AcDbEntity
8
0
100
AcDbSpline
70
0
71
3
72
9
73
5
74
0
42
0.000000001
43
0.0000000001
44
0.0000000001
40
0
40
0
40
0
40
0
40
0.022905049850282713
40
0.045781635258751813
40
0.045781635258751813
40
0.045781635258751813
40
0.045781635258751813
10
-48.259584429479446
20
-20.536641996574126
30
7.4779705445733298e-79
10
-48.257997867723887
20
-20.539220793958339
30
7.4777247019657841e-79
10
-48.254826715856353
20
-20.544375184017387
30
7.4772333222629098e-79
10
-48.250183127682028
20
-20.548255937088634
30
7.4765137840406216e-79
10
-48.247862777155646
20
-20.550195107207436
30
7.476154238613645e-79
0
SPLINE
5
186
100
AcDbEntity
8
0
100
AcDbSpline
70
0
71
3
72
9
73
5
74
0
42
0.000000001
43
0.0000000001
44
0.0000000001
40
0
40
0
40
0
40
0
40
0.020145113245576458
40
0.034982396076861613
40
0.034982396076861613
40
0.034982396076861613
40
0.034982396076861613
10
-48.247862777155646
20
-20.550195107207436
30
7.476154238613645e-79
10
-48.245693404724889
20
-20.551785247808628
30
7.4758180877054028e-79
10
-48.241926245678144
20
-20.554546559083018
30
7.4752343548630805e-79
10
-48.237349681886457
20
-20.555349195977993
30
7.4745252022743429e-79
10
-48.235408597827387
20
-20.55568962293432
30
7.4742244253490977e-79
0
SPLINE
5
187
100
AcDbEntity
8
0
100
AcDbSpline
70
0
71
3
72
9
73
5
74
0
42
0.000000001
43
0.0000000001
44
0.0000000001
40
0
40
0
40
0
40
0
40
0.03163721577606015
40
0.072767350630844704
40
0.072767350630844704
40
0.072767350630844704
40
0.072767350630844704
10
-48.235408597827387
20
-20.55568962293432
30
7.4742244253490977e-79
10
-48.231305337758727
20
-20.554602939206177
30
7.4735886126231316e-79
10
-48.22186761206698
20
-20.552103506372699
30
7.4721262080963407e-79
10
-48.215541232892747
20
-20.54456562673613
30
7.4711459162501103e-79
10
-48.21196538704536
20
-20.540305007058716
30
7.4705918279744887e-79
0
LINE
5
188
100
AcDbEntity
8
0
100
AcDbLine
10
-48.211965387045353
20
-20.540305007058716
30
7.4705918279744899e-79
11
-48.18485916577874
21
-20.50660533876016
31
7.4663916358965262e-79
0
SPLINE
5
189
100
AcDbEntity
8
0
100
AcDbSpline
70
0
71
3
72
9
73
5
74
0
42
0.000000001
43
0.0000000001
44
0.0000000001
40
0
40
0
40
0
40
0
40
0.083220325001415157
40
0.19177314111146049
40
0.19177314111146049
40
0.19177314111146049
40
0.19177314111146049
10
-48.18485916577874
20
-20.50660533876016
30
7.4663916358965262e-79
10
-48.176134847506425
20
-20.499585107066359
30
7.4650397760362924e-79
10
-48.156030504978219
20
-20.483407666240115
30
7.4619245465327393e-79
10
-48.12999778459448
20
-20.482783062722692
30
7.4578906967073379e-79
10
-48.115262013504314
20
-20.482429507108098
30
7.4556073438051832e-79
0
SPLINE
5
190
100
AcDbEntity
8
0
100
AcDbSpline
70
0
71
3
72
9
73
5
74
0
42
0.000000001
43
0.0000000001
44
0.0000000001
40
0
40
0
40
0
40
0
40
0.12841345864497264
40
0.25770876369193385
40
0.25770876369193385
40
0.25770876369193385
40
0.25770876369193385
10
-48.115262013504314
20
-20.482429507108098
30
7.4556073438051832e-79
10
-48.098054866951365
20
-20.484053889272641
30
7.4529410436991988e-79
10
-48.06352240819183
20
-20.487313808628485
30
7.4475901333569681e-79
10
-48.036995685827236
20
-20.509673146121546
30
7.4434797364102978e-79
10
-48.023686939120722
20
-20.520891070263506
30
7.4414175053108583e-79
0
SPLINE
5
191
100
AcDbEntity
8
0
100
AcDbSpline
70
0
71
3
72
9
73
5
74
0
42
0.000000001
43
0.0000000001
44
0.0000000001
40
0
40
0
40
0
40
0
40
0.12986398527873094
40
0.25983287126273902
40
0.25983287126273902
40
0.25983287126273902
40
0.25983287126273902
10
-48.023686939120722
20
-20.520891070263506
30
7.4414175053108583e-79
10
-48.012575812531132
20
-20.534371517169234
30
7.4396958021852248e-79
10
-47.990344584076674
20
-20.561343300130478
30
7.4362510051875406e-79
10
-47.987176411981238
20
-20.596153132826014
30
7.4357600872094882e-79
10
-47.985591686400333
20
-20.613565075952149
30
7.435514529122834e-79
0
SPLINE
5
192
100
AcDbEntity
8
0
100
AcDbSpline
70
0
71
3
72
9
73
5
74
0
42
0.000000001
43
0.0000000001
44
0.0000000001
40
0
40
0
40
0
40
0
40
0.12895918665431005
40
0.25715258137384506
40
0.25715258137384506
40
0.25715258137384506
40
0.25715258137384506
10
-47.985591686400333
20
-20.613565075952149
30
7.435514529122834e-79
10
-47.987205235148089
20
-20.630884984709436
30
7.4357645534475484e-79
10
-47.9904227509872
20
-20.665421952269828
30
7.4362631173899452e-79
10
-48.013354229053697
20
-20.691438177866235
30
7.4398164202115906e-79
10
-48.024785823492984
20
-20.704407552932103
30
7.4415877808129119e-79
0
SPLINE
5
193
100
AcDbEntity
8
0
100
AcDbSpline
70
0
71
3
72
9
73
5
74
0
42
0.000000001
43
0.0000000001
44
0.0000000001
40
0
40
0
40
0
40
0
40
0.13146386782850858
40
0.26859200094884217
40
0.26859200094884217
40
0.26859200094884217
40
0.26859200094884217
10
-48.024785823492984
20
-20.704407552932103
30
7.4415877808129119e-79
10
-48.038824619538723
20
-20.715089985897013
30
7.4437631352953932e-79
10
-48.067507088593686
20
-20.736915116196617
30
7.448207571800065e-79
10
-48.103486385988141
20
-20.739644249573107
30
7.4537826742239851e-79
10
-48.121855413603463
20
-20.741037593245419
30
7.4566290113622684e-79
0
SPLINE
5
194
100
AcDbEntity
8
0
100
AcDbSpline
70
0
71
3
72
9
73
5
74
0
42
0.000000001
43
0.0000000001
44
0.0000000001
40
0
40
0
40
0
40
0
40
0.12461038802128123
40
0.25209466683739395
40
0.25209466683739395
40
0.25209466683739395
40
0.25209466683739395
10
-48.121855413603463
20
-20.741037593245419
30
7.4566290113622684e-79
10
-48.138346275832077
20
-20.739905377023639
30
7.4591843210164667e-79
10
-48.171708329232267
20
-20.737614832264491
30
7.464353873460451e-79
10
-48.201607347617383
20
-20.722615457907878
30
7.4689868180130981e-79
10
-48.216727281902209
20
-20.715030273950855
30
7.4713296981798971e-79
0
SPLINE
5
195
100
AcDbEntity
8
0
100
AcDbSpline
70
0
71
3
72
9
73
5
74
0
42
0.000000001
43
0.0000000001
44
0.0000000001
40
0
40
0
40
0
40
0
40
0.096304941128203786
40
0.18668604571528741
40
0.18668604571528741
40
0.18668604571528741
40
0.18668604571528741
10
-47.929914049059818
20
-20.132246352453784
30
7.4268871085400438e-79
10
-47.920974586407596
20
-20.141248086569014
30
7.4255019113986281e-79
10
-47.903645538553846
20
-20.158697846953743
30
7.4228167223124015e-79
10
-47.890740531159913
20
-20.179624288444469
30
7.4208170518570884e-79
10
-47.884492775370248
20
-20.189755495036593
30
7.4198489429453113e-79
0
SPLINE
5
196
100
AcDbEntity
8
0
100
AcDbSpline
70
0
71
3
72
9
73
5
74
0
42
0.000000001
43
0.0000000001
44
0.0000000001
40
0
40
0
40
0
40
0
40
0.10239642376483366
40
0.23401418462089787
40
0.23401418462089787
40
0.23401418462089787
40
0.23401418462089787
10
-47.884492775370248
20
-20.189755495036593
30
7.4198489429453113e-79
10
-47.878560131237272
20
-20.201830376703381
30
7.4189296615506976e-79
10
-47.865001817105025
20
-20.229426004399681
30
7.416828759213605e-79
10
-47.855438997365617
20
-20.258660835399088
30
7.4153469709806618e-79
10
-47.850060533134446
20
-20.275103526688849
30
7.4145135614606418e-79
0
SPLINE
5
197
100
AcDbEntity
8
0
100
AcDbSpline
70
0
71
3
72
9
73
5
74
0
42
0.000000001
43
0.0000000001
44
0.0000000001
40
0
40
0
40
0
40
0
40
0.14865949741753948
40
0.25707480418954376
40
0.25707480418954376
40
0.25707480418954376
40
0.25707480418954376
10
-47.850060533134446
20
-20.275103526688849
30
7.4145135614606418e-79
10
-47.844426266690796
20
-20.256406287065246
30
7.4136405146036497e-79
10
-47.834683007982711
20
-20.224073410265444
30
7.4121307667993831e-79
10
-47.821538109116588
20
-20.192978815484484
30
7.410093924425079e-79
10
-47.815994554400874
20
-20.179865394887873
30
7.4092349336284029e-79
0
SPLINE
5
198
100
AcDbEntity
8
0
100
AcDbSpline
70
0
71
3
72
9
73
5
74
0
42
0.000000001
43
0.0000000001
44
0.0000000001
40
0
40
0
40
0
40
0
40
0.086552672839944417
40
0.17025564789809666
40
0.17025564789809666
40
0.17025564789809666
40
0.17025564789809666
10
-47.815994554400874
20
-20.179865394887873
30
7.4092349336284029e-79
10
-47.810761710875752
20
-20.169739959393674
30
7.4084240884831774e-79
10
-47.800468312237832
20
-20.14982246263995
30
7.4068290948103577e-79
10
-47.786074651489486
20
-20.132636775958353
30
7.4045987529543895e-79
10
-47.778998279918326
20
-20.124187757547357
30
7.403502247487193e-79
0
SPLINE
5
199
100
AcDbEntity
8
0
100
AcDbSpline
70
0
71
3
72
9
73
5
74
0
42
0.000000001
43
0.0000000001
44
0.0000000001
40
0
40
0
40
0
40
0
40
0.11353211643990188
40
0.23464875490321507
40
0.23464875490321507
40
0.23464875490321507
40
0.23464875490321507
10
-47.778998279918326
20
-20.124187757547357
30
7.403502247487193e-79
10
-47.76808006578716
20
-20.113897324266819
30
7.4018104367383551e-79
10
-47.745514245365761
20
-20.092629004496079
30
7.3983137936897211e-79
10
-47.717346811484795
20
-20.079620297514563
30
7.3939491634640731e-79
10
-47.702807868343129
20
-20.072905704628678
30
7.391696309655904e-79
0
SPLINE
5
200
100
AcDbEntity
8
0
100
AcDbSpline
70
0
71
3
72
9
73
5
74
0
42
0.000000001
43
0.0000000001
44
0.0000000001
40
0
40
0
40
0
40
0
40
0.12494202451765855
40
0.24973822852036034
40
0.24973822852036034
40
0.24973822852036034
40
0.24973822852036034
10
-47.702807868343129
20
-20.072905704628678
30
7.391696309655904e-79
10
-47.687275457071848
20
-20.067350141612881
30
7.3892895149156261e-79
10
-47.656228762490791
20
-20.056245499509036
30
7.3844787344182781e-79
10
-47.623294619223394
20
-20.05465357551067
30
7.3793754879611064e-79
10
-47.606837162604911
20
-20.053858078268483
30
7.3768253546086012e-79
0
SPLINE
5
201
100
AcDbEntity
8
0
100
AcDbSpline
70
0
71
3
72
9
73
5
74
0
42
0.000000001
43
0.0000000001
44
0.0000000001
40
0
40
0
40
0
40
0
40
0.26788193952295614
40
0.52726588207938696
40
0.52726588207938696
40
0.52726588207938696
40
0.52726588207938696
10
-47.606837162604911
20
-20.053858078268483
30
7.3768253546086012e-79
10
-47.570840583339312
20
-20.05688001533942
30
7.3712475743057693e-79
10
-47.499989341362649
20
-20.062828024817531
30
7.3602689571707191e-79
10
-47.445900052036933
20
-20.108865859412056
30
7.3518876559818196e-79
10
-47.419291288617515
20
-20.131513778516538
30
7.3477645465222117e-79
0
SPLINE
5
202
100
AcDbEntity
8
0
100
AcDbSpline
70
0
71
3
72
9
73
5
74
0
42
0.000000001
43
0.0000000001
44
0.0000000001
40
0
40
0
40
0
40
0
40
0.1683581804347537
40
0.34538588048235958
40
0.34538588048235958
40
0.34538588048235958
40
0.34538588048235958
10
-47.419291288617515
20
-20.131513778516538
30
7.3477645465222117e-79
10
-47.404957756925654
20
-20.148530348161248
30
7.3455435218478694e-79
10
-47.375552595554637
20
-20.18343974712451
30
7.3409871019534491e-79
10
-47.358698906908586
20
-20.225878825066989
30
7.3383755712336439e-79
10
-47.350060540643696
20
-20.247630994987212
30
7.3370370299004408e-79
0
SPLINE
5
203
100
AcDbEntity
8
0
100
AcDbSpline
70
0
71
3
72
9
73
5
74
0
42
0.000000001
43
0.0000000001
44
0.0000000001
40
0
40
0
40
0
40
0
40
0.18814072741959903
40
0.38851600505252748
40
0.38851600505252748
40
0.38851600505252748
40
0.38851600505252748
10
-47.350060540643696
20
-20.247630994987212
30
7.3370370299004408e-79
10
-47.343118029625252
20
-20.271433857508313
30
7.3359612665362291e-79
10
-47.328781545000638
20
-20.320587452173061
30
7.3337397842959037e-79
10
-47.327112083282564
20
-20.37177877365664
30
7.3334810960850401e-79
10
-47.32625106635944
20
-20.398180453693683
30
7.3333476788734e-79
0
LINE
5
204
100
AcDbEntity
8
0
100
AcDbLine
10
-47.32625106635944
20
-20.398180453693683
30
7.3333476788734e-79
11
-47.326983593363892
21
-20.430414880252172
31
7.3334611861782625e-79
0
LINE
5
205
100
AcDbEntity
8
0
100
AcDbLine
10
-47.326983593363892
20
-20.430414880252172
30
7.3334611861782625e-79
11
-47.403906719674701
21
-20.430414880252172
31
7.345380660403934e-79
0
SPLINE
5
206
100
AcDbEntity
8
0
100
AcDbSpline
70
0
71
3
72
9
73
5
74
0
42
0.000000001
43
0.0000000001
44
0.0000000001
40
0
40
0
40
0
40
0
40
0.097014371557673604
40
0.17629266157899409
40
0.17629266157899409
40
0.17629266157899409
40
0.17629266157899409
10
-47.403906719674701
20
-20.430414880252172
30
7.345380660403934e-79
10
-47.407816131442189
20
-20.418083043632631
30
7.3459864357414032e-79
10
-47.414920239778212
20
-20.395673865848863
30
7.3470872391053404e-79
10
-47.431074457734631
20
-20.378705023746317
30
7.3495903846975957e-79
10
-47.438338961910503
20
-20.371074185494276
30
7.3507160418886035e-79
0
SPLINE
5
207
100
AcDbEntity
8
0
100
AcDbSpline
70
0
71
3
72
9
73
5
74
0
42
0.000000001
43
0.0000000001
44
0.0000000001
40
0
40
0
40
0
40
0
40
0.042000348796976859
40
0.082043472860062222
40
0.082043472860062222
40
0.082043472860062222
40
0.082043472860062222
10
-47.438338961910503
20
-20.371074185494276
30
7.3507160418886035e-79
10
-47.442748332398018
20
-20.367704559305864
30
7.3513992873623388e-79
10
-47.451361595818071
20
-20.361122332189755
30
7.352733938932784e-79
10
-47.461564375966169
20
-20.357471458795057
30
7.3543148909928192e-79
10
-47.466544067549385
20
-20.355689569618672
30
7.3550865094686209e-79
0
SPLINE
5
208
100
AcDbEntity
8
0
100
AcDbSpline
70
0
71
3
72
9
73
5
74
0
42
0.000000001
43
0.0000000001
44
0.0000000001
40
0
40
0
40
0
40
0
40
0.045208929889961044
40
0.10226452848465079
40
0.10226452848465079
40
0.10226452848465079
40
0.10226452848465079
10
-47.466544067549385
20
-20.355689569618672
30
7.3550865094686209e-79
10
-47.472353219291762
20
-20.354411923992561
30
7.3559866553387521e-79
10
-47.485493768410606
20
-20.351521835068922
30
7.3580228237063815e-79
10
-47.498958538322626
20
-20.351375582613812
30
7.3601092310797949e-79
10
-47.506470825512068
20
-20.351293985196836
30
7.3612732830083219e-79
0
LINE
5
209
100
AcDbEntity
8
0
100
AcDbLine
10
-47.506470825512068
20
-20.351293985196836
30
7.3612732830083219e-79
11
-47.716727195545872
21
-20.351293985196836
31
7.3938531520749367e-79
0
SPLINE
5
210
100
AcDbEntity
8
0
100
AcDbSpline
70
0
71
3
72
9
73
5
74
0
42
0.000000001
43
0.0000000001
44
0.0000000001
40
0
40
0
40
0
40
0
40
0.067480000843037721
40
0.11387192614154143
40
0.11387192614154143
40
0.11387192614154143
40
0.11387192614154143
10
-47.716727195545872
20
-20.351293985196836
30
7.3938531520749367e-79
10
-47.725597538402603
20
-20.351294815782385
30
7.3952276388921575e-79
10
-47.740566166351805
20
-20.35129621738842
30
7.3975470736784315e-79
10
-47.755380445610626
20
-20.35337675471985
30
7.3998425916619814e-79
10
-47.761415848365409
20
-20.354224374811391
30
7.4007777958200461e-79
0
SPLINE
5
211
100
AcDbEntity
8
0
100
AcDbSpline
70
0
71
3
72
9
73
5
74
0
42
0.000000001
43
0.0000000001
44
0.0000000001
40
0
40
0
40
0
40
0
40
0.036927244168435978
40
0.077066808021262867
40
0.077066808021262867
40
0.077066808021262867
40
0.077066808021262867
10
-47.761415848365409
20
-20.354224374811391
30
7.4007777958200461e-79
10
-47.766109317031805
20
-20.355573009426056
30
7.4015050631774859e-79
10
-47.775904541582477
20
-20.358387597063981
30
7.4030228632483609e-79
10
-47.784200955816189
20
-20.364320909008097
30
7.4043084180660959e-79
10
-47.78852206963203
20
-20.367411221942476
30
7.4049779878980086e-79
0
SPLINE
5
212
100
AcDbEntity
8
0
100
AcDbSpline
70
0
71
3
72
9
73
5
74
0
42
0.000000001
43
0.0000000001
44
0.0000000001
40
0
40
0
40
0
40
0
40
0.085440157782256984
40
0.18453999956997172
40
0.18453999956997172
40
0.18453999956997172
40
0.18453999956997172
10
-47.78852206963203
20
-20.367411221942476
30
7.4049779878980086e-79
10
-47.796532400364903
20
-20.375703133438137
30
7.4062192132003161e-79
10
-47.813833707716974
20
-20.393612619838471
30
7.4089001038107712e-79
10
-47.816431187038695
20
-20.418509954910373
30
7.4093025911941069e-79
10
-47.817826059643167
20
-20.43188007505945
30
7.4095187309800797e-79
0
SPLINE
5
213
100
AcDbEntity
8
0
100
AcDbSpline
70
0
71
3
72
9
73
5
74
0
42
0.000000001
43
0.0000000001
44
0.0000000001
40
0
40
0
40
0
40
0
40
0.062213668457825201
40
0.10090371080385777
40
0.10090371080385777
40
0.10090371080385777
40
0.10090371080385777
10
-47.817826059643167
20
-20.43188007505945
30
7.4095187309800797e-79
10
-47.818157406558164
20
-20.440112061305602
30
7.409570074200285e-79
10
-47.81869481472129
20
-20.453463435370391
30
7.409653347242558e-79
10
-47.823362373801494
20
-20.465928396057745
30
7.4103765998301926e-79
10
-47.825152080612348
20
-20.470707901717084
30
7.4106539203867879e-79
0
SPLINE
5
214
100
AcDbEntity
8
0
100
AcDbSpline
70
0
71
3
72
9
73
5
74
0
42
0.000000001
43
0.0000000001
44
0.0000000001
40
0
40
0
40
0
40
0
40
0.044756203334658434
40
0.09148077544337016
40
0.09148077544337016
40
0.09148077544337016
40
0.09148077544337016
10
-47.825152080612348
20
-20.470707901717084
30
7.4106539203867879e-79
10
-47.829069088786966
20
-20.475408147930992
30
7.4112608728108272e-79
10
-47.837075374363792
20
-20.485015356237028
30
7.4125014713038041e-79
10
-47.849549925020547
20
-20.486213285870885
30
7.4144344411681504e-79
10
-47.855921406229143
20
-20.486825138462724
30
7.4154217217128633e-79
0
SPLINE
5
215
100
AcDbEntity
8
0
100
AcDbSpline
70
0
71
3
72
9
73
5
74
0
42
0.000000001
43
0.0000000001
44
0.0000000001
40
0
40
0
40
0
40
0
40
0.044778590234479679
40
0.080460429893158186
40
0.080460429893158186
40
0.080460429893158186
40
0.080460429893158186
10
-47.855921406229143
20
-20.486825138462724
30
7.4154217217128633e-79
10
-47.862034593098436
20
-20.486606882363184
30
7.416368978757914e-79
10
-47.87301907565908
20
-20.486214708793103
30
7.4180710580030415e-79
10
-47.880967764924307
20
-20.478770937602629
30
7.419302731770978e-79
10
-47.884492775370248
20
-20.475469843506726
30
7.4198489429453113e-79
0
SPLINE
5
216
100
AcDbEntity
8
0
100
AcDbSpline
70
0
71
3
72
9
73
5
74
0
42
0.000000001
43
0.0000000001
44
0.0000000001
40
0
40
0
40
0
40
0
40
0.045053216260361469
40
0.11312095967117677
40
0.11312095967117677
40
0.11312095967117677
40
0.11312095967117677
10
-47.884492775370248
20
-20.475469843506726
30
7.4198489429453113e-79
10
-47.887016361096272
20
-20.470080525728331
30
7.4202399802894799e-79
10
-47.893352655435208
20
-20.456548865845459
30
7.4212218085208757e-79
10
-47.89468194166713
20
-20.441604873942598
30
7.4214277854973678e-79
10
-47.895481806824016
20
-20.432612695929485
30
7.4215517270553731e-79
0
SPLINE
5
217
100
AcDbEntity
8
0
100
AcDbSpline
70
0
71
3
72
9
73
5
74
0
42
0.000000001
43
0.0000000001
44
0.0000000001
40
0
40
0
40
0
40
0
40
0.16810784948315527
40
0.32538788622374532
40
0.32538788622374532
40
0.32538788622374532
40
0.32538788622374532
10
-47.895481806824016
20
-20.432612695929485
30
7.4215517270553731e-79
10
-47.900321828786545
20
-20.408688883692083
30
7.4223017032952996e-79
10
-47.909690127295541
20
-20.362382189993511
30
7.4237533498672964e-79
10
-47.955919943570798
20
-20.354413246349012
30
7.4309168016142264e-79
10
-47.978265665431152
20
-20.350561364326804
30
7.4343793397161258e-79
0
LINE
5
218
100
AcDbEntity
8
0
100
AcDbLine
10
-47.978265665431159
20
-20.350561364326801
30
7.4343793397161258e-79
11
-48.006837128437837
21
-20.351293985196836
31
7.4388065754933344e-79
0
LINE
5
219
100
AcDbEntity
8
0
100
AcDbLine
10
-48.006837128437837
20
-20.351293985196836
30
7.4388065754933344e-79
11
-48.1724048925849
21
-20.351293985196836
31
7.4644618080872208e-79
0
SPLINE
5
220
100
AcDbEntity
8
0
100
AcDbSpline
70
0
71
3
72
9
73
5
74
0
42
0.000000001
43
0.0000000001
44
0.0000000001
40
0
40
0
40
0
40
0
40
0.10272038805948347
40
0.18201542818258959
40
0.18201542818258959
40
0.18201542818258959
40
0.18201542818258959
10
-48.1724048925849
20
-20.351293985196836
30
7.4644618080872196e-79
10
-48.186138864482523
20
-20.351565895235041
30
7.4665899291335282e-79
10
-48.210474780874762
20
-20.352047706324019
30
7.4703608539789809e-79
10
-48.231669591926355
20
-20.363769720194192
30
7.4736450549230076e-79
10
-48.240903113554275
20
-20.368876416749753
30
7.475075817404128e-79
0
SPLINE
5
221
100
AcDbEntity
8
0
100
AcDbSpline
70
0
71
3
72
9
73
5
74
0
42
0.000000001
43
0.0000000001
44
0.0000000001
40
0
40
0
40
0
40
0
40
0.078609739389868538
40
0.17932586444648374
40
0.17932586444648374
40
0.17932586444648374
40
0.17932586444648374
10
-48.240903113554275
20
-20.368876416749753
30
7.475075817404128e-79
10
-48.247998393913498
20
-20.376570747988996
30
7.476175252846001e-79
10
-48.264184267238932
20
-20.394123186294014
30
7.4786833035347224e-79
10
-48.270152094906862
20
-20.417362699064299
30
7.4796080367259317e-79
10
-48.273503850547776
20
-20.430414880252172
30
7.480127401537122e-79
0
LINE
5
222
100
AcDbEntity
8
0
100
AcDbLine
10
-48.273503850547783
20
-20.430414880252172
30
7.480127401537122e-79
11
-48.351159503863045
21
-20.430414880252172
31
7.4921603830676559e-79
0
LINE
5
223
100
AcDbEntity
8
0
100
AcDbLine
10
-48.351159503863045
20
-20.430414880252172
30
7.4921603830676559e-79
11
-48.351159503863045
21
-20.4099020590847
31
7.4921603830676559e-79
0
SPLINE
5
224
100
AcDbEntity
8
0
100
AcDbSpline
70
0
71
3
72
9
73
5
74
0
42
0.000000001
43
0.0000000001
44
0.0000000001
40
0
40
0
40
0
40
0
40
0.17583014608538461
40
0.3488513661083702
40
0.3488513661083702
40
0.3488513661083702
40
0.3488513661083702
10
-48.351159503863045
20
-20.4099020590847
30
7.4921603830676559e-79
10
-48.35036219684946
20
-20.386761461822623
30
7.4920368379017985e-79
10
-48.348780319980854
20
-20.340849943535424
30
7.4917917212318471e-79
10
-48.337148422637604
20
-20.296411312840284
30
7.4899893230815399e-79
10
-48.331379303565605
20
-20.274370905818813
30
7.4890953803964005e-79
0
SPLINE
5
225
100
AcDbEntity
8
0
100
AcDbSpline
70
0
71
3
72
9
73
5
74
0
42
0.000000001
43
0.0000000001
44
0.0000000001
40
0
40
0
40
0
40
0
40
0.1648290179646805
40
0.31666235767573131
40
0.31666235767573131
40
0.31666235767573131
40
0.31666235767573131
10
-48.331379303565605
20
-20.274370905818813
30
7.4890953803964005e-79
10
-48.324403736077777
20
-20.253776247319827
30
7.4880144948309264e-79
10
-48.311002578477641
20
-20.214210682977193
30
7.4859379443802388e-79
10
-48.287637387350131
20
-20.179607247408683
30
7.4823174363902636e-79
10
-48.276434240162331
20
-20.163015584204992
30
7.4805814743908524e-79
0
SPLINE
5
226
100
AcDbEntity
8
0
100
AcDbSpline
70
0
71
3
72
9
73
5
74
0
42
0.000000001
43
0.0000000001
44
0.0000000001
40
0
40
0
40
0
40
0
40
0.13953906964570523
40
0.27378866596893681
40
0.27378866596893681
40
0.27378866596893681
40
0.27378866596893681
10
-48.276434240162331
20
-20.163015584204992
30
7.4805814743908524e-79
10
-48.264580375591926
20
-20.148856045835167
30
7.4787446817382675e-79
10
-48.241321987990879
20
-20.12107371124706
30
7.4751407232821198e-79
10
-48.210072231602048
20
-20.102763211039495
30
7.4702984777351803e-79
10
-48.194749218994666
20
-20.093784836231166
30
7.4679241299597737e-79
0
SPLINE
5
227
100
AcDbEntity
8
0
100
AcDbSpline
70
0
71
3
72
9
73
5
74
0
42
0.000000001
43
0.0000000001
44
0.0000000001
40
0
40
0
40
0
40
0
40
0.13244970979344906
40
0.26658478632720733
40
0.26658478632720733
40
0.26658478632720733
40
0.26658478632720733
10
-48.194749218994666
20
-20.093784836231166
30
7.4679241299597737e-79
10
-48.178651890631741
20
-20.086840477189302
30
7.4654297995844233e-79
10
-48.146252402186185
20
-20.072863395063251
30
7.4604093995308505e-79
10
-48.111014391430587
20
-20.070942057305505
30
7.4549491617439968e-79
10
-48.093283997529561
20
-20.069975315014119
30
7.4522017828574418e-79
0
SPLINE
5
228
100
AcDbEntity
8
0
100
AcDbSpline
70
0
71
3
72
9
73
5
74
0
42
0.000000001
43
0.0000000001
44
0.0000000001
40
0
40
0
40
0
40
0
40
0.23089461616317877
40
0.45274934845254022
40
0.45274934845254022
40
0.45274934845254022
40
0.45274934845254022
10
-48.093283997529561
20
-20.069975315014119
30
7.4522017828574418e-79
10
-48.062347363087028
20
-20.072356378922802
30
7.4474080565159396e-79
10
-48.001685311628563
20
-20.077025284379296
30
7.4380082856861121e-79
10
-47.95351721823387
20
-20.114085989028577
30
7.4305444919578406e-79
10
-47.929914049059818
20
-20.132246352453784
30
7.4268871085400438e-79
0
SPLINE
5
229
100
AcDbEntity
8
0
100
AcDbSpline
70
0
71
3
72
9
73
5
74
0
42
0.000000001
43
0.0000000001
44
0.0000000001
40
0
40
0
40
0
40
0
40
0.032082066028933397
40
0.085343033751104774
40
0.085343033751104774
40
0.085343033751104774
40
0.085343033751104774
10
-47.433210709685845
20
-20.578400212846315
30
7.3499214034860051e-79
10
-47.429218624795283
20
-20.576639393168033
30
7.3493028176946856e-79
10
-47.418599089406094
20
-20.571955352773074
30
7.3476572881325014e-79
10
-47.414965526296946
20
-20.560586741683974
30
7.3470942563902425e-79
10
-47.412697888518373
20
-20.553491807257007
30
7.3467428789651277e-79
0
SPLINE
5
230
100
AcDbEntity
8
0
100
AcDbSpline
70
0
71
3
72
9
73
5
74
0
42
0.000000001
43
0.0000000001
44
0.0000000001
40
0
40
0
40
0
40
0
40
0.070405467954625142
40
0.1492224084980214
40
0.1492224084980214
40
0.1492224084980214
40
0.1492224084980214
10
-47.412697888518373
20
-20.553491807257007
30
7.3467428789651277e-79
10
-47.410135989854645
20
-20.544574532773638
30
7.3463459049138179e-79
10
-47.404706117714959
20
-20.525674620390351
30
7.3455045295807838e-79
10
-47.404183014568872
20
-20.506005353269536
30
7.3454234731447516e-79
10
-47.403906719674701
20
-20.495616354239182
30
7.345380660403934e-79
0
LINE
5
231
100
AcDbEntity
8
0
100
AcDbLine
10
-47.403906719674701
20
-20.495616354239182
30
7.345380660403934e-79
11
-47.326983593363892
21
-20.495616354239182
31
7.3334611861782625e-79
0
SPLINE
5
232
100
AcDbEntity
8
0
100
AcDbSpline
70
0
71
3
72
9
73
5
74
0
42
0.000000001
43
0.0000000001
44
0.0000000001
40
0
40
0
40
0
40
0
40
0.19498153780139957
40
0.36607517829727587
40
0.36607517829727587
40
0.36607517829727587
40
0.36607517829727587
10
-47.326983593363892
20
-20.495616354239182
30
7.3334611861782625e-79
10
-47.330731453666118
20
-20.521019559887069
30
7.3340419286209614e-79
10
-47.337768010274708
20
-20.56871373207246
30
7.3351322646376583e-79
10
-47.354882314347833
20
-20.613757998720224
30
7.3377841785167912e-79
10
-47.362881077339757
20
-20.634810471056866
30
7.3390236113621781e-79
0
SPLINE
5
233
100
AcDbEntity
8
0
100
AcDbSpline
70
0
71
3
72
9
73
5
74
0
42
0.000000001
43
0.0000000001
44
0.0000000001
40
0
40
0
40
0
40
0
40
0.17210100514468424
40
0.32933813355064967
40
0.32933813355064967
40
0.32933813355064967
40
0.32933813355064967
10
-47.362881077339757
20
-20.634810471056866
30
7.3390236113621781e-79
10
-47.373060339377673
20
-20.655248400344458
30
7.3406009192189479e-79
10
-47.392539709400367
20
-20.694359092809957
30
7.3436193073169509e-79
10
-47.425274429171523
20
-20.72322617273305
30
7.3486916524920588e-79
10
-47.440903088022836
20
-20.737008289925608
30
7.3511133610899034e-79
0
SPLINE
5
234
100
AcDbEntity
8
0
100
AcDbSpline
70
0
71
3
72
9
73
5
74
0
42
0.000000001
43
0.0000000001
44
0.0000000001
40
0
40
0
40
0
40
0
40
0.14805855762721032
40
0.29524652577182997
40
0.29524652577182997
40
0.29524652577182997
40
0.29524652577182997
10
-47.440903088022836
20
-20.737008289925608
30
7.3511133610899034e-79
10
-47.457585821514279
20
-20.747585185028601
30
7.3536984017844478e-79
10
-47.490853193442405
20
-20.768676782722505
30
7.358853283044095e-79
10
-47.530119149875389
20
-20.771743292079549
30
7.3649376633611157e-79
10
-47.549694236591534
20
-20.773272025670504
30
7.3679708830541852e-79
0
SPLINE
5
235
100
AcDbEntity
8
0
100
AcDbSpline
70
0
71
3
72
9
73
5
74
0
42
0.000000001
43
0.0000000001
44
0.0000000001
40
0
40
0
40
0
40
0
40
0.14569686747344668
40
0.28564920644719805
40
0.28564920644719805
40
0.28564920644719805
40
0.28564920644719805
10
-47.549694236591534
20
-20.773272025670504
30
7.3679708830541852e-79
10
-47.569222534805625
20
-20.771760350864998
30
7.3709968527254325e-79
10
-47.607509170509282
20
-20.768796603489463
30
7.3769294842933874e-79
10
-47.637789171317671
20
-20.745248741869382
30
7.3816214632404023e-79
10
-47.652624699796711
20
-20.733711589876034
30
7.3839202738557643e-79
0
SPLINE
5
236
100
AcDbEntity
8
0
100
AcDbSpline
70
0
71
3
72
9
73
5
74
0
42
0.000000001
43
0.0000000001
44
0.0000000001
40
0
40
0
40
0
40
0
40
0.13744659122800951
40
0.27671847898712409
40
0.27671847898712409
40
0.27671847898712409
40
0.27671847898712409
10
-47.652624699796711
20
-20.733711589876034
30
7.3839202738557643e-79
10
-47.664697213265917
20
-20.719667470714722
30
7.3857909468254753e-79
10
-47.689002563692618
20
-20.691392725897042
30
0
10
-47.692337924726132
20
-20.654241322884786
30
0
10
-47.694016605633877
20
-20.635543091926902
30
0
0
SPLINE
5
237
100
AcDbEntity
8
0
100
AcDbSpline
70
0
71
3
72
9
73
5
74
0
42
0.000000001
43
0.0000000001
44
0.0000000001
40
0
40
0
40
0
40
0
40
0.15329360643450871
40
0.30949606001966179
40
0.30949606001966179
40
0.30949606001966179
40
0.30949606001966179
10
-47.694016605633877
20
-20.635543091926902
30
0
10
-47.691800633320632
20
-20.614904063163504
30
0
10
-47.68732663915992
20
-20.573234366471805
30
7.3892974457370702e-79
10
-47.657691425261838
20
-20.543559991732039
30
7.3847053784983677e-79
10
-47.642734552715197
20
-20.528583354734913
30
7.3823877652477574e-79
0
SPLINE
5
238
100
AcDbEntity
8
0
100
AcDbSpline
70
0
71
3
72
9
73
5
74
0
42
0.000000001
43
0.0000000001
44
0.0000000001
40
0
40
0
40
0
40
0
40
0.1120141522725888
40
0.21657785300957105
40
0.21657785300957105
40
0.21657785300957105
40
0.21657785300957105
10
-47.642734552715197
20
-20.528583354734913
30
7.3823877652477574e-79
10
-47.630566803021075
20
-20.519825744240038
30
7.3805023351330546e-79
10
-47.607040623058595
20
-20.502893022436645
30
7.3768568814295975e-79
10
-47.578247558549187
20
-20.499961892306999
30
7.3723953078202343e-79
10
-47.564346278529896
20
-20.498546743853737
30
7.3702412618676004e-79
0
SPLINE
5
239
100
AcDbEntity
8
0
100
AcDbSpline
70
0
71
3
72
9
73
5
74
0
42
0.000000001
43
0.0000000001
44
0.0000000001
40
0
40
0
40
0
40
0
40
0.075992994728553948
40
0.15512260995440602
40
0.15512260995440602
40
0.15512260995440602
40
0.15512260995440602
10
-47.564346278529896
20
-20.498546743853737
30
7.3702412618676004e-79
10
-47.554302736023459
20
-20.499238069196252
30
7.368684984168275e-79
10
-47.533801102519568
20
-20.500649254422495
30
7.3655081932101661e-79
10
-47.515217757331293
20
-20.509444709147854
30
7.362628646906971e-79
10
-47.505738204642036
20
-20.513931359729341
30
7.3611597611586988e-79
0
SPLINE
5
240
100
AcDbEntity
8
0
100
AcDbSpline
70
0
71
3
72
9
73
5
74
0
42
0.000000001
43
0.0000000001
44
0.0000000001
40
0
40
0
40
0
40
0
40
0.080262956218282916
40
0.15930894075106
40
0.15930894075106
40
0.15930894075106
40
0.15930894075106
10
-47.505738204642036
20
-20.513931359729341
30
7.3611597611586988e-79
10
-47.496665512626798
20
-20.519453829325972
30
7.3597539197190771e-79
10
-47.478657691549571
20
-20.530415035132748
30
7.3569635526411296e-79
10
-47.465420044811353
20
-20.546818114494986
30
7.3549123386997304e-79
10
-47.458851783077975
20
-20.554957002064288
30
7.3538945664094821e-79
0
SPLINE
5
241
100
AcDbEntity
8
0
100
AcDbSpline
70
0
71
3
72
9
73
5
74
0
42
0.000000001
43
0.0000000001
44
0.0000000001
40
0
40
0
40
0
40
0
40
0.058432291607143687
40
0.089656398242308408
40
0.089656398242308408
40
0.089656398242308408
40
0.089656398242308408
10
-47.458851783077975
20
-20.554957002064288
30
7.3538945664094821e-79
10
-47.454491855114441
20
-20.561536284549639
30
7.3532189822064013e-79
10
-47.447802139084907
20
-20.571631298016182
30
7.3521823902006512e-79
10
-47.43697975704363
20
-20.576651764503261
30
7.3505054289279099e-79
10
-47.433210709685845
20
-20.578400212846315
30
7.3499214034860051e-79
0
LWPOLYLINE
5
242
100
AcDbEntity
8
0
100
AcDbPolyline
90
30
70
1
43
0.0
10
-48.466525678077545
20
-25.784793411227952
42
0.99999999999999989
10
-48.341525678077552
20
-25.784793411227952
10
-48.341525678077552
20
-25.666683175007481
42
0.99999999999999989
10
-48.466525678077545
20
-25.666683175007481
10
-49.214999999999996
20
-25.666683175007481
10
-49.214999999999996
20
-25.245263804715098
10
-48.749940975734425
20
-25.245263804715098
42
2.4142135623730949
10
-48.687440975734432
20
-25.182763804715094
10
-48.687440975734432
20
-24.557763804715098
42
2.4142135623731704
10
-48.749940975734425
20
-24.495263804715098
10
-49.214999999999996
20
-24.495263804715098
10
-49.214999999999996
20
-23.200000000000006
10
-48.284999999999997
20
-23.200000000000006
10
-46.784999999999997
20
-24.700000000000003
10
-46.784999999999997
20
-28.100000000000009
10
-48.284999999999997
20
-29.600000000000009
10
-49.214999999999996
20
-29.600000000000009
10
-49.214999999999996
20
-28.310543490181779
10
-48.749940975734425
20
-28.310543490181779
42
2.4142135623730949
10
-48.687440975734432
20
-28.248043490181779
10
-48.687440975734432
20
-27.623043490181779
42
2.4142135623730949
10
-48.749940975734425
20
-27.560543490181779
10
-49.214999999999996
20
-27.560543490181779
10
-49.214999999999996
20
-27.139124119889374
10
-48.466525678077545
20
-27.139124119889374
42
0.99999999999999989
10
-48.341525678077552
20
-27.139124119889367
10
-48.341525678077552
20
-27.021013883668896
42
0.99999999999999989
10
-48.466525678077545
20
-27.021013883668896
10
-49.214999999999996
20
-27.021013883668896
10
-49.214999999999996
20
-25.784793411227952
0
SPLINE
5
243
100
AcDbEntity
8
0
100
AcDbSpline
70
0
71
3
72
9
73
5
74
0
42
0.000000001
43
0.0000000001
44
0.0000000001
40
0
40
0
40
0
40
0
40
0.04764420633053864
40
0.10944578994431675
40
0.10944578994431675
40
0.10944578994431675
40
0.10944578994431675
10
-47.310887165517968
20
-27.914750555375331
30
0
10
-47.316374095625235
20
-27.911558989179063
30
0
10
-47.328978385762689
20
-27.90422748949813
30
0
10
-47.343635988331577
20
-27.903929686562208
30
0
10
-47.351912807852919
20
-27.903761523921563
30
0
0
LINE
5
244
100
AcDbEntity
8
0
100
AcDbLine
10
-47.351912807852919
20
-27.903761523921563
30
0
11
-48.025172895894926
21
-27.903761523921563
31
1.0432371448560593e-80
0
LINE
5
245
100
AcDbEntity
8
0
100
AcDbLine
10
-48.025172895894926
20
-27.903761523921563
30
1.0432371448560593e-80
11
-48.18414721301005
21
-27.788743238755941
31
2.4633557764421294e-81
0
SPLINE
5
246
100
AcDbEntity
8
0
100
AcDbSpline
70
0
71
3
72
9
73
5
74
0
42
0.000000001
43
0.0000000001
44
0.0000000001
40
0
40
0
40
0
40
0
40
0.052714382856634573
40
0.089516056624802554
40
0.089516056624802554
40
0.089516056624802554
40
0.089516056624802554
10
-48.18414721301005
20
-27.788743238755941
30
0
10
-48.18986469456096
20
-27.784701253856209
30
0
10
-48.199573741210607
20
-27.777837424108935
30
0
10
-48.206033626196948
20
-27.767914344260809
30
0
10
-48.208689402029918
20
-27.763834786233843
30
0
0
SPLINE
5
247
100
AcDbEntity
8
0
100
AcDbSpline
70
0
71
3
72
9
73
5
74
0
42
0.000000001
43
0.0000000001
44
0.0000000001
40
0
40
0
40
0
40
0
40
0.040569280045423962
40
0.10344422856846294
40
0.10344422856846294
40
0.10344422856846294
40
0.10344422856846294
10
-48.208689402029918
20
-27.763834786233843
30
0
10
-48.210063110009209
20
-27.758670762916061
30
0
10
-48.213565813582861
20
-27.745503449919156
30
0
10
-48.213494588535383
20
-27.73184411358671
30
0
10
-48.213451296886774
20
-27.723541764768932
30
0
0
LINE
5
248
100
AcDbEntity
8
0
100
AcDbLine
10
-48.213451296886774
20
-27.723541764768932
30
0
11
-48.213451296886774
21
-27.659805485589199
31
2.5568015460732093e-193
0
SPLINE
5
249
100
AcDbEntity
8
0
100
AcDbSpline
70
0
71
3
72
9
73
5
74
0
42
0.000000001
43
0.0000000001
44
0.0000000001
40
0
40
0
40
0
40
0
40
0.053839002931237834
40
0.085968169668920985
40
0.085968169668920985
40
0.085968169668920985
40
0.085968169668920985
10
-48.213451296886774
20
-27.659805485589199
30
0
10
-48.213658458331828
20
-27.652412220635181
30
0
10
-48.213989246223285
20
-27.640606922963045
30
0
10
-48.206664870279234
20
-27.631650824934365
30
0
10
-48.20392750717307
20
-27.628303632967956
30
0
0
SPLINE
5
250
100
AcDbEntity
8
0
100
AcDbSpline
70
0
71
3
72
9
73
5
74
0
42
0.000000001
43
0.0000000001
44
0.0000000001
40
0
40
0
40
0
40
0
40
0.032723300915724972
40
0.079327013913462363
40
0.079327013913462363
40
0.079327013913462363
40
0.079327013913462363
10
-48.20392750717307
20
-27.628303632967956
30
0
10
-48.199803991008338
20
-27.627031127063574
30
0
10
-48.189807865464196
20
-27.62394634983276
30
0
10
-48.179319859134552
20
-27.623922222864127
30
0
10
-48.173158275421862
20
-27.623908048546124
30
0
0
LINE
5
251
100
AcDbEntity
8
0
100
AcDbLine
10
-48.173158275421869
20
-27.623908048546124
30
0
11
-47.517480618932765
21
-27.623908048546124
31
-1.0159926281845948e-80
0
LINE
5
252
100
AcDbEntity
8
0
100
AcDbLine
10
-47.517480618932765
20
-27.623908048546124
30
-1.0159926281845948e-80
11
-47.517480618932765
21
-27.532332974162532
31
3.6735638600033005e-193
0
SPLINE
5
253
100
AcDbEntity
8
0
100
AcDbSpline
70
0
71
3
72
9
73
5
74
0
42
0.000000001
43
0.0000000001
44
0.0000000001
40
0
40
0
40
0
40
0
40
0.073265887132613519
40
0.14417839462777868
40
0.14417839462777868
40
0.14417839462777868
40
0.14417839462777868
10
-47.517480618932765
20
-27.532332974162532
30
0
10
-47.516113485351134
20
-27.521650039977672
30
0
10
-47.513423131999041
20
-27.500627319022971
30
0
10
-47.492571429238446
20
-27.497326424008893
30
0
10
-47.482315755826932
20
-27.495702916249417
30
0
0
SPLINE
5
254
100
AcDbEntity
8
0
100
AcDbSpline
70
0
71
3
72
9
73
5
74
0
42
0.000000001
43
0.0000000001
44
0.0000000001
40
0
40
0
40
0
40
0
40
0.075793573554239088
40
0.15746922814729569
40
0.15746922814729569
40
0.15746922814729569
40
0.15746922814729569
10
-47.482315755826932
20
-27.495702916249417
30
0
10
-47.471422509471964
20
-27.497653933370952
30
0
10
-47.44879062902227
20
-27.501707379406316
30
0
10
-47.446263755143001
20
-27.524767701629322
30
0
10
-47.444953123976575
20
-27.536728558584365
30
0
0
LINE
5
255
100
AcDbEntity
8
0
100
AcDbLine
10
-47.444953123976575
20
-27.536728558584365
30
0
11
-47.444953123976575
21
-27.623908048546124
31
-3.497233562874601e-193
0
LINE
5
256
100
AcDbEntity
8
0
100
AcDbLine
10
-47.444953123976575
20
-27.623908048546124
30
-3.497233562874601e-193
11
-47.351912807852919
21
-27.623908048546124
31
-1.4416882193571768e-81
0
SPLINE
5
257
100
AcDbEntity
8
0
100
AcDbSpline
70
0
71
3
72
9
73
5
74
0
42
0.000000001
43
0.0000000001
44
0.0000000001
40
0
40
0
40
0
40
0
40
0.061801583613778105
40
0.10944578994431675
40
0.10944578994431675
40
0.10944578994431675
40
0.10944578994431675
10
-47.351912807852919
20
-27.623908048546124
30
0
10
-47.343635988331577
20
-27.623739885905479
30
0
10
-47.328978385762689
20
-27.623442082969554
30
0
10
-47.316374095625235
20
-27.61611058328862
30
0
10
-47.310887165517968
20
-27.612919017092352
30
0
0
SPLINE
5
258
100
AcDbEntity
8
0
100
AcDbSpline
70
0
71
3
72
9
73
5
74
0
42
0.000000001
43
0.0000000001
44
0.0000000001
40
0
40
0
40
0
40
0
40
0.019907266471197657
40
0.035428993947291487
40
0.035428993947291487
40
0.035428993947291487
40
0.035428993947291487
10
-47.310887165517968
20
-27.612919017092352
30
0
10
-47.308943190939367
20
-27.61113272537321
30
0
10
-47.30548349627567
20
-27.607953659146457
30
0
10
-47.303382655453809
20
-27.603765081958393
30
0
10
-47.302462260176526
20
-27.601930032571374
30
0
0
SPLINE
5
259
100
AcDbEntity
8
0
100
AcDbSpline
70
0
71
3
72
9
73
5
74
0
42
0.000000001
43
0.0000000001
44
0.0000000001
40
0
40
0
40
0
40
0
40
0.029075145721435547
40
0.088708414487430706
40
0.088708414487430706
40
0.088708414487430706
40
0.088708414487430706
10
-47.302462260176526
20
-27.601930032571374
30
0
10
-47.301377330368993
20
-27.59827160400615
30
0
10
-47.298067204119647
20
-27.587109720222458
30
0
10
-47.295219300276806
20
-27.575819882243191
30
0
10
-47.293304827830639
20
-27.568230411205608
30
0
0
SPLINE
5
260
100
AcDbEntity
8
0
100
AcDbSpline
70
0
71
3
72
9
73
5
74
0
42
0.000000001
43
0.0000000001
44
0.0000000001
40
0
40
0
40
0
40
0
40
0.075964747872578911
40
0.14613621626980561
40
0.14613621626980561
40
0.14613621626980561
40
0.14613621626980561
10
-47.293304827830639
20
-27.568230411205608
30
0
10
-47.289838528462816
20
-27.557978812349322
30
0
10
-47.283170279199076
20
-27.538257429608919
30
0
10
-47.262795326583372
20
-27.534749824596016
30
0
10
-47.25301171250014
20
-27.533065548099774
30
0
0
SPLINE
5
261
100
AcDbEntity
8
0
100
AcDbSpline
70
0
71
3
72
9
73
5
74
0
42
0.000000001
43
0.0000000001
44
0.0000000001
40
0
40
0
40
0
40
0
40
0.045370746212208594
40
0.095388125711530533
40
0.095388125711530533
40
0.095388125711530533
40
0.095388125711530533
10
-47.25301171250014
20
-27.533065548099774
30
0
10
-47.246882834055484
20
-27.534003062855184
30
0
10
-47.233997389658882
20
-27.535974107698195
30
0
10
-47.226285998489722
20
-27.546561570166734
30
0
10
-47.222242480748932
20
-27.552113174459969
30
0
0
SPLINE
5
262
100
AcDbEntity
8
0
100
AcDbSpline
70
0
71
3
72
9
73
5
74
0
42
0.000000001
43
0.0000000001
44
0.0000000001
40
0
40
0
40
0
40
0
40
0.050319219994642825
40
0.12217746837403685
40
0.12217746837403685
40
0.12217746837403685
40
0.12217746837403685
10
-47.222242480748932
20
-27.552113174459969
30
0
10
-47.219697735464052
20
-27.558266864738531
30
0
10
-47.213518972426854
20
-27.57320831851052
30
0
10
-47.213476368975414
20
-27.589448208668816
30
0
10
-47.213451311905267
20
-27.598999642956816
30
0
0
LINE
5
263
100
AcDbEntity
8
0
100
AcDbLine
10
-47.213451311905267
20
-27.598999642956816
30
0
11
-47.213451311905267
21
-27.928669952977263
31
-1.3224831590463632e-192
0
SPLINE
5
264
100
AcDbEntity
8
0
100
AcDbSpline
70
0
71
3
72
9
73
5
74
0
42
0.000000001
43
0.0000000001
44
0.0000000001
40
0
40
0
40
0
40
0
40
0.071394449185426145
40
0.120399792850828
40
0.120399792850828
40
0.120399792850828
40
0.120399792850828
10
-47.213451311905267
20
-27.928669952977263
30
0
10
-47.213451774793498
20
-27.938169362577586
30
0
10
-47.213452555409482
20
-27.954189192706298
30
0
10
-47.219699740186805
20
-27.968854642453227
30
0
10
-47.222242480748932
20
-27.974823800604078
30
0
0
SPLINE
5
265
100
AcDbEntity
8
0
100
AcDbSpline
70
0
71
3
72
9
73
5
74
0
42
0.000000001
43
0.0000000001
44
0.0000000001
40
0
40
0
40
0
40
0
40
0.050017336258374546
40
0.095388098360392776
40
0.095388098360392776
40
0.095388098360392776
40
0.095388098360392776
10
-47.222242480748932
20
-27.974823800604078
30
0
10
-47.226286000778529
20
-27.980375392864591
30
0
10
-47.233997400768196
20
-27.990962838502778
30
0
10
-47.246882834990842
20
-27.992933902500763
30
0
10
-47.25301171250014
20
-27.993871426964272
30
0
0
SPLINE
5
266
100
AcDbEntity
8
0
100
AcDbSpline
70
0
71
3
72
9
73
5
74
0
42
0.000000001
43
0.0000000001
44
0.0000000001
40
0
40
0
40
0
40
0
40
0.070171411495662347
40
0.14613626449208283
40
0.14613626449208283
40
0.14613626449208283
40
0.14613626449208283
10
-47.25301171250014
20
-27.993871426964272
30
0
10
-47.26279532766965
20
-27.992187177337225
30
0
10
-47.283170305792893
20
-27.988679624279314
30
0
10
-47.28983853515507
20
-27.968958212223669
30
0
10
-47.293304827830639
20
-27.958706587324833
30
0
0
SPLINE
5
267
100
AcDbEntity
8
0
100
AcDbSpline
70
0
71
3
72
9
73
5
74
0
42
0.000000001
43
0.0000000001
44
0.0000000001
40
0
40
0
40
0
40
0
40
0.058509061846143323
40
0.087807554171451543
40
0.087807554171451543
40
0.087807554171451543
40
0.087807554171451543
10
-47.293304827830639
20
-27.958706587324833
30
0
10
-47.295239135297486
20
-27.95127514918477
30
0
10
-47.298142049860125
20
-27.940122408285045
30
0
10
-47.301381396697778
20
-27.929063310170413
30
0
10
-47.302462260176526
20
-27.925373252927692
30
0
0
SPLINE
5
268
100
AcDbEntity
8
0
100
AcDbSpline
70
0
71
3
72
9
73
5
74
0
42
0.000000001
43
0.0000000001
44
0.0000000001
40
0
40
0
40
0
40
0
40
0.015724243766998589
40
0.034805945542847994
40
0.034805945542847994
40
0.034805945542847994
40
0.034805945542847994
10
-47.302462260176526
20
-27.925373252927692
30
0
10
-47.30336190386793
20
-27.923489333985845
30
0
10
-47.305353284171801
20
-27.919319239635445
30
0
10
-47.308927609316044
20
-27.916368333751219
30
0
10
-47.310887165517968
20
-27.914750555375331
30
0
0
LINE
5
269
100
AcDbEntity
8
0
100
AcDbLine
10
-47.555575871653154
20
-28.24661869280629
30
0
11
-47.570960440595968
21
-28.235629678952314
31
2.3838861182783158e-82
0
LINE
5
270
100
AcDbEntity
8
0
100
AcDbLine
10
-47.570960440595968
20
-28.235629678952314
30
2.3838861182783158e-82
11
-47.946052000839593
21
-27.961637000405787
31
5.8121587083258473e-81
0
LINE
5
271
100
AcDbEntity
8
0
100
AcDbLine
10
-47.946052000839593
20
-27.961637000405787
30
5.8121587083258473e-81
11
-47.837627115773117
21
-27.961637000405787
31
-1.6800768311850082e-81
0
LINE
5
272
100
AcDbEntity
8
0
100
AcDbLine
10
-47.837627115773117
20
-27.961637000405787
30
-1.6800768311850082e-81
11
-47.517480618932765
21
-28.191673641136216
31
-4.960768107771072e-81
0
LINE
5
273
100
AcDbEntity
8
0
100
AcDbLine
10
-47.517480618932765
20
-28.191673641136216
30
-4.960768107771072e-81
11
-47.517480618932765
21
-27.961637000405787
31
9.2279945776956305e-193
0
LINE
5
274
100
AcDbEntity
8
0
100
AcDbLine
10
-47.517480618932765
20
-27.961637000405787
30
9.2279945776956305e-193
11
-47.444953123976575
21
-27.961637000405787
31
-1.1238357672694199e-81
0
LINE
5
275
100
AcDbEntity
8
0
100
AcDbLine
10
-47.444953123976575
20
-27.961637000405787
30
-1.1238357672694199e-81
11
-47.444953123976575
21
-28.217314661728956
31
-1.0256592449082936e-192
0
SPLINE
5
276
100
AcDbEntity
8
0
100
AcDbSpline
70
0
71
3
72
9
73
5
74
0
42
0.000000001
43
0.0000000001
44
0.0000000001
40
0
40
0
40
0
40
0
40
0.06749307507788295
40
0.11290986350952392
40
0.11290986350952392
40
0.11290986350952392
40
0.11290986350952392
10
-47.444953123976575
20
-28.217314661728956
30
0
10
-47.444926428684845
20
-28.226346149644243
30
0
10
-47.444881769855144
20
-28.241455019207908
30
0
10
-47.451724498906103
20
-28.254802800690225
30
0
10
-47.454476913690279
20
-28.260171803439601
30
0
0
SPLINE
5
277
100
AcDbEntity
8
0
100
AcDbSpline
70
0
71
3
72
9
73
5
74
0
42
0.000000001
43
0.0000000001
44
0.0000000001
40
0
40
0
40
0
40
0
40
0.040657344645804484
40
0.096022631290650501
40
0.096022631290650501
40
0.096022631290650501
40
0.096022631290650501
10
-47.454476913690279
20
-28.260171803439601
30
0
10
-47.458831100549318
20
-28.263464516726756
30
0
10
-47.469114617167989
20
-28.271241094284218
30
0
10
-47.482134625021295
20
-28.271422512707087
30
0
10
-47.489641776796113
20
-28.271527115995394
30
0
0
SPLINE
5
278
100
AcDbEntity
8
0
100
AcDbSpline
70
0
71
3
72
9
73
5
74
0
42
0.000000001
43
0.0000000001
44
0.0000000001
40
0
40
0
40
0
40
0
40
0.083389329940489851
40
0.18125866960463013
40
0.18125866960463013
40
0.18125866960463013
40
0.18125866960463013
10
-47.489641776796113
20
-28.271527115995394
30
0
10
-47.500656562318561
20
-28.270194427201957
30
0
10
-47.524598778561369
20
-28.26729763695473
30
0
10
-47.544714519352652
20
-28.253869253629841
30
0
10
-47.555575871653154
20
-28.24661869280629
30
0
0
LWPOLYLINE
5
279
100
AcDbEntity
8
0
100
AcDbPolyline
90
30
70
1
43
0.0
10
-48.563598153168961
20
-33.18479341122795
42
0.99999999999999989
10
-48.438598153168961
20
-33.18479341122795
10
-48.438598153168961
20
-33.066683175007483
42
0.99999999999999989
10
-48.563598153168961
20
-33.066683175007483
10
-49.119999999999997
20
-33.066683175007483
10
-49.119999999999997
20
-32.6452638047151
10
-48.654940975734426
20
-32.6452638047151
42
2.4142135623730949
10
-48.592440975734434
20
-32.5827638047151
10
-48.592440975734434
20
-31.9577638047151
42
2.4142135623730949
10
-48.654940975734426
20
-31.8952638047151
10
-49.119999999999997
20
-31.895263804715093
10
-49.119999999999997
20
-30.600000000000005
10
-48.380000000000003
20
-30.600000000000005
10
-46.880000000000003
20
-32.100000000000009
10
-46.880000000000003
20
-35.500000000000007
10
-48.380000000000003
20
-37.000000000000007
10
-49.119999999999997
20
-37.000000000000007
10
-49.119999999999997
20
-35.710543490181777
10
-48.654940975734426
20
-35.710543490181777
42
2.4142135623730949
10
-48.592440975734434
20
-35.648043490181784
10
-48.592440975734434
20
-35.023043490181777
42
2.4142135623730949
10
-48.654940975734426
20
-34.960543490181777
10
-49.119999999999997
20
-34.960543490181777
10
-49.119999999999997
20
-34.539124119889372
10
-48.563598153168961
20
-34.539124119889372
42
0.99999999999999989
10
-48.438598153168961
20
-34.539124119889372
10
-48.438598153168961
20
-34.421013883668898
42
0.99999999999999989
10
-48.563598153168961
20
-34.421013883668898
10
-49.119999999999997
20
-34.421013883668898
10
-49.119999999999997
20
-33.18479341122795
0
SPLINE
5
280
100
AcDbEntity
8
0
100
AcDbSpline
70
0
71
3
72
9
73
5
74
0
42
0.000000001
43
0.0000000001
44
0.0000000001
40
0
40
0
40
0
40
0
40
0.19000279671767126
40
0.42650822001677396
40
0.42650822001677396
40
0.42650822001677396
40
0.42650822001677396
10
-47.97857907198145
20
-35.134340389700888
30
0
10
-47.974318666880812
20
-35.158948662716682
30
0
10
-47.964755135041223
20
-35.214188011310327
30
0
10
-47.964222455849658
20
-35.27027324187236
30
0
10
-47.963927076975878
20
-35.301373372121617
30
0
0
SPLINE
5
281
100
AcDbEntity
8
0
100
AcDbSpline
70
0
71
3
72
9
73
5
74
0
42
0.000000001
43
0.0000000001
44
0.0000000001
40
0
40
0
40
0
40
0
40
0.23464601820672165
40
0.46706806093894515
40
0.46706806093894515
40
0.46706806093894515
40
0.46706806093894515
10
-47.963927076975878
20
-35.301373372121617
30
0
10
-47.96452587146576
20
-35.332192493115024
30
0
10
-47.965717785070041
20
-35.393538631405562
30
0
10
-47.974305606838158
20
-35.454291666570825
30
0
10
-47.97857907198145
20
-35.484523544355199
30
0
0
LINE
5
282
100
AcDbEntity
8
0
100
AcDbLine
10
-47.97857907198145
20
-35.484523544355199
30
0
11
-48.221069962439323
21
-35.464010723187727
31
3.7574706819556854e-81
0
SPLINE
5
283
100
AcDbEntity
8
0
100
AcDbSpline
70
0
71
3
72
9
73
5
74
0
42
0.000000001
43
0.0000000001
44
0.0000000001
40
0
40
0
40
0
40
0
40
0.049219106471450558
40
0.073166788678632022
40
0.073166788678632022
40
0.073166788678632022
40
0.073166788678632022
10
-48.221069962439323
20
-35.464010723187727
30
0
10
-48.220304796035983
20
-35.457596748806161
30
0
10
-48.219167335960996
20
-35.448062038775646
30
0
10
-48.217841049122327
20
-35.438551975737433
30
0
10
-48.217406951954729
20
-35.435439307113832
30
0
0
LINE
5
284
100
AcDbEntity
8
0
100
AcDbLine
10
-48.217406951954729
20
-35.435439307113832
30
0
11
-48.197626751657296
21
-35.287453951053294
31
-3.0650026712548577e-82
0
SPLINE
5
285
100
AcDbEntity
8
0
100
AcDbSpline
70
0
71
3
72
9
73
5
74
0
42
0.000000001
43
0.0000000001
44
0.0000000001
40
0
40
0
40
0
40
0
40
0.21964455883466591
40
0.47746067218846966
40
0.47746067218846966
40
0.47746067218846966
40
0.47746067218846966
10
-48.197626751657296
20
-35.287453951053294
30
0
10
-48.194427037245156
20
-35.258788176604682
30
0
10
-48.187471536948976
20
-35.196474864544278
30
0
10
-48.186930088189008
20
-35.13376812532136
30
0
10
-48.186637720203521
20
-35.099908147465086
30
0
0
SPLINE
5
286
100
AcDbEntity
8
0
100
AcDbSpline
70
0
71
3
72
9
73
5
74
0
42
0.000000001
43
0.0000000001
44
0.0000000001
40
0
40
0
40
0
40
0
40
0.1684671525720001
40
0.30224469412334931
40
0.30224469412334931
40
0.30224469412334931
40
0.30224469412334931
10
-48.186637720203521
20
-35.099908147465086
30
0
10
-48.186775578210522
20
-35.077776757184175
30
0
10
-48.187022907440721
20
-35.038071122086428
30
0
10
-48.19183419915165
20
-34.998667445679182
30
0
10
-48.193963741172702
20
-34.981226851814874
30
0
0
SPLINE
5
287
100
AcDbEntity
8
0
100
AcDbSpline
70
0
71
3
72
9
73
5
74
0
42
0.000000001
43
0.0000000001
44
0.0000000001
40
0
40
0
40
0
40
0
40
0.1211000508945361
40
0.251884495423914
40
0.251884495423914
40
0.251884495423914
40
0.251884495423914
10
-48.193963741172702
20
-34.981226851814874
30
0
10
-48.197043514694712
20
-34.965607153000185
30
0
10
-48.203449351801162
20
-34.933118645146159
30
0
10
-48.215047781034002
20
-34.902096275228303
30
0
10
-48.221069962439323
20
-34.885988720013899
30
0
0
SPLINE
5
288
100
AcDbEntity
8
0
100
AcDbSpline
70
0
71
3
72
9
73
5
74
0
42
0.000000001
43
0.0000000001
44
0.0000000001
40
0
40
0
40
0
40
0
40
0.1237339230935353
40
0.22735709148773992
40
0.22735709148773992
40
0.22735709148773992
40
0.22735709148773992
10
-48.221069962439323
20
-34.885988720013899
30
0
10
-48.205563829487325
20
-34.890918719034573
30
0
10
-48.177071810483596
20
-34.89997743317177
30
0
10
-48.15042908523705
20
-34.913517290300497
30
0
10
-48.138286056899396
20
-34.919688388312458
30
0
0
SPLINE
5
289
100
AcDbEntity
8
0
100
AcDbSpline
70
0
71
3
72
9
73
5
74
0
42
0.000000001
43
0.0000000001
44
0.0000000001
40
0
40
0
40
0
40
0
40
0.099480204063508257
40
0.21116835982597632
40
0.21116835982597632
40
0.21116835982597632
40
0.21116835982597632
10
-48.138286056899396
20
-34.919688388312458
30
0
10
-48.127227614949881
20
-34.926690675301138
30
0
10
-48.10375366783957
20
-34.941554551711036
30
0
10
-48.08369416757013
20
-34.960794383781518
30
0
10
-48.073084582912387
20
-34.970970441231138
30
0
0
SPLINE
5
290
100
AcDbEntity
8
0
100
AcDbSpline
70
0
71
3
72
9
73
5
74
0
42
0.000000001
43
0.0000000001
44
0.0000000001
40
0
40
0
40
0
40
0
40
0.1254234504878734
40
0.25064155061729232
40
0.25064155061729232
40
0.25064155061729232
40
0.25064155061729232
10
-48.073084582912387
20
-34.970970441231138
30
0
10
-48.061793747092402
20
-34.983006693258361
30
0
10
-48.039230561446679
20
-35.007059490881034
30
0
10
-48.021746319641956
20
-35.035022403609609
30
0
10
-48.013011361150035
20
-35.048992404981419
30
0
0
SPLINE
5
291
100
AcDbEntity
8
0
100
AcDbSpline
70
0
71
3
72
9
73
5
74
0
42
0.000000001
43
0.0000000001
44
0.0000000001
40
0
40
0
40
0
40
0
40
0.12108411759817618
40
0.23444945331514466
40
0.23444945331514466
40
0.23444945331514466
40
0.23444945331514466
10
-48.013011361150035
20
-35.048992404981419
30
0
10
-48.005406817343072
20
-35.06301380037042
30
0
10
-47.990682498632907
20
-35.090162765477274
30
0
10
-47.982524013567996
20
-35.119941314793159
30
0
10
-47.97857907198145
20
-35.134340389700888
30
0
0
SPLINE
5
292
100
AcDbEntity
8
0
100
AcDbSpline
70
0
71
3
72
9
73
5
74
0
42
0.000000001
43
0.0000000001
44
0.0000000001
40
0
40
0
40
0
40
0
40
0.030062290260945524
40
0.071378829227879109
40
0.071378829227879109
40
0.071378829227879109
40
0.071378829227879109
10
-47.311912430971375
20
-35.34972501195935
30
0
10
-47.307964471567757
20
-35.348624765125429
30
0
10
-47.298590577642081
20
-35.346012378305069
30
0
10
-47.29403597283865
20
-35.337227560645871
30
0
10
-47.291399609803904
20
-35.332142603872832
30
0
0
SPLINE
5
293
100
AcDbEntity
8
0
100
AcDbSpline
70
0
71
3
72
9
73
5
74
0
42
0.000000001
43
0.0000000001
44
0.0000000001
40
0
40
0
40
0
40
0
40
0.056796621341923162
40
0.12907220010915843
40
0.12907220010915843
40
0.12907220010915843
40
0.12907220010915843
10
-47.291399609803904
20
-35.332142603872832
30
0
10
-47.288630798026304
20
-35.325192125762314
30
0
10
-47.282338581704643
20
-35.309396934422786
30
0
10
-47.280163372162669
20
-35.292512815112495
30
0
10
-47.278945336610057
20
-35.283058343165067
30
0
0
LINE
5
294
100
AcDbEntity
8
0
100
AcDbLine
10
-47.278945336610057
20
-35.283058343165067
30
0
11
-47.198359293680241
21
-35.283058343165067
31
-1.2487054384264854e-81
0
SPLINE
5
295
100
AcDbEntity
8
0
100
AcDbSpline
70
0
71
3
72
9
73
5
74
0
42
0.000000001
43
0.0000000001
44
0.0000000001
40
0
40
0
40
0
40
0
40
0.19104382378222631
40
0.37858919424229576
40
0.37858919424229576
40
0.37858919424229576
40
0.37858919424229576
10
-47.198359293680241
20
-35.283058343165067
30
0
10
-47.201235921738018
20
-35.308137971304383
30
0
10
-47.206936500154889
20
-35.357837961710693
30
0
10
-47.227655783569773
20
-35.403363212556087
30
0
10
-47.237919694275114
20
-35.425915493933736
30
0
0
SPLINE
5
296
100
AcDbEntity
8
0
100
AcDbSpline
70
0
71
3
72
9
73
5
74
0
42
0.000000001
43
0.0000000001
44
0.0000000001
40
0
40
0
40
0
40
0
40
0.16677360258085228
40
0.31683450802642604
40
0.31683450802642604
40
0.31683450802642604
40
0.31683450802642604
10
-47.237919694275114
20
-35.425915493933736
30
0
10
-47.248808709109667
20
-35.445134004484459
30
0
10
-47.269495530072994
20
-35.481645102410695
30
0
10
-47.30151098816291
20
-35.50870407129797
30
0
10
-47.316674325828224
20
-35.521519889236934
30
0
0
SPLINE
5
297
100
AcDbEntity
8
0
100
AcDbSpline
70
0
71
3
72
9
73
5
74
0
42
0.000000001
43
0.0000000001
44
0.0000000001
40
0
40
0
40
0
40
0
40
0.13887848736597003
40
0.27474794437486927
40
0.27474794437486927
40
0.27474794437486927
40
0.27474794437486927
10
-47.316674325828224
20
-35.521519889236934
30
0
10
-47.332429665984918
20
-35.531241772448091
30
0
10
-47.363598980996045
20
-35.550474898315017
30
0
10
-47.40009258410376
20
-35.553404472817526
30
0
10
-47.418139547293329
20
-35.55485321776748
30
0
0
SPLINE
5
298
100
AcDbEntity
8
0
100
AcDbSpline
70
0
71
3
72
9
73
5
74
0
42
0.000000001
43
0.0000000001
44
0.0000000001
40
0
40
0
40
0
40
0
40
0.15062859212715177
40
0.29464821201796348
40
0.29464821201796348
40
0.29464821201796348
40
0.29464821201796348
10
-47.418139547293329
20
-35.55485321776748
30
0
10
-47.438332713151425
20
-35.55331630625026
30
0
10
-47.477833050577722
20
-35.550309916665228
30
0
10
-47.509089151168901
20
-35.526051184079343
30
0
10
-47.524366663615282
20
-35.514193880000953
30
0
0
SPLINE
5
299
100
AcDbEntity
8
0
100
AcDbSpline
70
0
71
3
72
9
73
5
74
0
42
0.000000001
43
0.0000000001
44
0.0000000001
40
0
40
0
40
0
40
0
40
0.14188736466969201
40
0.28745920131550856
40
0.28745920131550856
40
0.28745920131550856
40
0.28745920131550856
10
-47.524366663615282
20
-35.514193880000953
30
0
10
-47.536759248038777
20
-35.499642391321665
30
0
10
-47.561866222355377
20
-35.470161546967155
30
0
10
-47.565179553932047
20
-35.431549532437799
30
0
10
-47.566857453824717
20
-35.411996072865406
30
0
0
SPLINE
5
300
100
AcDbEntity
8
0
100
AcDbSpline
70
0
71
3
72
9
73
5
74
0
42
0.000000001
43
0.0000000001
44
0.0000000001
40
0
40
0
40
0
40
0
40
0.12722753964027181
40
0.25632084834686519
40
0.25632084834686519
40
0.25632084834686519
40
0.25632084834686519
10
-47.566857453824717
20
-35.411996072865406
30
0
10
-47.565224401436026
20
-35.394962968373207
30
0
10
-47.561934348238061
20
-35.360646971964215
30
0
10
-47.539873111671632
20
-35.334138167149774
30
0
10
-47.528762201104321
20
-35.320787285450436
30
0
0
SPLINE
5
301
100
AcDbEntity
8
0
100
AcDbSpline
70
0
71
3
72
9
73
5
74
0
42
0.000000001
43
0.0000000001
44
0.0000000001
40
0
40
0
40
0
40
0
40
0.12852983631291193
40
0.25420396272870371
40
0.25420396272870371
40
0.25420396272870371
40
0.25420396272870371
10
-47.528762201104321
20
-35.320787285450436
30
0
10
-47.515583240869496
20
-35.309569742505701
30
0
10
-47.489518134023946
20
-35.287383890952221
30
0
10
-47.455480163572688
20
-35.283999119394444
30
0
10
-47.438652368460801
20
-35.282325745761426
30
0
0
SPLINE
5
302
100
AcDbEntity
8
0
100
AcDbSpline
70
0
71
3
72
9
73
5
74
0
42
0.000000001
43
0.0000000001
44
0.0000000001
40
0
40
0
40
0
40
0
40
0.075703889875577204
40
0.15716104734800052
40
0.15716104734800052
40
0.15716104734800052
40
0.15716104734800052
10
-47.438652368460801
20
-35.282325745761426
30
0
10
-47.428666068161874
20
-35.283020898018407
30
0
10
-47.40793453882182
20
-35.284464032009993
30
0
10
-47.388841436435804
20
-35.292705948270914
30
0
10
-47.378945410200679
20
-35.29697776423339
30
0
0
SPLINE
5
303
100
AcDbEntity
8
0
100
AcDbSpline
70
0
71
3
72
9
73
5
74
0
42
0.000000001
43
0.0000000001
44
0.0000000001
40
0
40
0
40
0
40
0
40
0.079742861800449913
40
0.15030210387604592
40
0.15030210387604592
40
0.15030210387604592
40
0.15030210387604592
10
-47.378945410200679
20
-35.29697776423339
30
0
10
-47.369596529284578
20
-35.301894167829936
30
0
10
-47.351975435197282
20
-35.311160775365458
30
0
10
-47.338671008240254
20
-35.325938027966281
30
0
10
-47.332425252138847
20
-35.332875201276465
30
0
0
SPLINE
5
304
100
AcDbEntity
8
0
100
AcDbSpline
70
0
71
3
72
9
73
5
74
0
42
0.000000001
43
0.0000000001
44
0.0000000001
40
0
40
0
40
0
40
0
40
0.043153511708046662
40
0.068756540839172639
40
0.068756540839172639
40
0.068756540839172639
40
0.068756540839172639
10
-47.332425252138847
20
-35.332875201276465
30
0
10
-47.329066896177153
20
-35.337666884659619
30
0
10
-47.32371602368282
20
-35.345301479416378
30
0
10
-47.315115155699111
20
-35.348524753918795
30
0
10
-47.311912430971375
20
-35.34972501195935
30
0
0
SPLINE
5
305
100
AcDbEntity
8
0
100
AcDbSpline
70
0
71
3
72
9
73
5
74
0
42
0.000000001
43
0.0000000001
44
0.0000000001
40
0
40
0
40
0
40
0
40
0.14106240056739267
40
0.24016355797011729
40
0.24016355797011729
40
0.24016355797011729
40
0.24016355797011729
10
-47.605685233549558
20
-35.146794615961937
30
0
10
-47.624383037301499
20
-35.146845395021586
30
0
10
-47.656216687212691
20
-35.146931848106085
30
0
10
-47.68604919277346
20
-35.157725384129002
30
0
10
-47.698359286170991
20
-35.162179231837541
30
0
0
SPLINE
5
306
100
AcDbEntity
8
0
100
AcDbSpline
70
0
71
3
72
9
73
5
74
0
42
0.000000001
43
0.0000000001
44
0.0000000001
40
0
40
0
40
0
40
0
40
0.085823431009188267
40
0.19121107702730006
40
0.19121107702730006
40
0.19121107702730006
40
0.19121107702730006
10
-47.698359286170991
20
-35.162179231837541
30
0
10
-47.707471607927438
20
-35.169130945140509
30
0
10
-47.727773486293053
20
-35.184619076670742
30
0
10
-47.737384488266628
20
-35.208408262985522
30
0
10
-47.742681675488299
20
-35.221519879662644
30
0
0
LINE
5
307
100
AcDbEntity
8
0
100
AcDbLine
10
-47.742681675488299
20
-35.221519879662644
30
0
11
-47.848908744877463
21
-35.221519879662644
31
1.6460210035361814e-81
0
SPLINE
5
308
100
AcDbEntity
8
0
100
AcDbSpline
70
0
71
3
72
9
73
5
74
0
42
0.000000001
43
0.0000000001
44
0.0000000001
40
0
40
0
40
0
40
0
40
0.1764684202515365
40
0.32377870152997268
40
0.32377870152997268
40
0.32377870152997268
40
0.32377870152997268
10
-47.848908744877463
20
-35.221519879662644
30
0
10
-47.848622376644094
20
-35.198314594664119
30
0
10
-47.848096957225543
20
-35.155738268346092
30
0
10
-47.840598657009664
20
-35.113841708638773
30
0
10
-47.837187139486453
20
-35.094779942173219
30
0
0
SPLINE
5
309
100
AcDbEntity
8
0
100
AcDbSpline
70
0
71
3
72
9
73
5
74
0
42
0.000000001
43
0.0000000001
44
0.0000000001
40
0
40
0
40
0
40
0
40
0.13359621014656223
40
0.2696579051563005
40
0.2696579051563005
40
0.2696579051563005
40
0.2696579051563005
10
-47.837187139486453
20
-35.094779942173219
30
0
10
-47.83256661596495
20
-35.077798965324817
30
0
10
-47.823240298308455
20
-35.043523631919591
30
0
10
-47.80621644383131
20
-35.01234388135493
30
0
10
-47.797626691958783
20
-34.996611467690478
30
0
0
SPLINE
5
310
100
AcDbEntity
8
0
100
AcDbSpline
70
0
71
3
72
9
73
5
74
0
42
0.000000001
43
0.0000000001
44
0.0000000001
40
0
40
0
40
0
40
0
40
0.39638146864116386
40
0.80814252241114659
40
0.80814252241114659
40
0.80814252241114659
40
0.80814252241114659
10
-47.797626691958783
20
-34.996611467690478
30
0
10
-47.76428523142971
20
-34.953667107637742
30
0
10
-47.696308663036625
20
-34.8661121480799
30
0
10
-47.585800454911549
20
-34.855013593444674
30
0
10
-47.52949482197436
20
-34.849358709033581
30
0
0
SPLINE
5
311
100
AcDbEntity
8
0
100
AcDbSpline
70
0
71
3
72
9
73
5
74
0
42
0.000000001
43
0.0000000001
44
0.0000000001
40
0
40
0
40
0
40
0
40
0.21135697760208036
40
0.40996055627300654
40
0.40996055627300654
40
0.40996055627300654
40
0.40996055627300654
10
-47.52949482197436
20
-34.849358709033581
30
0
10
-47.50155311202343
20
-34.850579718809733
30
0
10
-47.447355710619128
20
-34.852948061945256
30
0
10
-47.39707603845207
20
-34.873231909934603
30
0
10
-47.372718273603759
20
-34.883058330399344
30
0
0
SPLINE
5
312
100
AcDbEntity
8
0
100
AcDbSpline
70
0
71
3
72
9
73
5
74
0
42
0.000000001
43
0.0000000001
44
0.0000000001
40
0
40
0
40
0
40
0
40
0.19071259593523052
40
0.37944069976427441
40
0.37944069976427441
40
0.37944069976427441
40
0.37944069976427441
10
-47.372718273603759
20
-34.883058330399344
30
0
10
-47.350656311082133
20
-34.895427217981634
30
0
10
-47.306761955513608
20
-34.920036286598823
30
0
10
-47.27546459441929
20
-34.959433469310071
30
0
10
-47.259897757182657
20
-34.979029036137561
30
0
0
SPLINE
5
313
100
AcDbEntity
8
0
100
AcDbSpline
70
0
71
3
72
9
73
5
74
0
42
0.000000001
43
0.0000000001
44
0.0000000001
40
0
40
0
40
0
40
0
40
0.13774456518977812
40
0.28516223623011866
40
0.28516223623011866
40
0.28516223623011866
40
0.28516223623011866
10
-47.259897757182657
20
-34.979029036137561
30
0
10
-47.250543617665585
20
-34.994568057846564
30
0
10
-47.2311784446076
20
-35.026737328360163
30
0
10
-47.219443898410518
20
-35.062416032839032
30
0
10
-47.213377599120825
20
-35.080860521104889
30
0
0
SPLINE
5
314
100
AcDbEntity
8
0
100
AcDbSpline
70
0
71
3
72
9
73
5
74
0
42
0.000000001
43
0.0000000001
44
0.0000000001
40
0
40
0
40
0
40
0
40
0.15061786868171056
40
0.29802731953188444
40
0.29802731953188444
40
0.29802731953188444
40
0.29802731953188444
10
-47.213377599120825
20
-35.080860521104889
30
0
10
-47.208356364959691
20
-35.100046259046771
30
0
10
-47.198420857500437
20
-35.138009045946532
30
0
10
-47.196909211240033
20
-35.177218001620439
30
0
10
-47.196161524935718
20
-35.196611427140546
30
0
0
LINE
5
315
100
AcDbEntity
8
0
100
AcDbLine
10
-47.196161524935718
20
-35.196611427140546
30
0
11
-47.196161524935718
21
-35.219322063985331
31
-9.1104457530869123e-194
0
LINE
5
316
100
AcDbEntity
8
0
100
AcDbLine
10
-47.196161524935718
20
-35.219322063985331
30
-9.1104457530869123e-194
11
-47.278945336610057
21
-35.219322063985331
31
1.2827605388373263e-81
0
SPLINE
5
317
100
AcDbEntity
8
0
100
AcDbSpline
70
0
71
3
72
9
73
5
74
0
42
0.000000001
43
0.0000000001
44
0.0000000001
40
0
40
0
40
0
40
0
40
0.056022487374202554
40
0.10408598238491551
40
0.10408598238491551
40
0.10408598238491551
40
0.10408598238491551
10
-47.278945336610057
20
-35.219322063985331
30
0
10
-47.281388652438146
20
-35.21233957307156
30
0
10
-47.285928167553642
20
-35.199366578470318
30
0
10
-47.293931141488009
20
-35.188210040199706
30
0
10
-47.297626652535236
20
-35.183058316507235
30
0
0
SPLINE
5
318
100
AcDbEntity
8
0
100
AcDbSpline
70
0
71
3
72
9
73
5
74
0
42
0.000000001
43
0.0000000001
44
0.0000000001
40
0
40
0
40
0
40
0
40
0.046767146615055724
40
0.099543605544905378
40
0.099543605544905378
40
0.099543605544905378
40
0.099543605544905378
10
-47.297626652535236
20
-35.183058316507235
30
0
10
-47.301978819126276
20
-35.178662016317503
30
0
10
-47.311242380958909
20
-35.169304516371092
30
0
10
-47.323170670455276
20
-35.163690500319468
30
0
10
-47.329494862524292
20
-35.16071403703026
30
0
0
SPLINE
5
319
100
AcDbEntity
8
0
100
AcDbSpline
70
0
71
3
72
9
73
5
74
0
42
0.000000001
43
0.0000000001
44
0.0000000001
40
0
40
0
40
0
40
0
40
0.04141677897980222
40
0.10021686463486634
40
0.10021686463486634
40
0.10021686463486634
40
0.10021686463486634
10
-47.329494862524292
20
-35.16071403703026
30
0
10
-47.334580936392982
20
-35.158758605844191
30
0
10
-47.346887793395808
20
-35.154027016683855
30
0
10
-47.359934967188117
20
-35.152008317936108
30
0
10
-47.367590115244681
20
-35.150823889948754
30
0
0
SPLINE
5
320
100
AcDbEntity
8
0
100
AcDbSpline
70
0
71
3
72
9
73
5
74
0
42
0.000000001
43
0.0000000001
44
0.0000000001
40
0
40
0
40
0
40
0
40
0.066041064166659919
40
0.12889523801499825
40
0.12889523801499825
40
0.12889523801499825
40
0.12889523801499825
10
-47.367590115244681
20
-35.150823889948754
30
0
10
-47.376184976374013
20
-35.149648895500398
30
0
10
-47.392959943357837
20
-35.147355607362222
30
0
10
-47.409885841647949
20
-35.146978505188287
30
0
10
-47.418139547293329
20
-35.146794615961937
30
0
0
LINE
5
321
100
AcDbEntity
8
0
100
AcDbLine
10
-47.418139547293336
20
-35.146794615961937
30
0
11
-47.605685233549558
21
-35.146794615961937
31
0
0
SPLINE
5
322
100
AcDbEntity
8
0
100
AcDbSpline
70
0
71
3
72
9
73
5
74
0
42
0.000000001
43
0.0000000001
44
0.0000000001
40
0
40
0
40
0
40
0
40
0.024194898805497553
40
0.052141907391449568
40
0.052141907391449568
40
0.052141907391449568
40
0.052141907391449568
10
-47.709714581126988
20
-35.508699376007264
30
0
10
-47.712889960636701
20
-35.508660947582051
30
0
10
-47.719733152900453
20
-35.508578131307239
30
0
10
-47.726565436411441
20
-35.508180102348327
30
0
10
-47.73022740229446
20
-35.507966766870425
30
0
0
LINE
5
323
100
AcDbEntity
8
0
100
AcDbLine
10
-47.73022740229446
20
-35.507966766870425
30
0
11
-47.922901434640934
21
-35.489651749647066
31
2.9855431944228492e-81
0
LINE
5
324
100
AcDbEntity
8
0
100
AcDbLine
10
-47.922901434640934
20
-35.489651749647066
30
2.9855431944228492e-81
11
-47.915575413671753
21
-35.422252483449142
31
-1.1351894067076631e-82
0
LINE
5
325
100
AcDbEntity
8
0
100
AcDbLine
10
-47.915575413671753
20
-35.422252483449142
30
-1.1351894067076631e-82
11
-47.763194496655771
21
-35.4347066862438
31
-2.3611890207336344e-81
0
SPLINE
5
326
100
AcDbEntity
8
0
100
AcDbSpline
70
0
71
3
72
9
73
5
74
0
42
0.000000001
43
0.0000000001
44
0.0000000001
40
0
40
0
40
0
40
0
40
0.13101261191754787
40
0.23930060021596755
40
0.23930060021596755
40
0.23930060021596755
40
0.23930060021596755
10
-47.763194496655771
20
-35.4347066862438
30
0
10
-47.77406239619134
20
-35.421348901965565
30
0
10
-47.793913117766031
20
-35.396950290652107
30
0
10
-47.810087625568109
20
-35.369985638667778
30
0
10
-47.817406892256223
20
-35.357783630332172
30
0
0
SPLINE
5
327
100
AcDbEntity
8
0
100
AcDbSpline
70
0
71
3
72
9
73
5
74
0
42
0.000000001
43
0.0000000001
44
0.0000000001
40
0
40
0
40
0
40
0
40
0.09929303592557201
40
0.20361130727816545
40
0.20361130727816545
40
0.20361130727816545
40
0.20361130727816545
10
-47.817406892256223
20
-35.357783630332172
30
0
10
-47.823215878845758
20
-35.346084173237664
30
0
10
-47.835127845706587
20
-35.322093147771959
30
0
10
-47.842302494031117
20
-35.296282286630593
30
0
10
-47.845978355262908
20
-35.283058343165067
30
0
0
LINE
5
328
100
AcDbEntity
8
0
100
AcDbLine
10
-47.845978355262908
20
-35.283058343165067
30
0
11
-47.742681675488299
21
-35.283058343165067
31
-1.6006137181630691e-81
0
SPLINE
5
329
100
AcDbEntity
8
0
100
AcDbSpline
70
0
71
3
72
9
73
5
74
0
42
0.000000001
43
0.0000000001
44
0.0000000001
40
0
40
0
40
0
40
0
40
0.19146700414010756
40
0.35979346883079816
40
0.35979346883079816
40
0.35979346883079816
40
0.35979346883079816
10
-47.742681675488299
20
-35.283058343165067
30
0
10
-47.736384616303326
20
-35.307488667403049
30
0
10
-47.724551555156481
20
-35.353396687647709
30
0
10
-47.702465176894016
20
-35.395315233343787
30
0
10
-47.692132243439652
20
-35.41492648594636
30
0
0
SPLINE
5
330
100
AcDbEntity
8
0
100
AcDbSpline
70
0
71
3
72
9
73
5
74
0
42
0.000000001
43
0.0000000001
44
0.0000000001
40
0
40
0
40
0
40
0
40
0.087843062410832395
40
0.14268161826900677
40
0.14268161826900677
40
0.14268161826900677
40
0.14268161826900677
10
-47.692132243439652
20
-35.41492648594636
30
0
10
-47.685849463477545
20
-35.424748627106631
30
0
10
-47.675644477589991
20
-35.440702522122955
30
0
10
-47.671678480331948
20
-35.459127161967096
30
0
10
-47.670154180532116
20
-35.46620852713184
30
0
0
SPLINE
5
331
100
AcDbEntity
8
0
100
AcDbSpline
70
0
71
3
72
9
73
5
74
0
42
0.000000001
43
0.0000000001
44
0.0000000001
40
0
40
0
40
0
40
0
40
0.045395863259809863
40
0.085127726597989936
40
0.085127726597989936
40
0.085127726597989936
40
0.085127726597989936
10
-47.670154180532116
20
-35.46620852713184
30
0
10
-47.670466388020344
20
-35.472303690347857
30
0
10
-47.671051849156918
20
-35.483733528896217
30
0
10
-47.677682237791743
20
-35.493013019287417
30
0
10
-47.680776854618074
20
-35.497344057584868
30
0
0
SPLINE
5
332
100
AcDbEntity
8
0
100
AcDbSpline
70
0
71
3
72
9
73
5
74
0
42
0.000000001
43
0.0000000001
44
0.0000000001
40
0
40
0
40
0
40
0
40
0.038514942401703313
40
0.080770224887146663
40
0.080770224887146663
40
0.080770224887146663
40
0.080770224887146663
10
-47.680776854618074
20
-35.497344057584868
30
0
10
-47.684768431186654
20
-35.500654088857637
30
0
10
-47.693139222287293
20
-35.507595601777389
30
0
10
-47.704021481500519
20
-35.508320265261212
30
0
10
-47.709714581126988
20
-35.508699376007264
30
0
0
LWPOLYLINE
5
333
100
AcDbEntity
8
0
100
AcDbPolyline
90
30
70
1
43
0.0
10
-48.66067062826037
20
-40.584793411227956
42
0.99999999999999989
10
-48.53567062826037
20
-40.584793411227956
10
-48.53567062826037
20
-40.466683175007482
42
0.99999999999999989
10
-48.66067062826037
20
-40.466683175007482
10
-49.024999999999999
20
-40.466683175007482
10
-49.024999999999999
20
-40.045263804715098
10
-48.559940975734428
20
-40.045263804715098
42
2.4142135623730949
10
-48.497440975734428
20
-39.982763804715105
10
-48.497440975734428
20
-39.357763804715098
42
2.4142135623730949
10
-48.559940975734428
20
-39.295263804715098
10
-49.024999999999999
20
-39.295263804715098
10
-49.024999999999999
20
-38.000000000000014
10
-48.474999999999994
20
-38.000000000000007
10
-46.974999999999994
20
-39.500000000000007
10
-46.974999999999994
20
-42.900000000000013
10
-48.474999999999994
20
-44.400000000000013
10
-49.024999999999999
20
-44.400000000000013
10
-49.024999999999999
20
-43.110543490181783
10
-48.559940975734428
20
-43.110543490181783
42
2.4142135623730949
10
-48.497440975734428
20
-43.048043490181783
10
-48.497440975734428
20
-42.423043490181783
42
2.4142135623730949
10
-48.559940975734428
20
-42.360543490181783
10
-49.024999999999999
20
-42.360543490181783
10
-49.024999999999999
20
-41.939124119889378
10
-48.66067062826037
20
-41.939124119889378
42
0.99999999999999989
10
-48.53567062826037
20
-41.939124119889371
10
-48.53567062826037
20
-41.821013883668897
42
0.99999999999999989
10
-48.66067062826037
20
-41.821013883668897
10
-49.024999999999999
20
-41.821013883668897
10
-49.024999999999999
20
-40.584793411227956
0
SPLINE
5
334
100
AcDbEntity
8
0
100
AcDbSpline
70
0
71
3
72
9
73
5
74
0
42
0.000000001
43
0.0000000001
44
0.0000000001
40
0
40
0
40
0
40
0
40
0.17713394365462809
40
0.34659279302964552
40
0.34659279302964552
40
0.34659279302964552
40
0.34659279302964552
10
-48.08447254238088
20
-42.835528136889074
30
0
10
-48.100495231899338
20
-42.818526713316032
30
0
10
-48.131846358608726
20
-42.785260526383794
30
0
10
-48.153414457800707
20
-42.744970591874655
30
0
10
-48.163959700938435
20
-42.725271723113906
30
0
0
SPLINE
5
335
100
AcDbEntity
8
0
100
AcDbSpline
70
0
71
3
72
9
73
5
74
0
42
0.000000001
43
0.0000000001
44
0.0000000001
40
0
40
0
40
0
40
0
40
0.15979685262846785
40
0.30904206986520721
40
0.30904206986520721
40
0.30904206986520721
40
0.30904206986520721
10
-48.163959700938435
20
-42.725271723113906
30
0
10
-48.172183353222387
20
-42.705798525644482
30
0
10
-48.188087637204703
20
-42.668137976304145
30
0
10
-48.190837041121341
20
-42.627374942038081
30
0
10
-48.192164806577317
20
-42.607689311835955
30
0
0
LINE
5
336
100
AcDbEntity
8
0
100
AcDbLine
10
-48.192164806577317
20
-42.607689311835955
30
0
11
-48.118172163746642
21
-42.607689311835955
31
-1.1465386827179901e-81
0
SPLINE
5
337
100
AcDbEntity
8
0
100
AcDbSpline
70
0
71
3
72
9
73
5
74
0
42
0.000000001
43
0.0000000001
44
0.0000000001
40
0
40
0
40
0
40
0
40
0.096098206420567683
40
0.17607562375927455
40
0.17607562375927455
40
0.17607562375927455
40
0.17607562375927455
10
-48.118172163746642
20
-42.607689311835955
30
0
10
-48.113957767459517
20
-42.619825383274787
30
0
10
-48.106235953674826
20
-42.642061660393502
30
0
10
-48.089003262428172
20
-42.657971744578866
30
0
10
-48.081175795398515
20
-42.665198454418764
30
0
0
SPLINE
5
338
100
AcDbEntity
8
0
100
AcDbSpline
70
0
71
3
72
9
73
5
74
0
42
0.000000001
43
0.0000000001
44
0.0000000001
40
0
40
0
40
0
40
0
40
0.081976465874223484
40
0.18328415946362669
40
0.18328415946362669
40
0.18328415946362669
40
0.18328415946362669
10
-48.081175795398515
20
-42.665198454418764
30
0
10
-48.071503099267737
20
-42.670205391617337
30
0
10
-48.04987674637281
20
-42.681399973698198
30
0
10
-48.025447798445626
20
-42.68205340225969
30
0
10
-48.011945047424689
20
-42.682414575536669
30
0
0
LINE
5
339
100
AcDbEntity
8
0
100
AcDbLine
10
-48.011945047424689
20
-42.682414575536669
30
0
11
-47.340882728127198
21
-42.682414575536669
31
-1.0398316348149751e-80
0
SPLINE
5
340
100
AcDbEntity
8
0
100
AcDbSpline
70
0
71
3
72
9
73
5
74
0
42
0.000000001
43
0.0000000001
44
0.0000000001
40
0
40
0
40
0
40
0
40
0.075608259864262381
40
0.12393810799652172
40
0.12393810799652172
40
0.12393810799652172
40
0.12393810799652172
10
-47.340882728127198
20
-42.682414575536669
30
0
10
-47.33095121221119
20
-42.682437753898036
30
0
10
-47.314671333605645
20
-42.68247574818939
30
0
10
-47.298479018495946
20
-42.680850536876029
30
0
10
-47.292164801320844
20
-42.680216783325747
30
0
0
SPLINE
5
341
100
AcDbEntity
8
0
100
AcDbSpline
70
0
71
3
72
9
73
5
74
0
42
0.000000001
43
0.0000000001
44
0.0000000001
40
0
40
0
40
0
40
0
40
0.033643558388690271
40
0.066394157459678693
40
0.066394157459678693
40
0.066394157459678693
40
0.066394157459678693
10
-47.292164801320844
20
-42.680216783325747
30
0
10
-47.287808137853574
20
-42.679258445767083
30
0
10
-47.279210444443649
20
-42.677367206617092
30
0
10
-47.271941047334678
20
-42.672407080516749
30
0
10
-47.268355233171008
20
-42.669960372742011
30
0
0
SPLINE
5
342
100
AcDbEntity
8
0
100
AcDbSpline
70
0
71
3
72
9
73
5
74
0
42
0.000000001
43
0.0000000001
44
0.0000000001
40
0
40
0
40
0
40
0
40
0.055942384438957722
40
0.13233315483389266
40
0.13233315483389266
40
0.13233315483389266
40
0.13233315483389266
10
-47.268355233171008
20
-42.669960372742011
30
0
10
-47.26334730417549
20
-42.664463956354673
30
0
10
-47.251500918830871
20
-42.651462041471859
30
0
10
-47.246859000167277
20
-42.634392628856681
30
0
10
-47.244179401518942
20
-42.62453912251884
30
0
0
LINE
5
343
100
AcDbEntity
8
0
100
AcDbLine
10
-47.244179401518942
20
-42.62453912251884
30
0
11
-47.167256369073712
21
-42.62453912251884
31
-1.1919459680911019e-81
0
SPLINE
5
344
100
AcDbEntity
8
0
100
AcDbSpline
70
0
71
3
72
9
73
5
74
0
42
0.000000001
43
0.0000000001
44
0.0000000001
40
0
40
0
40
0
40
0
40
0.17696267560463516
40
0.35334355224226399
40
0.35334355224226399
40
0.35334355224226399
40
0.35334355224226399
10
-47.167256369073712
20
-42.62453912251884
30
0
10
-47.171016832900349
20
-42.647599096994497
30
0
10
-47.17852539730265
20
-42.693643231826925
30
0
10
-47.199107025870489
20
-42.735508898825465
30
0
10
-47.209380895780917
20
-42.756407265300133
30
0
0
SPLINE
5
345
100
AcDbEntity
8
0
100
AcDbSpline
70
0
71
3
72
9
73
5
74
0
42
0.000000001
43
0.0000000001
44
0.0000000001
40
0
40
0
40
0
40
0
40
0.17948951823915996
40
0.36550971394425325
40
0.36550971394425325
40
0.36550971394425325
40
0.36550971394425325
10
-47.209380895780917
20
-42.756407265300133
30
0
10
-47.221895174242213
20
-42.776509224437042
30
0
10
-47.247379059794312
20
-42.817444547044914
30
0
10
-47.283128261617094
20
-42.849820272339748
30
0
10
-47.301322233666738
20
-42.866297368640282
30
0
0
SPLINE
5
346
100
AcDbEntity
8
0
100
AcDbSpline
70
0
71
3
72
9
73
5
74
0
42
0.000000001
43
0.0000000001
44
0.0000000001
40
0
40
0
40
0
40
0
40
0.22432484662714527
40
0.47472382858451867
40
0.47472382858451867
40
0.47472382858451867
40
0.47472382858451867
10
-47.301322233666738
20
-42.866297368640282
30
0
10
-47.325371082364164
20
-42.883583082394289
30
0
10
-47.376264069469002
20
-42.920163694557871
30
0
10
-47.435834983384915
20
-42.939814890880648
30
0
10
-47.467256402114401
20
-42.95018015855247
30
0
0
SPLINE
5
347
100
AcDbEntity
8
0
100
AcDbSpline
70
0
71
3
72
9
73
5
74
0
42
0.000000001
43
0.0000000001
44
0.0000000001
40
0
40
0
40
0
40
0
40
0.27271435387533222
40
0.56198622947984422
40
0.56198622947984422
40
0.56198622947984422
40
0.56198622947984422
10
-47.467256402114401
20
-42.95018015855247
30
0
10
-47.502098461665582
20
-42.958831920630907
30
0
10
-47.573897974218688
20
-42.976660726044813
30
0
10
-47.64786469479052
20
-42.978766553254907
30
0
10
-47.68593767748964
20
-42.979850488331621
30
0
0
SPLINE
5
348
100
AcDbEntity
8
0
100
AcDbSpline
70
0
71
3
72
9
73
5
74
0
42
0.000000001
43
0.0000000001
44
0.0000000001
40
0
40
0
40
0
40
0
40
0.57949034988290571
40
1.0983928716735525
40
1.0983928716735525
40
1.0983928716735525
40
1.0983928716735525
10
-47.68593767748964
20
-42.979850488331621
30
0
10
-47.76382406110941
20
-42.975280062292228
30
0
10
-47.911453523076588
20
-42.966617064913244
30
0
10
-48.028960107362785
20
-42.877587475959388
30
0
10
-48.08447254238088
20
-42.835528136889074
30
0
0
SPLINE
5
349
100
AcDbEntity
8
0
100
AcDbSpline
70
0
71
3
72
9
73
5
74
0
42
0.000000001
43
0.0000000001
44
0.0000000001
40
0
40
0
40
0
40
0
40
0.025873226352712948
40
0.051434918886700154
40
0.051434918886700154
40
0.051434918886700154
40
0.051434918886700154
10
-48.056267342876417
20
-42.491938405800298
30
0
10
-48.0593551738407
20
-42.490442677358629
30
0
10
-48.065493655876864
20
-42.487469230211971
30
0
10
-48.072299145025845
20
-42.487028988249108
30
0
10
-48.075681279671628
20
-42.48681020050843
30
0
0
SPLINE
5
350
100
AcDbEntity
8
0
100
AcDbSpline
70
0
71
3
72
9
73
5
74
0
42
0.000000001
43
0.0000000001
44
0.0000000001
40
0
40
0
40
0
40
0
40
0.082176239345769952
40
0.21317817674538353
40
0.21317817674538353
40
0.21317817674538353
40
0.21317817674538353
10
-48.075681279671628
20
-42.48681020050843
30
0
10
-48.086158954673763
20
-42.491370785184486
30
0
10
-48.113339702676683
20
-42.503201663962535
30
0
10
-48.116332830977093
20
-42.533887335198472
30
0
10
-48.118172163746642
20
-42.552744248432681
30
0
0
LINE
5
351
100
AcDbEntity
8
0
100
AcDbLine
10
-48.118172163746642
20
-42.552744248432681
30
0
11
-48.192164806577317
21
-42.552744248432681
31
1.1465386827179901e-81
0
SPLINE
5
352
100
AcDbEntity
8
0
100
AcDbSpline
70
0
71
3
72
9
73
5
74
0
42
0.000000001
43
0.0000000001
44
0.0000000001
40
0
40
0
40
0
40
0
40
0.18695373555495115
40
0.38691517337885717
40
0.38691517337885717
40
0.38691517337885717
40
0.38691517337885717
10
-48.192164806577317
20
-42.552744248432681
30
0
10
-48.190512182324653
20
-42.52808518143032
30
0
10
-48.187091948985362
20
-42.477051340591245
30
0
10
-48.167252934602324
20
-42.429873464430045
30
0
10
-48.156999943471483
20
-42.405491489775784
30
0
0
SPLINE
5
353
100
AcDbEntity
8
0
100
AcDbSpline
70
0
71
3
72
9
73
5
74
0
42
0.000000001
43
0.0000000001
44
0.0000000001
40
0
40
0
40
0
40
0
40
0.16739131847481581
40
0.32168012116173494
40
0.32168012116173494
40
0.32168012116173494
40
0.32168012116173494
10
-48.156999943471483
20
-42.405491489775784
30
0
10
-48.146590718596073
20
-42.385900614426021
30
0
10
-48.126587048455761
20
-42.34825233485217
30
0
10
-48.094410838761753
20
-42.320342984904372
30
0
10
-48.078978026653992
20
-42.306956704858024
30
0
0
SPLINE
5
354
100
AcDbEntity
8
0
100
AcDbSpline
70
0
71
3
72
9
73
5
74
0
42
0.000000001
43
0.0000000001
44
0.0000000001
40
0
40
0
40
0
40
0
40
0.14370621177200713
40
0.28209442828393833
40
0.28209442828393833
40
0.28209442828393833
40
0.28209442828393833
10
-48.078978026653992
20
-42.306956704858024
30
0
10
-48.06284382502993
20
-42.296594532104024
30
0
10
-48.031172484404941
20
-42.276253649390782
30
0
10
-47.993698702685634
20
-42.273014581179432
30
0
10
-47.975315036444364
20
-42.271425578249968
30
0
0
SPLINE
5
355
100
AcDbEntity
8
0
100
AcDbSpline
70
0
71
3
72
9
73
5
74
0
42
0.000000001
43
0.0000000001
44
0.0000000001
40
0
40
0
40
0
40
0
40
0.14425824231445783
40
0.28476540056721034
40
0.28476540056721034
40
0.28476540056721034
40
0.28476540056721034
10
-47.975315036444364
20
-42.271425578249968
30
0
10
-47.955963356580924
20
-42.273043107945874
30
0
10
-47.917763190132547
20
-42.276236107419543
30
0
10
-47.88811317978773
20
-42.300485993741248
30
0
10
-47.873483457611457
20
-42.312451220584911
30
0
0
SPLINE
5
356
100
AcDbEntity
8
0
100
AcDbSpline
70
0
71
3
72
9
73
5
74
0
42
0.000000001
43
0.0000000001
44
0.0000000001
40
0
40
0
40
0
40
0
40
0.14089385433773652
40
0.28652495290466773
40
0.28652495290466773
40
0.28652495290466773
40
0.28652495290466773
10
-47.873483457611457
20
-42.312451220584911
30
0
10
-47.861518564610044
20
-42.327145652962798
30
0
10
-47.837186485543477
20
-42.357028585506775
30
0
10
-47.834051317076138
20
-42.395474531487011
30
0
10
-47.832457815276506
20
-42.415015326422278
30
0
0
SPLINE
5
357
100
AcDbEntity
8
0
100
AcDbSpline
70
0
71
3
72
9
73
5
74
0
42
0.000000001
43
0.0000000001
44
0.0000000001
40
0
40
0
40
0
40
0
40
0.12940633338756941
40
0.25564318409009845
40
0.25564318409009845
40
0.25564318409009845
40
0.25564318409009845
10
-47.832457815276506
20
-42.415015326422278
30
0
10
-47.833848967268295
20
-42.432333699458425
30
0
10
-47.836597198482501
20
-42.466546275538157
30
0
10
-47.857366654198557
20
-42.493843584299398
30
0
10
-47.867622631449549
20
-42.507323021675901
30
0
0
SPLINE
5
358
100
AcDbEntity
8
0
100
AcDbSpline
70
0
71
3
72
9
73
5
74
0
42
0.000000001
43
0.0000000001
44
0.0000000001
40
0
40
0
40
0
40
0
40
0.12207173040442441
40
0.24040586708690986
40
0.24040586708690986
40
0.24040586708690986
40
0.24040586708690986
10
-47.867622631449549
20
-42.507323021675901
30
0
10
-47.879793302544805
20
-42.518433349842503
30
0
10
-47.903762002980116
20
-42.540313830013169
30
0
10
-47.936002235320963
20
-42.54373448865762
30
0
10
-47.951871731796757
20
-42.5454182274635
30
0
0
SPLINE
5
359
100
AcDbEntity
8
0
100
AcDbSpline
70
0
71
3
72
9
73
5
74
0
42
0.000000001
43
0.0000000001
44
0.0000000001
40
0
40
0
40
0
40
0
40
0.10082010323109693
40
0.21774126153587689
40
0.21774126153587689
40
0.21774126153587689
40
0.21774126153587689
10
-47.951871731796757
20
-42.5454182274635
30
0
10
-47.965226985553649
20
-42.543680258743031
30
0
10
-47.994070338297419
20
-42.539926766239283
30
0
10
-48.017139801985138
20
-42.522050368329992
30
0
10
-48.029527478977606
20
-42.512451226967769
30
0
0
SPLINE
5
360
100
AcDbEntity
8
0
100
AcDbSpline
70
0
71
3
72
9
73
5
74
0
42
0.000000001
43
0.0000000001
44
0.0000000001
40
0
40
0
40
0
40
0
40
0.051045681945174289
40
0.085690553448412948
40
0.085690553448412948
40
0.085690553448412948
40
0.085690553448412948
10
-48.029527478977606
20
-42.512451226967769
30
0
10
-48.034575038655781
20
-42.50803010668772
30
0
10
-48.043048393617532
20
-42.50060835759507
30
0
10
-48.052461574137361
20
-42.494434506728098
30
0
10
-48.056267342876417
20
-42.491938405800298
30
0
0
SPLINE
5
361
100
AcDbEntity
8
0
100
AcDbSpline
70
0
71
3
72
9
73
5
74
0
42
0.000000001
43
0.0000000001
44
0.0000000001
40
0
40
0
40
0
40
0
40
0.054091600693229706
40
0.10701825013223687
40
0.10701825013223687
40
0.10701825013223687
40
0.10701825013223687
10
-47.640516403800071
20
-42.529301037650654
30
0
10
-47.646013423668819
20
-42.534265133224352
30
0
10
-47.656889076076155
20
-42.544086414439526
30
0
10
-47.657698519335895
20
-42.558702538693652
30
0
10
-47.658098835352988
20
-42.565931048630972
30
0
0
SPLINE
5
362
100
AcDbEntity
8
0
100
AcDbSpline
70
0
71
3
72
9
73
5
74
0
42
0.000000001
43
0.0000000001
44
0.0000000001
40
0
40
0
40
0
40
0
40
0.067516777473697789
40
0.15868677020656852
40
0.15868677020656852
40
0.15868677020656852
40
0.15868677020656852
10
-47.658098835352988
20
-42.565931048630972
30
0
10
-47.656666382329803
20
-42.574732380676956
30
0
10
-47.653299643687525
20
-42.595418423585862
30
0
10
-47.64331974526668
20
-42.613913298831449
30
0
10
-47.637586014185516
20
-42.62453912251884
30
0
0
LINE
5
363
100
AcDbEntity
8
0
100
AcDbLine
10
-47.637586014185516
20
-42.624539122518833
30
0
11
-47.721835067599933
21
-42.62453912251884
31
1.3054649087618684e-81
0
SPLINE
5
364
100
AcDbEntity
8
0
100
AcDbSpline
70
0
71
3
72
9
73
5
74
0
42
0.000000001
43
0.0000000001
44
0.0000000001
40
0
40
0
40
0
40
0
40
0.21642681838471736
40
0.41149272462992181
40
0.41149272462992181
40
0.41149272462992181
40
0.41149272462992181
10
-47.721835067599933
20
-42.62453912251884
30
0
10
-47.734645197578303
20
-42.598853480192567
30
0
10
-47.759001122259939
20
-42.550017319204798
30
0
10
-47.763607512187157
20
-42.495706224396464
30
0
10
-47.765791146482222
20
-42.469960342892755
30
0
0
SPLINE
5
365
100
AcDbEntity
8
0
100
AcDbSpline
70
0
71
3
72
9
73
5
74
0
42
0.000000001
43
0.0000000001
44
0.0000000001
40
0
40
0
40
0
40
0
40
0.11614051441712298
40
0.23694443227966172
40
0.23694443227966172
40
0.23694443227966172
40
0.23694443227966172
10
-47.765791146482222
20
-42.469960342892755
30
0
10
-47.765002532539143
20
-42.454660246043431
30
0
10
-47.763393639346525
20
-42.423445705794656
30
0
10
-47.753336305988363
20
-42.393843823609558
30
0
10
-47.748208667996515
20
-42.378751578944183
30
0
0
SPLINE
5
366
100
AcDbEntity
8
0
100
AcDbSpline
70
0
71
3
72
9
73
5
74
0
42
0.000000001
43
0.0000000001
44
0.0000000001
40
0
40
0
40
0
40
0
40
0.12129749177628428
40
0.23890446845960445
40
0.23890446845960445
40
0.23890446845960445
40
0.23890446845960445
10
-47.748208667996515
20
-42.378751578944183
30
0
10
-47.741879869501659
20
-42.36405384090547
30
0
10
-47.729414828236102
20
-42.335105548222096
30
0
10
-47.709607620869441
20
-42.310596848394631
30
0
10
-47.69985700469239
20
-42.298531799516589
30
0
0
SPLINE
5
367
100
AcDbEntity
8
0
100
AcDbSpline
70
0
71
3
72
9
73
5
74
0
42
0.000000001
43
0.0000000001
44
0.0000000001
40
0
40
0
40
0
40
0
40
0.1310690807577698
40
0.26556230448174456
40
0.26556230448174456
40
0.26556230448174456
40
0.26556230448174456
10
-47.69985700469239
20
-42.298531799516589
30
0
10
-47.68740433381069
20
-42.286491170760193
30
0
10
-47.662173669513841
20
-42.26209535519888
30
0
10
-47.630533257575046
20
-42.246891202023932
30
0
10
-47.614509066905718
20
-42.239191104758689
30
0
0
SPLINE
5
368
100
AcDbEntity
8
0
100
AcDbSpline
70
0
71
3
72
9
73
5
74
0
42
0.000000001
43
0.0000000001
44
0.0000000001
40
0
40
0
40
0
40
0
40
0.13751002114006197
40
0.27748965250107566
40
0.27748965250107566
40
0.27748965250107566
40
0.27748965250107566
10
-47.614509066905718
20
-42.239191104758689
30
0
10
-47.597439692551298
20
-42.232994707198159
30
0
10
-47.562994386538328
20
-42.220490627920348
30
0
10
-47.526383862690722
20
-42.218799065237022
30
0
10
-47.507915687081535
20
-42.217945756586765
30
0
0
SPLINE
5
369
100
AcDbEntity
8
0
100
AcDbSpline
70
0
71
3
72
9
73
5
74
0
42
0.000000001
43
0.0000000001
44
0.0000000001
40
0
40
0
40
0
40
0
40
0.18928398228497825
40
0.38413090558117613
40
0.38413090558117613
40
0.38413090558117613
40
0.38413090558117613
10
-47.507915687081535
20
-42.217945756586765
30
0
10
-47.482944945537255
20
-42.219364968980976
30
0
10
-47.432269587555844
20
-42.222245103557718
30
0
10
-47.385004154715382
20
-42.240778990100338
30
0
10
-47.36102919192686
20
-42.250180136212457
30
0
0
SPLINE
5
370
100
AcDbEntity
8
0
100
AcDbSpline
70
0
71
3
72
9
73
5
74
0
42
0.000000001
43
0.0000000001
44
0.0000000001
40
0
40
0
40
0
40
0
40
0.19067366161077107
40
0.36791614122292571
40
0.36791614122292571
40
0.36791614122292571
40
0.36791614122292571
10
-47.36102919192686
20
-42.250180136212457
30
0
10
-47.338441653584745
20
-42.261436757872005
30
0
10
-47.294857658415452
20
-42.283157077129523
30
0
10
-47.261150394189059
20
-42.318253983047555
30
0
10
-47.244912022388981
20
-42.335161810496906
30
0
0
SPLINE
5
371
100
AcDbEntity
8
0
100
AcDbSpline
70
0
71
3
72
9
73
5
74
0
42
0.000000001
43
0.0000000001
44
0.0000000001
40
0
40
0
40
0
40
0
40
0.14412089600699976
40
0.29673686830522467
40
0.29673686830522467
40
0.29673686830522467
40
0.29673686830522467
10
-47.244912022388981
20
-42.335161810496906
30
0
10
-47.233675585342063
20
-42.350475747241724
30
0
10
-47.210540389596062
20
-42.382006286927364
30
0
10
-47.195986822724009
20
-42.418317811330951
30
0
10
-47.188501717245636
20
-42.436993342397024
30
0
0
SPLINE
5
372
100
AcDbEntity
8
0
100
AcDbSpline
70
0
71
3
72
9
73
5
74
0
42
0.000000001
43
0.0000000001
44
0.0000000001
40
0
40
0
40
0
40
0
40
0.15247326706797093
40
0.29638902677709617
40
0.29638902677709617
40
0.29638902677709617
40
0.29638902677709617
10
-47.188501717245636
20
-42.436993342397024
30
0
10
-47.182306653196555
20
-42.456123192599833
30
0
10
-47.170264220843407
20
-42.493309237032612
30
0
10
-47.168239500045289
20
-42.532331337290707
30
0
10
-47.167256369073712
20
-42.551279053625407
30
0
0
LINE
5
373
100
AcDbEntity
8
0
100
AcDbLine
10
-47.167256369073712
20
-42.551279053625407
30
0
11
-47.167256369073712
21
-42.569594059115566
31
-7.3471239545582711e-194
0
LINE
5
374
100
AcDbEntity
8
0
100
AcDbLine
10
-47.167256369073712
20
-42.569594059115566
30
-7.3471239545582711e-194
11
-47.244179401518942
21
-42.569594059115566
31
1.1919459680911019e-81
0
SPLINE
5
375
100
AcDbEntity
8
0
100
AcDbSpline
70
0
71
3
72
9
73
5
74
0
42
0.000000001
43
0.0000000001
44
0.0000000001
40
0
40
0
40
0
40
0
40
0.068168972983923409
40
0.12332432697403936
40
0.12332432697403936
40
0.12332432697403936
40
0.12332432697403936
10
-47.244179401518942
20
-42.569594059115566
30
0
10
-47.246646477179858
20
-42.56081633828925
30
0
10
-47.251109657893281
20
-42.544936584408738
30
0
10
-47.262519634523002
20
-42.533120463756163
30
0
10
-47.267622612300976
20
-42.527835842843373
30
0
0
SPLINE
5
376
100
AcDbEntity
8
0
100
AcDbSpline
70
0
71
3
72
9
73
5
74
0
42
0.000000001
43
0.0000000001
44
0.0000000001
40
0
40
0
40
0
40
0
40
0.055561837562939302
40
0.12486459264954691
40
0.12486459264954691
40
0.12486459264954691
40
0.12486459264954691
10
-47.267622612300976
20
-42.527835842843373
30
0
10
-47.274071273045664
20
-42.524214688288993
30
0
10
-47.288563403477987
20
-42.516076836695404
30
0
10
-47.305248506959977
20
-42.51562975649766
30
0
10
-47.314509127730609
20
-42.515381616582324
30
0
0
LINE
5
377
100
AcDbEntity
8
0
100
AcDbLine
10
-47.314509127730609
20
-42.515381616582332
30
0
11
-47.588501730011359
21
-42.515381616582324
31
4.2455993633356331e-81
0
SPLINE
5
378
100
AcDbEntity
8
0
100
AcDbSpline
70
0
71
3
72
9
73
5
74
0
42
0.000000001
43
0.0000000001
44
0.0000000001
40
0
40
0
40
0
40
0
40
0.075417026227882461
40
0.13848250123809086
40
0.13848250123809086
40
0.13848250123809086
40
0.13848250123809086
10
-47.588501730011359
20
-42.515381616582324
30
0
10
-47.598561995662948
20
-42.515724268809059
30
0
10
-47.61703488991818
20
-42.516353454813668
30
0
10
-47.633168908407235
20
-42.525249667465509
30
0
10
-47.640516403800071
20
-42.529301037650654
30
0
0
LWPOLYLINE
5
379
100
AcDbEntity
8
0
100
AcDbPolyline
90
30
70
1
43
0.0
10
-48.757743103351785
20
-47.984793411227955
42
0.99999999999999989
10
-48.632743103351785
20
-47.984793411227955
10
-48.632743103351785
20
-47.866683175007488
42
0.99999999999999989
10
-48.757743103351785
20
-47.866683175007488
10
-48.93
20
-47.866683175007488
10
-48.93
20
-47.445263804715104
10
-48.464940975734429
20
-47.445263804715104
42
2.4142135623730949
10
-48.402440975734429
20
-47.382763804715104
10
-48.402440975734429
20
-46.757763804715104
42
2.4142135623730949
10
-48.464940975734429
20
-46.695263804715104
10
-48.93
20
-46.695263804715097
10
-48.93
20
-45.400000000000006
10
-48.57
20
-45.400000000000006
10
-47.069999999999993
20
-46.900000000000006
10
-47.069999999999993
20
-50.300000000000018
10
-48.57
20
-51.800000000000018
10
-48.93
20
-51.800000000000018
10
-48.93
20
-50.510543490181782
10
-48.464940975734429
20
-50.510543490181782
42
2.4142135623729417
10
-48.402440975734429
20
-50.448043490181789
10
-48.402440975734429
20
-49.823043490181782
42
2.4142135623730949
10
-48.464940975734429
20
-49.760543490181782
10
-48.93
20
-49.760543490181782
10
-48.93
20
-49.339124119889377
10
-48.757743103351785
20
-49.339124119889377
42
0.99999999999999989
10
-48.632743103351785
20
-49.339124119889377
10
-48.632743103351785
20
-49.221013883668903
42
0.99999999999999989
10
-48.757743103351785
20
-49.221013883668903
10
-48.93
20
-49.221013883668903
10
-48.93
20
-47.984793411227955
0
LINE
5
380
100
AcDbEntity
8
0
100
AcDbLine
10
-47.864120704428991
20
-50.28062205688051
30
7.4166922281034491e-79
11
-47.848003467683355
21
-50.28062205688051
31
7.4141948128631687e-79
0
LINE
5
381
100
AcDbEntity
8
0
100
AcDbLine
10
-47.848003467683355
20
-50.28062205688051
30
7.4141948128631687e-79
11
-47.848003467683355
21
-50.337032315091065
31
7.4141948128631687e-79
0
LINE
5
382
100
AcDbEntity
8
0
100
AcDbLine
10
-47.848003467683355
20
-50.337032315091065
30
7.4141948128631687e-79
11
-48.160091463482864
21
-50.290878467464253
31
7.4625538045016887e-79
0
LINE
5
383
100
AcDbEntity
8
0
100
AcDbLine
10
-48.160091463482864
20
-50.290878467464253
30
7.4625538045016887e-79
11
-48.160091463482864
21
-50.236666013197812
31
2.1747502155558217e-193
0
LINE
5
384
100
AcDbEntity
8
0
100
AcDbLine
10
-48.160091463482864
20
-50.236666013197812
30
2.1747502155558217e-193
11
-48.075109789198414
21
-50.247655021185189
31
-1.3168170937241449e-81
0
SPLINE
5
385
100
AcDbEntity
8
0
100
AcDbSpline
70
0
71
3
72
9
73
5
74
0
42
0.000000001
43
0.0000000001
44
0.0000000001
40
0
40
0
40
0
40
0
40
0.18583976987922898
40
0.34060324880046028
40
0.34060324880046028
40
0.34060324880046028
40
0.34060324880046028
10
-48.075109789198414
20
-50.247655021185189
30
7.4493856335644465e-79
10
-48.091899771195592
20
-50.22982790083271
30
7.4519872927437184e-79
10
-48.122672099525843
20
-50.197154726986469
30
0
10
-48.145126655818466
20
-50.158334473949523
30
0
10
-48.155329568626009
20
-50.140695307459595
30
0
0
SPLINE
5
386
100
AcDbEntity
8
0
100
AcDbSpline
70
0
71
3
72
9
73
5
74
0
42
0.000000001
43
0.0000000001
44
0.0000000001
40
0
40
0
40
0
40
0
40
0.13970711613303205
40
0.2824468178964768
40
0.2824468178964768
40
0.2824468178964768
40
0.2824468178964768
10
-48.155329568626009
20
-50.140695307459595
30
0
10
-48.1624874464501
20
-50.123652464655471
30
0
10
-48.176958576269868
20
-50.08919683454031
30
0
10
-48.178893708875279
20
-50.051867874063191
30
0
10
-48.179871663780297
20
-50.033002996330367
30
0
0
SPLINE
5
387
100
AcDbEntity
8
0
100
AcDbSpline
70
0
71
3
72
9
73
5
74
0
42
0.000000001
43
0.0000000001
44
0.0000000001
40
0
40
0
40
0
40
0
40
0.063310093438259996
40
0.11956869167965398
40
0.11956869167965398
40
0.11956869167965398
40
0.11956869167965398
10
-48.179871663780297
20
-50.033002996330367
30
0
10
-48.179758426910382
20
-50.024684693862163
30
0
10
-48.179544565523507
20
-50.00897458368695
30
0
10
-48.17727602882016
20
-49.993430340115488
30
0
10
-48.17620865329571
20
-49.986116574766307
30
0
0
SPLINE
5
388
100
AcDbEntity
8
0
100
AcDbSpline
70
0
71
3
72
9
73
5
74
0
42
0.000000001
43
0.0000000001
44
0.0000000001
40
0
40
0
40
0
40
0
40
0.065448097224716797
40
0.15625780571886977
40
0.15625780571886977
40
0.15625780571886977
40
0.15625780571886977
10
-48.17620865329571
20
-49.986116574766307
30
0
10
-48.174361938598111
20
-49.977724254830328
30
0
10
-48.169952893894418
20
-49.957687530254745
30
0
10
-48.163716033972676
20
-49.938137462517076
30
0
10
-48.160091463482864
20
-49.926775880008414
30
0
0
SPLINE
5
389
100
AcDbEntity
8
0
100
AcDbSpline
70
0
71
3
72
9
73
5
74
0
42
0.000000001
43
0.0000000001
44
0.0000000001
40
0
40
0
40
0
40
0
40
0.1335963238850289
40
0.2153976865575449
40
0.2153976865575449
40
0.2153976865575449
40
0.2153976865575449
10
-48.160091463482864
20
-49.926775880008414
30
0
10
-48.155006323183557
20
-49.909993397478061
30
0
10
-48.14680753878261
20
-49.882934958992585
30
0
10
-48.137320678477764
20
-49.85630356706092
30
0
10
-48.133717863086275
20
-49.8461897901458
30
0
0
SPLINE
5
390
100
AcDbEntity
8
0
100
AcDbSpline
70
0
71
3
72
9
73
5
74
0
42
0.000000001
43
0.0000000001
44
0.0000000001
40
0
40
0
40
0
40
0
40
0.10621475475165537
40
0.18690005016182992
40
0.18690005016182992
40
0.18690005016182992
40
0.18690005016182992
10
-48.133717863086275
20
-49.8461897901458
30
0
10
-48.128813899679493
20
-49.833082543032795
30
0
10
-48.120184674776958
20
-49.810018467343582
30
0
10
-48.116844691263303
20
-49.785648236490275
30
0
10
-48.115402810663326
20
-49.775127536929674
30
0
0
SPLINE
5
391
100
AcDbEntity
8
0
100
AcDbSpline
70
0
71
3
72
9
73
5
74
0
42
0.000000001
43
0.0000000001
44
0.0000000001
40
0
40
0
40
0
40
0
40
0.044115703752912655
40
0.099926355656887095
40
0.099926355656887095
40
0.099926355656887095
40
0.099926355656887095
10
-48.115402810663326
20
-49.775127536929674
30
0
10
-48.116296682395266
20
-49.769251133968879
30
0
10
-48.118321388724283
20
-49.755940510261446
30
0
10
-48.128200309586155
20
-49.746628717759698
30
0
10
-48.133717863086275
20
-49.741427915563911
30
0
0
LINE
5
392
100
AcDbEntity
8
0
100
AcDbLine
10
-48.133717863086268
20
-49.741427915563911
30
0
11
-48.143974273670011
21
-49.733369273724698
31
1.589262260438784e-82
0
SPLINE
5
393
100
AcDbEntity
8
0
100
AcDbSpline
70
0
71
3
72
9
73
5
74
0
42
0.000000001
43
0.0000000001
44
0.0000000001
40
0
40
0
40
0
40
0
40
0.038954865816747244
40
0.069882874589565033
40
0.069882874589565033
40
0.069882874589565033
40
0.069882874589565033
10
-48.143974273670011
20
-49.733369273724698
30
0
10
-48.14780404438325
20
-49.729744703299502
30
0
10
-48.154674441209124
20
-49.723242424440258
30
0
10
-48.156398193967512
20
-49.714011420906836
30
0
10
-48.157161073868302
20
-49.709926062942671
30
0
0
SPLINE
5
394
100
AcDbEntity
8
0
100
AcDbSpline
70
0
71
3
72
9
73
5
74
0
42
0.000000001
43
0.0000000001
44
0.0000000001
40
0
40
0
40
0
40
0
40
0.025229428224766346
40
0.05235206237705925
40
0.05235206237705925
40
0.05235206237705925
40
0.05235206237705925
10
-48.157161073868302
20
-49.709926062942671
30
0
10
-48.156761916189552
20
-49.706553880345567
30
0
10
-48.155933648203849
20
-49.699556467954878
30
0
10
-48.151192479989788
20
-49.694322618133533
30
0
10
-48.148736168526867
20
-49.691611057452505
30
0
0
SPLINE
5
395
100
AcDbEntity
8
0
100
AcDbSpline
70
0
71
3
72
9
73
5
74
0
42
0.000000001
43
0.0000000001
44
0.0000000001
40
0
40
0
40
0
40
0
40
0.027675652331492398
40
0.05445306727303964
40
0.05445306727303964
40
0.05445306727303964
40
0.05445306727303964
10
-48.148736168526867
20
-49.691611057452505
30
0
10
-48.145852194307714
20
-49.689260794183369
30
0
10
-48.140177847763404
20
-49.684636547485553
30
0
10
-48.132900757021709
20
-49.683909796835259
30
0
10
-48.129322231731649
20
-49.683552415613292
30
0
0
SPLINE
5
396
100
AcDbEntity
8
0
100
AcDbSpline
70
0
71
3
72
9
73
5
74
0
42
0.000000001
43
0.0000000001
44
0.0000000001
40
0
40
0
40
0
40
0
40
0.062666433413265027
40
0.14853138779382247
40
0.14853138779382247
40
0.14853138779382247
40
0.14853138779382247
10
-48.129322231731649
20
-49.683552415613292
30
0
10
-48.121111689902435
20
-49.684375572573401
30
0
10
-48.101651141311933
20
-49.686326611415033
30
7.4534982974355595e-79
10
-48.083207691925374
20
-49.692924860936394
30
7.4506404284156852e-79
10
-48.072545663086082
20
-49.696739262744373
30
7.4489883143631478e-79
0
SPLINE
5
397
100
AcDbEntity
8
0
100
AcDbSpline
70
0
71
3
72
9
73
5
74
0
42
0.000000001
43
0.0000000001
44
0.0000000001
40
0
40
0
40
0
40
0
40
0.096368848244129834
40
0.1900019050516874
40
0.1900019050516874
40
0.1900019050516874
40
0.1900019050516874
10
-48.072545663086082
20
-49.696739262744373
30
7.4489883143631478e-79
10
-48.060734061628466
20
-49.701303397421661
30
7.4471580705094444e-79
10
-48.037446175350382
20
-49.710302096683876
30
7.4435495411428613e-79
10
-48.015563740480445
20
-49.722319087765044
30
7.4401587907803079e-79
10
-48.004780062986747
20
-49.72824106843283
30
7.4384878268958613e-79
0
SPLINE
5
398
100
AcDbEntity
8
0
100
AcDbSpline
70
0
71
3
72
9
73
5
74
0
42
0.000000001
43
0.0000000001
44
0.0000000001
40
0
40
0
40
0
40
0
40
0.14258439435878775
40
0.27242364970526145
40
0.27242364970526145
40
0.27242364970526145
40
0.27242364970526145
10
-48.004780062986747
20
-49.72824106843283
30
7.4384878268958613e-79
10
-47.988826343852637
20
-49.738471723785473
30
7.4360157492107409e-79
10
-47.958344954830842
20
-49.758018550649517
30
7.4312925645427148e-79
10
-47.938441846190706
20
-49.788210397040224
30
7.4282085168469886e-79
10
-47.928955867980982
20
-49.802600068631314
30
7.4267386354446243e-79
0
SPLINE
5
399
100
AcDbEntity
8
0
100
AcDbSpline
70
0
71
3
72
9
73
5
74
0
42
0.000000001
43
0.0000000001
44
0.0000000001
40
0
40
0
40
0
40
0
40
0.1333241503056159
40
0.28503732279857652
40
0.28503732279857652
40
0.28503732279857652
40
0.28503732279857652
10
-47.928955867980982
20
-49.802600068631314
30
7.4267386354446243e-79
10
-47.922019187598906
20
-49.818829341689217
30
7.4256637755553912e-79
10
-47.907189070169423
20
-49.853526345441267
30
7.4233658033987463e-79
10
-47.905855923631535
20
-49.891290839553136
30
7.4231592282560097e-79
10
-47.905146346763935
20
-49.911391264132803
30
7.4230492771452038e-79
0
SPLINE
5
400
100
AcDbEntity
8
0
100
AcDbSpline
70
0
71
3
72
9
73
5
74
0
42
0.000000001
43
0.0000000001
44
0.0000000001
40
0
40
0
40
0
40
0
40
0.066332007778755961
40
0.12420666427127275
40
0.12420666427127275
40
0.12420666427127275
40
0.12420666427127275
10
-47.905146346763935
20
-49.911391264132803
30
7.4230492771452038e-79
10
-47.905252846550681
20
-49.920106426388266
30
7.4230657796136299e-79
10
-47.905452267368787
20
-49.936425565045191
30
7.4230966804807087e-79
10
-47.907742304226339
20
-49.952581368326733
30
7.4234515287117746e-79
10
-47.908809357248529
20
-49.960109237871947
30
7.4236168718485585e-79
0
SPLINE
5
401
100
AcDbEntity
8
0
100
AcDbSpline
70
0
71
3
72
9
73
5
74
0
42
0.000000001
43
0.0000000001
44
0.0000000001
40
0
40
0
40
0
40
0
40
0.10250942966341235
40
0.30246281923845664
40
0.30246281923845664
40
0.30246281923845664
40
0.30246281923845664
10
-47.908809357248529
20
-49.960109237871947
30
7.4236168718485585e-79
10
-47.911573781204019
20
-49.973275351187553
30
7.4240452278146572e-79
10
-47.919730449969933
20
-50.012123091975162
30
7.4253091286437771e-79
10
-47.929033113685293
20
-50.050714370210628
30
7.4267506049032999e-79
10
-47.935182957645111
20
-50.076226454342624
30
7.427703542076898e-79
0
SPLINE
5
402
100
AcDbEntity
8
0
100
AcDbSpline
70
0
71
3
72
9
73
5
74
0
42
0.000000001
43
0.0000000001
44
0.0000000001
40
0
40
0
40
0
40
0
40
0.20710400287774969
40
0.34365790969859789
40
0.34365790969859789
40
0.34365790969859789
40
0.34365790969859789
10
-47.935182957645111
20
-50.076226454342624
30
7.427703542076898e-79
10
-47.941496098335527
20
-50.102718064646965
30
7.428681782579478e-79
10
-47.951971804759133
20
-50.146676903178516
30
7.4303050254025459e-79
10
-47.955685405697778
20
-50.191678299148286
30
7.4308804592518376e-79
10
-47.957161020552654
20
-50.209559791931198
30
7.4311091102970214e-79
0
SPLINE
5
403
100
AcDbEntity
8
0
100
AcDbSpline
70
0
71
3
72
9
73
5
74
0
42
0.000000001
43
0.0000000001
44
0.0000000001
40
0
40
0
40
0
40
0
40
0.081990665974378499
40
0.15280111951391909
40
0.15280111951391909
40
0.15280111951391909
40
0.15280111951391909
10
-47.957161020552654
20
-50.209559791931198
30
7.4311091102970214e-79
10
-47.956524495924008
20
-50.220708448086747
30
7.4310104788545791e-79
10
-47.955338242895095
20
-50.241485534373332
30
7.4308266653113534e-79
10
-47.941064883853457
20
-50.256464471373704
30
7.4286149645736166e-79
10
-47.934450383707869
20
-50.263405947495812
30
7.4275900274996546e-79
0
SPLINE
5
404
100
AcDbEntity
8
0
100
AcDbSpline
70
0
71
3
72
9
73
5
74
0
42
0.000000001
43
0.0000000001
44
0.0000000001
40
0
40
0
40
0
40
0
40
0.080486897114224396
40
0.18618930857146077
40
0.18618930857146077
40
0.18618930857146077
40
0.18618930857146077
10
-47.934450383707869
20
-50.263405947495812
30
7.4275900274996546e-79
10
-47.924990364458495
20
-50.268404136379949
30
7.4261241685177702e-79
10
-47.903106623051315
20
-50.27996638273077
30
7.4227332157032662e-79
10
-47.878238630113387
20
-50.280384618357928
30
7.4188798439660074e-79
10
-47.864120704428991
20
-50.28062205688051
30
7.4166922281034491e-79
0
SPLINE
5
405
100
AcDbEntity
8
0
100
AcDbSpline
70
0
71
3
72
9
73
5
74
0
42
0.000000001
43
0.0000000001
44
0.0000000001
40
0
40
0
40
0
40
0
40
0.10018064264331954
40
0.17986637953063239
40
0.17986637953063239
40
0.17986637953063239
40
0.17986637953063239
10
-47.788662819858246
20
-49.927874764380668
30
7.4049997975770237e-79
10
-47.799137064400881
20
-49.919885418541348
30
7.4066228138771515e-79
10
-47.817942737777422
20
-49.905541183237794
30
7.4095368106146516e-79
10
-47.838774448683303
20
-49.894364725375951
30
7.4127647480780353e-79
10
-47.848003467683355
20
-49.889413248158057
30
7.4141948128631687e-79
0
SPLINE
5
406
100
AcDbEntity
8
0
100
AcDbSpline
70
0
71
3
72
9
73
5
74
0
42
0.000000001
43
0.0000000001
44
0.0000000001
40
0
40
0
40
0
40
0
40
0.11267970047058488
40
0.24758884679551585
40
0.24758884679551585
40
0.24758884679551585
40
0.24758884679551585
10
-47.848003467683355
20
-49.889413248158057
30
7.4141948128631687e-79
10
-47.850273579223014
20
-49.874756236920007
30
7.4145465736051471e-79
10
-47.855261649797001
20
-49.842550679976377
30
7.415319490431254e-79
10
-47.867160763816507
20
-49.812185886681306
30
7.417163294624687e-79
10
-47.873644494142695
20
-49.795640358097153
30
7.4181679685142647e-79
0
SPLINE
5
407
100
AcDbEntity
8
0
100
AcDbSpline
70
0
71
3
72
9
73
5
74
0
42
0.000000001
43
0.0000000001
44
0.0000000001
40
0
40
0
40
0
40
0
40
0.24076819533010832
40
0.43313499899255437
40
0.43313499899255437
40
0.43313499899255437
40
0.43313499899255437
10
-47.873644494142695
20
-49.795640358097153
30
7.4181679685142647e-79
10
-47.845372115262165
20
-49.809845420411207
30
7.4137870767392318e-79
10
-47.794510925805042
20
-49.835399915441805
30
7.4059059795205407e-79
10
-47.740746265278716
20
-49.854032014727785
30
7.3975749805592394e-79
10
-47.716867945772094
20
-49.862307026891436
30
7.3938749617539518e-79
0
SPLINE
5
408
100
AcDbEntity
8
0
100
AcDbSpline
70
0
71
3
72
9
73
5
74
0
42
0.000000001
43
0.0000000001
44
0.0000000001
40
0
40
0
40
0
40
0
40
0.2405632169581691
40
0.44841240516906272
40
0.44841240516906272
40
0.44841240516906272
40
0.44841240516906272
10
-47.716867945772094
20
-49.862307026891436
30
7.3938749617539518e-79
10
-47.686356918161593
20
-49.870840035857121
30
7.3891471844957495e-79
10
-47.62948403689569
20
-49.886745655685523
30
7.3803345572027629e-79
10
-47.570556034858569
20
-49.890070106472542
30
7.3712034826464108e-79
10
-47.543241586718608
20
-49.89161106383537
30
7.3669710251761151e-79
0
SPLINE
5
409
100
AcDbEntity
8
0
100
AcDbSpline
70
0
71
3
72
9
73
5
74
0
42
0.000000001
43
0.0000000001
44
0.0000000001
40
0
40
0
40
0
40
0
40
0.074484454352234289
40
0.14568919282212409
40
0.14568919282212409
40
0.14568919282212409
40
0.14568919282212409
10
-47.543241586718608
20
-49.89161106383537
30
7.3669710251761151e-79
10
-47.533458006902499
20
-49.891444962555077
30
7.3654550294925583e-79
10
-47.514321640009349
20
-49.891120073802611
30
7.3624897907809361e-79
10
-47.495364127578469
20
-49.888497298517684
30
7.3595522661165103e-79
10
-47.486098754570818
20
-49.887215432480744
30
7.3581165681664597e-79
0
LINE
5
410
100
AcDbEntity
8
0
100
AcDbLine
10
-47.486098754570818
20
-49.887215432480744
30
7.3581165681664597e-79
11
-47.404780090770956
21
-49.873296011412414
31
7.345515991932571e-79
0
SPLINE
5
411
100
AcDbEntity
8
0
100
AcDbSpline
70
0
71
3
72
9
73
5
74
0
42
0.000000001
43
0.0000000001
44
0.0000000001
40
0
40
0
40
0
40
0
40
0.098496641351012923
40
0.19441944877704093
40
0.19441944877704093
40
0.19441944877704093
40
0.19441944877704093
10
-47.404780090770956
20
-49.873296011412414
30
7.345515991932571e-79
10
-47.391983165913011
20
-49.871373022133632
30
7.3435330691975299e-79
10
-47.36672371500385
20
-49.86757729356404
30
7.3396190398476343e-79
10
-47.341188277731632
20
-49.866991587427862
30
7.3356622455647593e-79
10
-47.328589585330178
20
-49.866702611313272
30
7.3337100395565237e-79
0
SPLINE
5
412
100
AcDbEntity
8
0
100
AcDbSpline
70
0
71
3
72
9
73
5
74
0
42
0.000000001
43
0.0000000001
44
0.0000000001
40
0
40
0
40
0
40
0
40
0.1916585620726009
40
0.36430780694421683
40
0.36430780694421683
40
0.36430780694421683
40
0.36430780694421683
10
-47.328589585330178
20
-49.866702611313272
30
7.3337100395565237e-79
10
-47.302738410771269
20
-49.868356571200643
30
7.3297043208132011e-79
10
-47.253600064909527
20
-49.871500445874567
30
7.3220901834909005e-79
10
-47.216003865736873
20
-49.903038468496725
30
7.3162645371799205e-79
10
-47.198186637356159
20
-49.917984664231952
30
7.3135037030245503e-79
0
SPLINE
5
413
100
AcDbEntity
8
0
100
AcDbSpline
70
0
71
3
72
9
73
5
74
0
42
0.000000001
43
0.0000000001
44
0.0000000001
40
0
40
0
40
0
40
0
40
0.15253013964765225
40
0.30207410381959932
40
0.30207410381959932
40
0.30207410381959932
40
0.30207410381959932
10
-47.198186637356159
20
-49.917984664231952
30
7.3135037030245503e-79
10
-47.185580141015528
20
-49.934120698162936
30
7.311550287772016e-79
10
-47.160613953393863
20
-49.966076861057459
30
7.307681700467499e-79
10
-47.156834347459494
20
-50.006431661275371
30
7.3070960389417861e-79
10
-47.154963226276692
20
-50.026409596231218
30
7.3068061029786882e-79
0
SPLINE
5
414
100
AcDbEntity
8
0
100
AcDbSpline
70
0
71
3
72
9
73
5
74
0
42
0.000000001
43
0.0000000001
44
0.0000000001
40
0
40
0
40
0
40
0
40
0.16628939461348458
40
0.33357132960152203
40
0.33357132960152203
40
0.33357132960152203
40
0.33357132960152203
10
-47.154963226276692
20
-50.026409596231218
30
7.3068061029786882e-79
10
-47.157279742516188
20
-50.048821903746266
30
7.3071650542711549e-79
10
-47.161926601709133
20
-50.093780292311024
30
7.3078850993478057e-79
10
-47.193882698603247
20
-50.1257578579227
30
7.3128367945212874e-79
10
-47.209908289679966
20
-50.141794215298255
30
7.3153200089842351e-79
0
SPLINE
5
415
100
AcDbEntity
8
0
100
AcDbSpline
70
0
71
3
72
9
73
5
74
0
42
0.000000001
43
0.0000000001
44
0.0000000001
40
0
40
0
40
0
40
0
40
0.18036459397837171
40
0.37921371708072932
40
0.37921371708072932
40
0.37921371708072932
40
0.37921371708072932
10
-47.209908289679966
20
-50.141794215298255
30
7.3153200089842351e-79
10
-47.23010672577103
20
-50.154926735954525
30
7.3184498185737914e-79
10
-47.272573619413286
20
-50.182537653723116
30
7.3250301939236956e-79
10
-47.32325770366959
20
-50.185366032135498
30
7.3328838481486119e-79
10
-47.349835027367689
20
-50.186849155086414
30
7.3370020859270241e-79
0
SPLINE
5
416
100
AcDbEntity
8
0
100
AcDbSpline
70
0
71
3
72
9
73
5
74
0
42
0.000000001
43
0.0000000001
44
0.0000000001
40
0
40
0
40
0
40
0
40
0.22940828602079152
40
0.4839485131841732
40
0.4839485131841732
40
0.4839485131841732
40
0.4839485131841732
10
-47.349835027367689
20
-50.186849155086414
30
7.3370020859270241e-79
10
-47.380115955453498
20
-50.184265015253587
30
7.3416942085585174e-79
10
-47.4439951220658
20
-50.178813640102113
30
7.3515924812433298e-79
10
-47.501352189147852
20
-50.149993125125249
30
7.3604801346127749e-79
10
-47.531520028260388
20
-50.134834528230485
30
7.365154733761191e-79
0
SPLINE
5
417
100
AcDbEntity
8
0
100
AcDbSpline
70
0
71
3
72
9
73
5
74
0
42
0.000000001
43
0.0000000001
44
0.0000000001
40
0
40
0
40
0
40
0
40
0.090033245467383352
40
0.1875108269045006
40
0.1875108269045006
40
0.1875108269045006
40
0.1875108269045006
10
-47.531520028260388
20
-50.134834528230485
30
7.365154733761191e-79
10
-47.54178596886333
20
-50.128960013643145
30
7.3667454727273197e-79
10
-47.563166682192247
20
-50.116725254335989
30
7.3700584797990911e-79
10
-47.582834281877659
20
-50.101888198862909
30
7.3731060346603411e-79
10
-47.593058491762804
20
-50.094175149397763
30
7.3746903073238242e-79
0
SPLINE
5
418
100
AcDbEntity
8
0
100
AcDbSpline
70
0
71
3
72
9
73
5
74
0
42
0.000000001
43
0.0000000001
44
0.0000000001
40
0
40
0
40
0
40
0
40
0.13005862714687533
40
0.31751597861289216
40
0.31751597861289216
40
0.31751597861289216
40
0.31751597861289216
10
-47.593058491762804
20
-50.094175149397763
30
7.3746903073238242e-79
10
-47.606308850931057
20
-50.083413936814814
30
7.3767434910952248e-79
10
-47.638657345226072
20
-50.057142269803627
30
7.3817559894488521e-79
10
-47.66986938791883
20
-50.029526683269012
30
7.3865923911429739e-79
10
-47.688296576630989
20
-50.013222796032927
30
7.3894477405215038e-79
0
SPLINE
5
419
100
AcDbEntity
8
0
100
AcDbSpline
70
0
71
3
72
9
73
5
74
0
42
0.000000001
43
0.0000000001
44
0.0000000001
40
0
40
0
40
0
40
0
40
0.19568412365671775
40
0.33467836599758605
40
0.33467836599758605
40
0.33467836599758605
40
0.33467836599758605
10
-47.688296576630989
20
-50.013222796032927
30
7.3894477405215038e-79
10
-47.707502818557892
20
-49.996169130693794
30
7.392423806583805e-79
10
-47.74035123540915
20
-49.967002263482925
30
7.3975137694700077e-79
10
-47.77448629379662
20
-49.939356317243707
30
7.4028031014063768e-79
10
-47.788662819858246
20
-49.927874764380668
30
7.4049997975770237e-79
0
ENDSEC
0
SECTION
2
OBJECTS
0
DICTIONARY
5
C
100
AcDbDictionary
3
ACAD_GROUP
350
D
3
ACAD_MLINESTYLE
350
17
0
DICTIONARY
5
D
100
AcDbDictionary
0
DICTIONARY
5
1A
330
C
100
AcDbDictionary
0
DICTIONARY
5
17
100
AcDbDictionary
0
ENDSEC
0
EOF
